<?xml version="1.0" encoding="UTF-8" standalone="no"?>
<!-- Created with Serif DrawPlus 11, 0, 3, 23 (Feb 25, 14:12:55) (http://www.serif.com) -->
<svg version="1.1" xmlns="http://www.w3.org/2000/svg" xmlns:xlink="http://www.w3.org/1999/xlink" width="663.337" height="616.061">
	<g id="dp_group001" transform="matrix(1,0,0,1,510.805,-109.431)">
		<g id="dp_group002">
			<g id="dp_group003">
				<path id="dp_path004" fill="black" fill-rule="evenodd" d="M -162.445,305.915 L -160.499,307.483 L -156.605,310.619 L -153.633,296.965 L -166.34,302.779 Z "/>
				<path id="dp_path005" fill="black" d="M -162.445,305.915 L -212.827,368.464 L -210.88,370.032 L -160.499,307.483 Z "/>
			</g>
		</g>
		<path id="dp_path006" fill="none" fill-rule="evenodd" stroke="#1127d4" stroke-width="1.33333" d="M -220.037,543.013 C -258.551,571.844 -307.603,611.217 -348.623,667.603"/>
		<path id="dp_path007" fill="none" fill-rule="evenodd" stroke="#1127d4" stroke-width="1.33333" d="M -297.003,463.492 C -341.705,524.524 -376.897,556.659 -454.003,616.492"/>
		<path id="dp_path008" fill="none" fill-rule="evenodd" stroke="#1127d4" stroke-width="1.33333" d="M -260.359,479.901 C -294.475,511.088 -335.212,561.291 -399.003,623.492"/>
		<path id="dp_path009" fill="none" fill-rule="evenodd" stroke="#1127d4" stroke-width="1.33333" d="M -246.163,515.492 C -299.436,552.509 -345.632,592.975 -396.609,655.855"/>
		<path id="dp_path010" fill="black" fill-rule="evenodd" d="M -322.552,606.724 C -322.491,606.6 -322.497,606.499 -322.577,606.423 C -322.656,606.347 -322.772,606.309 -322.928,606.309 C -327.304,606.432 -331.631,606.432 -335.913,606.309 C -336.224,606.309 -336.444,606.447 -336.568,606.724 L -336.663,607.023 C -336.724,607.148 -336.717,607.249 -336.639,607.325 C -336.56,607.401 -336.444,607.439 -336.288,607.439 C -335.473,607.439 -334.693,607.451 -333.943,607.475 C -333.192,607.499 -332.661,607.572 -332.351,607.695 C -332.007,607.816 -331.943,608.169 -332.161,608.756 L -338.584,628.871 C -338.771,629.432 -339.069,629.799 -339.475,629.969 C -339.88,630.091 -340.467,630.159 -341.232,630.171 C -341.997,630.183 -342.772,630.188 -343.552,630.188 C -343.708,630.188 -343.848,630.231 -343.973,630.316 C -344.099,630.403 -344.177,630.503 -344.208,630.624 L -344.303,630.917 C -344.367,631.04 -344.357,631.133 -344.279,631.207 C -344.201,631.28 -344.083,631.317 -343.928,631.317 C -339.555,631.171 -335.224,631.171 -330.945,631.317 C -330.631,631.317 -330.411,631.183 -330.287,630.917 L -330.195,630.624 C -330.1,630.335 -330.225,630.188 -330.569,630.188 C -331.381,630.188 -332.161,630.183 -332.912,630.171 C -333.663,630.159 -334.193,630.091 -334.507,629.969 C -334.819,629.823 -334.883,629.456 -334.693,628.871 L -328.271,608.756 C -328.084,608.169 -327.788,607.816 -327.38,607.695 C -326.975,607.572 -326.389,607.499 -325.623,607.475 C -324.857,607.451 -324.083,607.439 -323.303,607.439 C -323.147,607.439 -323.007,607.401 -322.881,607.325 C -322.756,607.249 -322.677,607.148 -322.647,607.023 Z "/>
		<g id="dp_group011">
			<g id="dp_group012">
				<path id="dp_path013" fill="black" fill-rule="evenodd" d="M -282.903,290.361 L -280.936,291.832 L -277.001,294.772 L -274.569,281.261 L -286.837,287.421 Z "/>
				<path id="dp_path014" fill="black" d="M -282.903,290.363 L -293.487,304.527 L -291.519,305.996 L -280.935,291.832 Z M -304.071,318.691 L -314.655,332.855 L -312.687,334.324 L -302.103,320.16 Z M -325.239,347.019 L -335.823,361.183 L -333.855,362.652 L -323.271,348.488 Z M -346.407,375.347 L -356.991,389.511 L -355.023,390.98 L -344.439,376.816 Z M -367.575,403.675 L -378.159,417.839 L -376.191,419.308 L -365.607,405.144 Z M -388.741,432.003 L -399.325,446.167 L -397.357,447.636 L -386.773,433.472 Z M -409.908,460.331 L -420.492,474.495 L -418.524,475.964 L -407.94,461.8 Z M -431.075,488.659 L -441.659,502.823 L -439.691,504.292 L -429.107,490.128 Z "/>
			</g>
		</g>
		<g id="dp_group015">
			<g id="dp_group016">
				<path id="dp_path017" fill="black" fill-rule="evenodd" d="M -403.261,386.275 L -415.363,360.84 C -415.503,360.572 -415.713,360.437 -415.993,360.437 L -416.308,360.437 C -416.609,360.437 -416.82,360.572 -416.936,360.84 L -429.04,386.275 C -429.085,386.372 -429.085,386.464 -429.04,386.549 C -428.995,386.635 -428.912,386.677 -428.796,386.677 L -403.505,386.677 C -403.389,386.677 -403.307,386.635 -403.261,386.549 C -403.212,386.464 -403.212,386.372 -403.261,386.275 Z M -407.561,384.085 L -426.801,384.085 L -417.183,363.884 Z "/>
				<text id="dp_text001" transform="matrix(1,9.4369e-016,-8.88178e-016,1,-398.046,386.175)" xml:space="preserve" fill="black" font-family="Arial" font-size="31" font-weight="400" font-style="italic" x="0" y="0">t </text>
			</g>
			<text id="dp_text002" transform="matrix(1,9.4369e-016,-8.88178e-016,1,-510.805,351.227)" xml:space="preserve" fill="black" font-family="Arial" font-size="31" font-weight="400" x="0" y="0">elapsed </text>
			<text id="dp_text003" transform="matrix(1,9.4369e-016,-8.88178e-016,1,-510.805,351.227)" xml:space="preserve" fill="black" font-family="Arial" font-size="31" font-weight="400" x="0" y="35.1307">time</text>
			<text id="dp_text004" transform="matrix(1,9.4369e-016,-8.88178e-016,1,-510.805,351.227)" xml:space="preserve" fill="black" font-family="Arial" font-size="31" font-weight="700" x="57.844" y="35.1307"> </text>
		</g>
		<path id="dp_path022" fill="#1127d4" fill-rule="evenodd" stroke="#1127d4" stroke-width="1.33333" d="M -273.744,585.673 L -278.692,603.352 L -289.639,594.857 Z "/>
		<path id="dp_path023" fill="#1127d4" fill-rule="evenodd" stroke="#1127d4" stroke-width="1.33333" d="M -307.651,562.953 L -316.293,579.148 L -325.152,568.493 Z "/>
		<path id="dp_path024" fill="#1127d4" fill-rule="evenodd" stroke="#1127d4" stroke-width="1.33333" d="M -333.368,556.024 L -338.316,573.703 L -349.263,565.208 Z "/>
		<path id="dp_path025" fill="#1127d4" fill-rule="evenodd" stroke="#1127d4" stroke-width="1.33333" d="M -345.784,520.977 L -350.732,538.656 L -361.679,530.161 Z "/>
		<path id="dp_path026" fill="none" fill-rule="evenodd" stroke="black" stroke-width="1.33333" d="M -405.967,596.075 L -409.288,607.595"/>
		<path id="dp_path027" fill="#fad44b" fill-rule="evenodd" stroke="black" stroke-width="1.33333" d="M -392.395,548.988 C -379.392,552.736 -371.889,566.316 -375.637,579.319 C -379.385,592.321 -392.965,599.824 -405.968,596.076 C -418.971,592.328 -426.473,578.748 -422.725,565.745 C -418.977,552.743 -405.397,545.24 -392.395,548.988 Z "/>
		<path id="dp_path028" fill="none" fill-rule="evenodd" stroke="black" stroke-width="1.33333" d="M -389.073,537.469 L -394.331,555.709"/>
		<text id="dp_text005" transform="matrix(1,9.4369e-016,-8.88178e-016,1,-415.977,579.58)" xml:space="preserve" fill="black" font-family="Arial" font-size="24" font-weight="400" font-style="italic" x="0" y="0">+q </text>
		<path id="dp_path030" fill="#21d26d" fill-rule="evenodd" stroke="black" stroke-width="1.33333" d="M -212.164,437.079 C -158.624,465.781 -115.044,544.152 -146.123,548.149 C -179.483,552.44 -223.184,591.268 -276.724,562.568 C -330.264,533.867 -383.368,447.535 -352.035,447.796 C -303.304,448.204 -265.704,408.377 -212.164,437.079 Z "/>
		<path id="dp_path031" fill="#21d26d" fill-rule="evenodd" fill-opacity="0.513725" stroke="black" stroke-width="1.33333" d="M -194.531,440.443 C -151.727,482.349 -131.905,568.571 -162.393,563.816 C -195.117,558.712 -247.053,583.487 -289.859,541.581 C -332.663,499.676 -355.911,405.201 -326.347,414.061 C -280.365,427.84 -237.335,398.537 -194.531,440.443 Z "/>
		<text id="dp_text006" transform="matrix(1,9.4369e-016,-8.88178e-016,1,-216.671,395.564)" xml:space="preserve" fill="black" font-family="Arial" font-size="31" font-weight="700" x="0" y="0">A </text>
		<path id="dp_path033" fill="none" fill-rule="evenodd" stroke="#1127d4" stroke-width="1.33333" d="M -255.776,474.488 C -225.051,451.468 -175.388,394.712 -142.663,349.692"/>
		<path id="dp_path034" fill="none" fill-rule="evenodd" stroke="#1127d4" stroke-width="1.33333" d="M -201.751,526.112 C -155.121,495.401 -109.48,446.765 -56.5787,399.727"/>
		<path id="dp_path035" fill="none" fill-rule="evenodd" stroke="#1127d4" stroke-width="1.33333" d="M -242.048,503.613 C -188.168,448.956 -134.717,407.413 -77.8773,349.692"/>
		<path id="dp_path036" fill="#1127d4" fill-rule="evenodd" stroke="none" stroke-width="1.33333" d="M -159.963,373.2 L -164.267,391.045 L -175.515,382.955 Z "/>
		<path id="dp_path037" fill="#1127d4" fill-rule="evenodd" stroke="none" stroke-width="1.33333" d="M -100.6,372.139 L -107.699,389.068 L -117.509,379.284 Z "/>
		<path id="dp_path038" fill="#1127d4" fill-rule="evenodd" stroke="none" stroke-width="1.33333" d="M -114.775,454.439 L -123.471,470.605 L -132.293,459.921 Z "/>
		<g id="dp_group039">
			<path id="dp_path040" fill="none" fill-rule="evenodd" stroke="black" stroke-width="1.33333" d="M -96.5907,454.58 L -99.912,466.1"/>
			<path id="dp_path041" fill="#fad44b" fill-rule="evenodd" stroke="black" stroke-width="1.33333" d="M -83.0187,407.493 C -70.016,411.241 -62.5133,424.821 -66.2613,437.824 C -70.0093,450.827 -83.5893,458.329 -96.592,454.581 C -109.595,450.833 -117.097,437.253 -113.349,424.251 C -109.601,411.248 -96.0213,403.745 -83.0187,407.493 Z "/>
			<path id="dp_path042" fill="none" fill-rule="evenodd" stroke="black" stroke-width="1.33333" d="M -79.6973,395.975 L -84.9547,414.215"/>
			<text id="dp_text007" transform="matrix(1,9.4369e-016,-8.88178e-016,1,-106.601,438.085)" xml:space="preserve" fill="black" font-family="Arial" font-size="24" font-weight="400" font-style="italic" x="0" y="0">+q </text>
		</g>
		<g id="dp_group044">
			<g id="dp_group045">
				<path id="dp_path046" fill="black" fill-rule="evenodd" d="M -160.596,413.435 L -158.757,415.129 L -155.083,418.519 L -151.204,405.095 L -164.271,410.045 Z "/>
				<path id="dp_path047" fill="black" d="M -160.595,413.436 L -242.967,502.768 L -241.129,504.461 L -158.757,415.129 Z "/>
			</g>
		</g>
		<g id="dp_group048">
			<g id="dp_group049">
				<path id="dp_path050" fill="#8de7b4" fill-rule="evenodd" d="M -165.392,569.004 L -164.148,567.397 L -160.051,565.427 L -170.396,563.844 L -166.273,573.464 Z "/>
				<path id="dp_path051" fill="#8de7b4" d="M -165.392,569.004 L -112.288,610.123 L -111.043,608.515 L -164.147,567.396 Z "/>
			</g>
		</g>
		<path id="dp_path052" fill="none" fill-rule="evenodd" stroke="#1127d4" stroke-width="1.33333" d="M -310.644,485.153 C -254.692,435.137 -226.204,374.8 -169,325.036"/>
		<path id="dp_path053" fill="#1127d4" fill-rule="evenodd" stroke="#1127d4" stroke-width="1.33333" d="M -238.425,402.999 L -241.109,421.347 L -253.688,413.529 Z "/>
		<path id="dp_path054" fill="none" fill-rule="evenodd" stroke="black" stroke-width="1.33333" d="M -474.403,594.996 C -361.836,476.787 -309.308,358.344 -225.603,260.596"/>
		<path id="dp_path055" fill="none" fill-rule="evenodd" stroke="black" stroke-width="1.33333" d="M -271.203,722.196 C -190.307,622.044 -110.755,497.128 -20.8027,405.095"/>
		<path id="dp_path056" fill="black" fill-rule="evenodd" d="M -141.065,377.501 L -136.648,377.501 L -136.648,391.389 C -136.648,393.205 -136.807,394.601 -137.125,395.579 C -137.555,396.856 -138.331,397.883 -139.456,398.656 C -140.583,399.429 -142.068,399.815 -143.912,399.815 C -146.072,399.815 -147.736,399.209 -148.9,397.997 C -150.067,396.787 -150.655,395.009 -150.664,392.667 L -146.503,392.181 C -146.455,393.443 -146.268,394.331 -145.949,394.852 C -145.472,395.64 -144.747,396.036 -143.768,396.036 C -142.783,396.036 -142.085,395.756 -141.677,395.191 C -141.269,394.627 -141.065,393.455 -141.065,391.679 Z "/>
		<g id="dp_group057">
			<g id="dp_group058">
				<path id="dp_path059" fill="#21d26d" fill-rule="evenodd" d="M -131.027,523.28 L -131.232,521.257 L -129.621,517.007 L -138.208,522.989 L -128.592,527.12 Z "/>
				<path id="dp_path060" fill="#21d26d" d="M -131.027,523.279 L -56.0147,515.656 L -56.22,513.635 L -131.232,521.257 Z "/>
			</g>
		</g>
		<g id="dp_group061">
			<g id="dp_group062">
				<path id="dp_path063" fill="black" fill-rule="evenodd" d="M -212.816,416.476 L -210.457,417.303 L -205.74,418.956 L -207.501,405.095 L -217.533,414.821 Z "/>
				<path id="dp_path064" fill="black" d="M -212.816,416.476 L -243.228,503.201 L -240.868,504.028 L -210.456,417.303 Z "/>
			</g>
		</g>
		<g id="dp_group065">
			<g id="dp_group066">
				<path id="dp_path067" fill="black" fill-rule="evenodd" d="M -211.399,459.832 L -212.167,460.923 L -213.701,463.103 L -206.332,464.216 L -209.863,457.652 Z "/>
				<path id="dp_path068" fill="black" d="M -225.493,454.465 L -224.927,454.663 L -224.363,454.865 L -223.8,455.073 L -223.239,455.289 L -222.676,455.511 L -222.113,455.737 L -221.553,455.971 L -220.992,456.209 L -220.433,456.455 L -219.875,456.707 L -219.316,456.964 L -218.759,457.229 L -218.201,457.499 L -217.647,457.776 L -217.092,458.059 L -216.539,458.347 L -215.876,458.703 L -215.221,459.064 L -214.571,459.432 L -213.927,459.805 L -213.291,460.185 L -212.676,460.563 L -212.167,460.923 L -211.399,459.832 L -211.945,459.448 L -212.603,459.047 L -213.252,458.659 L -213.909,458.277 L -214.571,457.901 L -215.241,457.532 L -215.917,457.171 L -216.481,456.875 L -217.047,456.587 L -217.615,456.304 L -218.183,456.029 L -218.753,455.759 L -219.323,455.496 L -219.892,455.239 L -220.464,454.988 L -221.036,454.744 L -221.609,454.505 L -222.183,454.273 L -222.756,454.047 L -223.331,453.828 L -223.907,453.615 L -224.481,453.407 L -225.053,453.207 Z "/>
			</g>
		</g>
		<path id="dp_path069" fill="black" fill-rule="evenodd" d="M -186.471,466.4 C -186.6,465.996 -186.768,465.596 -186.976,465.205 C -187.183,464.811 -187.455,464.463 -187.791,464.16 C -188.128,463.856 -188.521,463.608 -188.973,463.416 C -189.428,463.225 -189.963,463.129 -190.585,463.129 C -191.207,463.129 -191.803,463.225 -192.371,463.416 C -192.941,463.608 -193.485,463.856 -194.003,464.16 C -194.521,464.463 -195.013,464.811 -195.479,465.205 C -195.943,465.596 -196.369,465.996 -196.759,466.4 C -197.923,467.592 -198.855,468.829 -199.555,470.113 C -200.251,471.396 -200.809,472.692 -201.224,474.005 C -201.664,475.319 -201.941,476.617 -202.057,477.897 C -202.173,479.18 -202.037,480.419 -201.652,481.611 C -201.523,482.013 -201.345,482.408 -201.125,482.791 C -200.905,483.173 -200.636,483.517 -200.312,483.82 C -199.989,484.123 -199.6,484.371 -199.145,484.563 C -198.693,484.755 -198.157,484.851 -197.537,484.851 C -196.915,484.851 -196.319,484.755 -195.751,484.563 C -195.18,484.371 -194.629,484.123 -194.099,483.82 C -193.568,483.517 -193.071,483.173 -192.605,482.791 C -192.139,482.408 -191.711,482.013 -191.323,481.611 C -190.187,480.419 -189.267,479.18 -188.567,477.897 C -187.867,476.617 -187.299,475.319 -186.859,474.005 C -186.445,472.692 -186.18,471.396 -186.064,470.113 C -185.948,468.829 -186.081,467.592 -186.471,466.4 Z M -188.645,466.657 C -188.516,467.748 -188.593,468.871 -188.877,470.023 C -189.163,471.171 -189.487,472.344 -189.847,473.535 L -197.963,473.535 C -197.6,472.344 -197.185,471.171 -196.72,470.023 C -196.253,468.871 -195.607,467.748 -194.779,466.657 C -194.184,465.892 -193.568,465.225 -192.933,464.66 C -192.3,464.093 -191.583,463.811 -190.779,463.811 C -190.391,463.811 -190.067,463.887 -189.809,464.039 C -189.549,464.189 -189.345,464.397 -189.188,464.66 C -189.035,464.923 -188.915,465.225 -188.84,465.569 C -188.761,465.912 -188.696,466.273 -188.645,466.657 Z M -190.159,474.469 C -190.521,475.66 -190.936,476.821 -191.401,477.96 C -191.868,479.097 -192.515,480.221 -193.344,481.327 C -193.911,482.096 -194.521,482.76 -195.167,483.323 C -195.813,483.885 -196.527,484.168 -197.301,484.168 C -197.691,484.168 -198.021,484.093 -198.292,483.943 C -198.565,483.793 -198.777,483.585 -198.933,483.323 C -199.087,483.06 -199.211,482.76 -199.301,482.416 C -199.393,482.075 -199.451,481.712 -199.476,481.327 C -199.58,480.221 -199.497,479.097 -199.224,477.96 C -198.953,476.821 -198.636,475.66 -198.275,474.469 Z "/>
		<text id="dp_text008" transform="matrix(1,9.4369e-016,-8.88178e-016,1,-108.605,637.027)" xml:space="preserve" fill="black" font-family="Arial" font-size="31" font-weight="400" x="0" y="0">reduced area  </text>
		<text id="dp_text009" transform="matrix(1,9.4369e-016,-8.88178e-016,1,-108.605,637.027)" xml:space="preserve" fill="black" font-family="Arial" font-size="31" font-weight="400" x="0" y="35.1307">|</text>
		<text id="dp_text010" transform="matrix(1,9.4369e-016,-8.88178e-016,1,-108.605,637.027)" xml:space="preserve" fill="black" font-family="Arial" font-size="31" font-weight="700" x="7.92533" y="35.1307">A</text>
		<text id="dp_text011" transform="matrix(1,9.4369e-016,-8.88178e-016,1,-108.605,637.027)" xml:space="preserve" fill="black" font-family="Arial" font-size="31" font-weight="400" x="30.0653" y="35.1307">|</text>
		<text id="dp_text012" transform="matrix(1,9.4369e-016,-8.88178e-016,1,-108.605,637.027)" xml:space="preserve" fill="black" font-family="Arial" font-size="31" font-weight="700" x="37.9907" y="35.1307"> </text>
		<text id="dp_text013" transform="matrix(1,9.4369e-016,-8.88178e-016,1,-108.605,637.027)" xml:space="preserve" fill="black" font-family="Arial" font-size="31" font-weight="400" x="46.4867" y="35.1307">cos</text>
		<text id="dp_text014" transform="matrix(1,9.4369e-016,-8.88178e-016,1,-108.605,637.027)" xml:space="preserve" fill="black" font-family="Arial" font-size="31" font-weight="700" x="94.28" y="35.1307"> </text>
		<path id="dp_path077" fill="black" fill-rule="evenodd" d="M 12.46,655.533 C 12.3307,655.129 12.1627,654.729 11.9547,654.339 C 11.748,653.944 11.476,653.596 11.14,653.293 C 10.8027,652.989 10.4093,652.741 9.95733,652.549 C 9.50267,652.359 8.968,652.263 8.34533,652.263 C 7.724,652.263 7.128,652.359 6.56,652.549 C 5.98933,652.741 5.44533,652.989 4.928,653.293 C 4.40933,653.596 3.91733,653.944 3.452,654.339 C 2.988,654.729 2.56133,655.129 2.172,655.533 C 1.008,656.725 0.076,657.963 -0.624,659.247 C -1.32,660.529 -1.87867,661.825 -2.29333,663.139 C -2.73333,664.452 -3.01067,665.751 -3.12667,667.031 C -3.24267,668.313 -3.10667,669.552 -2.72133,670.744 C -2.592,671.147 -2.41467,671.541 -2.19467,671.924 C -1.97467,672.307 -1.70533,672.651 -1.38133,672.953 C -1.05867,673.256 -0.669333,673.504 -0.214667,673.696 C 0.237333,673.888 0.773333,673.984 1.39333,673.984 C 2.016,673.984 2.612,673.888 3.18,673.696 C 3.75067,673.504 4.30133,673.256 4.832,672.953 C 5.36267,672.651 5.86,672.307 6.32533,671.924 C 6.792,671.541 7.22,671.147 7.608,670.744 C 8.744,669.552 9.664,668.313 10.364,667.031 C 11.064,665.751 11.632,664.452 12.072,663.139 C 12.4853,661.825 12.7507,660.529 12.8667,659.247 C 12.9827,657.963 12.8493,656.725 12.46,655.533 Z M 10.2853,655.791 C 10.4147,656.881 10.3373,658.004 10.0533,659.156 C 9.768,660.304 9.444,661.477 9.084,662.668 L 0.968,662.668 C 1.33067,661.477 1.74533,660.304 2.21067,659.156 C 2.67733,658.004 3.324,656.881 4.152,655.791 C 4.74667,655.025 5.36267,654.359 5.99733,653.793 C 6.63067,653.227 7.348,652.944 8.152,652.944 C 8.54,652.944 8.864,653.02 9.12133,653.172 C 9.38133,653.323 9.58533,653.531 9.74267,653.793 C 9.896,654.056 10.016,654.359 10.0907,654.703 C 10.1693,655.045 10.2347,655.407 10.2853,655.791 Z M 8.772,663.603 C 8.40933,664.793 7.99467,665.955 7.52933,667.093 C 7.06267,668.231 6.416,669.355 5.58667,670.46 C 5.02,671.229 4.40933,671.893 3.764,672.456 C 3.11733,673.019 2.404,673.301 1.62933,673.301 C 1.24,673.301 0.909333,673.227 0.638667,673.076 C 0.365333,672.927 0.153333,672.719 -0.00266667,672.456 C -0.156,672.193 -0.28,671.893 -0.370667,671.549 C -0.462667,671.208 -0.52,670.845 -0.545333,670.46 C -0.649333,669.355 -0.566667,668.231 -0.293333,667.093 C -0.0226667,665.955 0.294667,664.793 0.656,663.603 Z "/>
		<text id="dp_text015" transform="matrix(1,9.4369e-016,-8.88178e-016,1,-45.6446,521.555)" xml:space="preserve" fill="black" font-family="Arial" font-size="31" font-weight="400" x="0" y="0">area </text>
		<text id="dp_text016" transform="matrix(1,9.4369e-016,-8.88178e-016,1,-45.6446,521.555)" xml:space="preserve" fill="black" font-family="Arial" font-size="31" font-weight="700" x="69.9333" y="0">A </text>
		<text id="dp_text017" transform="matrix(1,9.4369e-016,-8.88178e-016,1,-443.847,718.057)" xml:space="preserve" fill="black" font-family="Arial" font-size="31" font-weight="400" x="0" y="0">current</text>
		<text id="dp_text018" transform="matrix(1,9.4369e-016,-8.88178e-016,1,-443.847,718.057)" xml:space="preserve" fill="black" font-family="Arial" font-size="31" font-weight="700" font-style="italic" x="95.5093" y="0"> </text>
		<path id="dp_path082" fill="black" fill-rule="evenodd" d="M -312.256,694.159 C -312.195,694.035 -312.201,693.933 -312.281,693.857 C -312.36,693.781 -312.476,693.744 -312.632,693.744 C -317.008,693.867 -321.335,693.867 -325.617,693.744 C -325.928,693.744 -326.148,693.881 -326.272,694.159 L -326.367,694.457 C -326.428,694.583 -326.421,694.684 -326.343,694.76 C -326.264,694.836 -326.148,694.873 -325.992,694.873 C -325.177,694.873 -324.397,694.885 -323.647,694.909 C -322.896,694.933 -322.365,695.007 -322.055,695.129 C -321.711,695.251 -321.647,695.604 -321.865,696.191 L -328.288,716.305 C -328.475,716.867 -328.773,717.233 -329.179,717.404 C -329.584,717.525 -330.171,717.593 -330.936,717.605 C -331.701,717.617 -332.476,717.623 -333.256,717.623 C -333.412,717.623 -333.552,717.665 -333.677,717.751 C -333.803,717.837 -333.881,717.937 -333.912,718.059 L -334.007,718.352 C -334.071,718.475 -334.061,718.568 -333.983,718.641 C -333.905,718.715 -333.787,718.752 -333.632,718.752 C -329.259,718.605 -324.928,718.605 -320.649,718.752 C -320.335,718.752 -320.115,718.617 -319.991,718.352 L -319.899,718.059 C -319.804,717.769 -319.929,717.623 -320.273,717.623 C -321.085,717.623 -321.865,717.617 -322.616,717.605 C -323.367,717.593 -323.897,717.525 -324.211,717.404 C -324.523,717.257 -324.587,716.891 -324.397,716.305 L -317.975,696.191 C -317.788,695.604 -317.492,695.251 -317.084,695.129 C -316.679,695.007 -316.093,694.933 -315.327,694.909 C -314.561,694.885 -313.787,694.873 -313.007,694.873 C -312.851,694.873 -312.711,694.836 -312.585,694.76 C -312.46,694.684 -312.381,694.583 -312.351,694.457 Z "/>
		<text id="dp_text019" transform="matrix(1,9.4369e-016,-8.88178e-016,1,15.1954,463.928)" xml:space="preserve" fill="black" font-family="Arial" font-size="31" font-weight="400" x="0" y="0">charge +</text>
		<text id="dp_text020" transform="matrix(1,9.4369e-016,-8.88178e-016,1,15.1954,463.928)" xml:space="preserve" fill="black" font-family="Arial" font-size="31" font-weight="400" font-style="italic" x="120.26" y="0">q</text>
		<text id="dp_text021" transform="matrix(1,9.4369e-016,-8.88178e-016,1,15.1954,463.928)" xml:space="preserve" fill="black" font-family="Arial" font-size="31" font-weight="700" x="137.336" y="0"> </text>
		<text id="dp_text022" transform="matrix(1,9.4369e-016,-8.88178e-016,1,-149.643,289.531)" xml:space="preserve" fill="black" font-family="Arial" font-size="31" font-weight="700" x="0" y="0">t </text>
		<text id="dp_text023" transform="matrix(1.45869,1.37655e-015,-8.88178e-016,1,-153.631,272.835)" xml:space="preserve" fill="black" font-family="Arial" font-size="21" font-weight="700" x="0" y="0">^ </text>
		<text id="dp_text024" transform="matrix(1,9.4369e-016,-8.88178e-016,1,-232.514,140.069)" xml:space="preserve" fill="black" font-family="Arial" font-size="31" font-weight="400" x="0" y="0">unit tangent  </text>
		<text id="dp_text025" transform="matrix(1,9.4369e-016,-8.88178e-016,1,-232.514,140.069)" xml:space="preserve" fill="black" font-family="Arial" font-size="31" font-weight="400" x="0" y="35.1307">vector</text>
		<text id="dp_text026" transform="matrix(1,9.4369e-016,-8.88178e-016,1,-232.514,140.069)" xml:space="preserve" fill="black" font-family="Arial" font-size="31" font-weight="700" x="83.5787" y="35.1307"> </text>
		<text id="dp_text027" transform="matrix(1,9.4369e-016,-8.88178e-016,1,-139.429,176.671)" xml:space="preserve" fill="black" font-family="Arial" font-size="31" font-weight="700" x="0" y="0">t </text>
		<text id="dp_text028" transform="matrix(1.45869,1.37655e-015,-8.88178e-016,1,-143.417,159.975)" xml:space="preserve" fill="black" font-family="Arial" font-size="21" font-weight="700" x="0" y="0">^ </text>
		<g id="dp_group093">
			<g id="dp_group094">
				<path id="dp_path095" fill="#fad44b" fill-rule="evenodd" d="M -59.5067,440.284 L -59.088,438.293 L -56.2627,434.733 L -66.2613,437.825 L -58.3533,444.681 Z "/>
				<path id="dp_path096" fill="#fad44b" d="M -59.5067,440.283 L 2.52933,453.32 L 2.948,451.331 L -59.088,438.293 Z "/>
			</g>
		</g>
		<g id="dp_group097">
			<g id="dp_group098">
				<path id="dp_path099" fill="#1127d4" fill-rule="evenodd" d="M -150.195,244.295 L -152.18,244.736 L -156.589,243.633 L -149.644,251.463 L -146.667,241.428 Z "/>
				<path id="dp_path100" fill="#1127d4" d="M -150.196,244.296 L -163.951,182.415 L -165.935,182.855 L -152.18,244.736 Z "/>
			</g>
		</g>
	</g>
</svg>