<?xml version="1.0" encoding="UTF-8" standalone="no"?>
<!-- Created with Serif DrawPlus 11, 0, 3, 23 (Feb 25, 14:12:55) (http://www.serif.com) -->
<svg version="1.1" xmlns="http://www.w3.org/2000/svg" xmlns:xlink="http://www.w3.org/1999/xlink" width="1326.94" height="725.743">
	<g id="dp_group001" transform="matrix(1,0,0,1,-216.845,-727.888)">
		<path id="dp_path002" fill="none" fill-rule="evenodd" stroke="#1127d4" stroke-width="1.33333" d="M 1142.77,1145.02 C 1123.41,1202.22 1128.96,1255.15 1139.75,1324.04"/>
		<path id="dp_path003" fill="#1127d4" fill-rule="evenodd" stroke="#1127d4" stroke-width="1.33333" d="M 1130.04,1227.13 L 1137.71,1243.81 L 1123.87,1244.42 Z "/>
		<path id="dp_path004" fill="none" fill-rule="evenodd" stroke="#1127d4" stroke-width="1.33333" d="M 1050.18,1146.38 C 1054.33,1221.92 1047.51,1269.09 1025.86,1364.25"/>
		<path id="dp_path005" fill="none" fill-rule="evenodd" stroke="#1127d4" stroke-width="1.33333" d="M 1088.91,1135.82 C 1082.32,1181.57 1082.67,1246.22 1072.82,1334.77"/>
		<path id="dp_path006" fill="none" fill-rule="evenodd" stroke="#1127d4" stroke-width="1.33333" d="M 1122.46,1154.33 C 1104.76,1216.74 1094.72,1277.33 1095.19,1358.27"/>
		<path id="dp_path007" fill="#1127d4" fill-rule="evenodd" stroke="#1127d4" stroke-width="1.33333" d="M 1105.04,1230.03 L 1108.63,1248.03 L 1095.02,1245.41 Z "/>
		<path id="dp_path008" fill="#1127d4" fill-rule="evenodd" stroke="#1127d4" stroke-width="1.33333" d="M 1080.76,1240.98 L 1088.15,1257.79 L 1074.3,1258.17 Z "/>
		<path id="dp_path009" fill="#1127d4" fill-rule="evenodd" stroke="#1127d4" stroke-width="1.33333" d="M 1048.93,1221.77 L 1056.32,1238.57 L 1042.47,1238.95 Z "/>
		<text id="dp_text001" transform="matrix(1,9.43686e-016,-8.88182e-016,1,531.189,1257.96)" xml:space="preserve" fill="black" font-family="Arial" font-size="23" font-weight="400" x="0" y="0">area </text>
		<text id="dp_text002" transform="matrix(1,9.43686e-016,-8.88182e-016,1,531.189,1257.96)" xml:space="preserve" fill="black" font-family="Arial" font-size="23" font-weight="700" x="52.988" y="0">A </text>
		<g id="dp_group012">
			<g id="dp_group013">
				<path id="dp_path014" fill="#21d26d" fill-rule="evenodd" d="M 519.935,1171.3 L 521.709,1170.31 L 526.251,1170.1 L 517.353,1164.59 L 517.375,1175.05 Z "/>
				<path id="dp_path015" fill="#21d26d" d="M 519.935,1171.3 L 553.139,1230.8 L 554.915,1229.81 L 521.711,1170.3 Z "/>
			</g>
		</g>
		<g id="dp_group016">
			<path id="dp_path017" fill="#21d26d" fill-rule="evenodd" stroke="#158b46" stroke-width="1.33333" d="M 1088.03,1192.15 C 1148.71,1195.75 1204.14,1178.74 1211.85,1154.17 C 1219.55,1129.59 1176.61,1106.75 1115.94,1103.15 C 1055.26,1099.55 999.828,1116.56 992.121,1141.13 C 984.415,1165.71 1027.35,1188.55 1088.03,1192.15 Z "/>
			<path id="dp_path018" fill="none" fill-rule="evenodd" stroke="#158b46" stroke-width="1.33333" d="M 1205.18,1133.02 C 1190.57,1151.46 1179.72,1167.2 1163.31,1184.68"/>
			<path id="dp_path019" fill="none" fill-rule="evenodd" stroke="#158b46" stroke-width="1.33333" d="M 1181.46,1117.04 C 1162.58,1139.23 1144.87,1161.69 1122.21,1190.9"/>
			<path id="dp_path020" fill="none" fill-rule="evenodd" stroke="#158b46" stroke-width="1.33333" d="M 1148.77,1107.9 C 1129.39,1131.54 1108.28,1153.65 1082.45,1191.32"/>
			<path id="dp_path021" fill="none" fill-rule="evenodd" stroke="#158b46" stroke-width="1.33333" d="M 1112.81,1103.56 C 1095.91,1121.22 1070.43,1149.45 1043.94,1184.83"/>
			<path id="dp_path022" fill="none" fill-rule="evenodd" stroke="#158b46" stroke-width="1.33333" d="M 1070.97,1104.58 C 1050.23,1129.59 1038.73,1141.68 1014.23,1173.64"/>
			<path id="dp_path023" fill="none" fill-rule="evenodd" stroke="#158b46" stroke-width="1.33333" d="M 1171.22,1182.13 C 1145.6,1180.99 1047.11,1168.7 1001.45,1164.7"/>
			<path id="dp_path024" fill="none" fill-rule="evenodd" stroke="#158b46" stroke-width="1.33333" d="M 1203.11,1165.04 C 1168.41,1162.08 1044.49,1149.45 991.541,1147.13"/>
			<path id="dp_path025" fill="none" fill-rule="evenodd" stroke="#158b46" stroke-width="1.33333" d="M 1212.37,1147.97 C 1178.54,1144.13 1056.36,1128.14 1004.64,1125.76"/>
			<path id="dp_path026" fill="none" fill-rule="evenodd" stroke="#158b46" stroke-width="1.33333" d="M 1199.03,1127.54 C 1172.37,1124.73 1076.3,1113.06 1035.55,1111.26"/>
		</g>
		<g id="dp_group027">
			<g id="dp_group028">
				<path id="dp_path029" fill="black" fill-rule="evenodd" d="M 967.201,988.843 L 969.444,988.899 L 973.929,989.008 L 968.599,977.657 L 962.717,988.732 Z "/>
				<path id="dp_path030" fill="black" d="M 967.203,988.843 L 966.805,1004.99 L 969.048,1005.04 L 969.445,988.899 Z M 966.408,1021.13 L 966.011,1037.28 L 968.253,1037.33 L 968.651,1021.19 Z M 965.613,1053.42 L 965.216,1069.57 L 967.459,1069.63 L 967.856,1053.48 Z M 964.819,1085.71 L 964.421,1101.86 L 966.664,1101.92 L 967.061,1085.77 Z M 964.024,1118.01 L 963.627,1134.15 L 965.869,1134.21 L 966.267,1118.06 Z M 963.229,1150.3 L 962.832,1166.44 L 965.075,1166.5 L 965.472,1150.35 Z M 962.435,1182.59 L 962.037,1198.73 L 964.28,1198.79 L 964.677,1182.64 Z M 961.64,1214.88 L 961.244,1231.02 L 963.487,1231.08 L 963.883,1214.93 Z M 960.848,1247.17 L 960.451,1263.31 L 962.693,1263.37 L 963.091,1247.22 Z "/>
			</g>
		</g>
		<g id="dp_group031">
			<g id="dp_group032">
				<path id="dp_path033" fill="black" fill-rule="evenodd" d="M 298.337,1137.45 L 289.167,1118.17 C 289.061,1117.97 288.901,1117.87 288.689,1117.87 L 288.451,1117.87 C 288.223,1117.87 288.063,1117.97 287.975,1118.17 L 278.803,1137.45 C 278.769,1137.52 278.769,1137.59 278.803,1137.65 C 278.837,1137.72 278.9,1137.75 278.988,1137.75 L 298.152,1137.75 C 298.24,1137.75 298.303,1137.72 298.337,1137.65 C 298.375,1137.59 298.375,1137.52 298.337,1137.45 Z M 295.079,1135.79 L 280.5,1135.79 L 287.788,1120.48 Z "/>
				<text id="dp_text003" transform="matrix(1,9.43686e-016,-8.88182e-016,1,302.289,1137.37)" xml:space="preserve" fill="black" font-family="Arial" font-size="23" font-weight="400" font-style="italic" x="0" y="0">t </text>
			</g>
			<text id="dp_text004" transform="matrix(1,9.43686e-016,-8.88182e-016,1,216.846,1110.89)" xml:space="preserve" fill="black" font-family="Arial" font-size="23" font-weight="400" x="0" y="0">elapsed </text>
			<text id="dp_text005" transform="matrix(1,9.43686e-016,-8.88182e-016,1,216.846,1110.89)" xml:space="preserve" fill="black" font-family="Arial" font-size="23" font-weight="400" x="0" y="26.62">time</text>
			<text id="dp_text006" transform="matrix(1,9.43686e-016,-8.88182e-016,1,216.846,1110.89)" xml:space="preserve" fill="black" font-family="Arial" font-size="23" font-weight="700" x="43.8293" y="26.62"> </text>
		</g>
		<g id="dp_group038">
			<g id="dp_group039">
				<path id="dp_path040" fill="#8de7b4" fill-rule="evenodd" d="M 1195.41,1107.92 L 1194.78,1105.99 L 1195.46,1101.49 L 1188.33,1109.15 L 1198.6,1111.16 Z "/>
				<path id="dp_path041" fill="#8de7b4" d="M 1195.41,1107.92 L 1328.7,1064.64 L 1328.08,1062.71 L 1194.78,1105.99 Z "/>
			</g>
		</g>
		<g id="dp_group042">
			<text id="dp_text007" transform="matrix(1,9.43686e-016,-8.88182e-016,1,1343.69,1052.6)" xml:space="preserve" fill="black" font-family="Arial" font-size="23" font-weight="400" x="0" y="0">reduced area  </text>
			<text id="dp_text008" transform="matrix(1,9.43686e-016,-8.88182e-016,1,1343.69,1052.6)" xml:space="preserve" fill="black" font-family="Arial" font-size="23" font-weight="400" x="0" y="26.62">|</text>
			<text id="dp_text009" transform="matrix(1,9.43686e-016,-8.88182e-016,1,1343.69,1052.6)" xml:space="preserve" fill="black" font-family="Arial" font-size="23" font-weight="700" x="6.004" y="26.62">A</text>
			<text id="dp_text010" transform="matrix(1,9.43686e-016,-8.88182e-016,1,1343.69,1052.6)" xml:space="preserve" fill="black" font-family="Arial" font-size="23" font-weight="400" x="22.78" y="26.62">|</text>
			<text id="dp_text011" transform="matrix(1,9.43686e-016,-8.88182e-016,1,1343.69,1052.6)" xml:space="preserve" fill="black" font-family="Arial" font-size="23" font-weight="700" x="28.784" y="26.62"> </text>
			<text id="dp_text012" transform="matrix(1,9.43686e-016,-8.88182e-016,1,1343.69,1052.6)" xml:space="preserve" fill="black" font-family="Arial" font-size="23" font-weight="400" x="35.2213" y="26.62">cos</text>
			<text id="dp_text013" transform="matrix(1,9.43686e-016,-8.88182e-016,1,1343.69,1052.6)" xml:space="preserve" fill="black" font-family="Arial" font-size="23" font-weight="700" x="71.4347" y="26.62"> </text>
			<path id="dp_path050" fill="black" fill-rule="evenodd" d="M 1435.42,1066.63 C 1435.33,1066.32 1435.2,1066.02 1435.04,1065.72 C 1434.88,1065.42 1434.68,1065.16 1434.42,1064.93 C 1434.17,1064.7 1433.87,1064.51 1433.53,1064.37 C 1433.18,1064.22 1432.78,1064.15 1432.31,1064.15 C 1431.83,1064.15 1431.38,1064.22 1430.95,1064.37 C 1430.52,1064.51 1430.11,1064.7 1429.71,1064.93 C 1429.32,1065.16 1428.95,1065.42 1428.6,1065.72 C 1428.25,1066.02 1427.92,1066.32 1427.63,1066.63 C 1426.74,1067.53 1426.04,1068.47 1425.51,1069.44 C 1424.98,1070.41 1424.56,1071.39 1424.24,1072.39 C 1423.91,1073.39 1423.7,1074.37 1423.61,1075.34 C 1423.52,1076.31 1423.63,1077.25 1423.92,1078.15 C 1424.02,1078.46 1424.15,1078.76 1424.32,1079.05 C 1424.48,1079.34 1424.69,1079.6 1424.93,1079.83 C 1425.18,1080.06 1425.47,1080.24 1425.82,1080.39 C 1426.16,1080.54 1426.57,1080.61 1427.04,1080.61 C 1427.51,1080.61 1427.96,1080.54 1428.39,1080.39 C 1428.82,1080.24 1429.24,1080.06 1429.64,1079.83 C 1430.05,1079.6 1430.42,1079.34 1430.77,1079.05 C 1431.13,1078.76 1431.45,1078.46 1431.75,1078.15 C 1432.61,1077.25 1433.3,1076.31 1433.83,1075.34 C 1434.36,1074.37 1434.8,1073.39 1435.13,1072.39 C 1435.44,1071.39 1435.64,1070.41 1435.73,1069.44 C 1435.82,1068.47 1435.72,1067.53 1435.42,1066.63 Z M 1433.77,1066.82 C 1433.87,1067.65 1433.81,1068.5 1433.6,1069.37 C 1433.38,1070.24 1433.14,1071.13 1432.86,1072.03 L 1426.71,1072.03 C 1426.99,1071.13 1427.3,1070.24 1427.66,1069.37 C 1428.01,1068.5 1428.5,1067.65 1429.13,1066.82 C 1429.58,1066.24 1430.05,1065.74 1430.53,1065.31 C 1431.01,1064.88 1431.55,1064.67 1432.16,1064.67 C 1432.45,1064.67 1432.7,1064.72 1432.89,1064.84 C 1433.09,1064.95 1433.25,1065.11 1433.36,1065.31 C 1433.48,1065.51 1433.57,1065.74 1433.63,1066 C 1433.69,1066.26 1433.74,1066.53 1433.77,1066.82 Z M 1432.63,1072.74 C 1432.35,1073.64 1432.04,1074.52 1431.69,1075.39 C 1431.33,1076.25 1430.84,1077.1 1430.21,1077.94 C 1429.78,1078.52 1429.32,1079.02 1428.83,1079.45 C 1428.34,1079.88 1427.8,1080.09 1427.22,1080.09 C 1426.92,1080.09 1426.67,1080.03 1426.47,1079.92 C 1426.26,1079.81 1426.1,1079.65 1425.98,1079.45 C 1425.86,1079.25 1425.77,1079.02 1425.7,1078.76 C 1425.63,1078.5 1425.59,1078.23 1425.57,1077.94 C 1425.49,1077.1 1425.55,1076.25 1425.76,1075.39 C 1425.96,1074.52 1426.21,1073.64 1426.48,1072.74 Z "/>
		</g>
		<g id="dp_group051">
			<text id="dp_text014" transform="matrix(1,9.43686e-016,-8.88182e-016,1,409.003,1366.57)" xml:space="preserve" fill="black" font-family="Arial" font-size="23" font-weight="400" x="0" y="0">current</text>
			<text id="dp_text015" transform="matrix(1,9.43686e-016,-8.88182e-016,1,409.003,1366.57)" xml:space="preserve" fill="black" font-family="Arial" font-size="23" font-weight="700" font-style="italic" x="72.364" y="0"> </text>
			<path id="dp_path054" fill="black" fill-rule="evenodd" d="M 508.716,1348.46 C 508.763,1348.36 508.757,1348.29 508.697,1348.23 C 508.637,1348.17 508.549,1348.14 508.432,1348.14 C 505.116,1348.24 501.837,1348.24 498.592,1348.14 C 498.356,1348.14 498.189,1348.25 498.096,1348.46 L 498.024,1348.69 C 497.977,1348.78 497.983,1348.86 498.043,1348.91 C 498.101,1348.97 498.189,1349 498.308,1349 C 498.925,1349 499.516,1349.01 500.085,1349.03 C 500.653,1349.05 501.056,1349.1 501.292,1349.19 C 501.552,1349.29 501.6,1349.55 501.435,1350 L 496.568,1365.24 C 496.427,1365.67 496.2,1365.94 495.893,1366.07 C 495.587,1366.16 495.141,1366.22 494.561,1366.23 C 493.981,1366.23 493.395,1366.24 492.804,1366.24 C 492.685,1366.24 492.58,1366.27 492.484,1366.34 C 492.389,1366.4 492.329,1366.48 492.307,1366.57 L 492.235,1366.79 C 492.187,1366.88 492.193,1366.95 492.253,1367.01 C 492.312,1367.07 492.401,1367.09 492.519,1367.09 C 495.832,1366.98 499.115,1366.98 502.356,1367.09 C 502.595,1367.09 502.761,1366.99 502.856,1366.79 L 502.925,1366.57 C 502.997,1366.35 502.901,1366.24 502.641,1366.24 C 502.027,1366.24 501.435,1366.23 500.867,1366.23 C 500.297,1366.22 499.895,1366.16 499.657,1366.07 C 499.421,1365.96 499.373,1365.68 499.516,1365.24 L 504.383,1350 C 504.524,1349.55 504.749,1349.29 505.059,1349.19 C 505.365,1349.1 505.809,1349.05 506.389,1349.03 C 506.969,1349.01 507.556,1349 508.148,1349 C 508.265,1349 508.372,1348.97 508.467,1348.91 C 508.561,1348.86 508.621,1348.78 508.645,1348.69 Z "/>
		</g>
		<text id="dp_text016" transform="matrix(1,9.43686e-016,-8.88182e-016,1,241.591,866.8)" xml:space="preserve" fill="black" font-family="Arial" font-size="23" font-weight="400" x="0" y="0">charge +</text>
		<text id="dp_text017" transform="matrix(1,9.43686e-016,-8.88182e-016,1,241.591,866.8)" xml:space="preserve" fill="black" font-family="Arial" font-size="23" font-weight="400" font-style="italic" x="91.12" y="0">q</text>
		<text id="dp_text018" transform="matrix(1,9.43686e-016,-8.88182e-016,1,241.591,866.8)" xml:space="preserve" fill="black" font-family="Arial" font-size="23" font-weight="700" x="104.059" y="0"> </text>
		<g id="dp_group058">
			<g id="dp_group059">
				<path id="dp_path060" fill="#fad44b" fill-rule="evenodd" d="M 379.625,929.32 L 378.445,930.976 L 374.431,933.108 L 384.831,934.276 L 380.328,924.828 Z "/>
				<path id="dp_path061" fill="#fad44b" d="M 379.624,929.32 L 325.752,890.949 L 324.573,892.605 L 378.445,930.976 Z "/>
			</g>
		</g>
		<g id="dp_group062">
			<g id="dp_group063">
				<path id="dp_path064" fill="black" d="M 1304.09,852.089 L 1312.96,857.397 L 1259.69,946.332 L 1267.41,950.955 L 1320.67,862.02 L 1329.53,867.328 L 1333.43,831.968 L 1304.09,852.089 L 1306.91,852.004 L 1331.55,835.099 L 1328.28,864.805 L 1320.15,859.935 L 1266.88,948.869 L 1261.77,945.809 L 1315.04,856.875 L 1306.91,852.004 Z "/>
			</g>
		</g>
		<text id="dp_text019" transform="matrix(1,9.43686e-016,-8.88182e-016,1,1352.5,1266.76)" xml:space="preserve" fill="black" font-family="Arial" font-size="23" font-weight="400" x="0" y="0">no current passes  </text>
		<text id="dp_text020" transform="matrix(1,9.43686e-016,-8.88182e-016,1,1352.5,1266.76)" xml:space="preserve" fill="black" font-family="Arial" font-size="23" font-weight="400" font-style="italic" x="0" y="26.62">in</text>
		<text id="dp_text021" transform="matrix(1,9.43686e-016,-8.88182e-016,1,1352.5,1266.76)" xml:space="preserve" fill="black" font-family="Arial" font-size="23" font-weight="400" x="18.076" y="26.62"> plane of area</text>
		<text id="dp_text022" transform="matrix(1,9.43686e-016,-8.88182e-016,1,1352.5,1266.76)" xml:space="preserve" fill="black" font-family="Arial" font-size="23" font-weight="700" x="160.203" y="26.62"> </text>
		<text id="dp_text023" transform="matrix(1,9.43686e-016,-8.88182e-016,1,501.926,751.103)" xml:space="preserve" fill="black" font-family="Arial" font-size="23" font-weight="400" x="0" y="0">current passes  </text>
		<text id="dp_text024" transform="matrix(1,9.43686e-016,-8.88182e-016,1,501.926,751.103)" xml:space="preserve" fill="black" font-family="Arial" font-size="23" font-weight="400" font-style="italic" x="0" y="26.62">through</text>
		<text id="dp_text025" transform="matrix(1,9.43686e-016,-8.88182e-016,1,501.926,751.103)" xml:space="preserve" fill="black" font-family="Arial" font-size="23" font-weight="400" x="78.8693" y="26.62"> plane of area</text>
		<text id="dp_text026" transform="matrix(1,9.43686e-016,-8.88182e-016,1,501.926,751.103)" xml:space="preserve" fill="black" font-family="Arial" font-size="23" font-weight="700" x="220.996" y="26.62"> </text>
		<path id="dp_path073" fill="none" fill-rule="evenodd" stroke="#1127d4" stroke-width="1.33333" d="M 508.359,1118.89 C 489.003,1176.09 494.552,1229.03 505.345,1297.91"/>
		<path id="dp_path074" fill="#1127d4" fill-rule="evenodd" stroke="#1127d4" stroke-width="1.33333" d="M 495.636,1201.01 L 503.303,1217.69 L 489.46,1218.3 Z "/>
		<path id="dp_path075" fill="none" fill-rule="evenodd" stroke="#1127d4" stroke-width="1.33333" d="M 415.769,1120.26 C 419.927,1195.79 413.104,1242.96 391.451,1338.13"/>
		<path id="dp_path076" fill="none" fill-rule="evenodd" stroke="#1127d4" stroke-width="1.33333" d="M 454.507,1109.7 C 447.916,1155.45 448.268,1220.1 438.409,1308.65"/>
		<path id="dp_path077" fill="none" fill-rule="evenodd" stroke="#1127d4" stroke-width="1.33333" d="M 488.057,1128.21 C 470.355,1190.62 460.311,1251.2 460.788,1332.15"/>
		<path id="dp_path078" fill="#1127d4" fill-rule="evenodd" stroke="#1127d4" stroke-width="1.33333" d="M 470.629,1203.9 L 474.221,1221.9 L 460.615,1219.29 Z "/>
		<path id="dp_path079" fill="#1127d4" fill-rule="evenodd" stroke="#1127d4" stroke-width="1.33333" d="M 446.353,1214.86 L 453.741,1231.66 L 439.891,1232.04 Z "/>
		<path id="dp_path080" fill="#1127d4" fill-rule="evenodd" stroke="#1127d4" stroke-width="1.33333" d="M 414.524,1195.64 L 421.912,1212.45 L 408.061,1212.82 Z "/>
		<g id="dp_group081">
			<g id="dp_group082">
				<path id="dp_path083" fill="black" fill-rule="evenodd" d="M 332.795,962.717 L 335.037,962.773 L 339.523,962.883 L 334.192,951.532 L 328.311,962.607 Z "/>
				<path id="dp_path084" fill="black" d="M 332.796,962.717 L 332.399,978.863 L 334.641,978.919 L 335.039,962.773 Z M 332.001,995.008 L 331.604,1011.15 L 333.847,1011.21 L 334.244,995.064 Z M 331.207,1027.3 L 330.809,1043.44 L 333.052,1043.5 L 333.449,1027.35 Z M 330.412,1059.59 L 330.015,1075.73 L 332.257,1075.79 L 332.655,1059.65 Z M 329.617,1091.88 L 329.22,1108.03 L 331.463,1108.08 L 331.86,1091.94 Z M 328.823,1124.17 L 328.425,1140.32 L 330.668,1140.37 L 331.065,1124.23 Z M 328.028,1156.46 L 327.631,1172.61 L 329.873,1172.66 L 330.271,1156.52 Z M 327.233,1188.75 L 326.837,1204.9 L 329.08,1204.95 L 329.476,1188.81 Z M 326.441,1221.04 L 326.044,1237.19 L 328.287,1237.24 L 328.684,1221.1 Z "/>
			</g>
		</g>
		<g id="dp_group085">
			<text id="dp_text027" transform="matrix(1,9.43686e-016,-8.88182e-016,1,607.833,997.669)" xml:space="preserve" fill="black" font-family="Arial" font-size="23" font-weight="400" x="0" y="0">reduced current  </text>
			<text id="dp_text028" transform="matrix(1,9.43686e-016,-8.88182e-016,1,607.833,997.669)" xml:space="preserve" fill="black" font-family="Arial" font-size="23" font-weight="400" x="0" y="26.62">density |</text>
			<text id="dp_text029" transform="matrix(1,9.43686e-016,-8.88182e-016,1,607.833,997.669)" xml:space="preserve" fill="black" font-family="Arial" font-size="23" font-weight="700" x="86.1093" y="26.62">J</text>
			<text id="dp_text030" transform="matrix(1,9.43686e-016,-8.88182e-016,1,607.833,997.669)" xml:space="preserve" fill="black" font-family="Arial" font-size="23" font-weight="400" x="99.048" y="26.62">|</text>
			<text id="dp_text031" transform="matrix(1,9.43686e-016,-8.88182e-016,1,607.833,997.669)" xml:space="preserve" fill="black" font-family="Arial" font-size="23" font-weight="700" x="105.052" y="26.62"> </text>
			<text id="dp_text032" transform="matrix(1,9.43686e-016,-8.88182e-016,1,607.833,997.669)" xml:space="preserve" fill="black" font-family="Arial" font-size="23" font-weight="400" x="111.489" y="26.62">cos</text>
			<text id="dp_text033" transform="matrix(1,9.43686e-016,-8.88182e-016,1,607.833,997.669)" xml:space="preserve" fill="black" font-family="Arial" font-size="23" font-weight="700" x="147.703" y="26.62"> </text>
			<path id="dp_path093" fill="black" fill-rule="evenodd" d="M 771.557,1011.69 C 771.459,1011.39 771.331,1011.08 771.173,1010.79 C 771.017,1010.49 770.811,1010.22 770.556,1009.99 C 770.301,1009.77 770.003,1009.58 769.66,1009.43 C 769.315,1009.29 768.911,1009.21 768.439,1009.21 C 767.968,1009.21 767.516,1009.29 767.085,1009.43 C 766.653,1009.58 766.241,1009.77 765.849,1009.99 C 765.456,1010.22 765.084,1010.49 764.731,1010.79 C 764.38,1011.08 764.056,1011.39 763.761,1011.69 C 762.879,1012.6 762.172,1013.53 761.643,1014.51 C 761.115,1015.48 760.691,1016.46 760.377,1017.46 C 760.044,1018.45 759.833,1019.43 759.745,1020.41 C 759.657,1021.38 759.76,1022.31 760.053,1023.22 C 760.151,1023.52 760.285,1023.82 760.452,1024.11 C 760.619,1024.4 760.823,1024.66 761.068,1024.89 C 761.313,1025.12 761.608,1025.31 761.952,1025.46 C 762.295,1025.6 762.701,1025.67 763.171,1025.67 C 763.643,1025.67 764.095,1025.6 764.524,1025.46 C 764.957,1025.31 765.375,1025.12 765.776,1024.89 C 766.179,1024.66 766.556,1024.4 766.908,1024.11 C 767.261,1023.82 767.585,1023.52 767.88,1023.22 C 768.741,1022.31 769.439,1021.38 769.968,1020.41 C 770.499,1019.43 770.929,1018.45 771.263,1017.46 C 771.576,1016.46 771.777,1015.48 771.865,1014.51 C 771.953,1013.53 771.852,1012.6 771.557,1011.69 Z M 769.908,1011.89 C 770.007,1012.71 769.948,1013.57 769.733,1014.44 C 769.517,1015.31 769.272,1016.2 768.999,1017.1 L 762.848,1017.1 C 763.124,1016.2 763.437,1015.31 763.789,1014.44 C 764.144,1013.57 764.635,1012.71 765.261,1011.89 C 765.712,1011.31 766.179,1010.8 766.659,1010.37 C 767.14,1009.95 767.683,1009.73 768.292,1009.73 C 768.587,1009.73 768.832,1009.79 769.027,1009.9 C 769.224,1010.02 769.379,1010.17 769.497,1010.37 C 769.613,1010.57 769.704,1010.8 769.761,1011.06 C 769.82,1011.32 769.871,1011.6 769.908,1011.89 Z M 768.763,1017.81 C 768.487,1018.71 768.173,1019.59 767.82,1020.45 C 767.467,1021.31 766.976,1022.17 766.348,1023 C 765.919,1023.59 765.456,1024.09 764.967,1024.52 C 764.477,1024.94 763.937,1025.16 763.349,1025.16 C 763.055,1025.16 762.804,1025.1 762.599,1024.99 C 762.392,1024.87 762.232,1024.71 762.113,1024.52 C 761.996,1024.32 761.903,1024.09 761.835,1023.83 C 761.764,1023.57 761.721,1023.29 761.701,1023 C 761.623,1022.17 761.685,1021.31 761.892,1020.45 C 762.097,1019.59 762.339,1018.71 762.612,1017.81 Z "/>
		</g>
		<text id="dp_text034" transform="matrix(1,9.4369e-016,-8.88178e-016,1,563.819,1002.15)" xml:space="preserve" fill="black" font-family="Arial" font-size="31" font-weight="700" x="0" y="0">J </text>
		<g id="dp_group095">
			<text id="dp_text035" transform="matrix(1,9.4369e-016,-8.88178e-016,1,456.702,911.196)" xml:space="preserve" fill="black" font-family="Arial" font-size="31" font-weight="700" x="0" y="0">t</text>
			<text id="dp_text036" transform="matrix(1,9.4369e-016,-8.88178e-016,1,456.702,911.196)" xml:space="preserve" fill="black" font-family="Arial" font-size="31" font-weight="400" font-style="italic" x="10.2133" y="0"> </text>
			<text id="dp_text037" transform="matrix(1.48125,1.39784e-015,-8.88178e-016,1,452.011,894.053)" xml:space="preserve" fill="black" font-family="Arial" font-size="21" font-weight="700" font-style="italic" x="0" y="0">^ </text>
		</g>
		<path id="dp_path099" fill="#21d26d" fill-rule="evenodd" stroke="#158b46" stroke-width="1.33333" d="M 454.56,1166.36 C 515.236,1169.96 570.671,1152.95 578.379,1128.37 C 586.085,1103.8 543.145,1080.95 482.469,1077.36 C 421.793,1073.76 366.359,1090.76 358.652,1115.34 C 350.945,1139.92 393.884,1162.76 454.56,1166.36 Z "/>
		<text id="dp_text038" transform="matrix(1,1.94289e-015,-2.33147e-015,1,453.283,991.353)" xml:space="preserve" fill="black" font-family="Arial" font-size="31" font-weight="700" x="0" y="0">A </text>
		<path id="dp_path101" fill="none" fill-rule="evenodd" stroke="#1127d4" stroke-width="1.33333" d="M 493.327,1091.26 C 499.591,1053.38 493.219,979.207 511.208,893.059"/>
		<path id="dp_path102" fill="#1127d4" fill-rule="evenodd" stroke="none" stroke-width="1.33333" d="M 502.321,948.773 L 493.795,965.032 L 507.588,966.36 Z "/>
		<path id="dp_path103" fill="#1127d4" fill-rule="evenodd" stroke="none" stroke-width="1.33333" d="M 442.888,955.321 L 436.303,972.457 L 450.155,972.18 Z "/>
		<path id="dp_path104" fill="#1127d4" fill-rule="evenodd" stroke="none" stroke-width="1.33333" d="M 406.991,978.237 L 402.087,995.928 L 415.848,994.316 Z "/>
		<path id="dp_path105" fill="none" fill-rule="evenodd" stroke="#1127d4" stroke-width="1.33333" d="M 507.784,1120.44 C 543.207,1037.37 555.799,1000.6 572.041,896.059"/>
		<path id="dp_path106" fill="#1127d4" fill-rule="evenodd" stroke="#1127d4" stroke-width="1.33333" d="M 562.975,949.043 L 551.553,963.651 L 565.893,967.355 Z "/>
		<text id="dp_text039" transform="matrix(1,9.43686e-016,-8.88182e-016,1,1272,784.37)" xml:space="preserve" fill="black" font-family="Arial" font-size="23" font-weight="400" x="0" y="0">current passes  </text>
		<text id="dp_text040" transform="matrix(1,9.43686e-016,-8.88182e-016,1,1272,784.37)" xml:space="preserve" fill="black" font-family="Arial" font-size="23" font-weight="400" font-style="italic" x="0" y="26.62">through</text>
		<text id="dp_text041" transform="matrix(1,9.43686e-016,-8.88182e-016,1,1272,784.37)" xml:space="preserve" fill="black" font-family="Arial" font-size="23" font-weight="400" x="78.8693" y="26.62"> plane of area</text>
		<text id="dp_text042" transform="matrix(1,9.43686e-016,-8.88182e-016,1,1272,784.37)" xml:space="preserve" fill="black" font-family="Arial" font-size="23" font-weight="700" x="220.996" y="26.62"> </text>
		<g id="dp_group111">
			<text id="dp_text043" transform="matrix(0.999949,0.0101252,-0.0101202,0.999949,476.618,1000.37)" xml:space="preserve" fill="black" font-family="Arial" font-size="22" font-weight="400" x="0" y="0">|</text>
			<text id="dp_text044" transform="matrix(0.999949,0.0101252,-0.0101202,0.999949,476.618,1000.37)" xml:space="preserve" fill="black" font-family="Arial" font-size="22" font-weight="700" x="5.56667" y="0">J</text>
			<text id="dp_text045" transform="matrix(0.999949,0.0101252,-0.0101202,0.999949,476.618,1000.37)" xml:space="preserve" fill="black" font-family="Arial" font-size="22" font-weight="400" x="17.56" y="0">|cos</text>
			<text id="dp_text046" transform="matrix(0.999949,0.0101252,-0.0101202,0.999949,476.618,1000.37)" xml:space="preserve" fill="black" font-family="Arial" font-size="22" font-weight="700" x="56.7027" y="0"> </text>
			<path id="dp_path116" fill="black" fill-rule="evenodd" d="M 550.341,989.425 C 550.249,989.143 550.131,988.861 549.984,988.588 C 549.839,988.311 549.645,988.067 549.409,987.855 C 549.172,987.641 548.896,987.468 548.577,987.335 C 548.257,987.201 547.881,987.135 547.445,987.135 C 547.008,987.136 546.589,987.205 546.192,987.34 C 545.791,987.476 545.409,987.651 545.047,987.865 C 544.683,988.079 544.337,988.324 544.012,988.601 C 543.687,988.877 543.387,989.159 543.115,989.444 C 542.299,990.283 541.645,991.153 541.157,992.056 C 540.669,992.959 540.28,993.869 539.991,994.793 C 539.684,995.716 539.491,996.629 539.412,997.528 C 539.333,998.429 539.431,999.299 539.704,1000.14 C 539.795,1000.42 539.92,1000.7 540.075,1000.96 C 540.231,1001.23 540.421,1001.47 540.648,1001.69 C 540.876,1001.9 541.149,1002.07 541.469,1002.21 C 541.787,1002.34 542.164,1002.41 542.6,1002.41 C 543.036,1002.4 543.455,1002.34 543.853,1002.2 C 544.255,1002.06 544.641,1001.89 545.012,1001.67 C 545.385,1001.46 545.733,1001.22 546.06,1000.95 C 546.387,1000.68 546.687,1000.4 546.959,1000.12 C 547.755,999.279 548.399,998.408 548.888,997.505 C 549.377,996.605 549.775,995.692 550.081,994.768 C 550.369,993.845 550.553,992.935 550.633,992.033 C 550.712,991.132 550.616,990.263 550.341,989.425 Z M 548.813,989.611 C 548.907,990.376 548.855,991.164 548.656,991.975 C 548.459,992.781 548.233,993.605 547.981,994.443 L 542.281,994.457 C 542.533,993.62 542.823,992.795 543.147,991.988 C 543.473,991.177 543.927,990.388 544.505,989.621 C 544.923,989.083 545.353,988.612 545.797,988.215 C 546.243,987.816 546.745,987.616 547.309,987.615 C 547.583,987.613 547.811,987.667 547.992,987.772 C 548.175,987.879 548.319,988.024 548.429,988.208 C 548.537,988.392 548.621,988.605 548.675,988.845 C 548.731,989.087 548.777,989.34 548.813,989.611 Z M 547.764,995.1 C 547.511,995.937 547.223,996.753 546.897,997.555 C 546.571,998.353 546.119,999.144 545.539,999.923 C 545.141,1000.46 544.715,1000.93 544.261,1001.33 C 543.808,1001.72 543.308,1001.92 542.764,1001.93 C 542.491,1001.93 542.257,1001.87 542.068,1001.77 C 541.876,1001.66 541.727,1001.52 541.616,1001.33 C 541.508,1001.15 541.42,1000.94 541.356,1000.7 C 541.291,1000.46 541.249,1000.2 541.232,999.933 C 541.156,999.157 541.213,998.367 541.403,997.568 C 541.591,996.768 541.812,995.951 542.064,995.113 Z "/>
		</g>
		<path id="dp_path117" fill="none" fill-rule="evenodd" stroke="#158b46" stroke-width="1.33333" d="M 571.708,1107.23 C 557.101,1125.67 546.248,1141.41 529.845,1158.89"/>
		<path id="dp_path118" fill="none" fill-rule="evenodd" stroke="#158b46" stroke-width="1.33333" d="M 547.993,1091.25 C 529.107,1113.43 511.403,1135.9 488.744,1165.1"/>
		<path id="dp_path119" fill="none" fill-rule="evenodd" stroke="#158b46" stroke-width="1.33333" d="M 515.305,1082.11 C 495.925,1105.75 474.813,1127.86 448.979,1165.53"/>
		<path id="dp_path120" fill="none" fill-rule="evenodd" stroke="#158b46" stroke-width="1.33333" d="M 479.336,1077.77 C 462.437,1095.43 436.963,1123.66 410.469,1159.03"/>
		<path id="dp_path121" fill="none" fill-rule="evenodd" stroke="#158b46" stroke-width="1.33333" d="M 437.499,1078.79 C 416.765,1103.8 405.264,1115.88 380.756,1147.85"/>
		<path id="dp_path122" fill="none" fill-rule="evenodd" stroke="#158b46" stroke-width="1.33333" d="M 537.753,1156.34 C 512.127,1155.2 413.636,1142.91 367.976,1138.91"/>
		<path id="dp_path123" fill="none" fill-rule="evenodd" stroke="#158b46" stroke-width="1.33333" d="M 569.641,1139.25 C 534.945,1136.29 411.023,1123.66 358.072,1121.33"/>
		<path id="dp_path124" fill="none" fill-rule="evenodd" stroke="#158b46" stroke-width="1.33333" d="M 578.904,1122.18 C 545.071,1118.34 422.895,1102.35 371.172,1099.96"/>
		<path id="dp_path125" fill="none" fill-rule="evenodd" stroke="#158b46" stroke-width="1.33333" d="M 565.56,1101.75 C 538.905,1098.94 442.828,1087.27 402.085,1085.47"/>
		<g id="dp_group126">
			<g id="dp_group127">
				<path id="dp_path128" fill="black" fill-rule="evenodd" d="M 555.509,1015.79 L 557.764,1016.87 L 562.271,1019.03 L 562.041,1005.06 L 551.001,1013.63 Z "/>
				<path id="dp_path129" fill="black" d="M 555.511,1015.79 L 506.389,1118.22 L 508.643,1119.3 L 557.764,1016.87 Z "/>
			</g>
		</g>
		<g id="dp_group130">
			<g id="dp_group131">
				<path id="dp_path132" fill="black" fill-rule="evenodd" d="M 514.916,1067.08 L 515.017,1065.75 L 515.219,1063.09 L 508.319,1065.91 L 514.715,1069.74 Z "/>
				<path id="dp_path133" fill="black" d="M 529.771,1069.33 L 529.2,1069.12 L 528.624,1068.91 L 528.045,1068.71 L 527.463,1068.51 L 526.876,1068.32 L 526.285,1068.13 L 525.692,1067.95 L 525.095,1067.78 L 524.495,1067.61 L 523.891,1067.44 L 523.283,1067.28 L 522.673,1067.13 L 522.06,1066.98 L 521.441,1066.84 L 520.821,1066.7 L 520.197,1066.57 L 519.447,1066.42 L 518.695,1066.28 L 517.944,1066.15 L 517.196,1066.02 L 516.448,1065.91 L 515.684,1065.8 L 515.017,1065.75 L 514.916,1067.08 L 515.543,1067.13 L 516.256,1067.23 L 516.988,1067.34 L 517.723,1067.46 L 518.457,1067.59 L 519.193,1067.73 L 519.931,1067.87 L 520.541,1068 L 521.148,1068.14 L 521.753,1068.28 L 522.353,1068.42 L 522.952,1068.57 L 523.547,1068.73 L 524.137,1068.89 L 524.727,1069.06 L 525.311,1069.23 L 525.893,1069.41 L 526.471,1069.59 L 527.044,1069.78 L 527.616,1069.97 L 528.181,1070.17 L 528.747,1070.37 L 529.307,1070.58 Z "/>
			</g>
		</g>
		<g id="dp_group134">
			<g id="dp_group135">
				<path id="dp_path136" fill="black" fill-rule="evenodd" d="M 506.881,1018.05 L 509.381,1018.07 L 514.38,1018.1 L 508.208,1005.56 L 501.883,1018.02 Z "/>
				<path id="dp_path137" fill="black" d="M 506.883,1018.05 L 506.267,1118.75 L 508.765,1118.77 L 509.381,1018.07 Z "/>
			</g>
		</g>
		<g id="dp_group138">
			<g id="dp_group139">
				<path id="dp_path140" fill="black" fill-rule="evenodd" d="M 465.124,1011.92 L 467.624,1011.94 L 472.623,1011.99 L 466.483,999.433 L 460.125,1011.88 Z "/>
				<path id="dp_path141" fill="black" d="M 465.125,1011.92 L 464.261,1111.86 L 466.76,1111.88 L 467.624,1011.94 Z "/>
			</g>
		</g>
		<path id="dp_path142" fill="none" fill-rule="evenodd" stroke="black" stroke-width="1.33333" d="M 465.511,1097.35 L 449.537,1097.34 L 449.537,1111.87"/>
		<path id="dp_path143" fill="none" fill-rule="evenodd" stroke="#1127d4" stroke-width="1.33333" d="M 450.509,1092.57 C 449.411,1015.83 440.255,953.744 439.139,872.741"/>
		<path id="dp_path144" fill="none" fill-rule="evenodd" stroke="#1127d4" stroke-width="1.33333" d="M 414.268,1097.06 C 413.173,1032.63 405.475,970.035 399.813,899.472"/>
		<g id="dp_group145">
			<path id="dp_path146" fill="#21d26d" fill-rule="evenodd" fill-opacity="0.560784" stroke="#158b46" stroke-opacity="0.560784" stroke-width="1.33333" d="M 1099.56,1166.35 C 1154,1183.42 1204.39,1177.34 1212.09,1152.76 C 1219.8,1128.18 1181.91,1094.42 1127.47,1077.34 C 1073.02,1060.27 1022.63,1066.35 1014.93,1090.93 C 1007.22,1115.51 1045.11,1149.27 1099.56,1166.35 Z "/>
			<path id="dp_path147" fill="none" fill-rule="evenodd" stroke="#158b46" stroke-opacity="0.560784" stroke-width="1.33333" d="M 1210.36,1133.01 C 1192.15,1147.9 1177.46,1162.55 1157.7,1176.12"/>
			<path id="dp_path148" fill="none" fill-rule="evenodd" stroke="#158b46" stroke-opacity="0.560784" stroke-width="1.33333" d="M 1192.53,1112.02 C 1169.33,1129.65 1147.23,1147.81 1118.85,1171.49"/>
			<path id="dp_path149" fill="none" fill-rule="evenodd" stroke="#158b46" stroke-opacity="0.560784" stroke-width="1.33333" d="M 1170.22,1095.13 C 1146.23,1114.08 1120.88,1131.16 1087.59,1162.43"/>
			<path id="dp_path150" fill="none" fill-rule="evenodd" stroke="#158b46" stroke-opacity="0.560784" stroke-width="1.33333" d="M 1140.48,1082.24 C 1120.2,1095.88 1089.27,1118.01 1055.83,1146.9"/>
			<path id="dp_path151" fill="none" fill-rule="evenodd" stroke="#158b46" stroke-opacity="0.560784" stroke-width="1.33333" d="M 1165.41,1174.69 C 1145.02,1169.23 1068.11,1141.74 1032.14,1130.39"/>
			<path id="dp_path152" fill="none" fill-rule="evenodd" stroke="#158b46" stroke-opacity="0.560784" stroke-width="1.33333" d="M 1201.15,1165.9 C 1170.45,1156.28 1063.47,1119.74 1016.16,1107.11"/>
			<path id="dp_path153" fill="none" fill-rule="evenodd" stroke="#158b46" stroke-opacity="0.560784" stroke-width="1.33333" d="M 1212.91,1150.11 C 1180.69,1139.13 1068.42,1097.82 1018.4,1084.43"/>
			<path id="dp_path154" fill="none" fill-rule="evenodd" stroke="#158b46" stroke-opacity="0.560784" stroke-width="1.33333" d="M 1207.54,1129.47 C 1182.1,1121.03 1076.03,1082.44 1036.61,1071.97"/>
			<path id="dp_path155" fill="none" fill-rule="evenodd" stroke="#158b46" stroke-opacity="0.560784" stroke-width="1.33333" d="M 1104.36,1071.03 C 1079.38,1091.55 1059.24,1111.73 1032.14,1130.43"/>
			<path id="dp_path156" fill="none" fill-rule="evenodd" stroke="#158b46" stroke-opacity="0.560784" stroke-width="1.33333" d="M 1070.18,1067.84 C 1051.94,1082.85 1037.23,1097.63 1017.44,1111.32"/>
		</g>
		<path id="dp_path157" fill="none" fill-rule="evenodd" stroke="black" stroke-width="1.33333" d="M 1103.92,1113.07 L 1087.94,1113.07 L 1087.94,1127.59"/>
		<path id="dp_path158" fill="none" fill-rule="evenodd" stroke="black" stroke-width="1.33333" d="M 1110.16,1113.07 L 1112.77,1125.05 L 1107.29,1138.32"/>
		<text id="dp_text047" transform="matrix(1,9.4369e-016,-8.88178e-016,1,1198.23,1028.28)" xml:space="preserve" fill="black" font-family="Arial" font-size="31" font-weight="700" x="0" y="0">J </text>
		<g id="dp_group160">
			<text id="dp_text048" transform="matrix(1,9.4369e-016,-8.88178e-016,1,1218.11,959.321)" xml:space="preserve" fill="black" font-family="Arial" font-size="31" font-weight="700" x="0" y="0">t</text>
			<text id="dp_text049" transform="matrix(1,9.4369e-016,-8.88178e-016,1,1218.11,959.321)" xml:space="preserve" fill="black" font-family="Arial" font-size="31" font-weight="400" font-style="italic" x="10.2133" y="0"> </text>
			<text id="dp_text050" transform="matrix(1.48125,1.39784e-015,-8.88178e-016,1,1213.42,942.179)" xml:space="preserve" fill="black" font-family="Arial" font-size="21" font-weight="700" font-style="italic" x="0" y="0">^ </text>
		</g>
		<g id="dp_group164">
			<g id="dp_group165">
				<path id="dp_path166" fill="black" fill-rule="evenodd" d="M 1103.53,1027.65 L 1106.03,1027.67 L 1111.03,1027.71 L 1104.89,1015.16 L 1098.53,1027.6 Z "/>
				<path id="dp_path167" fill="black" d="M 1103.53,1027.65 L 1102.67,1127.58 L 1105.17,1127.6 L 1106.03,1027.67 Z "/>
			</g>
		</g>
		<text id="dp_text051" transform="matrix(1,1.94289e-015,-2.33147e-015,1,1091.69,1007.08)" xml:space="preserve" fill="black" font-family="Arial" font-size="31" font-weight="700" x="0" y="0">A </text>
		<path id="dp_path169" fill="none" fill-rule="evenodd" stroke="#1127d4" stroke-width="1.33333" d="M 1127.73,1117.38 C 1134,1079.5 1127.63,1005.33 1145.61,919.184"/>
		<path id="dp_path170" fill="none" fill-rule="evenodd" stroke="#1127d4" stroke-width="1.33333" d="M 1048.67,1123.19 C 1047.58,1058.76 1039.88,996.16 1034.22,925.597"/>
		<path id="dp_path171" fill="none" fill-rule="evenodd" stroke="#1127d4" stroke-width="1.33333" d="M 1085.62,1123.58 C 1084.52,1046.84 1074.66,979.869 1073.55,898.867"/>
		<path id="dp_path172" fill="#1127d4" fill-rule="evenodd" stroke="none" stroke-width="1.33333" d="M 1136.73,974.899 L 1128.2,991.157 L 1141.99,992.485 Z "/>
		<path id="dp_path173" fill="#1127d4" fill-rule="evenodd" stroke="none" stroke-width="1.33333" d="M 1077.29,981.447 L 1070.71,998.583 L 1084.56,998.305 Z "/>
		<path id="dp_path174" fill="#1127d4" fill-rule="evenodd" stroke="none" stroke-width="1.33333" d="M 1041.4,1004.36 L 1036.49,1022.05 L 1050.25,1020.44 Z "/>
		<path id="dp_path175" fill="none" fill-rule="evenodd" stroke="#1127d4" stroke-width="1.33333" d="M 1142.19,1146.57 C 1177.61,1063.5 1190.21,1026.72 1206.45,922.184"/>
		<path id="dp_path176" fill="#1127d4" fill-rule="evenodd" stroke="#1127d4" stroke-width="1.33333" d="M 1197.38,975.168 L 1185.96,989.776 L 1200.3,993.48 Z "/>
		<g id="dp_group177">
			<path id="dp_path178" fill="none" fill-rule="evenodd" stroke="black" stroke-width="1.33333" d="M 1031.89,989.555 L 1029.38,998.281"/>
			<path id="dp_path179" fill="#fad44b" fill-rule="evenodd" stroke="black" stroke-width="1.33333" d="M 1042.17,953.881 C 1052.03,956.721 1057.71,967.008 1054.87,976.86 C 1052.03,986.711 1041.74,992.393 1031.89,989.555 C 1022.04,986.715 1016.36,976.428 1019.2,966.576 C 1022.04,956.725 1032.32,951.041 1042.17,953.881 Z "/>
			<path id="dp_path180" fill="none" fill-rule="evenodd" stroke="black" stroke-width="1.33333" d="M 1044.69,945.156 L 1040.71,958.975"/>
			<text id="dp_text052" transform="matrix(1,9.43688e-016,-8.8818e-016,1,1024.31,977.058)" xml:space="preserve" fill="black" font-family="Arial" font-size="18" font-weight="400" font-style="italic" x="0" y="0">+q </text>
		</g>
		<g id="dp_group182">
			<g id="dp_group183">
				<path id="dp_path184" fill="black" fill-rule="evenodd" d="M 1189.92,1041.91 L 1192.17,1042.99 L 1196.68,1045.15 L 1196.45,1031.18 L 1185.41,1039.75 Z "/>
				<path id="dp_path185" fill="black" d="M 1189.92,1041.91 L 1140.8,1144.35 L 1143.05,1145.43 L 1192.17,1042.99 Z "/>
			</g>
		</g>
		<g id="dp_group186">
			<text id="dp_text053" transform="matrix(0.430828,-0.902434,0.902436,0.430824,1151.2,1030.29)" xml:space="preserve" fill="black" font-family="Arial" font-size="22" font-weight="400" x="0" y="0">|</text>
			<text id="dp_text054" transform="matrix(0.430828,-0.902434,0.902436,0.430824,1151.2,1030.29)" xml:space="preserve" fill="black" font-family="Arial" font-size="22" font-weight="700" x="5.56667" y="0">A</text>
			<text id="dp_text055" transform="matrix(0.430828,-0.902434,0.902436,0.430824,1151.2,1030.29)" xml:space="preserve" fill="black" font-family="Arial" font-size="22" font-weight="400" x="21.12" y="0">|cos</text>
			<text id="dp_text056" transform="matrix(0.430828,-0.902434,0.902436,0.430824,1151.2,1030.29)" xml:space="preserve" fill="black" font-family="Arial" font-size="22" font-weight="700" x="60.2627" y="0"> </text>
			<path id="dp_path191" fill="black" fill-rule="evenodd" d="M 1172.36,958.823 C 1172.07,958.785 1171.76,958.776 1171.45,958.793 C 1171.14,958.808 1170.84,958.88 1170.54,959.004 C 1170.25,959.129 1169.98,959.308 1169.72,959.54 C 1169.47,959.773 1169.25,960.085 1169.06,960.483 C 1168.88,960.879 1168.77,961.288 1168.72,961.705 C 1168.67,962.127 1168.67,962.545 1168.71,962.965 C 1168.75,963.385 1168.83,963.801 1168.95,964.215 C 1169.06,964.625 1169.19,965.016 1169.33,965.383 C 1169.75,966.476 1170.26,967.436 1170.87,968.259 C 1171.49,969.081 1172.15,969.82 1172.86,970.471 C 1173.57,971.137 1174.32,971.697 1175.1,972.149 C 1175.88,972.601 1176.71,972.879 1177.59,972.984 C 1177.88,973.02 1178.19,973.024 1178.49,972.996 C 1178.8,972.969 1179.1,972.897 1179.39,972.781 C 1179.68,972.664 1179.95,972.489 1180.21,972.256 C 1180.46,972.024 1180.68,971.711 1180.87,971.315 C 1181.05,970.919 1181.16,970.509 1181.21,970.092 C 1181.25,969.671 1181.26,969.247 1181.22,968.82 C 1181.19,968.391 1181.11,967.973 1181.01,967.564 C 1180.9,967.153 1180.77,966.765 1180.63,966.399 C 1180.21,965.323 1179.69,964.371 1179.07,963.547 C 1178.47,962.724 1177.8,961.979 1177.1,961.311 C 1176.38,960.66 1175.63,960.109 1174.85,959.657 C 1174.07,959.205 1173.24,958.925 1172.36,958.823 Z M 1171.89,960.285 C 1172.62,960.524 1173.31,960.904 1173.96,961.425 C 1174.61,961.945 1175.26,962.496 1175.92,963.077 L 1173.53,968.253 C 1172.87,967.671 1172.25,967.06 1171.65,966.425 C 1171.05,965.788 1170.53,965.045 1170.08,964.196 C 1169.77,963.591 1169.52,963.001 1169.35,962.431 C 1169.17,961.86 1169.2,961.32 1169.44,960.807 C 1169.56,960.559 1169.7,960.376 1169.87,960.256 C 1170.05,960.135 1170.24,960.065 1170.45,960.043 C 1170.66,960.023 1170.89,960.035 1171.13,960.088 C 1171.38,960.14 1171.63,960.204 1171.89,960.285 Z M 1176.42,963.552 C 1177.07,964.135 1177.69,964.74 1178.28,965.372 C 1178.87,966.005 1179.39,966.749 1179.85,967.603 C 1180.18,968.192 1180.42,968.776 1180.59,969.353 C 1180.76,969.932 1180.73,970.469 1180.5,970.964 C 1180.39,971.212 1180.24,971.401 1180.06,971.529 C 1179.89,971.659 1179.69,971.733 1179.48,971.756 C 1179.27,971.776 1179.04,971.767 1178.79,971.723 C 1178.55,971.681 1178.3,971.611 1178.05,971.513 C 1177.31,971.253 1176.62,970.869 1175.97,970.36 C 1175.33,969.853 1174.68,969.308 1174.03,968.727 Z "/>
		</g>
		<g id="dp_group192">
			<g id="dp_group193">
				<path id="dp_path194" fill="black" fill-rule="evenodd" d="M 1203.54,939.745 L 1205.99,940.247 L 1210.89,941.249 L 1207.27,927.752 L 1198.64,938.743 Z "/>
				<path id="dp_path195" fill="black" d="M 1203.54,939.745 L 1197.92,967.184 L 1200.37,967.685 L 1205.99,940.247 Z "/>
			</g>
		</g>
		<g id="dp_group196">
			<g id="dp_group197">
				<path id="dp_path198" fill="black" fill-rule="evenodd" d="M 1138.02,1043.62 L 1140.33,1044.59 L 1144.93,1046.54 L 1144.04,1032.59 L 1133.42,1041.67 Z "/>
				<path id="dp_path199" fill="black" d="M 1138.02,1043.62 L 1102.77,1127.11 L 1105.07,1128.08 L 1140.33,1044.59 Z "/>
			</g>
		</g>
		<g id="dp_group200">
			<g id="dp_group201">
				<path id="dp_path202" fill="black" fill-rule="evenodd" d="M 1122.87,1066.01 L 1122.5,1067.29 L 1121.75,1069.85 L 1129.09,1068.52 L 1123.62,1063.45 Z "/>
				<path id="dp_path203" fill="black" d="M 1103.54,1065.07 L 1104.25,1065.07 L 1104.97,1065.07 L 1105.69,1065.08 L 1106.42,1065.09 L 1107.14,1065.12 L 1107.87,1065.15 L 1108.59,1065.19 L 1109.32,1065.23 L 1110.05,1065.28 L 1110.79,1065.34 L 1111.52,1065.41 L 1112.26,1065.49 L 1113,1065.57 L 1113.73,1065.66 L 1114.48,1065.75 L 1115.22,1065.85 L 1116.11,1065.99 L 1117,1066.13 L 1117.88,1066.29 L 1118.76,1066.45 L 1119.63,1066.63 L 1120.5,1066.81 L 1121.36,1067.01 L 1122.2,1067.2 L 1122.5,1067.29 L 1122.87,1066.01 L 1122.54,1065.92 L 1121.66,1065.71 L 1120.78,1065.51 L 1119.9,1065.32 L 1119.01,1065.15 L 1118.12,1064.98 L 1117.22,1064.82 L 1116.32,1064.67 L 1115.41,1064.54 L 1114.65,1064.43 L 1113.9,1064.33 L 1113.15,1064.24 L 1112.4,1064.16 L 1111.65,1064.09 L 1110.9,1064.02 L 1110.15,1063.96 L 1109.41,1063.9 L 1108.67,1063.86 L 1107.93,1063.82 L 1107.19,1063.79 L 1106.45,1063.76 L 1105.72,1063.75 L 1104.98,1063.74 L 1104.25,1063.73 L 1103.53,1063.74 Z "/>
			</g>
		</g>
		<path id="dp_path204" fill="none" fill-rule="evenodd" stroke="black" stroke-width="1.33333" d="M 1149.66,1129.07 L 1152.27,1141.05 L 1146.79,1154.32"/>
		<text id="dp_text057" transform="matrix(1,9.43686e-016,-8.88182e-016,1,616.79,1208.34)" xml:space="preserve" fill="black" font-family="Arial" font-size="23" font-weight="400" x="0" y="0">unit area</text>
		<text id="dp_text058" transform="matrix(1,9.43686e-016,-8.88182e-016,1,616.79,1208.34)" xml:space="preserve" fill="black" font-family="Arial" font-size="23" font-weight="700" x="90.4387" y="0"> </text>
		<g id="dp_group207">
			<g id="dp_group208">
				<path id="dp_path209" fill="#158b46" fill-rule="evenodd" d="M 526.636,1146.26 L 527.375,1144.36 L 530.744,1141.31 L 520.375,1142.73 L 527.055,1150.78 Z "/>
				<path id="dp_path210" fill="#158b46" d="M 526.636,1146.25 L 622.672,1183.67 L 623.411,1181.78 L 527.375,1144.36 Z "/>
			</g>
		</g>
		<g id="dp_group211">
			<path id="dp_path212" fill="none" fill-rule="evenodd" stroke="black" stroke-width="1.33333" d="M 397.485,963.429 L 394.971,972.156"/>
			<path id="dp_path213" fill="#fad44b" fill-rule="evenodd" stroke="black" stroke-width="1.33333" d="M 407.768,927.756 C 417.62,930.596 423.303,940.883 420.464,950.735 C 417.624,960.585 407.336,966.268 397.485,963.429 C 387.635,960.589 381.951,950.303 384.791,940.451 C 387.631,930.6 397.917,924.916 407.768,927.756 Z "/>
			<path id="dp_path214" fill="none" fill-rule="evenodd" stroke="black" stroke-width="1.33333" d="M 410.284,919.031 L 406.3,932.849"/>
			<text id="dp_text059" transform="matrix(1,9.43688e-016,-8.8818e-016,1,389.903,950.933)" xml:space="preserve" fill="black" font-family="Arial" font-size="18" font-weight="400" font-style="italic" x="0" y="0">+q </text>
		</g>
		<text id="dp_text060" transform="matrix(1,9.43686e-016,-8.88182e-016,1,753.264,1112.82)" xml:space="preserve" fill="black" font-family="Arial" font-size="23" font-weight="400" x="0" y="0">no current passes  </text>
		<text id="dp_text061" transform="matrix(1,9.43686e-016,-8.88182e-016,1,753.264,1112.82)" xml:space="preserve" fill="black" font-family="Arial" font-size="23" font-weight="400" font-style="italic" x="0" y="26.62">in</text>
		<text id="dp_text062" transform="matrix(1,9.43686e-016,-8.88182e-016,1,753.264,1112.82)" xml:space="preserve" fill="black" font-family="Arial" font-size="23" font-weight="400" x="18.076" y="26.62"> plane of area</text>
		<text id="dp_text063" transform="matrix(1,9.43686e-016,-8.88182e-016,1,753.264,1112.82)" xml:space="preserve" fill="black" font-family="Arial" font-size="23" font-weight="700" x="160.203" y="26.62"> </text>
		<g id="dp_group220">
			<g id="dp_group221">
				<path id="dp_path222" fill="black" d="M 1322.6,1218.86 L 1317.29,1227.73 L 1228.36,1174.46 L 1223.74,1182.17 L 1312.67,1235.44 L 1307.36,1244.3 L 1342.72,1248.2 L 1322.6,1218.86 L 1322.69,1221.68 L 1339.59,1246.32 L 1309.89,1243.05 L 1314.76,1234.92 L 1225.82,1181.65 L 1228.88,1176.54 L 1317.82,1229.81 L 1322.69,1221.68 Z "/>
			</g>
		</g>
		<g id="dp_group223">
			<g id="dp_group224">
				<path id="dp_path225" fill="black" d="M 531.061,842.657 L 541.391,842.711 L 540.865,946.376 L 549.861,946.421 L 550.387,842.756 L 560.716,842.809 L 546.051,810.397 L 531.061,842.657 L 533.44,841.151 L 546.035,814.045 L 558.353,841.276 L 548.875,841.228 L 548.349,944.893 L 542.393,944.864 L 542.919,841.199 L 533.44,841.151 Z "/>
			</g>
		</g>
		<g id="dp_group226">
			<g id="dp_group227">
				<path id="dp_path228" fill="black" d="M 710.971,1131.87 L 710.988,1122.39 L 607.321,1122.19 L 607.333,1116.24 L 711,1116.44 L 711.017,1106.96 L 738.161,1119.47 L 710.971,1131.87 L 709.445,1134.24 L 741.809,1119.47 L 709.503,1104.59 L 709.483,1114.92 L 605.816,1114.72 L 605.799,1123.71 L 709.465,1123.91 L 709.445,1134.24 Z "/>
			</g>
		</g>
		<text id="dp_text064" transform="matrix(1,9.43686e-016,-8.88182e-016,1,371.47,832.98)" xml:space="preserve" fill="black" font-family="Arial" font-size="23" font-weight="400" x="0" y="0">unit tangent  </text>
		<text id="dp_text065" transform="matrix(1,9.43686e-016,-8.88182e-016,1,371.47,832.98)" xml:space="preserve" fill="black" font-family="Arial" font-size="23" font-weight="400" x="0" y="26.62">vector to flow</text>
		<text id="dp_text066" transform="matrix(1,9.43686e-016,-8.88182e-016,1,371.47,832.98)" xml:space="preserve" fill="black" font-family="Arial" font-size="23" font-weight="700" font-style="italic" x="136.867" y="26.62"> </text>
		<g id="dp_group232">
			<g id="dp_group233">
				<path id="dp_path234" fill="black" fill-rule="evenodd" d="M 437.845,891.969 L 440.343,891.849 L 445.336,891.609 L 438.495,879.425 L 432.852,892.209 Z "/>
				<path id="dp_path235" fill="black" d="M 437.847,891.969 L 439.164,919.423 L 441.66,919.303 L 440.343,891.849 Z "/>
			</g>
		</g>
		<g id="dp_group236">
			<g id="dp_group237">
				<text id="dp_text067" transform="matrix(1,9.43686e-016,-8.88182e-016,1,752.408,1448)" xml:space="preserve" fill="black" font-family="Arial" font-size="23" font-weight="700" x="0" y="0">J</text>
				<text id="dp_text068" transform="matrix(1,9.43686e-016,-8.88182e-016,1,752.408,1448)" xml:space="preserve" fill="black" font-family="Arial" font-size="23" font-weight="400" font-style="italic" x="12.9387" y="0"> = </text>
				<text id="dp_text069" transform="matrix(1,9.43686e-016,-8.88182e-016,1,752.408,1448)" xml:space="preserve" fill="black" font-family="Arial" font-size="23" font-weight="400" x="39.3707" y="0">|</text>
				<text id="dp_text070" transform="matrix(1,9.43686e-016,-8.88182e-016,1,752.408,1448)" xml:space="preserve" fill="black" font-family="Arial" font-size="23" font-weight="700" x="45.3747" y="0">J</text>
				<text id="dp_text071" transform="matrix(1,9.43686e-016,-8.88182e-016,1,752.408,1448)" xml:space="preserve" fill="black" font-family="Arial" font-size="23" font-weight="400" x="58.3133" y="0">|</text>
				<text id="dp_text072" transform="matrix(1,9.43686e-016,-8.88182e-016,1,752.408,1448)" xml:space="preserve" fill="black" font-family="Arial" font-size="23" font-weight="400" font-style="italic" x="64.3173" y="0"> </text>
				<text id="dp_text073" transform="matrix(1,9.43686e-016,-8.88182e-016,1,752.408,1448)" xml:space="preserve" fill="black" font-family="Arial" font-size="23" font-weight="700" x="70.7547" y="0">t</text>
				<text id="dp_text074" transform="matrix(1,9.43686e-016,-8.88182e-016,1,752.408,1448)" xml:space="preserve" fill="black" font-family="Arial" font-size="23" font-weight="400" font-style="italic" x="78.4933" y="0"> </text>
				<text id="dp_text075" transform="matrix(1.48133,1.39791e-015,-8.88182e-016,1,819.557,1433.48)" xml:space="preserve" fill="black" font-family="Arial" font-size="16" font-weight="700" font-style="italic" x="0" y="0">^ </text>
			</g>
			<text id="dp_text076" transform="matrix(1,9.43686e-016,-8.88182e-016,1,752.393,1415.16)" xml:space="preserve" fill="black" font-family="Arial" font-size="23" font-weight="400" x="0" y="0">current density</text>
			<text id="dp_text077" transform="matrix(1,9.43686e-016,-8.88182e-016,1,752.393,1415.16)" xml:space="preserve" fill="black" font-family="Arial" font-size="23" font-weight="700" font-style="italic" x="152.469" y="0"> </text>
		</g>
	</g>
</svg>