<?xml version="1.0" encoding="UTF-8" standalone="no"?>
<!-- Created with Inkscape (http://www.inkscape.org/) -->

<svg
   xmlns:dc="http://purl.org/dc/elements/1.1/"
   xmlns:cc="http://creativecommons.org/ns#"
   xmlns:rdf="http://www.w3.org/1999/02/22-rdf-syntax-ns#"
   xmlns:svg="http://www.w3.org/2000/svg"
   xmlns="http://www.w3.org/2000/svg"
   xmlns:xlink="http://www.w3.org/1999/xlink"
   xmlns:sodipodi="http://sodipodi.sourceforge.net/DTD/sodipodi-0.dtd"
   xmlns:inkscape="http://www.inkscape.org/namespaces/inkscape"
   version="1.1"
   width="1900"
   height="680"
   id="svg2"
   sodipodi:docname="induced-electric-field.svg"
   inkscape:version="0.92.3 (2405546, 2018-03-11)"
   inkscape:export-xdpi="96"
   inkscape:export-ydpi="96">
  <sodipodi:namedview
     pagecolor="#ffffff"
     bordercolor="#666666"
     borderopacity="1"
     objecttolerance="10"
     gridtolerance="10"
     guidetolerance="10"
     inkscape:pageopacity="0"
     inkscape:pageshadow="2"
     inkscape:window-width="1858"
     inkscape:window-height="1057"
     id="namedview98"
     showgrid="false"
     inkscape:zoom="0.73856422"
     inkscape:cx="803.64156"
     inkscape:cy="317.57043"
     inkscape:window-x="54"
     inkscape:window-y="-8"
     inkscape:window-maximized="1"
     inkscape:current-layer="svg2"
     fit-margin-top="0"
     fit-margin-left="0"
     fit-margin-right="0"
     fit-margin-bottom="0"
     showguides="false"
     inkscape:snap-bbox="true"
     inkscape:snap-intersection-paths="true" />
  <defs
     id="defs4">
    <marker
       inkscape:isstock="true"
       style="overflow:visible"
       id="marker27811"
       refX="0"
       refY="0"
       orient="auto"
       inkscape:stockid="Arrow2Send">
      <path
         transform="matrix(-0.3,0,0,-0.3,0.69,0)"
         d="M 8.7185878,4.0337352 -2.2072895,0.01601326 8.7185884,-4.0017078 c -1.7454984,2.3720609 -1.7354408,5.6174519 -6e-7,8.035443 z"
         style="fill:#ff00ff;fill-opacity:1;fill-rule:evenodd;stroke:#ff00ff;stroke-width:0.625;stroke-linejoin:round;stroke-opacity:1"
         id="path27809"
         inkscape:connector-curvature="0" />
    </marker>
  </defs>
  <metadata
     id="metadata7">
    <rdf:RDF>
      <cc:Work
         rdf:about="">
        <dc:format>image/svg+xml</dc:format>
        <dc:type
           rdf:resource="http://purl.org/dc/dcmitype/StillImage" />
        <dc:title />
      </cc:Work>
    </rdf:RDF>
  </metadata>
  <rect
     id="rect100"
     width="1900"
     height="680"
     x="0"
     y="0"
     style="fill:#ffffff;stroke-width:2.14683223" />
  <use
     x="0"
     y="0"
     xlink:href="#g4926"
     id="use5069"
     transform="translate(1180,80.000003)"
     width="100%"
     height="100%" />
  <text
     x="181.89484"
     y="1190.4443"
     id="text8623"
     xml:space="preserve"
     style="font-style:normal;font-variant:normal;font-weight:normal;font-stretch:normal;font-size:72px;line-height:100%;font-family:Arial;-inkscape-font-specification:Arial;text-align:start;letter-spacing:0px;word-spacing:0px;writing-mode:lr-tb;text-anchor:start;fill:#000000;fill-opacity:1;stroke:none"><tspan
       x="181.89484"
       y="1190.4443"
       id="tspan8625" /></text>
  <text
     x="44.895828"
     y="688.06805"
     id="text7182"
     xml:space="preserve"
     style="font-style:normal;font-weight:normal;font-size:40px;line-height:125%;font-family:Sans;letter-spacing:0px;word-spacing:0px;fill:#000000;fill-opacity:1;stroke:none"><tspan
       x="44.895828"
       y="688.06805"
       id="tspan7184" /></text>
  <text
     x="-514.6568"
     y="2157.5337"
     id="text8623-3"
     xml:space="preserve"
     style="font-style:normal;font-variant:normal;font-weight:normal;font-stretch:normal;font-size:72px;line-height:100%;font-family:Arial;-inkscape-font-specification:Arial;text-align:start;letter-spacing:0px;word-spacing:0px;writing-mode:lr-tb;text-anchor:start;fill:#000000;fill-opacity:1;stroke:none"><tspan
       x="-514.6568"
       y="2157.5337"
       id="tspan8625-3" /></text>
  <text
     x="-651.65582"
     y="1655.1577"
     id="text7182-6"
     xml:space="preserve"
     style="font-style:normal;font-weight:normal;font-size:40px;line-height:125%;font-family:Sans;letter-spacing:0px;word-spacing:0px;fill:#000000;fill-opacity:1;stroke:none"><tspan
       x="-651.65582"
       y="1655.1577"
       id="tspan7184-3" /></text>
  <use
     height="100%"
     width="100%"
     transform="translate(1180)"
     id="use5057"
     xlink:href="#g4926"
     y="0"
     x="0" />
  <path
     sodipodi:nodetypes="cc"
     inkscape:connector-curvature="0"
     id="path1081"
     d="M 1502.3203,244.84067 V 393.27422"
     style="fill:none;stroke:#ffffff;stroke-width:10;stroke-linecap:butt;stroke-linejoin:miter;stroke-miterlimit:4;stroke-dasharray:none;stroke-opacity:1" />
  <use
     x="0"
     y="0"
     xlink:href="#g4926"
     id="use5055"
     transform="translate(579.99996,80)"
     width="100%"
     height="100%" />
  <g
     id="g4926"
     transform="translate(-393.96203,405.03619)">
    <use
       height="100%"
       width="100%"
       transform="rotate(180,748.52673,-113.2257)"
       id="use4914"
       xlink:href="#g4912"
       y="0"
       x="0" />
    <use
       height="100%"
       width="100%"
       transform="rotate(180,748.52673,-113.21666)"
       id="use4908"
       xlink:href="#g4906"
       y="0"
       x="0" />
  </g>
  <g
     id="g502"
     transform="translate(-496.97935,55.52227)">
    <path
       sodipodi:nodetypes="cccc"
       style="fill:none;stroke:#000000;stroke-width:8;stroke-linecap:round;stroke-linejoin:round;stroke-miterlimit:4;stroke-dasharray:none;stroke-opacity:1"
       id="path3995"
       d="m 1003.1179,129.87083 h 60 v 288.19872 h -60"
       inkscape:connector-curvature="0" />
    <path
       style="fill:none;stroke:#000000;stroke-width:8;stroke-linecap:round;stroke-linejoin:round;stroke-miterlimit:4;stroke-dasharray:none;stroke-opacity:1"
       id="path3999"
       d="m 695.42386,495.69833 c 0,-10.71915 74.2825,-15.19491 124.23388,-15.26191 88.86039,-0.11827 183.46016,10.13476 183.46016,26.51959"
       inkscape:connector-curvature="0" />
    <path
       style="fill:none;stroke:#000000;stroke-width:8;stroke-linecap:round;stroke-linejoin:round;stroke-miterlimit:4;stroke-dasharray:none;stroke-opacity:1"
       id="path4003"
       d="m 695.42386,473.84141 c 0,-10.58211 74.2825,-15.05787 124.23388,-15.12487 88.86039,-0.11825 183.46016,10.13479 183.46016,26.5196"
       inkscape:connector-curvature="0" />
    <path
       style="fill:none;stroke:#000000;stroke-width:8;stroke-linecap:round;stroke-linejoin:round;stroke-miterlimit:4;stroke-dasharray:none;stroke-opacity:1"
       id="path4007"
       d="m 695.42386,451.38386 c 0,-10.37606 74.2825,-14.85176 124.23388,-14.91886 88.86039,-0.11825 183.46016,10.1348 183.46016,26.51962"
       inkscape:connector-curvature="0" />
    <path
       style="fill:none;stroke:#000000;stroke-width:8;stroke-linecap:round;stroke-linejoin:round;stroke-miterlimit:4;stroke-dasharray:none;stroke-opacity:1"
       id="path4011"
       d="m 695.42386,428.92631 c 0,-10.58208 74.2825,-15.05788 124.23388,-15.12488 88.86039,-0.11824 183.46016,10.1348 183.46016,26.51963"
       inkscape:connector-curvature="0" />
    <path
       style="fill:none;stroke:#000000;stroke-width:8;stroke-linecap:round;stroke-linejoin:round;stroke-miterlimit:4;stroke-dasharray:none;stroke-opacity:1"
       id="path3989"
       d="m 1003.1179,129.87083 c 0,-16.38533 -95.67657,-27.25487 -183.46017,-27.25487 -44.48656,-0.24057 -124.23388,4.70811 -124.23388,16.39811"
       inkscape:connector-curvature="0" />
    <path
       style="fill:none;stroke:#000000;stroke-width:8;stroke-linecap:round;stroke-linejoin:round;stroke-miterlimit:4;stroke-dasharray:none;stroke-opacity:1"
       id="path3985"
       d="m 1003.1179,107.61932 c 0,-16.38532 -95.67657,-27.25487 -183.46017,-27.25487 -44.48656,-0.24057 -124.23388,4.70811 -124.23388,16.19207"
       inkscape:connector-curvature="0" />
    <path
       style="fill:none;stroke:#000000;stroke-width:8;stroke-linecap:round;stroke-linejoin:round;stroke-miterlimit:4;stroke-dasharray:none;stroke-opacity:1"
       id="path3981"
       d="m 1003.1179,84.95576 c 0,-16.38533 -95.67657,-27.25487 -183.46017,-27.25487 -44.48656,-0.24058 -124.23388,4.70808 -124.23388,16.39808"
       inkscape:connector-curvature="0" />
    <path
       style="fill:none;stroke:#000000;stroke-width:8;stroke-linecap:round;stroke-linejoin:round;stroke-miterlimit:4;stroke-dasharray:none;stroke-opacity:1"
       id="path3977"
       d="m 1003.1179,62.70424 c 0,-16.38535 -95.67657,-27.25487 -183.46017,-27.25487 -44.48656,-0.2406 -124.23388,4.96563 -124.23388,16.79268"
       inkscape:connector-curvature="0" />
    <path
       sodipodi:nodetypes="ccc"
       style="fill:none;stroke:#000000;stroke-width:8;stroke-linecap:round;stroke-linejoin:round;stroke-miterlimit:4;stroke-dasharray:none;stroke-opacity:1"
       id="path3922"
       d="m 1003.1179,40.98437 c 0,-16.38536 -95.67657,-27.25488 -183.46017,-27.25488 -7.17821,-0.0388 -12.60189,0.0575 -21.13303,0.29577"
       inkscape:connector-curvature="0" />
    <path
       inkscape:connector-curvature="0"
       d="M 798.5247,14.02526 H 640.80313"
       id="path224"
       style="fill:none;stroke:#000000;stroke-width:8;stroke-linecap:round;stroke-linejoin:round;stroke-miterlimit:4;stroke-dasharray:none;stroke-opacity:1"
       sodipodi:nodetypes="cc" />
    <path
       inkscape:connector-curvature="0"
       d="m 640.80313,25.64653 a 11.761316,11.881311 0 1 1 0.228,0"
       id="path226"
       style="color:#000000;display:inline;overflow:visible;visibility:visible;fill:#000000;fill-opacity:1;fill-rule:evenodd;stroke:#000000;stroke-width:8.89683151;stroke-linecap:round;stroke-linejoin:round;stroke-miterlimit:4;stroke-dasharray:none;stroke-dashoffset:0;stroke-opacity:1;marker:none;enable-background:accumulate" />
    <path
       inkscape:connector-curvature="0"
       d="m 615.83398,10.044777 h -29.8337 v 7.45839 h 29.8337 z"
       style="display:inline;fill:#0000ff;stroke:none;stroke-width:1.86460662"
       id="path1431" />
    <g
       transform="translate(1080.6995,-108.33944)"
       aria-label="I"
       style="font-style:normal;font-weight:normal;font-size:40px;line-height:1.25;font-family:sans-serif;letter-spacing:0px;word-spacing:0px;fill:#ff00ff;fill-opacity:1;stroke:none"
       id="text5042">
      <path
         inkscape:connector-curvature="0"
         d="m 27.392256,362.80964 0.333334,-2.73334 h 19.533332 l -0.4,2.73334 q -2.866666,0.53333 -4.6,2 v 35 q 1.333334,1.26666 5,2 l -0.466666,2.73333 h -19.4 l 0.266667,-2.73333 q 3,-0.46667 4.8,-2 v -35 q -1.466667,-1.46667 -5.066667,-2 z"
         style="font-style:normal;font-variant:normal;font-weight:bold;font-stretch:normal;font-size:66.66666412px;font-family:Caladea;-inkscape-font-specification:'Caladea Bold';fill:#ff00ff;fill-opacity:1"
         id="path5044" />
    </g>
  </g>
  <use
     height="100%"
     width="100%"
     transform="translate(5e-6,80.000003)"
     id="use5061"
     xlink:href="#g4926"
     y="0"
     x="0" />
  <path
     style="fill:none;stroke:#ffffff;stroke-width:10;stroke-linecap:butt;stroke-linejoin:miter;stroke-miterlimit:4;stroke-dasharray:none;stroke-opacity:1"
     d="M 355.58021,262.97465 V 411.4082"
     id="path1003"
     inkscape:connector-curvature="0"
     sodipodi:nodetypes="cc" />
  <g
     id="g475"
     style="stroke:#808000"
     transform="matrix(0,-2.4148933,2.4148933,0,-1530.11,1458.8866)">
    <use
       x="0"
       y="0"
       xlink:href="#g132"
       id="use136"
       transform="translate(0,53.33811)"
       width="100%"
       height="100%" />
    <use
       height="100%"
       width="100%"
       transform="translate(0,106.67617)"
       id="use138"
       xlink:href="#g132"
       y="0"
       x="0" />
    <g
       id="g132">
      <path
         sodipodi:nodetypes="cc"
         style="display:inline;fill:none;stroke:#808000;stroke-width:2;stroke-linecap:round;stroke-linejoin:round"
         id="path1951"
         d="M 321.67235,727.49647 H 601.91017"
         inkscape:connector-curvature="0" />
      <path
         style="fill:#808000;stroke:none;stroke-width:1.3666786;stroke-linecap:round;stroke-linejoin:round"
         inkscape:connector-curvature="0"
         d="m 505.7603,727.4899 -3.42259,-3.06846 8.20596,3.05928 -8.19416,3.09076 z"
         id="use2193" />
      <use
         x="0"
         y="0"
         xlink:href="#use2193"
         id="use199"
         transform="translate(-81.163003)"
         width="100%"
         height="100%" />
    </g>
  </g>
  <g
     id="g488"
     transform="translate(-496.97935,55.52227)">
    <path
       sodipodi:nodetypes="cc"
       style="fill:none;stroke:#000000;stroke-width:8;stroke-linecap:round;stroke-linejoin:round;stroke-miterlimit:4;stroke-dasharray:none;stroke-opacity:1"
       id="path3959"
       d="M 798.52471,534.20689 H 640.80314"
       inkscape:connector-curvature="0" />
    <path
       style="color:#000000;display:inline;overflow:visible;visibility:visible;fill:#000000;fill-opacity:1;fill-rule:evenodd;stroke:#000000;stroke-width:8.89683151;stroke-linecap:round;stroke-linejoin:round;stroke-miterlimit:4;stroke-dasharray:none;stroke-dashoffset:0;stroke-opacity:1;marker:none;enable-background:accumulate"
       id="path5878"
       d="m 640.80314,545.82816 a 11.761316,11.881311 0 1 1 0.228,0"
       inkscape:connector-curvature="0" />
    <path
       style="fill:none;stroke:#000000;stroke-width:8;stroke-linecap:round;stroke-linejoin:round;stroke-miterlimit:4;stroke-dasharray:none;stroke-opacity:1"
       id="path4031"
       d="m 1003.1179,506.95601 c 0,16.38536 -95.67656,27.25488 -183.46016,27.25488 -7.17821,0.0388 -12.60189,0.23439 -21.13303,-0.004"
       inkscape:connector-curvature="0" />
    <path
       style="fill:none;stroke:#000000;stroke-width:8;stroke-linecap:round;stroke-linejoin:round;stroke-miterlimit:4;stroke-dasharray:none;stroke-opacity:1"
       id="path4001"
       d="m 1003.1179,485.23614 c 0,16.38535 -95.67656,27.25487 -183.46016,27.25487 -44.48656,0.2406 -124.23388,-4.96563 -124.23388,-16.79268"
       inkscape:connector-curvature="0" />
    <path
       style="fill:none;stroke:#000000;stroke-width:8;stroke-linecap:round;stroke-linejoin:round;stroke-miterlimit:4;stroke-dasharray:none;stroke-opacity:1"
       id="path4005"
       d="m 1003.1179,462.98462 c 0,16.38533 -95.67656,27.25487 -183.46016,27.25487 -44.48656,0.24058 -124.23388,-4.70808 -124.23388,-16.39808"
       inkscape:connector-curvature="0" />
    <path
       style="fill:none;stroke:#000000;stroke-width:8;stroke-linecap:round;stroke-linejoin:round;stroke-miterlimit:4;stroke-dasharray:none;stroke-opacity:1"
       id="path4009"
       d="m 1003.1179,440.32106 c 0,16.38532 -95.67656,27.25487 -183.46016,27.25487 -44.48656,0.24057 -124.23388,-4.70811 -124.23388,-16.19207"
       inkscape:connector-curvature="0" />
    <path
       style="fill:none;stroke:#000000;stroke-width:8;stroke-linecap:round;stroke-linejoin:round;stroke-miterlimit:4;stroke-dasharray:none;stroke-opacity:1"
       id="path4013"
       d="m 1003.1179,418.06955 c 0,16.38533 -95.67656,27.25487 -183.46016,27.25487 -44.48656,0.24057 -124.23388,-4.70811 -124.23388,-16.39811"
       inkscape:connector-curvature="0" />
    <path
       style="fill:none;stroke:#000000;stroke-width:8;stroke-linecap:round;stroke-linejoin:round;stroke-miterlimit:4;stroke-dasharray:none;stroke-opacity:1"
       id="path3983"
       d="m 695.42385,96.55652 c 0,10.37606 74.2825,14.85176 124.23388,14.91886 88.86039,0.11825 183.46017,-10.1348 183.46017,-26.51962"
       inkscape:connector-curvature="0" />
    <path
       style="fill:none;stroke:#000000;stroke-width:8;stroke-linecap:round;stroke-linejoin:round;stroke-miterlimit:4;stroke-dasharray:none;stroke-opacity:1"
       id="path3979"
       d="m 695.42385,74.09897 c 0,10.58211 74.2825,15.05787 124.23388,15.12487 88.86039,0.11825 183.46017,-10.13479 183.46017,-26.5196"
       inkscape:connector-curvature="0" />
    <path
       style="fill:none;stroke:#000000;stroke-width:8;stroke-linecap:round;stroke-linejoin:round;stroke-miterlimit:4;stroke-dasharray:none;stroke-opacity:1"
       id="path3975"
       d="m 695.42385,52.24205 c 0,10.71915 74.2825,15.19491 124.23388,15.26191 88.86039,0.11827 183.46017,-10.13476 183.46017,-26.51959"
       inkscape:connector-curvature="0" />
    <path
       style="fill:none;stroke:#000000;stroke-width:8;stroke-linecap:round;stroke-linejoin:round;stroke-miterlimit:4;stroke-dasharray:none;stroke-opacity:1"
       id="path3987"
       d="m 695.42385,119.01407 c 0,10.58208 74.2825,15.05788 124.23388,15.12488 88.86039,0.11824 183.46017,-10.1348 183.46017,-26.51963"
       inkscape:connector-curvature="0" />
    <path
       id="path1130-5"
       style="display:inline;fill:#ff0000;stroke:none;stroke-width:1.86460662"
       d="m 605.54936,530.30792 v -11.18764 h -7.4587 v 11.18764 h -11.1876 v 7.45841 h 11.1876 v 11.18764 h 7.4587 v -11.18764 h 11.1876 v -7.45841 z"
       inkscape:connector-curvature="0" />
  </g>
  <path
     style="display:inline;fill:none;stroke:#ff00ff;stroke-width:7.55905533;stroke-linecap:butt;stroke-linejoin:miter;stroke-miterlimit:4;stroke-dasharray:none;stroke-opacity:1;marker-end:url(#marker27811)"
     d="M 586.30205,358.31668 V 300.12252"
     id="path10403"
     inkscape:connector-curvature="0"
     sodipodi:nodetypes="cc" />
  <use
     x="0"
     y="0"
     xlink:href="#g502"
     id="use514"
     transform="translate(579.99996)"
     width="100%"
     height="100%" />
  <use
     height="100%"
     width="100%"
     transform="translate(579.99996)"
     id="use5065"
     xlink:href="#g4926"
     y="0"
     x="0" />
  <path
     style="fill:none;stroke:#ffffff;stroke-width:10;stroke-linecap:butt;stroke-linejoin:miter;stroke-miterlimit:4;stroke-dasharray:none;stroke-opacity:1"
     d="M 857.11063,249.34841 V 397.78196"
     id="path1003-8"
     inkscape:connector-curvature="0"
     sodipodi:nodetypes="cc" />
  <path
     sodipodi:nodetypes="cc"
     inkscape:connector-curvature="0"
     id="path1058"
     d="M 908.75159,249.34841 V 397.78196"
     style="fill:none;stroke:#ffffff;stroke-width:10;stroke-linecap:butt;stroke-linejoin:miter;stroke-miterlimit:4;stroke-dasharray:none;stroke-opacity:1" />
  <path
     style="fill:none;stroke:#ffffff;stroke-width:10;stroke-linecap:butt;stroke-linejoin:miter;stroke-miterlimit:4;stroke-dasharray:none;stroke-opacity:1"
     d="M 960.42711,249.34841 V 397.78196"
     id="path1060"
     inkscape:connector-curvature="0"
     sodipodi:nodetypes="cc" />
  <path
     sodipodi:nodetypes="cc"
     inkscape:connector-curvature="0"
     id="path1062"
     d="M 1011.8349,249.34841 V 397.78196"
     style="fill:none;stroke:#ffffff;stroke-width:10;stroke-linecap:butt;stroke-linejoin:miter;stroke-miterlimit:4;stroke-dasharray:none;stroke-opacity:1" />
  <g
     transform="matrix(0,-2.4148933,2.4148933,0,-951.06747,1455.1766)"
     style="stroke:#ff00ff"
     id="g572">
    <use
       style="stroke:#808000"
       x="0"
       y="0"
       xlink:href="#g132"
       id="use141"
       width="100%"
       height="100%" />
    <use
       height="100%"
       width="100%"
       id="use158"
       xlink:href="#g132"
       y="0"
       x="0"
       style="stroke:#808000"
       transform="translate(0,21.33527)" />
    <use
       transform="translate(0,42.6705)"
       style="stroke:#808000"
       x="0"
       y="0"
       xlink:href="#g132"
       id="use160"
       width="100%"
       height="100%" />
    <use
       height="100%"
       width="100%"
       id="use162"
       xlink:href="#g132"
       y="0"
       x="0"
       style="stroke:#808000"
       transform="translate(0,64.00571)" />
    <use
       transform="translate(0,85.34093)"
       style="stroke:#808000"
       x="0"
       y="0"
       xlink:href="#g132"
       id="use164"
       width="100%"
       height="100%" />
    <use
       height="100%"
       width="100%"
       id="use166"
       xlink:href="#g132"
       y="0"
       x="0"
       style="stroke:#808000"
       transform="translate(0,106.67617)" />
  </g>
  <use
     x="0"
     y="0"
     xlink:href="#g488"
     id="use516"
     transform="translate(579.99996)"
     width="100%"
     height="100%" />
  <path
     inkscape:connector-curvature="0"
     id="path574"
     d="M 1166.3021,380.31668 V 282.12252"
     style="display:inline;fill:none;stroke:#ff00ff;stroke-width:7.55905533;stroke-linecap:butt;stroke-linejoin:miter;stroke-miterlimit:4;stroke-dasharray:none;stroke-opacity:1;marker-end:url(#marker27811)" />
  <use
     height="100%"
     width="100%"
     transform="translate(1180)"
     id="use576"
     xlink:href="#g502"
     y="0"
     x="0" />
  <path
     sodipodi:nodetypes="cc"
     inkscape:connector-curvature="0"
     id="path1062-0"
     d="M 1438.4117,244.84067 V 393.27422"
     style="fill:none;stroke:#ffffff;stroke-width:8;stroke-linecap:butt;stroke-linejoin:miter;stroke-miterlimit:4;stroke-dasharray:none;stroke-opacity:1" />
  <path
     style="fill:none;stroke:#ffffff;stroke-width:10;stroke-linecap:butt;stroke-linejoin:miter;stroke-miterlimit:4;stroke-dasharray:none;stroke-opacity:1"
     d="M 1470.2501,244.84067 V 393.27422"
     id="path1079"
     inkscape:connector-curvature="0"
     sodipodi:nodetypes="cc" />
  <path
     style="fill:none;stroke:#ffffff;stroke-width:10;stroke-linecap:butt;stroke-linejoin:miter;stroke-miterlimit:4;stroke-dasharray:none;stroke-opacity:1"
     d="M 1534.4895,244.84067 V 393.27422"
     id="path1083"
     inkscape:connector-curvature="0"
     sodipodi:nodetypes="cc" />
  <path
     sodipodi:nodetypes="cc"
     inkscape:connector-curvature="0"
     id="path1085"
     d="M 1566.7129,244.84067 V 393.27422"
     style="fill:none;stroke:#ffffff;stroke-width:10;stroke-linecap:butt;stroke-linejoin:miter;stroke-miterlimit:4;stroke-dasharray:none;stroke-opacity:1" />
  <path
     style="fill:none;stroke:#ffffff;stroke-width:10;stroke-linecap:butt;stroke-linejoin:miter;stroke-miterlimit:4;stroke-dasharray:none;stroke-opacity:1"
     d="M 1599.0209,244.84067 V 393.27422"
     id="path1087"
     inkscape:connector-curvature="0"
     sodipodi:nodetypes="cc" />
  <path
     sodipodi:nodetypes="cc"
     inkscape:connector-curvature="0"
     id="path1089"
     d="M 1630.5133,244.84067 V 393.27422"
     style="fill:none;stroke:#ffffff;stroke-width:8;stroke-linecap:butt;stroke-linejoin:miter;stroke-miterlimit:4;stroke-dasharray:none;stroke-opacity:1" />
  <g
     id="g632"
     style="stroke:#ff00ff"
     transform="matrix(0,-2.4148933,2.4148933,0,-351.06745,1455.1766)">
    <use
       height="100%"
       width="100%"
       id="use166-6"
       xlink:href="#g132"
       y="0"
       x="0"
       style="stroke:#808000" />
    <use
       style="stroke:#808000"
       x="0"
       y="0"
       xlink:href="#g132"
       id="use183"
       width="100%"
       height="100%"
       transform="translate(0,13.32923)" />
    <use
       transform="translate(0,26.63155)"
       height="100%"
       width="100%"
       id="use185"
       xlink:href="#g132"
       y="0"
       x="0"
       style="stroke:#808000" />
    <use
       style="stroke:#808000"
       x="0"
       y="0"
       xlink:href="#g132"
       id="use187"
       width="100%"
       height="100%"
       transform="translate(0,39.97155)" />
    <use
       transform="translate(0,53.32693)"
       height="100%"
       width="100%"
       id="use189"
       xlink:href="#g132"
       y="0"
       x="0"
       style="stroke:#808000" />
    <use
       style="stroke:#808000"
       x="0"
       y="0"
       xlink:href="#g132"
       id="use191"
       width="100%"
       height="100%"
       transform="translate(0,66.66539)" />
    <use
       transform="translate(0,80.00155)"
       height="100%"
       width="100%"
       id="use193"
       xlink:href="#g132"
       y="0"
       x="0"
       style="stroke:#808000" />
    <use
       style="stroke:#808000"
       x="0"
       y="0"
       xlink:href="#g132"
       id="use195"
       width="100%"
       height="100%"
       transform="translate(0,93.33771)" />
    <use
       transform="translate(0,106.67617)"
       height="100%"
       width="100%"
       id="use197"
       xlink:href="#g132"
       y="0"
       x="0"
       style="stroke:#808000" />
  </g>
  <use
     height="100%"
     width="100%"
     transform="translate(1180)"
     id="use634"
     xlink:href="#g488"
     y="0"
     x="0" />
  <path
     style="display:inline;fill:none;stroke:#ff00ff;stroke-width:7.55905533;stroke-linecap:butt;stroke-linejoin:miter;stroke-miterlimit:4;stroke-dasharray:none;stroke-opacity:1;marker-end:url(#marker27811)"
     d="M 1766.3021,402.31668 V 264.12252"
     id="path636"
     inkscape:connector-curvature="0"
     sodipodi:nodetypes="cc" />
  <g
     transform="translate(-393.72268,404.97138)"
     id="g1019"
     style="stroke:#ffffff">
    <g
       id="g1011"
       style="stroke:#ffffff">
      <path
         style="fill:#ffffff;fill-opacity:1;stroke:#ffffff;stroke-width:8;stroke-linecap:round;stroke-miterlimit:4;stroke-dasharray:none"
         d="m 799.77331,-97.888283 c -31.71149,3.163335 -70.78167,3.163335 -102.49316,0"
         id="path1007"
         inkscape:connector-curvature="0"
         sodipodi:nodetypes="cc" />
    </g>
    <g
       id="g1017"
       style="stroke:#ffffff">
      <path
         style="fill:#ffffff;fill-opacity:1;stroke:#ffffff;stroke-width:8;stroke-linecap:round;stroke-miterlimit:4;stroke-dasharray:none"
         d="m 774.84487,-106.20117 c -16.28572,1.4485 -36.35055,1.4485 -52.63627,0"
         id="path1013"
         inkscape:connector-curvature="0"
         sodipodi:nodetypes="cc" />
    </g>
  </g>
  <g
     id="g4922"
     transform="translate(-598.41277,841.69422)">
    <g
       id="g4906">
      <path
         style="fill:none;fill-opacity:1;stroke:#800080;stroke-width:5;stroke-linecap:round;stroke-miterlimit:4;stroke-dasharray:none"
         id="path290"
         sodipodi:type="arc"
         sodipodi:cx="748.52673"
         sodipodi:cy="-113.22437"
         sodipodi:rx="102.49316"
         sodipodi:ry="17.708591"
         sodipodi:start="0"
         sodipodi:end="3.1415927"
         d="m 851.01989,-113.22437 a 102.49316,17.708591 0 0 1 -51.24658,15.336087 102.49316,17.708591 0 0 1 -102.49316,0 102.49316,17.708591 0 0 1 -51.24657,-15.336087"
         sodipodi:open="true" />
      <path
         id="use199-7"
         d="m 694.78844,-97.649995 7.17712,8.46821 -18.6235,-10.021982 20.62121,-4.694773 z"
         inkscape:connector-curvature="0"
         style="fill:#800080;stroke:none;stroke-width:3.30038309;stroke-linecap:round;stroke-linejoin:round;stroke-opacity:1" />
    </g>
    <g
       id="g4912">
      <path
         sodipodi:open="true"
         d="m 801.163,-113.22359 a 52.636265,8.1087866 0 0 1 -26.31813,7.02242 52.636265,8.1087866 0 0 1 -52.63627,0 52.636265,8.1087866 0 0 1 -26.31813,-7.02242"
         sodipodi:end="3.1415927"
         sodipodi:start="0"
         sodipodi:ry="8.1087866"
         sodipodi:rx="52.636265"
         sodipodi:cy="-113.22359"
         sodipodi:cx="748.52673"
         sodipodi:type="arc"
         id="path4827"
         style="fill:none;fill-opacity:1;stroke:#800080;stroke-width:5;stroke-linecap:round;stroke-miterlimit:4;stroke-dasharray:none" />
      <use
         x="0"
         y="0"
         xlink:href="#use199-7"
         id="use4902"
         transform="translate(30.03865,-8.257635)"
         width="100%"
         height="100%" />
    </g>
  </g>
  <g
     aria-label="B"
     style="font-style:normal;font-weight:normal;font-size:40px;line-height:1.25;font-family:sans-serif;letter-spacing:0px;word-spacing:0px;fill:#808000;fill-opacity:1;stroke:none"
     id="text5034"
     transform="translate(149.84316,105.02275)">
    <path
       d="m 46.038276,203.0148 q 8.733333,0 13.333333,2.86666 4.6,2.8 4.6,8.2 0,7.33333 -8.133333,9.46667 4.666667,1.4 7.133333,4.4 2.533333,2.93333 2.533333,7 0,5.86666 -4.799999,9.2 -4.8,3.33333 -13.2,3.33333 H 26.971611 l 0.266666,-2.73333 q 2.266667,-0.46667 3.8,-2 v -35 q -1.2,-1.2 -4.066666,-2.13333 l 0.266666,-2.6 z m -1.599999,23.13333 h -3.6 v 17 q 2.6,0.2 4.533333,0.2 4.866666,0 7.133333,-2 2.333333,-2 2.333333,-6.33334 0,-8.86666 -10.399999,-8.86666 z m 9.199999,-11.93333 q 0,-3.46667 -2.2,-5.26667 -2.2,-1.86667 -5.533333,-1.86667 -3.266666,0 -5.066666,0.26667 v 14.6 h 3.666666 q 9.133333,0 9.133333,-7.73333 z"
       style="font-style:normal;font-variant:normal;font-weight:bold;font-stretch:normal;font-size:66.66666412px;font-family:Caladea;-inkscape-font-specification:'Caladea Bold';fill:#808000;fill-opacity:1"
       id="path5050"
       inkscape:connector-curvature="0" />
  </g>
  <g
     aria-label="E"
     style="font-style:normal;font-weight:normal;font-size:40px;line-height:1.25;font-family:sans-serif;letter-spacing:0px;word-spacing:0px;fill:#800080;fill-opacity:1;stroke:none"
     id="text5038"
     transform="translate(240.16798,-62.263037)">
    <path
       d="m 61.125588,297.96147 q -1.533333,0.46666 -2.533333,0.46666 -0.933333,0 -2.4,-0.26666 -1,-4.6 -2.866666,-7.13334 h -11.2 v 15.8 l 6.2,-0.46666 q 1.2,-0.13334 2.2,-1.33334 1.066666,-1.2 1.533333,-3.13333 h 3.466667 v 13.8 h -3.466667 q -0.933333,-2.66667 -1.8,-3.73333 -0.866666,-1.06667 -2,-1.2 l -6.133333,-0.53334 v 17.06667 h 11.666666 q 2.133334,-3.2 3.133334,-8.46667 1.4,-0.2 2.599999,-0.2 1.266667,0 2.333334,0.2 l -0.666667,12.6 H 28.258923 l 0.266667,-2.73333 q 2.6,-0.4 3.8,-1.66667 v -35.66666 q -1.6,-1.4 -4.066667,-1.93334 l 0.2,-2.46666 h 32.399999 z"
       style="font-style:normal;font-variant:normal;font-weight:bold;font-stretch:normal;font-size:66.66666412px;font-family:Caladea;-inkscape-font-specification:'Caladea Bold';fill:#800080"
       id="path5047"
       inkscape:connector-curvature="0" />
  </g>
  <g
     id="g1153"
     transform="translate(360.00001,-0.0648871)">
    <g
       transform="translate(0,-40)"
       id="g1139">
      <path
         style="fill:none;fill-opacity:1;stroke:#ffffff;stroke-width:8;stroke-linecap:round;stroke-miterlimit:4;stroke-dasharray:none"
         d="m 94.285072,335.90487 c -6.438288,4.68228 -23.757596,8.77752 -48.47379,11.24305 -31.711493,3.16334 -70.781665,3.16334 -102.493158,0 -25.151786,-2.50898 -42.643664,-6.70562 -48.804024,-11.49115"
         id="path1105"
         inkscape:connector-curvature="0"
         sodipodi:nodetypes="cssc" />
      <path
         id="path1107"
         d="m -57.879278,347.49645 9.473798,11.17803 -24.58302,-13.229 27.219998,-6.19709 z"
         inkscape:connector-curvature="0"
         style="fill:#ffffff;stroke:none;stroke-width:4.35650587;stroke-linecap:round;stroke-linejoin:round;stroke-opacity:1" />
      <path
         style="fill:none;fill-opacity:1;stroke:#ffffff;stroke-width:8;stroke-linecap:round;stroke-miterlimit:4;stroke-dasharray:none"
         d="m 41.655052,335.43559 c -4.536357,1.39906 -11.679662,2.5907 -20.772215,3.39942 -16.2857175,1.4485 -36.350549,1.4485 -52.636266,0 -9.257931,-0.82343 -16.495061,-2.04383 -21.017148,-3.47597"
         id="path1111"
         inkscape:connector-curvature="0"
         sodipodi:nodetypes="cssc" />
      <path
         style="fill:#ffffff;stroke:none;stroke-width:4.35650587;stroke-linecap:round;stroke-linejoin:round;stroke-opacity:1"
         inkscape:connector-curvature="0"
         d="m -27.967561,339.36575 9.473798,11.17804 -24.58302,-13.22902 27.219998,-6.19711 z"
         id="use1113" />
    </g>
    <g
       id="g1103"
       transform="translate(-753.96203,405.03619)">
      <g
         id="g1095">
        <path
           style="fill:none;fill-opacity:1;stroke:#800080;stroke-width:5;stroke-linecap:round;stroke-miterlimit:4;stroke-dasharray:none"
           id="path1091"
           sodipodi:type="arc"
           sodipodi:cx="748.52673"
           sodipodi:cy="-113.22437"
           sodipodi:rx="102.49316"
           sodipodi:ry="17.708591"
           sodipodi:start="0"
           sodipodi:end="3.1415927"
           d="m 851.01989,-113.22437 a 102.49316,17.708591 0 0 1 -51.24658,15.336087 102.49316,17.708591 0 0 1 -102.49316,0 102.49316,17.708591 0 0 1 -51.24657,-15.336087"
           sodipodi:open="true" />
        <path
           id="path1093"
           d="m 694.78844,-97.649995 7.17712,8.46821 -18.6235,-10.021982 20.62121,-4.694773 z"
           inkscape:connector-curvature="0"
           style="fill:#800080;stroke:none;stroke-width:3.30038309;stroke-linecap:round;stroke-linejoin:round;stroke-opacity:1" />
      </g>
      <g
         id="g1101">
        <path
           sodipodi:open="true"
           d="m 801.163,-113.22359 a 52.636265,8.1087866 0 0 1 -26.31813,7.02242 52.636265,8.1087866 0 0 1 -52.63627,0 52.636265,8.1087866 0 0 1 -26.31813,-7.02242"
           sodipodi:end="3.1415927"
           sodipodi:start="0"
           sodipodi:ry="8.1087866"
           sodipodi:rx="52.636265"
           sodipodi:cy="-113.22359"
           sodipodi:cx="748.52673"
           sodipodi:type="arc"
           id="path1097"
           style="fill:none;fill-opacity:1;stroke:#800080;stroke-width:5;stroke-linecap:round;stroke-miterlimit:4;stroke-dasharray:none" />
        <use
           x="0"
           y="0"
           xlink:href="#use199-7"
           id="use1099"
           transform="translate(30.03865,-8.257635)"
           width="100%"
           height="100%" />
      </g>
    </g>
  </g>
  <use
     x="0"
     y="0"
     xlink:href="#g1153"
     id="use1155"
     transform="translate(0,80)"
     width="100%"
     height="100%" />
  <use
     height="100%"
     width="100%"
     transform="translate(580,80)"
     id="use1159"
     xlink:href="#g1153"
     y="0"
     x="0" />
  <use
     x="0"
     y="0"
     xlink:href="#g1153"
     id="use1161"
     transform="translate(580)"
     width="100%"
     height="100%" />
  <use
     height="100%"
     width="100%"
     transform="translate(1180)"
     id="use1165"
     xlink:href="#g1153"
     y="0"
     x="0" />
  <use
     x="0"
     y="0"
     xlink:href="#g1153"
     id="use1167"
     transform="translate(1180,80)"
     width="100%"
     height="100%" />
</svg>
