<?xml version="1.0" encoding="UTF-8" standalone="no"?>
<!-- Created with Inkscape (http://www.inkscape.org/) -->
<svg
   xmlns:dc="http://purl.org/dc/elements/1.1/"
   xmlns:cc="http://web.resource.org/cc/"
   xmlns:rdf="http://www.w3.org/1999/02/22-rdf-syntax-ns#"
   xmlns:svg="http://www.w3.org/2000/svg"
   xmlns="http://www.w3.org/2000/svg"
   xmlns:xlink="http://www.w3.org/1999/xlink"
   xmlns:sodipodi="http://sodipodi.sourceforge.net/DTD/sodipodi-0.dtd"
   xmlns:inkscape="http://www.inkscape.org/namespaces/inkscape"
   width="623.35944"
   height="293.76776"
   id="svg2"
   sodipodi:version="0.32"
   inkscape:version="0.45.1"
   sodipodi:docbase="D:\Mes documents\Wikiversité"
   sodipodi:docname="WV-ExoInduction02-3.svg"
   inkscape:output_extension="org.inkscape.output.svg.inkscape"
   version="1.0">
  <defs
     id="defs4">
    <linearGradient
       inkscape:collect="always"
       id="linearGradient3441">
      <stop
         style="stop-color:#cae8ff;stop-opacity:1;"
         offset="0"
         id="stop3443" />
      <stop
         style="stop-color:#cae8ff;stop-opacity:0;"
         offset="1"
         id="stop3445" />
    </linearGradient>
    <linearGradient
       inkscape:collect="always"
       xlink:href="#linearGradient3441"
       id="linearGradient3453"
       gradientUnits="userSpaceOnUse"
       gradientTransform="matrix(0.9911388,0,0,1.0125919,294.12996,76.28987)"
       x1="95.254623"
       y1="298.76834"
       x2="371.98453"
       y2="154.01698" />
    <linearGradient
       inkscape:collect="always"
       id="linearGradient5095">
      <stop
         style="stop-color:#ffffff;stop-opacity:1;"
         offset="0"
         id="stop5097" />
      <stop
         style="stop-color:#ffffff;stop-opacity:0;"
         offset="1"
         id="stop5099" />
    </linearGradient>
    <linearGradient
       inkscape:collect="always"
       xlink:href="#linearGradient5095"
       id="linearGradient3627"
       gradientUnits="userSpaceOnUse"
       gradientTransform="matrix(0.4755447,0,0,0.4755447,151.58301,206.01015)"
       x1="195.89999"
       y1="353.86218"
       x2="562.09998"
       y2="353.86218" />
  </defs>
  <sodipodi:namedview
     id="base"
     pagecolor="#ffffff"
     bordercolor="#666666"
     borderopacity="1.0"
     inkscape:pageopacity="0.0"
     inkscape:pageshadow="2"
     inkscape:zoom="2"
     inkscape:cx="300.24801"
     inkscape:cy="157.20181"
     inkscape:document-units="px"
     inkscape:current-layer="layer1"
     inkscape:window-width="1280"
     inkscape:window-height="753"
     inkscape:window-x="-4"
     inkscape:window-y="-4"
     showguides="true"
     inkscape:guide-bbox="true"
     width="624px"
     height="297.77px" />
  <metadata
     id="metadata7">
    <rdf:RDF>
      <cc:Work
         rdf:about="">
        <dc:format>image/svg+xml</dc:format>
        <dc:type
           rdf:resource="http://purl.org/dc/dcmitype/StillImage" />
      </cc:Work>
    </rdf:RDF>
  </metadata>
  <g
     inkscape:label="Calque 1"
     inkscape:groupmode="layer"
     id="layer1"
     transform="translate(-155.5724,-215.06374)">
    <path
       style="fill:none;fill-rule:evenodd;stroke:#00aa88;stroke-width:1.79999995;stroke-linecap:butt;stroke-linejoin:miter;stroke-miterlimit:4;stroke-opacity:1"
       d="M 479.5724,441.8315 C 468.04332,446.59639 464.70717,466.99452 471.5724,472.8315"
       id="path8151" />
    <path
       style="opacity:0.47560975;fill:#ffe993;fill-opacity:1;stroke:none;stroke-width:1.79950619;stroke-linejoin:miter;stroke-miterlimit:4;stroke-dashoffset:0;stroke-opacity:1"
       d="M 155.5724,215.06374 L 778.57239,215.06374 L 778.57239,508.8315 L 155.5724,508.8315 L 155.5724,215.06374 z "
       id="rect7641" />
    <path
       style="fill:url(#linearGradient3453);fill-opacity:1;fill-rule:evenodd;stroke:#00a4e4;stroke-width:2.00361562;stroke-linecap:round;stroke-linejoin:miter;stroke-miterlimit:4;stroke-dashoffset:0;stroke-opacity:1"
       d="M 317.97645,238.65831 L 723.97284,367.09765 L 578.47284,472.65469 L 172.47645,347.15469 L 317.97645,238.65831 z "
       id="rect2470" />
    <path
       style="fill:none;fill-rule:evenodd;stroke:#000000;stroke-width:2.12100005;stroke-linecap:butt;stroke-linejoin:miter;stroke-miterlimit:4;stroke-opacity:1"
       d="M 171.61018,347.4514 C 174.43861,344.2694 318.77418,238.264 318.77418,238.264"
       id="path5903" />
    <path
       style="fill:none;fill-rule:evenodd;stroke:#000000;stroke-width:2.12100005;stroke-linecap:butt;stroke-linejoin:miter;stroke-miterlimit:4;stroke-opacity:1"
       d="M 317.56779,238.69997 L 724.89622,366.90708"
       id="path5901" />
    <path
       style="fill:none;fill-rule:evenodd;stroke:#000000;stroke-width:2.12100005;stroke-linecap:butt;stroke-linejoin:miter;stroke-miterlimit:4;stroke-opacity:1"
       d="M 171.62132,346.74086 L 579.12132,472.74086"
       id="path4930" />
    <path
       style="fill:#ffffff;fill-opacity:1;fill-rule:evenodd;stroke:#000000;stroke-width:2;stroke-linecap:round;stroke-linejoin:miter;stroke-miterlimit:4;stroke-dashoffset:0;stroke-opacity:1"
       d="M 271.07855,265.5836 L 289.30148,265.6159 L 221.1,316.4035 L 201.98062,316.3712 L 271.07855,265.5836 z "
       id="rect3455" />
    <path
       style="fill:none;fill-rule:evenodd;stroke:#8b8b8b;stroke-width:1.70000005;stroke-linecap:butt;stroke-linejoin:miter;stroke-miterlimit:4;stroke-opacity:1"
       d="M 671.70711,344.13453 L 754.32233,370.41702"
       id="path2172"
       sodipodi:nodetypes="cc" />
    <path
       style="fill:#8b8b8b;fill-opacity:1;fill-rule:evenodd;stroke:#8b8b8b;stroke-width:1px;stroke-linecap:butt;stroke-linejoin:miter;stroke-opacity:1"
       d="M 750.64659,364.44754 L 752.37324,369.77757 L 747.55224,372.63212 L 763.63543,374.03548 L 750.64659,364.44754 z "
       id="path3382" />
    <path
       style="fill:none;fill-rule:evenodd;stroke:#8b8b8b;stroke-width:1.70000005;stroke-linecap:butt;stroke-linejoin:miter;stroke-miterlimit:4;stroke-opacity:1"
       d="M 672.40789,344.28964 L 748.65558,288.80366"
       id="path3380" />
    <path
       style="fill:#8b8b8b;fill-opacity:1;fill-rule:evenodd;stroke:#8b8b8b;stroke-width:1px;stroke-linecap:butt;stroke-linejoin:miter;stroke-opacity:1"
       d="M 740.21421,289.68888 L 745.63325,291.11179 L 745.43459,296.711 L 755.29593,283.92837 L 740.21421,289.68888 z "
       id="path4920" />
    <path
       style="font-weight:bold;font-family:Times New Roman"
       d="M 768.09774,273.99786 L 768.09774,274.25079 C 767.7924,274.29182 767.5577,274.38069 767.39364,274.5174 C 767.16577,274.70881 766.80574,275.23062 766.31357,276.08283 L 764.3038,279.43927 L 764.3038,281.68146 C 764.30379,282.15998 764.32886,282.45734 764.37899,282.57355 C 764.42912,282.68976 764.52824,282.7923 764.67636,282.88117 C 764.82446,282.97003 765.02157,283.01447 765.26767,283.01447 L 765.7872,283.01447 L 765.7872,283.2674 L 760.58505,283.2674 L 760.58505,283.01447 L 761.0704,283.01447 C 761.34384,283.01447 761.56031,282.96662 761.71982,282.87091 C 761.8383,282.80711 761.93173,282.69774 762.00009,282.54279 C 762.05022,282.43341 762.07528,282.1463 762.07528,281.68146 L 762.07528,279.82208 L 759.89462,275.8504 C 759.46168,275.06656 759.15634,274.60513 758.9786,274.46613 C 758.80087,274.32714 758.56389,274.25536 758.26767,274.25079 L 758.26767,273.99786 L 762.71103,273.99786 L 762.71103,274.25079 L 762.51278,274.25079 C 762.2439,274.2508 762.05591,274.28954 761.94882,274.36701 C 761.84172,274.44449 761.78817,274.52652 761.78817,274.6131 C 761.78817,274.77717 761.97046,275.1896 762.33505,275.8504 L 764.00985,278.91974 L 765.67782,276.12384 C 766.09253,275.44026 766.29989,274.98681 766.29989,274.76349 C 766.29989,274.64045 766.24064,274.53791 766.12216,274.45587 C 765.9672,274.34195 765.68237,274.27359 765.26767,274.25079 L 765.26767,273.99786 L 768.09774,273.99786 z "
       id="flowRoot3405" />
    <g
       transform="matrix(0.3847833,-0.9230069,0.9230069,0.3847833,105.25667,547.561)"
       id="g5905">
      <path
         style="fill:none;fill-rule:evenodd;stroke:#8b8b8b;stroke-width:1.70000005;stroke-linecap:butt;stroke-linejoin:miter;stroke-miterlimit:4;stroke-dasharray:none;stroke-opacity:1"
         d="M 405.35355,445.13454 L 478.89592,445.13454"
         id="path5907"
         sodipodi:nodetypes="cc" />
      <path
         style="fill:#8b8b8b;fill-opacity:1;fill-rule:evenodd;stroke:#8b8b8b;stroke-width:1px;stroke-linecap:butt;stroke-linejoin:miter;stroke-opacity:1"
         d="M 473.98676,440.75954 L 477.48676,445.13454 L 473.98676,449.50954 L 489.52706,445.13454 L 473.98676,440.75954 z "
         id="path5909" />
    </g>
    <path
       style=""
       d="M 710.11507,252.21082 L 704.58812,260.91132 L 706.35172,260.92723 C 707.18566,260.93475 707.76944,260.88752 708.10306,260.78572 C 708.64683,260.62662 709.11666,260.32884 709.51255,259.8927 C 709.90841,259.45645 710.18488,258.86993 710.34194,258.13302 L 710.60852,258.13542 L 710.20234,261.48149 L 701.71246,261.40489 L 707.24636,252.69077 L 705.8724,252.67837 C 705.33921,252.67356 704.98817,252.68639 704.81928,252.71678 C 704.49974,252.77309 704.19905,252.88778 703.91721,253.06065 C 703.63536,253.23361 703.40084,253.465 703.21365,253.75503 C 703.02646,254.04505 702.87844,254.41284 702.7696,254.85847 L 702.51667,254.85618 L 702.79407,252.14478 L 710.11507,252.21082 z "
       id="flowRoot30746" />
    <path
       style="font-weight:bold;font-family:Times New Roman"
       d="M 767.90463,361.49531 L 770.46127,365.28925 C 770.88509,365.91816 771.18701,366.29983 771.36703,366.43427 C 771.54703,366.56871 771.76008,366.6496 772.00619,366.67695 L 772.00619,366.92988 L 767.48763,366.92988 L 767.48763,366.67695 C 767.84765,366.6496 768.08008,366.59492 768.1849,366.51289 C 768.28971,366.43085 768.34212,366.33059 768.34213,366.2121 C 768.34212,366.13007 768.32617,366.05716 768.29427,365.99335 C 768.23047,365.85664 768.07096,365.60143 767.81576,365.22773 L 766.46224,363.2248 L 765.0472,364.95429 C 764.62337,365.47838 764.41146,365.83385 764.41146,366.0207 C 764.41146,366.15286 764.46615,366.27591 764.57552,366.38984 C 764.6849,366.50377 764.84668,366.5858 765.06088,366.63593 C 765.15658,366.66328 765.35254,366.67695 765.64877,366.67695 L 765.64877,366.92988 L 762.08724,366.92988 L 762.08724,366.67695 C 762.49284,366.6177 762.81185,366.50833 763.04427,366.34882 C 763.34961,366.13919 763.77572,365.70169 764.32259,365.03632 L 766.16146,362.79414 L 763.80306,359.32832 C 763.41569,358.75866 763.19466,358.44193 763.13998,358.37812 C 763.01693,358.22774 762.89616,358.12064 762.77767,358.05683 C 762.65918,357.99304 762.49512,357.94519 762.28549,357.91328 L 762.28549,357.66035 L 766.88607,357.66035 L 766.88607,357.91328 L 766.65365,357.91328 C 766.38932,357.91329 766.20475,357.95544 766.09994,358.03974 C 765.99512,358.12406 765.94271,358.23002 765.94271,358.35761 C 765.94271,358.45788 765.95866,358.54447 765.99056,358.61738 L 766.46224,359.32832 L 767.61068,361.07832 L 768.58822,359.88203 C 769.08951,359.2668 769.34017,358.83614 769.34017,358.59004 C 769.34017,358.467 769.30485,358.35306 769.23422,358.24824 C 769.16357,358.14343 769.06217,358.0614 768.93002,358.00214 C 768.79785,357.94291 768.59277,357.91329 768.31478,357.91328 L 768.31478,357.66035 L 771.72591,357.66035 L 771.72591,357.91328 C 771.45703,357.91784 771.24055,357.95088 771.0765,358.0124 C 770.91243,358.07393 770.73697,358.189 770.55013,358.35761 C 770.43164,358.467 770.13541,358.80651 769.66146,359.37617 L 767.90463,361.49531 z "
       id="flowRoot3397" />
    <path
       style=""
       d="M 260.60933,299.8943 L 260.60933,302.492 C 260.60933,302.9933 260.64009,303.3089 260.70162,303.4388 C 260.76313,303.5686 260.87137,303.6723 261.02632,303.7498 C 261.18127,303.8273 261.47065,303.866 261.89449,303.866 L 261.89449,304.1189 L 257.15035,304.1189 L 257.15035,303.866 C 257.57873,303.866 257.86926,303.8261 258.02193,303.7464 C 258.1746,303.6666 258.28169,303.563 258.34322,303.4353 C 258.40474,303.3077 258.4355,302.9933 258.4355,302.492 L 258.4355,296.4764 C 258.4355,295.9751 258.40474,295.6595 258.34322,295.5296 C 258.28169,295.3997 258.17346,295.296 258.01851,295.2186 C 257.86356,295.1411 257.57417,295.1023 257.15035,295.1023 L 257.15035,294.8494 L 261.45699,294.8494 C 262.57807,294.8494 263.39839,294.9269 263.91792,295.0818 C 264.43745,295.2368 264.86128,295.5228 265.18941,295.9397 C 265.51752,296.3567 265.68159,296.8455 265.6816,297.4061 C 265.68159,298.0896 265.43549,298.6548 264.94331,299.1014 C 264.62885,299.3839 264.18908,299.5958 263.62398,299.7371 L 265.85249,302.8748 C 266.14415,303.2804 266.35151,303.5333 266.47456,303.6336 C 266.6614,303.7749 266.87787,303.8523 267.12398,303.866 L 267.12398,304.1189 L 264.20503,304.1189 L 261.21773,299.8943 L 260.60933,299.8943 z M 260.60933,295.3484 L 260.60933,299.409 L 260.99898,299.409 C 261.63244,299.409 262.1064,299.3509 262.42085,299.2347 C 262.7353,299.1184 262.98253,298.9088 263.16255,298.6057 C 263.34256,298.3027 263.43257,297.9074 263.43257,297.4197 C 263.43257,296.7134 263.26736,296.1915 262.93697,295.8543 C 262.60656,295.5171 262.07449,295.3484 261.34078,295.3484 L 260.60933,295.3484 z "
       id="flowRoot2382" />
    <path
       style="fill:#ff0000;fill-opacity:1;fill-rule:evenodd;stroke:#ff0000;stroke-width:1px;stroke-linecap:butt;stroke-linejoin:miter;stroke-opacity:1"
       d="M 405.71296,261.94857 L 401.07155,265.0867 L 403.1143,270.30377 L 389.57452,261.51084 L 405.71296,261.94857 z "
       id="path2365" />
    <path
       style="fill:#ff0000"
       d="M 400.42457,242.41022 C 400.76308,242.40661 401.05079,242.52202 401.28769,242.75647 C 401.52458,242.99094 401.64482,243.27483 401.64839,243.60813 C 401.65196,243.94145 401.53651,244.22656 401.30205,244.46345 C 401.0676,244.70036 400.78372,244.82058 400.4504,244.82415 C 400.11708,244.82772 399.832,244.71358 399.59512,244.48172 C 399.35826,244.24988 399.23803,243.96729 399.23447,243.63397 C 399.2309,243.30067 399.34503,243.01427 399.57685,242.77478 C 399.80868,242.53532 400.09124,242.4138 400.42457,242.41022 L 400.42457,242.41022 z M 401.55613,245.93738 L 401.6181,251.72611 C 401.62361,252.2417 401.68703,252.57047 401.80835,252.71241 C 401.92966,252.85435 402.16491,252.93387 402.51407,252.95096 L 402.51708,253.23219 L 398.572,253.27442 L 398.56898,252.99319 C 398.89176,252.97932 399.13033,252.88301 399.28468,252.70426 C 399.38756,252.58336 399.43623,252.26511 399.43072,251.74952 L 399.38507,247.48414 C 399.37954,246.96855 399.31612,246.63979 399.19481,246.49784 C 399.07348,246.35591 398.84085,246.27636 398.4969,246.2592 L 398.49381,245.97016 L 401.55613,245.93738 z "
       id="path2369" />
    <path
       style="fill:#ff0000;fill-opacity:1;fill-rule:evenodd;stroke:#ff0000;stroke-width:1px;stroke-linecap:butt;stroke-linejoin:miter;stroke-opacity:1"
       d="M 302.28468,244.8215 L 301.93653,250.4133 L 307.31563,251.9805 L 292.08541,257.3361 L 302.28468,244.8215 z "
       id="path5916" />
    <path
       style="fill:#ff0000"
       d="M 275.09792,359.56097 C 275.43643,359.55736 275.72414,359.67277 275.96104,359.90722 C 276.19793,360.14169 276.31817,360.42558 276.32174,360.75888 C 276.32531,361.0922 276.20986,361.37731 275.9754,361.6142 C 275.74095,361.85111 275.45707,361.97133 275.12375,361.9749 C 274.79043,361.97847 274.50535,361.86433 274.26847,361.63247 C 274.03161,361.40063 273.91138,361.11804 273.90782,360.78472 C 273.90425,360.45142 274.01838,360.16502 274.2502,359.92553 C 274.48203,359.68607 274.76459,359.56455 275.09792,359.56097 L 275.09792,359.56097 z M 276.22948,363.08813 L 276.29145,368.87686 C 276.29696,369.39245 276.36038,369.72122 276.4817,369.86316 C 276.60301,370.0051 276.83826,370.08462 277.18742,370.10171 L 277.19043,370.38294 L 273.24535,370.42517 L 273.24233,370.14394 C 273.56511,370.13007 273.80368,370.03376 273.95803,369.85501 C 274.06091,369.73411 274.10958,369.41586 274.10407,368.90027 L 274.05842,364.63489 C 274.05289,364.1193 273.98947,363.79054 273.86816,363.64859 C 273.74683,363.50666 273.5142,363.42711 273.17025,363.40995 L 273.16716,363.12091 L 276.22948,363.08813 z "
       id="path5918" />
    <path
       style="fill:#ff0000;fill-opacity:1;fill-rule:evenodd;stroke:#ff0000;stroke-width:1px;stroke-linecap:butt;stroke-linejoin:miter;stroke-opacity:1"
       d="M 266.07022,371.81367 L 268.13801,377.02089 L 263.51175,380.18129 L 279.65212,380.5414 L 266.07022,371.81367 z "
       id="path5920" />
    <path
       style="fill:#ff0000"
       d="M 443.37732,305.9254 C 443.71583,305.9218 444.00354,306.0372 444.24044,306.2717 C 444.47733,306.5062 444.59757,306.7901 444.60114,307.1233 C 444.60471,307.4567 444.48926,307.7418 444.2548,307.9787 C 444.02035,308.2156 443.73647,308.3358 443.40315,308.3394 C 443.06983,308.3429 442.78475,308.2288 442.54787,307.9969 C 442.31101,307.7651 442.19078,307.4825 442.18722,307.1492 C 442.18365,306.8159 442.29778,306.5295 442.5296,306.29 C 442.76143,306.0505 443.04399,305.929 443.37732,305.9254 L 443.37732,305.9254 z M 444.50888,309.4526 L 444.57085,315.2413 C 444.57636,315.7569 444.63978,316.0857 444.7611,316.2276 C 444.88241,316.3696 445.11766,316.4491 445.46682,316.4662 L 445.46983,316.7474 L 441.52475,316.7896 L 441.52173,316.5084 C 441.84451,316.4945 442.08308,316.3982 442.23743,316.2195 C 442.34031,316.0986 442.38898,315.7803 442.38347,315.2647 L 442.33782,310.9994 C 442.33229,310.4838 442.26887,310.155 442.14756,310.0131 C 442.02623,309.8711 441.7936,309.7916 441.44965,309.7744 L 441.44656,309.4854 L 444.50888,309.4526 z "
       id="path5922" />
    <path
       style="fill:#ff0000"
       d="M 292.79153,235.13254 C 293.13004,235.12893 293.41775,235.24434 293.65465,235.47879 C 293.89154,235.71326 294.01178,235.99715 294.01535,236.33045 C 294.01892,236.66377 293.90347,236.94888 293.66901,237.18577 C 293.43456,237.42268 293.15068,237.5429 292.81736,237.54647 C 292.48404,237.55004 292.19896,237.4359 291.96208,237.20404 C 291.72522,236.9722 291.60499,236.68961 291.60143,236.35629 C 291.59786,236.02299 291.71199,235.73659 291.94381,235.4971 C 292.17564,235.25764 292.4582,235.13612 292.79153,235.13254 L 292.79153,235.13254 z M 293.92309,238.6597 L 293.98506,244.44843 C 293.99057,244.96402 294.05399,245.29279 294.17531,245.43473 C 294.29662,245.57667 294.53187,245.65619 294.88103,245.67328 L 294.88404,245.95451 L 290.93896,245.99674 L 290.93594,245.71551 C 291.25872,245.70164 291.49729,245.60533 291.65164,245.42658 C 291.75452,245.30568 291.80319,244.98743 291.79768,244.47184 L 291.75203,240.20646 C 291.7465,239.69087 291.68308,239.36211 291.56177,239.22016 C 291.44044,239.07823 291.20781,238.99868 290.86386,238.98152 L 290.86077,238.69248 L 293.92309,238.6597 z "
       id="path5930" />
    <path
       style="fill:#00aa88"
       d="M 699.39418,441.70949 C 698.51202,442.50544 697.71681,442.9072 697.00852,442.91479 C 696.59187,442.91924 696.24407,442.78624 695.96512,442.51577 C 695.68616,442.2453 695.54449,441.90435 695.54008,441.49292 C 695.53412,440.93566 695.76832,440.43182 696.24269,439.9814 C 696.71706,439.53099 697.75493,438.9274 699.3563,438.17063 L 699.34844,437.4363 C 699.34253,436.88425 699.30886,436.53694 699.24744,436.39435 C 699.18601,436.25178 699.0714,436.128 698.90361,436.02301 C 698.7358,435.91804 698.54773,435.86666 698.33943,435.86889 C 698.0009,435.87251 697.72307,435.95101 697.50596,436.10438 C 697.37155,436.19957 697.30502,436.30967 697.30635,436.43466 C 697.30752,436.54403 697.38189,436.67866 697.52944,436.83854 C 697.72974,437.06038 697.831,437.27545 697.83324,437.48377 C 697.83596,437.73896 697.74325,437.95742 697.55508,438.13912 C 697.36691,438.32085 697.11919,438.41334 696.81192,438.41663 C 696.48381,438.42014 696.20802,438.32413 695.98457,438.12859 C 695.7611,437.93306 695.64796,437.70249 695.64512,437.43687 C 695.6411,437.0619 695.78569,436.70226 696.0789,436.35795 C 696.3721,436.01365 696.78335,435.74751 697.31262,435.55954 C 697.84187,435.37158 698.39296,435.27453 698.96584,435.2684 C 699.65851,435.26098 700.20823,435.40225 700.61501,435.69217 C 701.02177,435.98211 701.28689,436.2983 701.41036,436.64074 C 701.4856,436.85871 701.52744,437.36089 701.53587,438.1473 L 701.56622,440.98307 C 701.56978,441.31639 701.58504,441.52587 701.61201,441.61153 C 701.63897,441.69718 701.67871,441.76056 701.73124,441.80167 C 701.78377,441.84277 701.84388,441.86297 701.91159,441.86224 C 702.04699,441.86079 702.18397,441.76296 702.32253,441.56876 L 702.55891,441.75374 C 702.30262,442.14193 702.0361,442.42474 701.75934,442.6022 C 701.48258,442.77965 701.16712,442.87027 700.81298,442.87406 C 700.39633,442.87852 700.06979,442.78435 699.83334,442.59156 C 699.59688,442.39876 699.4505,442.10474 699.39418,441.70949 L 699.39418,441.70949 z M 699.38808,441.13921 L 699.3619,438.69403 C 698.73569,439.07056 698.2712,439.47138 697.96845,439.89652 C 697.76834,440.17994 697.66982,440.46486 697.6729,440.7513 C 697.67545,440.99087 697.76364,441.20087 697.93747,441.38131 C 698.06916,441.52053 698.2522,441.5889 698.48656,441.58639 C 698.74697,441.5836 699.04747,441.43454 699.38808,441.13921 L 699.38808,441.13921 z "
       id="flowRoot4180" />
    <path
       style="fill:none;fill-rule:evenodd;stroke:#00aa88;stroke-width:1px;stroke-linecap:butt;stroke-linejoin:miter;stroke-opacity:1"
       d="M 623.48351,480.01944 L 758.31262,383.22958"
       id="path4174" />
    <path
       style="fill:#00aa88;fill-opacity:1;fill-rule:evenodd;stroke:#00aa88;stroke-width:1.00215709px;stroke-linecap:butt;stroke-linejoin:miter;stroke-opacity:1"
       d="M 626.68974,481.32898 L 623.49606,476.70588 L 619.55572,482.55795 L 626.68974,481.32898 z "
       id="path2358" />
    <path
       style="fill:#00aa88;fill-opacity:1;fill-rule:evenodd;stroke:#00aa88;stroke-width:1.00215709px;stroke-linecap:butt;stroke-linejoin:miter;stroke-opacity:1"
       d="M 754.80529,382.30765 L 757.99897,386.93075 L 761.93931,381.07868 L 754.80529,382.30765 z "
       id="path5948" />
    <path
       style="fill:#000000;fill-opacity:1"
       d="M 616.63665,294.76845 C 617.5162,294.97354 618.13371,295.22191 618.48919,295.51357 C 618.9996,295.92829 619.2548,296.46605 619.25481,297.12685 C 619.2548,297.82412 618.97453,298.40062 618.41399,298.85634 C 617.72583,299.40778 616.72551,299.68349 615.41302,299.68349 L 610.70305,299.68349 L 610.70305,299.43056 C 611.13144,299.43056 611.42197,299.39069 611.57464,299.31093 C 611.7273,299.23118 611.8344,299.1275 611.89593,298.9999 C 611.95745,298.87229 611.98821,298.55784 611.98821,298.05654 L 611.98821,292.04091 C 611.98821,291.53962 611.95745,291.22403 611.89593,291.09414 C 611.8344,290.96426 611.72617,290.86058 611.57122,290.7831 C 611.41627,290.70564 611.12688,290.6669 610.70305,290.66689 L 610.70305,290.41396 L 615.14642,290.41396 C 616.20826,290.41397 616.96021,290.50853 617.40227,290.69765 C 617.84432,290.88679 618.19296,291.16934 618.44817,291.54531 C 618.70337,291.92129 618.83098,292.32119 618.83098,292.74502 C 618.83098,293.19164 618.66919,293.58926 618.34563,293.93789 C 618.02206,294.28652 617.4524,294.56338 616.63665,294.76845 L 616.63665,294.76845 z M 614.14837,294.58388 C 614.7955,294.58389 615.27287,294.51097 615.5805,294.36513 C 615.88811,294.2193 616.12395,294.01423 616.28802,293.7499 C 616.45207,293.48558 616.5341,293.14834 616.53411,292.73818 C 616.5341,292.32803 616.45321,291.99193 616.29143,291.72988 C 616.12964,291.46784 615.89836,291.26846 615.59759,291.13173 C 615.2968,290.99502 614.81373,290.92894 614.14837,290.93349 L 614.14837,294.58388 z M 614.14837,295.11709 L 614.14837,298.09072 L 614.14153,298.43252 C 614.14153,298.67861 614.20419,298.86432 614.32952,298.98964 C 614.45484,299.11497 614.64055,299.17763 614.88665,299.17763 C 615.25123,299.17763 615.58733,299.09674 615.89495,298.93496 C 616.20256,298.77317 616.4384,298.53847 616.60247,298.23086 C 616.76653,297.92324 616.84856,297.5803 616.84856,297.20205 C 616.84856,296.76911 616.7483,296.3806 616.54778,296.03652 C 616.34726,295.69245 616.07154,295.45205 615.72063,295.31533 C 615.36972,295.17861 614.84563,295.11253 614.14837,295.11709 L 614.14837,295.11709 z M 623.53411,293.5038 L 631.01263,293.5038 L 631.01263,294.39248 L 623.53411,294.39248 L 623.53411,293.5038 z M 623.53411,295.73916 L 631.01263,295.73916 L 631.01263,296.62783 L 623.53411,296.62783 L 623.53411,295.73916 z M 640.97259,294.76845 C 641.85214,294.97354 642.46965,295.22191 642.82513,295.51357 C 643.33553,295.92829 643.59074,296.46605 643.59075,297.12685 C 643.59074,297.82412 643.31047,298.40062 642.74993,298.85634 C 642.06177,299.40778 641.06145,299.68349 639.74895,299.68349 L 635.03899,299.68349 L 635.03899,299.43056 C 635.46738,299.43056 635.75791,299.39069 635.91058,299.31093 C 636.06324,299.23118 636.17034,299.1275 636.23186,298.9999 C 636.29339,298.87229 636.32415,298.55784 636.32415,298.05654 L 636.32415,292.04091 C 636.32415,291.53962 636.29339,291.22403 636.23186,291.09414 C 636.17034,290.96426 636.0621,290.86058 635.90716,290.7831 C 635.75221,290.70564 635.46282,290.6669 635.03899,290.66689 L 635.03899,290.41396 L 639.48235,290.41396 C 640.5442,290.41397 641.29615,290.50853 641.73821,290.69765 C 642.18026,290.88679 642.52889,291.16934 642.78411,291.54531 C 643.03931,291.92129 643.16691,292.32119 643.16692,292.74502 C 643.16691,293.19164 643.00513,293.58926 642.68157,293.93789 C 642.358,294.28652 641.78834,294.56338 640.97259,294.76845 L 640.97259,294.76845 z M 638.48431,294.58388 C 639.13144,294.58389 639.60881,294.51097 639.91643,294.36513 C 640.22405,294.2193 640.45989,294.01423 640.62395,293.7499 C 640.78801,293.48558 640.87004,293.14834 640.87005,292.73818 C 640.87004,292.32803 640.78915,291.99193 640.62737,291.72988 C 640.46558,291.46784 640.2343,291.26846 639.93352,291.13173 C 639.63274,290.99502 639.14966,290.92894 638.48431,290.93349 L 638.48431,294.58388 z M 638.48431,295.11709 L 638.48431,298.09072 L 638.47747,298.43252 C 638.47747,298.67861 638.54013,298.86432 638.66546,298.98964 C 638.79078,299.11497 638.97649,299.17763 639.22259,299.17763 C 639.58716,299.17763 639.92327,299.09674 640.23089,298.93496 C 640.5385,298.77317 640.77434,298.53847 640.93841,298.23086 C 641.10246,297.92324 641.18449,297.5803 641.1845,297.20205 C 641.18449,296.76911 641.08423,296.3806 640.88372,296.03652 C 640.68319,295.69245 640.40748,295.45205 640.05657,295.31533 C 639.70565,295.17861 639.18157,295.11253 638.48431,295.11709 L 638.48431,295.11709 z M 654.24114,293.29189 L 654.24114,298.2958 C 654.24113,298.78343 654.28671,299.08763 654.37786,299.20839 C 654.469,299.32916 654.65357,299.4055 654.93157,299.4374 L 654.93157,299.68349 L 652.32708,299.68349 L 652.32708,298.829 C 652.02174,299.19358 651.7164,299.45905 651.41106,299.62539 C 651.10572,299.79173 650.76393,299.8749 650.38567,299.8749 C 650.02564,299.8749 649.70549,299.76438 649.42522,299.54336 C 649.14495,299.32233 648.95696,299.0637 648.86126,298.76748 C 648.76555,298.47125 648.7177,297.954 648.7177,297.21572 L 648.7177,294.67959 C 648.7177,294.19652 648.67327,293.89574 648.5844,293.77724 C 648.49554,293.65876 648.30982,293.58128 648.02727,293.54482 L 648.02727,293.29189 L 650.63177,293.29189 L 650.63177,297.66005 C 650.63176,298.11579 650.65341,298.40973 650.69671,298.54189 C 650.74,298.67405 650.80836,298.77431 650.90179,298.84267 C 650.99521,298.91103 651.10344,298.94521 651.22649,298.94521 C 651.39055,298.94521 651.53866,298.90192 651.67083,298.81533 C 651.85312,298.69684 652.07187,298.45758 652.32708,298.09755 L 652.32708,294.67959 C 652.32707,294.19652 652.28264,293.89574 652.19378,293.77724 C 652.10491,293.65876 651.9192,293.58128 651.63665,293.54482 L 651.63665,293.29189 L 654.24114,293.29189 z "
       id="flowRoot3431" />
    <path
       style="fill:#000000;fill-opacity:1"
       d="M 660.53304,297.50068 L 657.41976,302.50068 L 658.42757,302.50068 C 658.90413,302.50068 659.23747,302.47074 659.42757,302.41084 C 659.73747,302.31709 660.00439,302.14456 660.22835,301.89326 C 660.45231,301.64196 660.60726,301.30537 660.6932,300.8835 L 660.84554,300.8835 L 660.6307,302.79756 L 655.77914,302.79756 L 658.89632,297.78975 L 658.11117,297.78975 C 657.80648,297.78975 657.60596,297.79887 657.5096,297.81709 C 657.32731,297.85095 657.15609,297.91801 656.99593,298.01826 C 656.83578,298.11853 656.70296,298.25199 656.5975,298.41865 C 656.49203,298.58532 656.40934,298.79626 656.34945,299.05147 L 656.20492,299.05147 L 656.34945,297.50068 L 660.53304,297.50068 z "
       id="flowRoot3439" />
    <g
       id="g5761"
       transform="translate(436.25851,258.03409)">
      <path
         style="fill:#000000;fill-opacity:1;fill-rule:evenodd;stroke:#000000;stroke-width:0.65466833;stroke-linecap:butt;stroke-linejoin:miter;stroke-miterlimit:4;stroke-opacity:1"
         d="M 172.02896,29.39511 L 186.40596,29.39511"
         id="path3817" />
      <path
         style="fill:#000000;fill-opacity:1;fill-rule:evenodd;stroke:#000000;stroke-width:0.38509902px;stroke-linecap:butt;stroke-linejoin:miter;stroke-opacity:1"
         d="M 184.08966,27.36431 L 185.20787,29.39511 L 184.08966,31.42591 L 189.05461,29.39511 L 184.08966,27.36431 z "
         id="path3819" />
    </g>
    <g
       id="g5765"
       transform="translate(472.25851,258.03409)">
      <path
         id="path5767"
         d="M 172.02896,29.39511 L 186.40596,29.39511"
         style="fill:#000000;fill-opacity:1;fill-rule:evenodd;stroke:#000000;stroke-width:0.65466833;stroke-linecap:butt;stroke-linejoin:miter;stroke-miterlimit:4;stroke-opacity:1" />
      <path
         id="path5769"
         d="M 184.08966,27.36431 L 185.20787,29.39511 L 184.08966,31.42591 L 189.05461,29.39511 L 184.08966,27.36431 z "
         style="fill:#000000;fill-opacity:1;fill-rule:evenodd;stroke:#000000;stroke-width:0.38509902px;stroke-linecap:butt;stroke-linejoin:miter;stroke-opacity:1" />
    </g>
    <g
       id="g6968"
       transform="matrix(-9.6820246e-3,-0.9999531,0.9999531,-9.6820246e-3,143.44148,805.7452)"
       style="fill:#000000;stroke:#000000;stroke-opacity:1">
      <path
         sodipodi:nodetypes="cc"
         id="path6970"
         d="M 405,444.42743 L 539,444.42743"
         style="fill:#000000;fill-rule:evenodd;stroke:#000000;stroke-width:1.70000005;stroke-linecap:butt;stroke-linejoin:miter;stroke-miterlimit:4;stroke-dasharray:none;stroke-opacity:1" />
      <path
         id="path6972"
         d="M 534.79794,440.05243 L 538.29794,444.42743 L 534.79794,448.80243 L 550.33824,444.42743 L 534.79794,440.05243 z "
         style="fill:#000000;fill-opacity:1;fill-rule:evenodd;stroke:#000000;stroke-width:1px;stroke-linecap:butt;stroke-linejoin:miter;stroke-opacity:1" />
    </g>
    <path
       style="font-size:14px;font-weight:bold;fill:#1a1a1a;fill-opacity:1;font-family:Times New Roman"
       d="M 410.2517,327.90513 L 410.2517,331.71275 L 410.5183,331.71275 C 410.92846,331.71275 411.26342,331.65123 411.52319,331.52818 C 411.78295,331.40513 412.00284,331.19778 412.18286,330.90611 C 412.36286,330.61445 412.48021,330.22024 412.53491,329.72349 L 412.77416,329.72349 L 412.77416,334.37876 L 412.53491,334.37876 C 412.44831,333.49921 412.21247,332.91929 411.82739,332.63902 C 411.44229,332.35875 411.00593,332.21861 410.5183,332.21861 L 410.2517,332.21861 L 410.2517,335.05552 C 410.2517,335.52948 410.2779,335.8257 410.33032,335.94419 C 410.38272,336.06268 410.48526,336.16636 410.63793,336.25523 C 410.7906,336.34409 410.99682,336.38853 411.25659,336.38853 L 411.5642,336.38853 L 411.5642,336.64146 L 406.71752,336.64146 L 406.71752,336.38853 L 407.02514,336.38853 C 407.29402,336.38853 407.51049,336.34068 407.67455,336.24497 C 407.79304,336.18117 407.88419,336.0718 407.94799,335.91685 C 407.99812,335.80747 408.02319,335.52036 408.02319,335.05552 L 408.02319,328.95786 C 408.02319,328.48391 407.99812,328.18769 407.94799,328.06919 C 407.89786,327.95071 407.79646,327.84703 407.64379,327.75816 C 407.49112,327.6693 407.28491,327.62486 407.02514,327.62486 L 406.71752,327.62486 L 406.71752,327.37193 L 414.53784,327.37193 L 414.53784,330.03111 L 414.25756,330.03111 C 414.19375,329.40676 414.03083,328.9442 413.76879,328.64341 C 413.50674,328.34264 413.12735,328.13072 412.63061,328.00767 C 412.35717,327.93932 411.85131,327.90514 411.11303,327.90513 L 410.2517,327.90513 z "
       id="flowRoot6974" />
    <g
       transform="translate(284.08976,310.69497)"
       id="g2257">
      <path
         id="path2259"
         d="M 172.02896,29.39511 L 186.40596,29.39511"
         style="fill:#000000;fill-opacity:1;fill-rule:evenodd;stroke:#000000;stroke-width:0.65466833;stroke-linecap:butt;stroke-linejoin:miter;stroke-miterlimit:4;stroke-opacity:1" />
      <path
         id="path2261"
         d="M 184.08966,27.36431 L 185.20787,29.39511 L 184.08966,31.42591 L 189.05461,29.39511 L 184.08966,27.36431 z "
         style="fill:#000000;fill-opacity:1;fill-rule:evenodd;stroke:#000000;stroke-width:0.38509902px;stroke-linecap:butt;stroke-linejoin:miter;stroke-opacity:1" />
    </g>
    <path
       style="fill:none;fill-rule:evenodd;stroke:#000000;stroke-width:2.12100005;stroke-linecap:butt;stroke-linejoin:miter;stroke-miterlimit:4;stroke-opacity:1"
       d="M 171.91153,473.49092 C 171.03254,469.32528 172.02165,347.49524 172.02165,347.49524"
       id="path2248" />
    <path
       style="fill:none;fill-rule:evenodd;stroke:#000000;stroke-width:2.12100005;stroke-linecap:butt;stroke-linejoin:miter;stroke-miterlimit:4;stroke-opacity:1"
       d="M 170.91174,472.74503 C 175.07738,471.86604 579.40742,472.85515 579.40742,472.85515"
       id="path2252" />
    <path
       style="fill:none;fill-rule:evenodd;stroke:#000000;stroke-width:2.12100005;stroke-linecap:butt;stroke-linejoin:miter;stroke-miterlimit:4;stroke-dasharray:8.48400021, 4.2420001;stroke-dashoffset:0;stroke-opacity:1"
       d="M 290.61018,386.7014 C 293.43861,383.5194 318.00642,367.15309 318.00642,367.15309"
       id="path2254" />
    <path
       style="fill:none;fill-rule:evenodd;stroke:#000000;stroke-width:2.12100005;stroke-linecap:butt;stroke-linejoin:miter;stroke-miterlimit:4;stroke-dasharray:8.48400021, 8.48400021;stroke-dashoffset:0;stroke-opacity:1"
       d="M 318.3435,367.03257 C 322.50914,366.15358 725.08308,366.89269 725.08308,366.89269"
       id="path2256" />
    <path
       style="fill:none;fill-rule:evenodd;stroke:#000000;stroke-width:2.12100005;stroke-linecap:butt;stroke-linejoin:miter;stroke-miterlimit:4;stroke-opacity:1"
       d="M 578.69658,472.9514 C 581.52501,469.7694 725.34282,366.65309 725.34282,366.65309"
       id="path2258" />
    <path
       style="fill:none;fill-rule:evenodd;stroke:#000000;stroke-width:2.12100005;stroke-linecap:butt;stroke-linejoin:miter;stroke-miterlimit:4;stroke-dasharray:16.96800041, 16.96800041;stroke-dashoffset:0;stroke-opacity:1"
       d="M 578.62132,472.74086 L 672.12132,502.49086"
       id="path2260" />
    <path
       style="fill:none;fill-rule:evenodd;stroke:#000000;stroke-width:2.12100005;stroke-linecap:butt;stroke-linejoin:miter;stroke-miterlimit:4;stroke-dasharray:16.96800041, 16.96800041;stroke-dashoffset:0;stroke-opacity:1"
       d="M 724.37132,366.74086 L 777.87132,384.49086"
       id="path3232" />
    <path
       style="fill:none;fill-opacity:1;fill-rule:evenodd;stroke:#0aa01b;stroke-width:1.69999993;stroke-linecap:butt;stroke-linejoin:miter;stroke-miterlimit:4;stroke-opacity:1"
       d="M 426.69007,339.20141 L 426.55321,395.46296"
       id="path4211" />
    <g
       id="g3622"
       transform="translate(89.64318,-32.12132)">
      <path
         sodipodi:nodetypes="ccccc"
         id="rect3138"
         d="M 240.35521,436.38532 L 413.51872,309.76434 C 417.19631,308.71794 420.4879,313.58099 418.57899,316.67288 L 246.27972,443.84681 L 240.35521,436.38532 z "
         style="fill:#cccccc;fill-opacity:1;fill-rule:evenodd;stroke:#000000;stroke-width:0.4636012;stroke-linecap:round;stroke-linejoin:miter;stroke-miterlimit:4;stroke-dashoffset:0;stroke-opacity:1" />
      <path
         id="path2160"
         d="M 247.95258,440.19753 C 247.95258,442.82111 245.8233,444.95038 243.19973,444.95038 C 240.57615,444.95038 238.44687,442.82111 238.44687,440.19753 C 238.44687,437.57396 240.57615,435.44468 243.19973,435.44468 C 245.8233,435.44468 247.95258,437.57396 247.95258,440.19753 z "
         style="fill:#cccccc;fill-opacity:1;fill-rule:evenodd;stroke:#000000;stroke-width:0.38980204;stroke-linecap:round;stroke-linejoin:miter;stroke-miterlimit:4;stroke-dashoffset:0;stroke-opacity:1" />
      <path
         sodipodi:nodetypes="cc"
         id="path3144"
         d="M 247.1675,437.53487 L 417.88804,312.46662"
         style="fill:none;fill-opacity:1;fill-rule:evenodd;stroke:url(#linearGradient3627);stroke-width:3.42392159;stroke-linecap:butt;stroke-linejoin:miter;stroke-miterlimit:4;stroke-opacity:1" />
    </g>
    <path
       style="fill:none;fill-rule:evenodd;stroke:#000000;stroke-width:2.12100005;stroke-linecap:butt;stroke-linejoin:miter;stroke-miterlimit:4;stroke-dasharray:8.48400021, 8.48400021;stroke-dashoffset:0;stroke-opacity:1"
       d="M 317.92856,367.43709 C 317.04957,363.27145 318.28868,239.69751 318.28868,239.69751"
       id="path4205" />
    <path
       style="fill:none;fill-rule:evenodd;stroke:#000000;stroke-width:2.12100005;stroke-linecap:butt;stroke-linejoin:miter;stroke-miterlimit:4;stroke-dashoffset:0;stroke-opacity:1"
       d="M 172.61018,472.4514 C 175.43861,469.2694 294.00642,384.15309 294.00642,384.15309"
       id="path4207" />
    <path
       style="fill:#0aa01b;fill-opacity:1;fill-rule:evenodd;stroke:#0aa01b;stroke-width:0.99999994px;stroke-linecap:butt;stroke-linejoin:miter;stroke-opacity:1"
       d="M 430.93588,390.20823 L 426.5545,393.70024 L 422.18589,390.19226 L 426.53253,405.74052 L 430.93588,390.20823 z "
       id="path4213" />
    <g
       style="fill:#000000;stroke:#000000;stroke-opacity:1"
       transform="matrix(0.8512646,0.5247366,-0.5247366,0.8512646,264.3161,-282.15078)"
       id="g2219">
      <path
         style="fill:#000000;fill-rule:evenodd;stroke:#000000;stroke-width:1.70000005;stroke-linecap:butt;stroke-linejoin:miter;stroke-miterlimit:4;stroke-dasharray:none;stroke-opacity:1"
         d="M 464,444.42743 L 539,444.42743"
         id="path2221"
         sodipodi:nodetypes="cc" />
      <path
         style="fill:#000000;fill-opacity:1;fill-rule:evenodd;stroke:#000000;stroke-width:1px;stroke-linecap:butt;stroke-linejoin:miter;stroke-opacity:1"
         d="M 534.79794,440.05243 L 538.29794,444.42743 L 534.79794,448.80243 L 550.33824,444.42743 L 534.79794,440.05243 z "
         id="path2223" />
    </g>
    <path
       transform="translate(133.74369,-145.63573)"
       style="fill:#0aa01b;fill-opacity:1"
       d="M 302.59277,548.64637 L 302.59277,549.48719 C 302.94368,549.10438 303.26839,548.83664 303.56689,548.68396 C 303.86539,548.5313 304.19238,548.45497 304.54785,548.45496 C 304.958,548.45497 305.30208,548.55067 305.58008,548.74207 C 305.85807,548.93348 306.07226,549.22515 306.22266,549.61707 C 306.58723,549.20692 306.937,548.91069 307.27197,548.7284 C 307.60693,548.54611 307.9567,548.45497 308.32129,548.45496 C 308.76334,548.45497 309.11539,548.55637 309.37744,548.75916 C 309.63948,548.96196 309.82177,549.21945 309.92432,549.53162 C 310.02684,549.8438 310.07811,550.34168 310.07813,551.02527 L 310.07813,553.64344 C 310.07811,554.13562 310.12255,554.44096 310.21143,554.55945 C 310.30028,554.67794 310.48599,554.75542 310.76855,554.79187 L 310.76855,555.03797 L 307.4668,555.03797 L 307.4668,554.79187 C 307.72655,554.76909 307.91796,554.66883 308.04102,554.49109 C 308.12304,554.36805 308.16405,554.08549 308.16406,553.64344 L 308.16406,550.89539 C 308.16405,550.32573 308.14127,549.96343 308.0957,549.80848 C 308.05012,549.65353 307.97834,549.53846 307.88037,549.46326 C 307.78238,549.38807 307.66731,549.35047 307.53516,549.35047 C 307.33918,549.35047 307.14094,549.42225 306.94043,549.5658 C 306.7399,549.70936 306.5371,549.92469 306.33203,550.2118 L 306.33203,553.64344 C 306.33202,554.10372 306.37076,554.39311 306.44824,554.5116 C 306.55305,554.68022 306.75357,554.77364 307.0498,554.79187 L 307.0498,555.03797 L 303.74121,555.03797 L 303.74121,554.79187 C 303.91894,554.78276 304.05908,554.73833 304.16162,554.65857 C 304.26416,554.57882 304.33251,554.48312 304.3667,554.37146 C 304.40087,554.25981 304.41796,554.01713 304.41797,553.64344 L 304.41797,550.89539 C 304.41796,550.31662 304.39518,549.95431 304.34961,549.80848 C 304.30403,549.66265 304.2277,549.54871 304.12061,549.46668 C 304.0135,549.38465 303.89843,549.34364 303.77539,549.34363 C 303.59309,549.34364 303.42675,549.39149 303.27637,549.48719 C 303.06217,549.62847 302.83431,549.87 302.59277,550.2118 L 302.59277,553.64344 C 302.59277,554.09461 302.6372,554.39197 302.72607,554.53553 C 302.81494,554.67908 303.00065,554.76453 303.2832,554.79187 L 303.2832,555.03797 L 299.98828,555.03797 L 299.98828,554.79187 C 300.25716,554.76453 300.44857,554.67794 300.5625,554.53211 C 300.63997,554.43185 300.67871,554.13562 300.67871,553.64344 L 300.67871,550.03406 C 300.67871,549.55099 300.63428,549.25021 300.54541,549.13172 C 300.45654,549.01323 300.27083,548.93576 299.98828,548.8993 L 299.98828,548.64637 L 302.59277,548.64637 z M 319.21777,548.72156 L 321.37109,548.72156 L 321.37109,549.47351 L 320.14746,549.47351 C 320.37076,549.69683 320.52571,549.89963 320.6123,550.08191 C 320.72167,550.32801 320.77636,550.5855 320.77637,550.85437 C 320.77636,551.31011 320.6499,551.70545 320.39697,552.04041 C 320.14404,552.37537 319.79996,552.63742 319.36475,552.82654 C 318.92952,553.01567 318.54329,553.11023 318.20605,553.11023 C 318.17871,553.11023 317.90527,553.09884 317.38574,553.07605 C 317.18066,553.07606 317.00862,553.14328 316.86963,553.27771 C 316.73063,553.41216 316.66113,553.5728 316.66113,553.75965 C 316.66113,553.92371 316.72379,554.05815 316.84912,554.16297 C 316.97444,554.26779 317.17838,554.32019 317.46094,554.32019 L 318.64355,554.30652 C 319.60058,554.30652 320.25911,554.41134 320.61914,554.62098 C 321.13411,554.91264 321.39159,555.36153 321.3916,555.96765 C 321.39159,556.35502 321.27311,556.70707 321.03613,557.02381 C 320.79915,557.34054 320.48697,557.5741 320.09961,557.72449 C 319.51171,557.9478 318.83496,558.05945 318.06934,558.05945 C 317.49511,558.05945 316.97103,558.00362 316.49707,557.89197 C 316.02311,557.78031 315.68359,557.62537 315.47852,557.42713 C 315.27344,557.22888 315.1709,557.02039 315.1709,556.80164 C 315.1709,556.592 315.24951,556.40401 315.40674,556.23767 C 315.56396,556.07133 315.85677,555.9312 316.28516,555.81726 C 315.69271,555.5256 315.39648,555.12 315.39648,554.60047 C 315.39648,554.28601 315.51725,553.98068 315.75879,553.68445 C 316.00032,553.38823 316.38314,553.13074 316.90723,552.91199 C 316.29655,552.68869 315.85449,552.39474 315.58105,552.03015 C 315.30762,551.66557 315.1709,551.24403 315.1709,550.76551 C 315.1709,550.14116 315.42611,549.59998 315.93652,549.14197 C 316.44694,548.68397 317.10319,548.45497 317.90527,548.45496 C 318.3291,548.45497 318.7666,548.54383 319.21777,548.72156 L 319.21777,548.72156 z M 318.03516,548.87879 C 317.77083,548.87879 317.54752,549.01209 317.36523,549.27869 C 317.18294,549.5453 317.09179,550.09787 317.0918,550.9364 C 317.09179,551.61544 317.1818,552.08143 317.36182,552.33435 C 317.54183,552.58729 317.75488,552.71375 318.00098,552.71375 C 318.27441,552.71375 318.50227,552.58843 318.68457,552.33777 C 318.86686,552.08712 318.958,551.59949 318.95801,550.87488 C 318.958,550.05913 318.85546,549.50314 318.65039,549.20691 C 318.50455,548.98817 318.29948,548.87879 318.03516,548.87879 L 318.03516,548.87879 z M 317.63184,555.98133 C 317.16699,555.98133 316.85937,556.02006 316.70898,556.09754 C 316.44922,556.23881 316.31933,556.43022 316.31934,556.67176 C 316.31933,556.90418 316.45377,557.11495 316.72266,557.30408 C 316.99153,557.49321 317.49739,557.58777 318.24023,557.58777 C 318.87369,557.58777 319.37158,557.50346 319.73389,557.33484 C 320.09619,557.16622 320.27734,556.92924 320.27734,556.6239 C 320.27734,556.50997 320.24316,556.41427 320.1748,556.3368 C 320.05175,556.20008 319.86604,556.10665 319.61768,556.05652 C 319.3693,556.00639 318.70735,555.98133 317.63184,555.98133 L 317.63184,555.98133 z "
       id="flowRoot6155" />
    <g
       id="g6163"
       transform="translate(273.2994,371.1526)"
       style="fill:#0aa01b;fill-opacity:1;stroke:#0aa01b;stroke-opacity:1">
      <path
         id="path6165"
         d="M 172.02896,29.39511 L 186.40596,29.39511"
         style="fill:#0aa01b;fill-opacity:1;fill-rule:evenodd;stroke:#0aa01b;stroke-width:0.65466833;stroke-linecap:butt;stroke-linejoin:miter;stroke-miterlimit:4;stroke-opacity:1" />
      <path
         id="path6167"
         d="M 184.08966,27.36431 L 185.20787,29.39511 L 184.08966,31.42591 L 189.05461,29.39511 L 184.08966,27.36431 z "
         style="fill:#0aa01b;fill-opacity:1;fill-rule:evenodd;stroke:#0aa01b;stroke-width:0.38509902px;stroke-linecap:butt;stroke-linejoin:miter;stroke-opacity:1" />
    </g>
    <g
       style="fill:#4272ff;fill-opacity:1;stroke:#4272ff;stroke-opacity:1"
       transform="matrix(0.3914405,-0.9202034,0.9202034,0.3914405,-101.63471,551.9368)"
       id="g6169">
      <path
         style="fill:#4272ff;fill-opacity:1;fill-rule:evenodd;stroke:#4272ff;stroke-width:1.70000005;stroke-linecap:butt;stroke-linejoin:miter;stroke-miterlimit:4;stroke-dasharray:none;stroke-opacity:1"
         d="M 469.99822,443.94608 L 539,444.42743"
         id="path6171"
         sodipodi:nodetypes="cc" />
      <path
         style="fill:#4272ff;fill-opacity:1;fill-rule:evenodd;stroke:#4272ff;stroke-width:1px;stroke-linecap:butt;stroke-linejoin:miter;stroke-opacity:1"
         d="M 534.79794,440.05243 L 538.29794,444.42743 L 534.79794,448.80243 L 550.33824,444.42743 L 534.79794,440.05243 z "
         id="path6173" />
    </g>
    <g
       id="g7144"
       transform="matrix(0.3914405,-0.9202034,0.9202034,0.3914405,-247.63471,657.9368)"
       style="fill:#4272ff;fill-opacity:1;stroke:#4272ff;stroke-opacity:1">
      <path
         sodipodi:nodetypes="cc"
         id="path7146"
         d="M 469.99822,443.94608 L 539,444.42743"
         style="fill:#4272ff;fill-opacity:1;fill-rule:evenodd;stroke:#4272ff;stroke-width:1.70000005;stroke-linecap:butt;stroke-linejoin:miter;stroke-miterlimit:4;stroke-dasharray:none;stroke-opacity:1" />
      <path
         id="path7148"
         d="M 534.79794,440.05243 L 538.29794,444.42743 L 534.79794,448.80243 L 550.33824,444.42743 L 534.79794,440.05243 z "
         style="fill:#4272ff;fill-opacity:1;fill-rule:evenodd;stroke:#4272ff;stroke-width:1px;stroke-linecap:butt;stroke-linejoin:miter;stroke-opacity:1" />
    </g>
    <path
       transform="translate(180.24369,-300.88573)"
       style="fill:#4272ff;fill-opacity:1;stroke:none;stroke-opacity:1"
       d="M 306.10516,545.76844 L 308.72461,551.51746 L 310.07898,547.53211 C 310.2681,546.97613 310.31623,546.60015 310.22339,546.40418 C 310.09435,546.13986 309.77078,546.01226 309.25269,546.02137 L 309.33856,545.76844 L 312.40106,545.76844 L 312.31519,546.02137 C 311.90616,546.0715 311.6209,546.13645 311.45941,546.21619 C 311.2979,546.29595 311.14893,546.42583 311.01251,546.60584 C 310.87607,546.78586 310.73351,547.09462 310.58484,547.53211 L 307.96198,555.24988 L 307.72955,555.24988 L 304.08386,547.53211 L 302.08136,553.42469 C 301.90021,553.95789 301.89978,554.31792 302.08008,554.50476 C 302.26037,554.69161 302.50775,554.78504 302.8222,554.78504 L 303.04095,554.78504 L 302.95508,555.03797 L 299.66699,555.03797 L 299.75287,554.78504 C 300.26499,554.78048 300.65614,554.67566 300.9263,554.47058 C 301.19646,554.26551 301.41514,553.91687 301.58234,553.42469 L 303.80573,546.88269 L 303.69122,546.6366 C 303.57871,546.39051 303.46044,546.22873 303.3364,546.15125 C 303.21235,546.07378 303.01062,546.03049 302.7312,546.02137 L 302.81708,545.76844 L 306.10516,545.76844 z "
       id="flowRoot7150" />
    <g
       transform="translate(309.60411,212.18987)"
       id="g7158"
       style="fill:#4272ff;fill-opacity:1;stroke:#4272ff;stroke-opacity:1">
      <path
         id="path7160"
         d="M 172.02896,29.39511 L 186.40596,29.39511"
         style="fill:#4272ff;fill-opacity:1;fill-rule:evenodd;stroke:#4272ff;stroke-width:0.65466833;stroke-linecap:butt;stroke-linejoin:miter;stroke-miterlimit:4;stroke-opacity:1" />
      <path
         id="path7162"
         d="M 184.08966,27.36431 L 185.20787,29.39511 L 184.08966,31.42591 L 189.05461,29.39511 L 184.08966,27.36431 z "
         style="fill:#4272ff;fill-opacity:1;fill-rule:evenodd;stroke:#4272ff;stroke-width:0.38509902px;stroke-linecap:butt;stroke-linejoin:miter;stroke-opacity:1" />
    </g>
    <path
       transform="translate(37.74369,-196.88573)"
       style="fill:#4272ff;fill-opacity:1;stroke:none;stroke-opacity:1"
       d="M 306.10516,545.76844 L 308.72461,551.51746 L 310.07898,547.53211 C 310.2681,546.97613 310.31623,546.60015 310.22339,546.40418 C 310.09435,546.13986 309.77078,546.01226 309.25269,546.02137 L 309.33856,545.76844 L 312.40106,545.76844 L 312.31519,546.02137 C 311.90616,546.0715 311.6209,546.13645 311.45941,546.21619 C 311.2979,546.29595 311.14893,546.42583 311.01251,546.60584 C 310.87607,546.78586 310.73351,547.09462 310.58484,547.53211 L 307.96198,555.24988 L 307.72955,555.24988 L 304.08386,547.53211 L 302.08136,553.42469 C 301.90021,553.95789 301.89978,554.31792 302.08008,554.50476 C 302.26037,554.69161 302.50775,554.78504 302.8222,554.78504 L 303.04095,554.78504 L 302.95508,555.03797 L 299.66699,555.03797 L 299.75287,554.78504 C 300.26499,554.78048 300.65614,554.67566 300.9263,554.47058 C 301.19646,554.26551 301.41514,553.91687 301.58234,553.42469 L 303.80573,546.88269 L 303.69122,546.6366 C 303.57871,546.39051 303.46044,546.22873 303.3364,546.15125 C 303.21235,546.07378 303.01062,546.03049 302.7312,546.02137 L 302.81708,545.76844 L 306.10516,545.76844 z "
       id="flowRoot8133" />
    <g
       style="fill:#4272ff;fill-opacity:1;stroke:#4272ff;stroke-opacity:1"
       id="g8141"
       transform="translate(167.10411,316.18987)">
      <path
         style="fill:#4272ff;fill-opacity:1;fill-rule:evenodd;stroke:#4272ff;stroke-width:0.65466833;stroke-linecap:butt;stroke-linejoin:miter;stroke-miterlimit:4;stroke-opacity:1"
         d="M 172.02896,29.39511 L 186.40596,29.39511"
         id="path8143" />
      <path
         style="fill:#4272ff;fill-opacity:1;fill-rule:evenodd;stroke:#4272ff;stroke-width:0.38509902px;stroke-linecap:butt;stroke-linejoin:miter;stroke-opacity:1"
         d="M 184.08966,27.36431 L 185.20787,29.39511 L 184.08966,31.42591 L 189.05461,29.39511 L 184.08966,27.36431 z "
         id="path8145" />
    </g>
    <path
       style="fill:#ff0000;fill-opacity:1;fill-rule:evenodd;stroke:#ff0000;stroke-width:1px;stroke-linecap:butt;stroke-linejoin:miter;stroke-opacity:1"
       d="M 446.61944,330.36703 L 446.73766,324.76557 L 441.29874,323.42063 L 456.29616,317.44412 L 446.61944,330.36703 z "
       id="path5926" />
    <path
       transform="translate(269,-204.5)"
       style="font-size:14px;font-weight:bold;fill:#00aa88;fill-opacity:1;stroke:none;stroke-opacity:1;font-family:Times New Roman"
       d="M 192.24316,657.74012 L 194.11621,657.74012 L 193.4668,660.7616 C 193.31184,661.49077 193.16145,662.04904 193.01563,662.4364 C 193.05663,662.67794 193.14208,662.87846 193.27197,663.03797 C 193.40185,663.19747 193.53515,663.27723 193.67188,663.27723 C 194.04101,663.27723 194.23697,662.93999 194.25977,662.26551 L 194.5127,662.26551 C 194.50357,663.07215 194.41585,663.61674 194.24951,663.8993 C 194.08316,664.18185 193.87922,664.32312 193.6377,664.32312 C 193.21842,664.32312 192.92219,663.86512 192.74902,662.9491 C 192.24316,663.86512 191.46386,664.32312 190.41113,664.32312 C 189.56803,664.32312 188.88786,664.02918 188.37061,663.44129 C 187.85335,662.8534 187.59473,662.09233 187.59473,661.15808 C 187.59473,660.18283 187.85107,659.33745 188.36377,658.62195 C 188.87646,657.90646 189.49739,657.54872 190.22656,657.54871 C 190.60026,657.54872 190.91699,657.66834 191.17676,657.9076 C 191.43652,658.14686 191.69401,658.54676 191.94922,659.1073 L 192.24316,657.74012 z M 191.76465,659.95496 C 191.50488,659.20301 191.27815,658.70513 191.08447,658.46131 C 190.89078,658.2175 190.66406,658.09559 190.4043,658.09558 C 190.16276,658.09559 189.96907,658.25396 189.82324,658.57068 C 189.67741,658.88742 189.60449,659.81141 189.60449,661.34265 C 189.60449,662.22221 189.6512,662.85909 189.74463,663.2533 C 189.83805,663.64751 190.0192,663.84461 190.28809,663.84461 C 190.47037,663.84461 190.64697,663.73979 190.81787,663.53015 C 190.98877,663.32052 191.17675,662.73263 191.38184,661.76648 L 191.76465,659.95496 z "
       id="flowRoot9144" />
    <path
       style="fill:#00aa88;fill-opacity:1;stroke:none;stroke-width:0.06465279;stroke-miterlimit:4;stroke-opacity:1"
       d="M 347.60612,398.75433 C 347.60612,400.13436 346.48613,401.25435 345.10612,401.25435 C 343.72611,401.25435 342.60612,400.13436 342.60612,398.75433 C 342.60612,397.37434 343.72611,396.25435 345.10612,396.25435 C 346.48613,396.25435 347.60612,397.37434 347.60612,398.75433 z "
       id="path5936" />
    <path
       style="font-size:14px;font-weight:bold;fill:#00aa88;fill-opacity:1;font-family:Times New Roman"
       d="M 329.3527,391.64654 L 329.3527,391.39361 L 329.66032,391.39361 C 329.9292,391.39361 330.13541,391.35145 330.27897,391.26714 C 330.42252,391.18283 330.52848,391.06776 330.59684,390.92193 C 330.63786,390.82623 330.65836,390.53912 330.65836,390.0606 L 330.65836,383.96294 C 330.65836,383.48899 330.6333,383.19277 330.58317,383.07427 C 330.53304,382.95579 330.43164,382.85211 330.27897,382.76324 C 330.1263,382.67438 329.92008,382.62994 329.66032,382.62994 L 329.3527,382.62994 L 329.3527,382.37701 L 333.50211,382.37701 C 334.60953,382.37702 335.50048,382.52741 336.17497,382.82818 C 336.99983,383.19733 337.62532,383.75559 338.05143,384.50298 C 338.47753,385.25038 338.69058,386.09576 338.69059,387.03912 C 338.69058,387.69081 338.58576,388.29123 338.37614,388.84038 C 338.16649,389.38954 337.89533,389.84299 337.56266,390.20074 C 337.22997,390.55848 336.84602,390.84559 336.41081,391.06206 C 335.97558,391.27854 335.44351,391.44602 334.81461,391.56451 C 334.53661,391.61919 334.09911,391.64654 333.50211,391.64654 L 329.3527,391.64654 z M 332.88688,382.90337 L 332.88688,390.1358 C 332.88688,390.51861 332.90511,390.75331 332.94157,390.8399 C 332.97802,390.92649 333.03955,390.99257 333.12614,391.03814 C 333.24918,391.1065 333.42691,391.14068 333.65934,391.14068 C 334.4204,391.14068 335.00146,390.88091 335.40251,390.36138 C 335.94937,389.65956 336.22281,388.57037 336.22282,387.0938 C 336.22281,385.90436 336.03596,384.95416 335.66227,384.24322 C 335.36604,383.68724 334.98551,383.30898 334.52067,383.10845 C 334.19254,382.96718 333.64794,382.89882 332.88688,382.90337 L 332.88688,382.90337 z "
       id="flowRoot6951" />
    <path
       style="fill:#00aa88;fill-opacity:1;stroke:none;stroke-width:0.06465279;stroke-miterlimit:4;stroke-opacity:1"
       d="M 493.94169,291.2741 C 493.94169,292.65413 492.8217,293.77412 491.44169,293.77412 C 490.06168,293.77412 488.94169,292.65413 488.94169,291.2741 C 488.94169,289.89411 490.06168,288.77412 491.44169,288.77412 C 492.8217,288.77412 493.94169,289.89411 493.94169,291.2741 z "
       id="path5934" />
    <path
       style="font-size:14px;font-weight:bold;fill:#00aa88;fill-opacity:1;font-family:Times New Roman"
       d="M 487.32422,281.0868 L 484.0498,281.0868 L 483.66016,281.98914 C 483.53255,282.28992 483.46875,282.53829 483.46875,282.73426 C 483.46875,282.99402 483.57357,283.18543 483.7832,283.30848 C 483.90625,283.38139 484.20931,283.43608 484.69238,283.47254 L 484.69238,283.72547 L 481.60938,283.72547 L 481.60938,283.47254 C 481.94206,283.42241 482.21549,283.28455 482.42969,283.05896 C 482.64388,282.83338 482.9082,282.3674 483.22266,281.66101 L 486.53809,274.26453 L 486.66797,274.26453 L 490.01074,281.86609 C 490.32974,282.58615 490.59179,283.0396 490.79688,283.22644 C 490.95181,283.36772 491.17056,283.44975 491.45313,283.47254 L 491.45313,283.72547 L 486.96875,283.72547 L 486.96875,283.47254 L 487.15332,283.47254 C 487.51334,283.47254 487.76627,283.42241 487.91211,283.32215 C 488.01236,283.24923 488.06249,283.14441 488.0625,283.00769 C 488.06249,282.92566 488.04882,282.84135 488.02148,282.75476 C 488.01236,282.71375 487.944,282.54285 487.81641,282.24207 L 487.32422,281.0868 z M 487.0918,280.58094 L 485.71094,277.38855 L 484.28906,280.58094 L 487.0918,280.58094 z "
       id="flowRoot5950" />
    <path
       style="fill:#00aa88;fill-opacity:1;stroke:none;stroke-width:0.06465279;stroke-miterlimit:4;stroke-opacity:1"
       d="M 320.62515,238.92055 C 320.62515,240.30058 319.50516,241.42057 318.12515,241.42057 C 316.74514,241.42057 315.62515,240.30058 315.62515,238.92055 C 315.62515,237.54056 316.74514,236.42057 318.12515,236.42057 C 319.50516,236.42057 320.62515,237.54056 320.62515,238.92055 z "
       id="path28782" />
    <path
       style="font-size:14px;font-weight:bold;fill:#00aa88;fill-opacity:1;font-family:Times New Roman"
       d="M 315.22754,228.81043 C 316.10709,229.01551 316.7246,229.26388 317.08008,229.55555 C 317.59049,229.97026 317.84569,230.50802 317.8457,231.16883 C 317.84569,231.86609 317.56542,232.44259 317.00488,232.89832 C 316.31672,233.44975 315.3164,233.72547 314.00391,233.72547 L 309.29395,233.72547 L 309.29395,233.47254 C 309.72233,233.47254 310.01286,233.43266 310.16553,233.35291 C 310.3182,233.27316 310.42529,233.16948 310.48682,233.04187 C 310.54834,232.91427 310.5791,232.59982 310.5791,232.09851 L 310.5791,226.08289 C 310.5791,225.5816 310.54834,225.266 310.48682,225.13611 C 310.42529,225.00624 310.31706,224.90256 310.16211,224.82508 C 310.00716,224.74761 309.71777,224.70887 309.29395,224.70887 L 309.29395,224.45594 L 313.7373,224.45594 C 314.79915,224.45595 315.5511,224.55051 315.99316,224.73963 C 316.43521,224.92876 316.78385,225.21132 317.03906,225.58728 C 317.29426,225.96327 317.42187,226.36317 317.42188,226.78699 C 317.42187,227.23361 317.26008,227.63124 316.93652,227.97986 C 316.61295,228.3285 316.04329,228.60536 315.22754,228.81043 L 315.22754,228.81043 z M 312.73926,228.62586 C 313.38639,228.62586 313.86376,228.55295 314.17139,228.40711 C 314.479,228.26128 314.71484,228.0562 314.87891,227.79187 C 315.04296,227.52756 315.12499,227.19032 315.125,226.78015 C 315.12499,226.37001 315.0441,226.03391 314.88232,225.77185 C 314.72053,225.50982 314.48925,225.31044 314.18848,225.17371 C 313.88769,225.037 313.40462,224.97092 312.73926,224.97547 L 312.73926,228.62586 z M 312.73926,229.15906 L 312.73926,232.13269 L 312.73242,232.47449 C 312.73242,232.72059 312.79508,232.90629 312.92041,233.03162 C 313.04573,233.15695 313.23144,233.21961 313.47754,233.21961 C 313.84212,233.21961 314.17822,233.13872 314.48584,232.97693 C 314.79345,232.81515 315.02929,232.58045 315.19336,232.27283 C 315.35742,231.96522 315.43945,231.62228 315.43945,231.24402 C 315.43945,230.81108 315.33919,230.42257 315.13867,230.07849 C 314.93815,229.73442 314.66243,229.49403 314.31152,229.3573 C 313.96061,229.22059 313.43652,229.15451 312.73926,229.15906 L 312.73926,229.15906 z "
       id="flowRoot6927" />
    <path
       style="fill:#00aa88;fill-opacity:1;stroke:none;stroke-width:0.06465279;stroke-miterlimit:4;stroke-opacity:1"
       d="M 174.76372,346.7899 C 174.76372,348.1699 173.64373,349.2899 172.26372,349.2899 C 170.88371,349.2899 169.76372,348.1699 169.76372,346.7899 C 169.76372,345.4099 170.88371,344.2899 172.26372,344.2899 C 173.64373,344.2899 174.76372,345.4099 174.76372,346.7899 z "
       id="path5938" />
    <path
       style="font-size:14px;font-weight:bold;fill:#00aa88;fill-opacity:1;font-family:Times New Roman"
       d="M 173.26517,330.6651 L 173.26517,333.878 L 172.99857,333.878 C 172.79804,333.0395 172.42434,332.3969 171.87747,331.9502 C 171.33059,331.5036 170.7108,331.2803 170.0181,331.2803 C 169.43931,331.2803 168.90839,331.4467 168.42532,331.7794 C 167.94225,332.112 167.58906,332.5473 167.36575,333.085 C 167.07864,333.7732 166.93509,334.5388 166.93509,335.3819 C 166.93509,336.2113 167.0399,336.9667 167.24954,337.648 C 167.45917,338.3293 167.7873,338.8443 168.23392,339.1929 C 168.68053,339.5416 169.2593,339.7159 169.97024,339.7159 C 170.55357,339.7159 171.08791,339.5883 171.57327,339.3331 C 172.05862,339.0779 172.57017,338.6381 173.10794,338.0137 L 173.10794,338.8135 C 172.5884,339.3558 172.04722,339.7489 171.4844,339.9927 C 170.92157,340.2365 170.26418,340.3584 169.51224,340.3584 C 168.5233,340.3584 167.64488,340.1602 166.87698,339.7637 C 166.10908,339.3672 165.51663,338.7976 165.09964,338.0547 C 164.68265,337.3119 164.47415,336.5212 164.47415,335.6827 C 164.47415,334.7986 164.70543,333.96 165.168,333.1671 C 165.63056,332.3741 166.25491,331.7589 167.04105,331.3213 C 167.82717,330.8839 168.6623,330.6651 169.54642,330.6651 C 170.1981,330.6651 170.88625,330.8064 171.61087,331.0889 C 172.03013,331.253 172.29673,331.335 172.41067,331.335 C 172.5565,331.335 172.68296,331.2815 172.79007,331.1744 C 172.89716,331.0673 172.96665,330.8975 172.99857,330.6651 L 173.26517,330.6651 z "
       id="flowRoot6943" />
    <path
       transform="translate(189.24369,-292.63573)"
       style="fill:#4272ff;fill-opacity:1"
       d="M 303.62891,549.91021 L 301.29004,549.91021 L 301.01172,550.55474 C 300.92057,550.76959 300.875,550.947 300.875,551.08697 C 300.875,551.27252 300.94987,551.40923 301.09961,551.49713 C 301.1875,551.54921 301.40397,551.58827 301.74902,551.61431 L 301.74902,551.79498 L 299.54688,551.79498 L 299.54688,551.61431 C 299.7845,551.57851 299.97982,551.48004 300.13281,551.3189 C 300.28581,551.15777 300.47461,550.82493 300.69922,550.32037 L 303.06738,545.03716 L 303.16016,545.03716 L 305.54785,550.46685 C 305.77571,550.98118 305.96288,551.30507 306.10938,551.43853 C 306.22005,551.53944 306.3763,551.59804 306.57813,551.61431 L 306.57813,551.79498 L 303.375,551.79498 L 303.375,551.61431 L 303.50684,551.61431 C 303.76399,551.61431 303.94466,551.57851 304.04883,551.50689 C 304.12044,551.45481 304.15625,551.37994 304.15625,551.28228 C 304.15625,551.22369 304.14648,551.16347 304.12695,551.10162 C 304.12044,551.07232 304.07161,550.95025 303.98047,550.73541 L 303.62891,549.91021 z M 303.46289,549.54888 L 302.47656,547.26861 L 301.46094,549.54888 L 303.46289,549.54888 z "
       id="flowRoot10127" />
    <path
       transform="translate(48.24369,-189.63573)"
       style="fill:#4272ff;fill-opacity:1"
       d="M 299.60059,551.79498 L 299.60059,551.61431 L 299.82031,551.61431 C 300.01237,551.61431 300.15967,551.5842 300.26221,551.52398 C 300.36475,551.46376 300.44043,551.38157 300.48926,551.2774 C 300.51855,551.20904 300.5332,551.00396 300.5332,550.66216 L 300.5332,546.3067 C 300.5332,545.96816 300.5153,545.75657 300.47949,545.67193 C 300.44368,545.5873 300.37126,545.51324 300.26221,545.44976 C 300.15316,545.38629 300.00586,545.35455 299.82031,545.35455 L 299.60059,545.35455 L 299.60059,545.17388 L 302.56445,545.17388 C 303.35546,545.17389 303.99186,545.28131 304.47363,545.49615 C 305.06282,545.75983 305.5096,546.15859 305.81396,546.69244 C 306.11832,547.2263 306.2705,547.83014 306.27051,548.50396 C 306.2705,548.96946 306.19563,549.39833 306.0459,549.79058 C 305.89615,550.18284 305.70247,550.50673 305.46484,550.76226 C 305.22721,551.0178 304.95296,551.22287 304.64209,551.3775 C 304.33121,551.53212 303.95117,551.65175 303.50195,551.73638 C 303.30338,551.77545 302.99088,551.79498 302.56445,551.79498 L 299.60059,551.79498 z M 302.125,545.54986 L 302.125,550.71588 C 302.125,550.98931 302.13802,551.15696 302.16406,551.2188 C 302.1901,551.28065 302.23405,551.32785 302.2959,551.36041 C 302.38379,551.40923 302.51074,551.43365 302.67676,551.43365 C 303.22037,551.43365 303.63541,551.2481 303.92188,550.87701 C 304.3125,550.37571 304.50781,549.59771 304.50781,548.54302 C 304.50781,547.69342 304.37434,547.01471 304.10742,546.50689 C 303.89583,546.10976 303.62402,545.83958 303.29199,545.69634 C 303.05761,545.59544 302.66862,545.54661 302.125,545.54986 L 302.125,545.54986 z "
       id="flowRoot11104" />
    <path
       transform="translate(160.74369,-205.13573)"
       style="fill:#000000;fill-opacity:1"
       d="M 302.8252,555.22937 L 300.67188,550.27332 C 300.41211,549.67632 300.20931,549.29806 300.06348,549.13855 C 299.95866,549.02007 299.80371,548.94032 299.59863,548.8993 L 299.59863,548.64637 L 302.99609,548.64637 L 302.99609,548.8993 C 302.7819,548.8993 302.63606,548.93804 302.55859,549.01551 C 302.44922,549.11577 302.39453,549.23426 302.39453,549.37098 C 302.39453,549.5396 302.49479,549.85633 302.69531,550.32117 L 303.74805,552.72058 L 304.58887,550.6493 C 304.8304,550.05685 304.95117,549.63758 304.95117,549.39148 C 304.95117,549.25021 304.8999,549.13514 304.79736,549.04627 C 304.69482,548.95741 304.51367,548.90842 304.25391,548.8993 L 304.25391,548.64637 L 306.3457,548.64637 L 306.3457,548.8993 C 306.14518,548.92665 305.98111,549.00184 305.85352,549.12488 C 305.72591,549.24793 305.5345,549.61024 305.2793,550.2118 L 303.14648,555.22937 L 302.8252,555.22937 z "
       id="flowRoot11112" />
    <path
       style="fill:none;fill-rule:evenodd;stroke:#8b8b8b;stroke-width:1.70000005;stroke-linecap:butt;stroke-linejoin:miter;stroke-miterlimit:4;stroke-opacity:1"
       d="M 216.42214,462.43405 L 302.49567,463.05455"
       id="path14027" />
    <path
       style="fill:#8b8b8b;fill-opacity:1;fill-rule:evenodd;stroke:#8b8b8b;stroke-width:1px;stroke-linecap:butt;stroke-linejoin:miter;stroke-opacity:1"
       d="M 297.039,458.93148 L 300.55186,463.29614 L 297.06475,467.68143 L 312.59201,463.26072 L 297.039,458.93148 z "
       id="path14029" />
    <path
       style="fill:none;fill-rule:evenodd;stroke:#8b8b8b;stroke-width:1.70000005;stroke-linecap:butt;stroke-linejoin:miter;stroke-miterlimit:4;stroke-opacity:1"
       d="M 217.49216,462.03784 L 292.25341,406.88922"
       id="path14031" />
    <path
       style="fill:#8b8b8b;fill-opacity:1;fill-rule:evenodd;stroke:#8b8b8b;stroke-width:1px;stroke-linecap:butt;stroke-linejoin:miter;stroke-opacity:1"
       d="M 283.2663,408.22934 L 288.68239,409.66343 L 288.4722,415.26221 L 298.35986,402.49992 L 283.2663,408.22934 z "
       id="path14033" />
    <g
       id="g14037"
       transform="matrix(-5.8316296e-3,-0.999983,0.999983,-5.8316296e-3,-225.59352,870.5305)">
      <path
         sodipodi:nodetypes="cc"
         id="path14039"
         d="M 405.35355,445.13454 L 478.89592,445.13454"
         style="fill:none;fill-rule:evenodd;stroke:#8b8b8b;stroke-width:1.70000005;stroke-linecap:butt;stroke-linejoin:miter;stroke-miterlimit:4;stroke-dasharray:none;stroke-opacity:1" />
      <path
         id="path14041"
         d="M 473.98676,440.75954 L 477.48676,445.13454 L 473.98676,449.50954 L 489.52706,445.13454 L 473.98676,440.75954 z "
         style="fill:#8b8b8b;fill-opacity:1;fill-rule:evenodd;stroke:#8b8b8b;stroke-width:1px;stroke-linecap:butt;stroke-linejoin:miter;stroke-opacity:1" />
    </g>
    <path
       transform="translate(17.74369,-88.63573)"
       style="fill:#000000;fill-opacity:1"
       d="M 303.7207,551.12098 L 304.82813,553.22644 C 305.21093,553.96017 305.51399,554.42501 305.7373,554.62098 C 305.86035,554.72579 306.02896,554.78276 306.24316,554.79187 L 306.24316,555.03797 L 302.68164,555.03797 L 302.68164,554.79187 C 302.95963,554.76909 303.13167,554.73263 303.19775,554.6825 C 303.26383,554.63237 303.29687,554.56401 303.29688,554.47742 C 303.29687,554.34982 303.22395,554.1493 303.07813,553.87586 L 302.52441,552.8368 L 302.05273,553.52723 C 301.83854,553.84168 301.71777,554.02853 301.69043,554.08777 C 301.65397,554.17436 301.63574,554.25184 301.63574,554.32019 C 301.63574,554.42501 301.65739,554.51274 301.70068,554.58338 C 301.74398,554.65402 301.80322,554.70642 301.87842,554.7406 C 301.95361,554.77478 302.09147,554.79187 302.29199,554.79187 L 302.29199,555.03797 L 299.79004,555.03797 L 299.79004,554.79187 C 300.09993,554.79187 300.38363,554.70642 300.64111,554.53553 C 300.8986,554.36463 301.27344,553.91687 301.76563,553.19226 L 302.29199,552.41297 L 301.19141,550.37586 C 300.83138,549.7105 300.5625,549.30262 300.38477,549.15223 C 300.20703,549.00184 300.00879,548.91753 299.79004,548.8993 L 299.79004,548.64637 L 303.33105,548.64637 L 303.33105,548.8993 L 303.14648,548.90613 L 302.79102,549.02918 C 302.75455,549.06109 302.73632,549.11349 302.73633,549.1864 C 302.73632,549.25477 302.74772,549.32541 302.77051,549.39832 C 302.78418,549.43023 302.84798,549.55327 302.96191,549.76746 L 303.46094,550.69715 L 303.7207,550.32801 C 304.08528,549.82671 304.26757,549.4758 304.26758,549.27527 C 304.26757,549.17957 304.2277,549.09868 304.14795,549.0326 C 304.06819,548.96652 303.92578,548.92209 303.7207,548.8993 L 303.7207,548.64637 L 305.9834,548.64637 L 305.9834,548.8993 C 305.7054,548.90842 305.44563,548.99387 305.2041,549.15564 C 304.96256,549.31743 304.6914,549.63075 304.39063,550.09558 L 303.7207,551.12098 z "
       id="flowRoot14055" />
    <path
       transform="translate(-86.076009,-181.12336)"
       style="fill:#000000;fill-opacity:1"
       d="M 305.17676,555.03797 L 299.6123,555.03797 L 299.6123,554.88758 L 303.12598,549.06336 L 302.10059,549.06336 C 301.65853,549.06336 301.3418,549.10324 301.15039,549.18299 C 300.95898,549.26275 300.80404,549.39035 300.68555,549.5658 C 300.56706,549.74126 300.44401,550.05457 300.31641,550.50574 L 300.07715,550.50574 L 300.07715,548.64637 L 305.45703,548.64637 L 305.45703,548.83094 L 301.9707,554.60047 L 302.4082,554.60047 C 303.2832,554.60047 303.91438,554.47514 304.30176,554.22449 C 304.68912,553.97384 304.98079,553.51583 305.17676,552.85047 L 305.36816,552.85047 L 305.17676,555.03797 z "
       id="flowRoot14063" />
    <path
       transform="translate(2.423991,-151.12336)"
       style="fill:#000000;fill-opacity:1"
       d="M 302.87305,555.29773 L 300.80859,550.56043 C 300.4987,549.84494 300.26969,549.40516 300.12158,549.24109 C 299.97347,549.07704 299.7946,548.9631 299.58496,548.8993 L 299.58496,548.64637 L 302.98242,548.64637 L 302.98242,548.8993 C 302.75911,548.90842 302.60188,548.95171 302.51074,549.02918 C 302.41959,549.10666 302.37402,549.20008 302.37402,549.30945 C 302.37402,549.48263 302.48795,549.82443 302.71582,550.33484 L 303.80957,552.8368 L 304.55469,550.90223 C 304.82356,550.21408 304.958,549.73556 304.95801,549.46668 C 304.958,549.29806 304.90218,549.16362 304.79053,549.06336 C 304.67887,548.9631 304.48177,548.90842 304.19922,548.8993 L 304.19922,548.64637 L 306.33887,548.64637 L 306.33887,548.8993 C 306.12923,548.92209 305.95833,549.00298 305.82617,549.14197 C 305.694,549.28097 305.47298,549.75379 305.16309,550.56043 L 303.33789,555.29773 C 302.8776,556.48263 302.5358,557.21179 302.3125,557.48523 C 301.99804,557.86804 301.60384,558.05945 301.12988,558.05945 C 300.75163,558.05945 300.44515,557.95121 300.21045,557.73474 C 299.97575,557.51827 299.8584,557.25737 299.8584,556.95203 C 299.8584,556.68771 299.93929,556.46896 300.10107,556.29578 C 300.26286,556.1226 300.46224,556.03601 300.69922,556.03601 C 300.92708,556.03601 301.11051,556.10893 301.24951,556.25476 C 301.38851,556.4006 301.46028,556.62618 301.46484,556.93152 C 301.4694,557.1047 301.48991,557.21635 301.52637,557.26648 C 301.56282,557.31661 301.61523,557.34168 301.68359,557.34168 C 301.79297,557.34168 301.90918,557.2756 302.03223,557.14344 C 302.21452,556.95203 302.42871,556.51453 302.6748,555.83094 L 302.87305,555.29773 z "
       id="flowRoot14071" />
    <path
       style="fill:#00a4e4;fill-opacity:1;stroke:none;stroke-width:0.06465279;stroke-miterlimit:4;stroke-opacity:1"
       d="M 219.31784,462.4054 C 219.31784,463.78543 218.19785,464.90542 216.81784,464.90542 C 215.43783,464.90542 214.31784,463.78543 214.31784,462.4054 C 214.31784,461.02541 215.43783,459.90542 216.81784,459.90542 C 218.19785,459.90542 219.31784,461.02541 219.31784,462.4054 z "
       id="path14228" />
    <path
       style=""
       d="M 205.24791,459.14146 C 206.72446,459.08679 207.92417,459.51745 208.84703,460.43345 C 209.76987,461.34948 210.23129,462.49564 210.2313,463.87193 C 210.23129,465.04772 209.88722,466.08222 209.19908,466.97545 C 208.28761,468.16034 207.00018,468.75279 205.33677,468.75279 C 203.6688,468.75279 202.37909,468.18769 201.46763,467.05748 C 200.74758,466.16425 200.38755,465.10468 200.38755,463.87877 C 200.38755,462.50247 200.85582,461.35517 201.79234,460.43687 C 202.72886,459.51859 203.88072,459.08679 205.24791,459.14146 L 205.24791,459.14146 z M 205.32994,459.57896 C 204.48228,459.57897 203.83742,460.01191 203.39537,460.87779 C 203.03534,461.58874 202.85533,462.60957 202.85533,463.94029 C 202.85533,465.52168 203.13332,466.69062 203.68931,467.44713 C 204.07668,467.97577 204.619,468.2401 205.31627,468.2401 C 205.78566,468.2401 206.17759,468.12616 206.49205,467.8983 C 206.89308,467.60663 207.20526,467.14065 207.42857,466.50035 C 207.65187,465.86005 207.76352,465.02493 207.76353,463.99498 C 207.76352,462.76907 207.64959,461.85192 207.42173,461.24351 C 207.19386,460.63512 206.90334,460.2056 206.55015,459.95494 C 206.19696,459.7043 205.79022,459.57897 205.32994,459.57896 L 205.32994,459.57896 z "
       id="flowRoot30738" />
    <path
       sodipodi:type="arc"
       style="opacity:1;fill:none;stroke:#008000;stroke-width:2;stroke-miterlimit:4;stroke-dasharray:none;stroke-opacity:1"
       id="path2306"
       sodipodi:cx="366.98843"
       sodipodi:cy="102.64272"
       sodipodi:rx="10.606602"
       sodipodi:ry="10.076272"
       d="M 377.59504 102.64272 A 10.606602 10.076272 0 1 1  356.38183,102.64272 A 10.606602 10.076272 0 1 1  377.59504 102.64272 z"
       transform="matrix(1.2492572,0.4212755,-0.4322359,1.2817596,-218.52471,67.664988)" />
    <path
       style="fill:none;fill-rule:evenodd;stroke:#008000;stroke-width:2.34288526;stroke-linecap:butt;stroke-linejoin:miter;stroke-miterlimit:4;stroke-dasharray:none;stroke-opacity:1"
       d="M 208.36863,358.51526 L 183.22028,350.04375"
       id="path4246" />
    <path
       style="fill:#008000;fill-opacity:1;fill-rule:evenodd;stroke:none;stroke-width:0.71624112px;stroke-linecap:butt;stroke-linejoin:miter;stroke-opacity:1"
       d="M 200.35913,360.98581 L 203.41167,357.1843 L 203.13013,352.38818 L 209.14645,358.89508 L 200.35913,360.98581 z "
       id="path5217" />
    <text
       xml:space="preserve"
       style="font-size:12px;font-style:normal;font-weight:normal;fill:#008000;fill-opacity:1;stroke:none;stroke-width:1px;stroke-linecap:butt;stroke-linejoin:miter;stroke-opacity:1;font-family:Arial Black"
       x="206.5724"
       y="340.33151"
       id="text2560"><tspan
         sodipodi:role="line"
         id="tspan2562"
         x="206.5724"
         y="340.33151">e</tspan></text>
  </g>
</svg>
