<?xml version="1.0" encoding="UTF-8" standalone="no"?>
<!-- Created with Inkscape (http://www.inkscape.org/) -->
<svg
   xmlns:dc="http://purl.org/dc/elements/1.1/"
   xmlns:cc="http://web.resource.org/cc/"
   xmlns:rdf="http://www.w3.org/1999/02/22-rdf-syntax-ns#"
   xmlns:svg="http://www.w3.org/2000/svg"
   xmlns="http://www.w3.org/2000/svg"
   xmlns:xlink="http://www.w3.org/1999/xlink"
   xmlns:sodipodi="http://sodipodi.sourceforge.net/DTD/sodipodi-0.dtd"
   xmlns:inkscape="http://www.inkscape.org/namespaces/inkscape"
   width="552"
   height="276.76776"
   id="svg2"
   sodipodi:version="0.32"
   inkscape:version="0.45.1"
   sodipodi:docbase="D:\Mes documents\Wikiversité"
   sodipodi:docname="WV-ExoInduction02-1.svg"
   inkscape:output_extension="org.inkscape.output.svg.inkscape"
   version="1.0">
  <defs
     id="defs4">
    <linearGradient
       inkscape:collect="always"
       id="linearGradient3441">
      <stop
         style="stop-color:#cae8ff;stop-opacity:1;"
         offset="0"
         id="stop3443" />
      <stop
         style="stop-color:#cae8ff;stop-opacity:0;"
         offset="1"
         id="stop3445" />
    </linearGradient>
    <linearGradient
       inkscape:collect="always"
       xlink:href="#linearGradient3441"
       id="linearGradient3453"
       gradientUnits="userSpaceOnUse"
       gradientTransform="matrix(0.9911388,0,0,1.0125919,302.8274,150.37313)"
       x1="32.700317"
       y1="231.12016"
       x2="493.05737"
       y2="135.25325" />
    <linearGradient
       inkscape:collect="always"
       id="linearGradient5095">
      <stop
         style="stop-color:#ffffff;stop-opacity:1;"
         offset="0"
         id="stop5097" />
      <stop
         style="stop-color:#ffffff;stop-opacity:0;"
         offset="1"
         id="stop5099" />
    </linearGradient>
    <linearGradient
       inkscape:collect="always"
       xlink:href="#linearGradient5095"
       id="linearGradient3627"
       gradientUnits="userSpaceOnUse"
       gradientTransform="matrix(0.4755447,0,0,0.4755447,151.58301,206.01015)"
       x1="195.89999"
       y1="353.86218"
       x2="562.09998"
       y2="353.86218" />
  </defs>
  <sodipodi:namedview
     id="base"
     pagecolor="#ffffff"
     bordercolor="#666666"
     borderopacity="1.0"
     inkscape:pageopacity="0.0"
     inkscape:pageshadow="2"
     inkscape:zoom="1.4142136"
     inkscape:cx="320.1861"
     inkscape:cy="141.78091"
     inkscape:document-units="px"
     inkscape:current-layer="layer1"
     inkscape:window-width="1280"
     inkscape:window-height="753"
     inkscape:window-x="-4"
     inkscape:window-y="-4"
     showguides="true"
     inkscape:guide-bbox="true" />
  <metadata
     id="metadata7">
    <rdf:RDF>
      <cc:Work
         rdf:about="">
        <dc:format>image/svg+xml</dc:format>
        <dc:type
           rdf:resource="http://purl.org/dc/dcmitype/StillImage" />
      </cc:Work>
    </rdf:RDF>
  </metadata>
  <g
     inkscape:label="Calque 1"
     inkscape:groupmode="layer"
     id="layer1"
     transform="translate(-155.5724,-215.06374)">
    <path
       style="opacity:0.47560975;fill:#ffe993;fill-opacity:1;stroke:none;stroke-width:1.79950619;stroke-linejoin:miter;stroke-miterlimit:4;stroke-dashoffset:0;stroke-opacity:1"
       d="M 155.5724,215.06374 L 707.57239,215.06374 L 707.57239,491.8315 L 155.5724,491.8315 L 155.5724,215.06374 z "
       id="rect7641" />
    <path
       style="fill:url(#linearGradient3453);fill-opacity:1;fill-rule:evenodd;stroke:#00a4e4;stroke-width:2.00361562;stroke-linecap:round;stroke-linejoin:miter;stroke-miterlimit:4;stroke-dashoffset:0;stroke-opacity:1"
       d="M 328.67389,313.24157 L 673.67028,313.18091 L 527.67028,427.23795 L 178.67389,427.23795 L 328.67389,313.24157 z "
       id="rect2470" />
    <path
       style="fill:none;fill-rule:evenodd;stroke:#000000;stroke-width:2.12100005;stroke-linecap:butt;stroke-linejoin:miter;stroke-miterlimit:4;stroke-opacity:1"
       d="M 437.18586,424.45136 C 440.01429,421.26938 582.84986,316.26403 582.84986,316.26403"
       id="path5903" />
    <path
       style="fill:none;fill-rule:evenodd;stroke:#000000;stroke-width:2.12100005;stroke-linecap:butt;stroke-linejoin:miter;stroke-miterlimit:4;stroke-opacity:1"
       d="M 304.56779,316.19997 L 695.89622,316.40708 M 539.88494,316.11547 C 511.95422,316.11547 512.30777,316.46902 512.30777,316.46902"
       id="path5901" />
    <path
       style="fill:none;fill-rule:evenodd;stroke:#000000;stroke-width:2.12100005;stroke-linecap:butt;stroke-linejoin:miter;stroke-miterlimit:4;stroke-opacity:1"
       d="M 165.12132,424.24086 L 572.12132,424.24086"
       id="path4930" />
    <g
       id="g3622"
       transform="translate(14,-8)">
      <path
         sodipodi:nodetypes="ccccc"
         id="rect3138"
         d="M 240.35521,436.38532 L 413.51872,309.76434 C 417.19631,308.71794 420.4879,313.58099 418.57899,316.67288 L 246.27972,443.84681 L 240.35521,436.38532 z "
         style="fill:#cccccc;fill-opacity:1;fill-rule:evenodd;stroke:#000000;stroke-width:0.4636012;stroke-linecap:round;stroke-linejoin:miter;stroke-miterlimit:4;stroke-dashoffset:0;stroke-opacity:1" />
      <path
         id="path2160"
         d="M 247.95258,440.19753 C 247.95258,442.82111 245.8233,444.95038 243.19973,444.95038 C 240.57615,444.95038 238.44687,442.82111 238.44687,440.19753 C 238.44687,437.57396 240.57615,435.44468 243.19973,435.44468 C 245.8233,435.44468 247.95258,437.57396 247.95258,440.19753 z "
         style="fill:#cccccc;fill-opacity:1;fill-rule:evenodd;stroke:#000000;stroke-width:0.38980204;stroke-linecap:round;stroke-linejoin:miter;stroke-miterlimit:4;stroke-dashoffset:0;stroke-opacity:1" />
      <path
         sodipodi:nodetypes="cc"
         id="path3144"
         d="M 247.1675,437.53487 L 417.88804,312.46662"
         style="fill:none;fill-opacity:1;fill-rule:evenodd;stroke:url(#linearGradient3627);stroke-width:3.42392159;stroke-linecap:butt;stroke-linejoin:miter;stroke-miterlimit:4;stroke-opacity:1" />
    </g>
    <path
       style="fill:#ffffff;fill-opacity:1;fill-rule:evenodd;stroke:#000000;stroke-width:2;stroke-linecap:round;stroke-linejoin:miter;stroke-miterlimit:4;stroke-dashoffset:0;stroke-opacity:1"
       d="M 536.65423,342.58361 L 554.87716,342.61595 L 486.67568,393.40353 L 467.5563,393.37119 L 536.65423,342.58361 z "
       id="rect3455" />
    <g
       id="g4915"
       transform="translate(3,0)">
      <path
         sodipodi:nodetypes="cc"
         id="path2172"
         d="M 165,444.42743 L 539,444.42743"
         style="fill:none;fill-rule:evenodd;stroke:#8b8b8b;stroke-width:1.70000005;stroke-linecap:butt;stroke-linejoin:miter;stroke-miterlimit:4;stroke-dasharray:none;stroke-opacity:1" />
      <path
         id="path3382"
         d="M 534.79794,440.05243 L 538.29794,444.42743 L 534.79794,448.80243 L 550.33824,444.42743 L 534.79794,440.05243 z "
         style="fill:#8b8b8b;fill-opacity:1;fill-rule:evenodd;stroke:#8b8b8b;stroke-width:1px;stroke-linecap:butt;stroke-linejoin:miter;stroke-opacity:1" />
    </g>
    <path
       style="fill:none;fill-rule:evenodd;stroke:#8b8b8b;stroke-width:1.70000005;stroke-linecap:butt;stroke-linejoin:miter;stroke-miterlimit:4;stroke-opacity:1"
       d="M 195.56044,444.42822 L 405.09776,288.17948"
       id="path3380" />
    <path
       style="fill:#8b8b8b;fill-opacity:1;fill-rule:evenodd;stroke:#8b8b8b;stroke-width:1px;stroke-linecap:butt;stroke-linejoin:miter;stroke-opacity:1"
       d="M 395.7939,289.61067 L 401.21294,291.03358 L 401.01428,296.63279 L 410.87562,283.85016 L 395.7939,289.61067 z "
       id="path4920" />
    <path
       style="font-weight:bold;font-family:Times New Roman"
       d="M 423.09774,270.49786 L 423.09774,270.75079 C 422.7924,270.79182 422.5577,270.88069 422.39364,271.0174 C 422.16577,271.20881 421.80574,271.73062 421.31357,272.58283 L 419.3038,275.93927 L 419.3038,278.18146 C 419.30379,278.65998 419.32886,278.95734 419.37899,279.07355 C 419.42912,279.18976 419.52824,279.2923 419.67636,279.38117 C 419.82446,279.47003 420.02157,279.51447 420.26767,279.51447 L 420.7872,279.51447 L 420.7872,279.7674 L 415.58505,279.7674 L 415.58505,279.51447 L 416.0704,279.51447 C 416.34384,279.51447 416.56031,279.46662 416.71982,279.37091 C 416.8383,279.30711 416.93173,279.19774 417.00009,279.04279 C 417.05022,278.93341 417.07528,278.6463 417.07528,278.18146 L 417.07528,276.32208 L 414.89462,272.3504 C 414.46168,271.56656 414.15634,271.10513 413.9786,270.96613 C 413.80087,270.82714 413.56389,270.75536 413.26767,270.75079 L 413.26767,270.49786 L 417.71103,270.49786 L 417.71103,270.75079 L 417.51278,270.75079 C 417.2439,270.7508 417.05591,270.78954 416.94882,270.86701 C 416.84172,270.94449 416.78817,271.02652 416.78817,271.1131 C 416.78817,271.27717 416.97046,271.6896 417.33505,272.3504 L 419.00985,275.41974 L 420.67782,272.62384 C 421.09253,271.94026 421.29989,271.48681 421.29989,271.26349 C 421.29989,271.14045 421.24064,271.03791 421.12216,270.95587 C 420.9672,270.84195 420.68237,270.77359 420.26767,270.75079 L 420.26767,270.49786 L 423.09774,270.49786 z "
       id="flowRoot3405" />
    <g
       transform="matrix(0,-1,1,0,-248.68331,849.67155)"
       id="g5905">
      <path
         style="fill:none;fill-rule:evenodd;stroke:#8b8b8b;stroke-width:1.70000005;stroke-linecap:butt;stroke-linejoin:miter;stroke-miterlimit:4;stroke-dasharray:none;stroke-opacity:1"
         d="M 405,444.42743 L 539,444.42743"
         id="path5907"
         sodipodi:nodetypes="cc" />
      <path
         style="fill:#8b8b8b;fill-opacity:1;fill-rule:evenodd;stroke:#8b8b8b;stroke-width:1px;stroke-linecap:butt;stroke-linejoin:miter;stroke-opacity:1"
         d="M 534.79794,440.05243 L 538.29794,444.42743 L 534.79794,448.80243 L 550.33824,444.42743 L 534.79794,440.05243 z "
         id="path5909" />
    </g>
    <path
       style=""
       d="M 198.53984,282.95055 L 193.0916,291.70055 L 194.85527,291.70055 C 195.68925,291.70055 196.27258,291.64814 196.60527,291.54332 C 197.14758,291.37926 197.6147,291.07734 198.00664,290.63756 C 198.39856,290.19778 198.66972,289.60876 198.82012,288.87047 L 199.08672,288.87047 L 198.71074,292.22008 L 190.22051,292.22008 L 195.67558,283.45641 L 194.30156,283.45641 C 193.76835,283.45642 193.41744,283.47237 193.24883,283.50426 C 192.92981,283.56351 192.63017,283.68086 192.3499,283.85631 C 192.06962,284.03178 191.8372,284.26534 191.65263,284.55699 C 191.46806,284.84867 191.32337,285.21781 191.21855,285.66442 L 190.96562,285.66442 L 191.21855,282.95055 L 198.53984,282.95055 z "
       id="flowRoot30746" />
    <path
       style="font-weight:bold;font-family:Times New Roman"
       d="M 565.14832,442.77348 L 567.70496,446.56742 C 568.12878,447.19633 568.4307,447.578 568.61072,447.71244 C 568.79072,447.84688 569.00377,447.92777 569.24988,447.95512 L 569.24988,448.20805 L 564.73132,448.20805 L 564.73132,447.95512 C 565.09134,447.92777 565.32377,447.87309 565.42859,447.79106 C 565.5334,447.70902 565.58581,447.60876 565.58582,447.49027 C 565.58581,447.40824 565.56986,447.33533 565.53796,447.27152 C 565.47416,447.13481 565.31465,446.8796 565.05945,446.5059 L 563.70593,444.50297 L 562.29089,446.23246 C 561.86706,446.75655 561.65515,447.11202 561.65515,447.29887 C 561.65515,447.43103 561.70984,447.55408 561.81921,447.66801 C 561.92859,447.78194 562.09037,447.86397 562.30457,447.9141 C 562.40027,447.94145 562.59623,447.95512 562.89246,447.95512 L 562.89246,448.20805 L 559.33093,448.20805 L 559.33093,447.95512 C 559.73653,447.89587 560.05554,447.7865 560.28796,447.62699 C 560.5933,447.41736 561.01941,446.97986 561.56628,446.31449 L 563.40515,444.07231 L 561.04675,440.60649 C 560.65938,440.03683 560.43835,439.7201 560.38367,439.65629 C 560.26062,439.50591 560.13985,439.39881 560.02136,439.335 C 559.90287,439.27121 559.73881,439.22336 559.52918,439.19145 L 559.52918,438.93852 L 564.12976,438.93852 L 564.12976,439.19145 L 563.89734,439.19145 C 563.63301,439.19146 563.44844,439.23361 563.34363,439.31791 C 563.23881,439.40223 563.1864,439.50819 563.1864,439.63578 C 563.1864,439.73605 563.20235,439.82264 563.23425,439.89555 L 563.70593,440.60649 L 564.85437,442.35649 L 565.83191,441.1602 C 566.3332,440.54497 566.58386,440.11431 566.58386,439.86821 C 566.58386,439.74517 566.54854,439.63123 566.47791,439.52641 C 566.40726,439.4216 566.30586,439.33957 566.17371,439.28031 C 566.04154,439.22108 565.83646,439.19146 565.55847,439.19145 L 565.55847,438.93852 L 568.9696,438.93852 L 568.9696,439.19145 C 568.70072,439.19601 568.48424,439.22905 568.32019,439.29057 C 568.15612,439.3521 567.98066,439.46717 567.79382,439.63578 C 567.67533,439.74517 567.3791,440.08468 566.90515,440.65434 L 565.14832,442.77348 z "
       id="flowRoot3397" />
    <path
       style=""
       d="M 491.18501,359.89433 L 491.18501,362.49198 C 491.18501,362.99329 491.21577,363.30888 491.2773,363.43876 C 491.33881,363.56864 491.44705,363.67232 491.602,363.7498 C 491.75695,363.82727 492.04633,363.86601 492.47017,363.86601 L 492.47017,364.11894 L 487.72603,364.11894 L 487.72603,363.86601 C 488.15441,363.86601 488.44494,363.82613 488.59761,363.74638 C 488.75028,363.66663 488.85737,363.56295 488.9189,363.43534 C 488.98042,363.30774 489.01118,362.99329 489.01118,362.49198 L 489.01118,356.47636 C 489.01118,355.97507 488.98042,355.65947 488.9189,355.52958 C 488.85737,355.39971 488.74914,355.29603 488.59419,355.21855 C 488.43924,355.14108 488.14985,355.10234 487.72603,355.10234 L 487.72603,354.84941 L 492.03267,354.84941 C 493.15375,354.84942 493.97407,354.92689 494.4936,355.08183 C 495.01313,355.23678 495.43696,355.52275 495.76509,355.93974 C 496.0932,356.35674 496.25727,356.84551 496.25728,357.40605 C 496.25727,358.08965 496.01117,358.65475 495.51899,359.10136 C 495.20453,359.38392 494.76476,359.59583 494.19966,359.7371 L 496.42817,362.8748 C 496.71983,363.2804 496.92719,363.53333 497.05024,363.63359 C 497.23708,363.77486 497.45355,363.85234 497.69966,363.86601 L 497.69966,364.11894 L 494.78071,364.11894 L 491.79341,359.89433 L 491.18501,359.89433 z M 491.18501,355.34843 L 491.18501,359.40898 L 491.57466,359.40898 C 492.20812,359.40898 492.68208,359.35088 492.99653,359.23466 C 493.31098,359.11845 493.55821,358.90882 493.73823,358.60575 C 493.91824,358.3027 494.00825,357.90735 494.00825,357.41972 C 494.00825,356.71335 493.84304,356.19154 493.51265,355.85429 C 493.18224,355.51706 492.65017,355.34844 491.91646,355.34843 L 491.18501,355.34843 z "
       id="flowRoot2382" />
    <path
       style="fill:#ff0000;fill-opacity:1;fill-rule:evenodd;stroke:#ff0000;stroke-width:1px;stroke-linecap:butt;stroke-linejoin:miter;stroke-opacity:1"
       d="M 471.29059,312.26898 L 467.85089,316.69153 L 471.41052,321.01815 L 455.81173,316.85653 L 471.29059,312.26898 z "
       id="path2365" />
    <path
       style="fill:#ff0000"
       d="M 465.4375,295.08179 C 465.77601,295.07818 466.06372,295.19359 466.30062,295.42804 C 466.53751,295.66251 466.65775,295.9464 466.66132,296.2797 C 466.66489,296.61302 466.54944,296.89813 466.31498,297.13502 C 466.08053,297.37193 465.79665,297.49215 465.46333,297.49572 C 465.13001,297.49929 464.84493,297.38515 464.60805,297.15329 C 464.37119,296.92145 464.25096,296.63886 464.2474,296.30554 C 464.24383,295.97224 464.35796,295.68584 464.58978,295.44635 C 464.82161,295.20689 465.10417,295.08537 465.4375,295.08179 L 465.4375,295.08179 z M 466.56906,298.60895 L 466.63103,304.39768 C 466.63654,304.91327 466.69996,305.24204 466.82128,305.38398 C 466.94259,305.52592 467.17784,305.60544 467.527,305.62253 L 467.53001,305.90376 L 463.58493,305.94599 L 463.58191,305.66476 C 463.90469,305.65089 464.14326,305.55458 464.29761,305.37583 C 464.40049,305.25493 464.44916,304.93668 464.44365,304.42109 L 464.398,300.15571 C 464.39247,299.64012 464.32905,299.31136 464.20774,299.16941 C 464.08641,299.02748 463.85378,298.94793 463.50983,298.93077 L 463.50674,298.64173 L 466.56906,298.60895 z "
       id="path2369" />
    <path
       style="fill:#ff0000;fill-opacity:1;fill-rule:evenodd;stroke:#ff0000;stroke-width:1px;stroke-linecap:butt;stroke-linejoin:miter;stroke-opacity:1"
       d="M 322.56298,378.93352 L 322.042,384.51195 L 327.37004,386.24478 L 311.98143,391.1266 L 322.56298,378.93352 z "
       id="path5916" />
    <path
       style="fill:#ff0000"
       d="M 313.66542,370.12342 C 314.00393,370.11981 314.29164,370.23522 314.52854,370.46967 C 314.76543,370.70414 314.88567,370.98803 314.88924,371.32133 C 314.89281,371.65465 314.77736,371.93976 314.5429,372.17665 C 314.30845,372.41356 314.02457,372.53378 313.69125,372.53735 C 313.35793,372.54092 313.07285,372.42678 312.83597,372.19492 C 312.59911,371.96308 312.47888,371.68049 312.47532,371.34717 C 312.47175,371.01387 312.58588,370.72747 312.8177,370.48798 C 313.04953,370.24852 313.33209,370.127 313.66542,370.12342 L 313.66542,370.12342 z M 314.79698,373.65058 L 314.85895,379.43931 C 314.86446,379.9549 314.92788,380.28367 315.0492,380.42561 C 315.17051,380.56755 315.40576,380.64707 315.75492,380.66416 L 315.75793,380.94539 L 311.81285,380.98762 L 311.80983,380.70639 C 312.13261,380.69252 312.37118,380.59621 312.52553,380.41746 C 312.62841,380.29656 312.67708,379.97831 312.67157,379.46272 L 312.62592,375.19734 C 312.62039,374.68175 312.55697,374.35299 312.43566,374.21104 C 312.31433,374.06911 312.0817,373.98956 311.73775,373.9724 L 311.73466,373.68336 L 314.79698,373.65058 z "
       id="path5918" />
    <path
       style="fill:#ff0000;fill-opacity:1;fill-rule:evenodd;stroke:#ff0000;stroke-width:1px;stroke-linecap:butt;stroke-linejoin:miter;stroke-opacity:1"
       d="M 345.54304,419.7842 L 348.98274,424.20675 L 345.42311,428.53337 L 361.0219,424.37175 L 345.54304,419.7842 z "
       id="path5920" />
    <path
       style="fill:#ff0000"
       d="M 357.37732,407.42544 C 357.71583,407.42183 358.00354,407.53724 358.24044,407.77169 C 358.47733,408.00616 358.59757,408.29005 358.60114,408.62335 C 358.60471,408.95667 358.48926,409.24178 358.2548,409.47867 C 358.02035,409.71558 357.73647,409.8358 357.40315,409.83937 C 357.06983,409.84294 356.78475,409.7288 356.54787,409.49694 C 356.31101,409.2651 356.19078,408.98251 356.18722,408.64919 C 356.18365,408.31589 356.29778,408.02949 356.5296,407.79 C 356.76143,407.55054 357.04399,407.42902 357.37732,407.42544 L 357.37732,407.42544 z M 358.50888,410.9526 L 358.57085,416.74133 C 358.57636,417.25692 358.63978,417.58569 358.7611,417.72763 C 358.88241,417.86957 359.11766,417.94909 359.46682,417.96618 L 359.46983,418.24741 L 355.52475,418.28964 L 355.52173,418.00841 C 355.84451,417.99454 356.08308,417.89823 356.23743,417.71948 C 356.34031,417.59858 356.38898,417.28033 356.38347,416.76474 L 356.33782,412.49936 C 356.33229,411.98377 356.26887,411.65501 356.14756,411.51306 C 356.02623,411.37113 355.7936,411.29158 355.44965,411.27442 L 355.44656,410.98538 L 358.50888,410.9526 z "
       id="path5922" />
    <path
       style="fill:#ff0000;fill-opacity:1;fill-rule:evenodd;stroke:#ff0000;stroke-width:1px;stroke-linecap:butt;stroke-linejoin:miter;stroke-opacity:1"
       d="M 453.64026,417.45891 L 453.75848,411.85745 L 448.31956,410.51251 L 463.31698,404.536 L 453.64026,417.45891 z "
       id="path5926" />
    <path
       style="fill:#ff0000"
       d="M 452.37732,393.42544 C 452.71583,393.42183 453.00354,393.53724 453.24044,393.77169 C 453.47733,394.00616 453.59757,394.29005 453.60114,394.62335 C 453.60471,394.95667 453.48926,395.24178 453.2548,395.47867 C 453.02035,395.71558 452.73647,395.8358 452.40315,395.83937 C 452.06983,395.84294 451.78475,395.7288 451.54787,395.49694 C 451.31101,395.2651 451.19078,394.98251 451.18722,394.64919 C 451.18365,394.31589 451.29778,394.02949 451.5296,393.79 C 451.76143,393.55054 452.04399,393.42902 452.37732,393.42544 L 452.37732,393.42544 z M 453.50888,396.9526 L 453.57085,402.74133 C 453.57636,403.25692 453.63978,403.58569 453.7611,403.72763 C 453.88241,403.86957 454.11766,403.94909 454.46682,403.96618 L 454.46983,404.24741 L 450.52475,404.28964 L 450.52173,404.00841 C 450.84451,403.99454 451.08308,403.89823 451.23743,403.71948 C 451.34031,403.59858 451.38898,403.28033 451.38347,402.76474 L 451.33782,398.49936 C 451.33229,397.98377 451.26887,397.65501 451.14756,397.51306 C 451.02623,397.37113 450.7936,397.29158 450.44965,397.27442 L 450.44656,396.98538 L 453.50888,396.9526 z "
       id="path5930" />
    <path
       style="fill:#00aa88;fill-opacity:1;stroke:none;stroke-width:0.06465279;stroke-miterlimit:4;stroke-opacity:1"
       d="M 418.12515,315.92055 C 418.12515,317.30058 417.00516,318.42057 415.62515,318.42057 C 414.24514,318.42057 413.12515,317.30058 413.12515,315.92055 C 413.12515,314.54056 414.24514,313.42057 415.62515,313.42057 C 417.00516,313.42057 418.12515,314.54056 418.12515,315.92055 z "
       id="path28782" />
    <path
       style="fill:#00aa88;fill-opacity:1;stroke:none;stroke-width:0.06465279;stroke-miterlimit:4;stroke-opacity:1"
       d="M 583.94169,316.2741 C 583.94169,317.65413 582.8217,318.77412 581.44169,318.77412 C 580.06168,318.77412 578.94169,317.65413 578.94169,316.2741 C 578.94169,314.89411 580.06168,313.77412 581.44169,313.77412 C 582.8217,313.77412 583.94169,314.89411 583.94169,316.2741 z "
       id="path5934" />
    <path
       style="fill:#00aa88;fill-opacity:1;stroke:none;stroke-width:0.06465279;stroke-miterlimit:4;stroke-opacity:1"
       d="M 441.10612,423.75433 C 441.10612,425.13436 439.98613,426.25435 438.60612,426.25435 C 437.22611,426.25435 436.10612,425.13436 436.10612,423.75433 C 436.10612,422.37434 437.22611,421.25435 438.60612,421.25435 C 439.98613,421.25435 441.10612,422.37434 441.10612,423.75433 z "
       id="path5936" />
    <path
       style="fill:#00aa88;fill-opacity:1;stroke:none;stroke-width:0.06465279;stroke-miterlimit:4;stroke-opacity:1"
       d="M 272.01141,423.78986 C 272.01141,425.16989 270.89142,426.28988 269.51141,426.28988 C 268.1314,426.28988 267.01141,425.16989 267.01141,423.78986 C 267.01141,422.40987 268.1314,421.28988 269.51141,421.28988 C 270.89142,421.28988 272.01141,422.40987 272.01141,423.78986 z "
       id="path5938" />
    <path
       style="fill:#00aa88"
       d="M 625.86043,378.66638 C 624.97827,379.46233 624.18306,379.86409 623.47477,379.87168 C 623.05812,379.87613 622.71032,379.74313 622.43137,379.47266 C 622.15241,379.20219 622.01074,378.86124 622.00633,378.44981 C 622.00037,377.89255 622.23457,377.38871 622.70894,376.93829 C 623.18331,376.48788 624.22118,375.88429 625.82255,375.12752 L 625.81469,374.39319 C 625.80878,373.84114 625.77511,373.49383 625.71369,373.35124 C 625.65226,373.20867 625.53765,373.08489 625.36986,372.9799 C 625.20205,372.87493 625.01398,372.82355 624.80568,372.82578 C 624.46715,372.8294 624.18932,372.9079 623.97221,373.06127 C 623.8378,373.15646 623.77127,373.26656 623.7726,373.39155 C 623.77377,373.50092 623.84814,373.63555 623.99569,373.79543 C 624.19599,374.01727 624.29725,374.23234 624.29949,374.44066 C 624.30221,374.69585 624.2095,374.91431 624.02133,375.09601 C 623.83316,375.27774 623.58544,375.37023 623.27817,375.37352 C 622.95006,375.37703 622.67427,375.28102 622.45082,375.08548 C 622.22735,374.88995 622.11421,374.65938 622.11137,374.39376 C 622.10735,374.01879 622.25194,373.65915 622.54515,373.31484 C 622.83835,372.97054 623.2496,372.7044 623.77887,372.51643 C 624.30812,372.32847 624.85921,372.23142 625.43209,372.22529 C 626.12476,372.21787 626.67448,372.35914 627.08126,372.64906 C 627.48802,372.939 627.75314,373.25519 627.87661,373.59763 C 627.95185,373.8156 627.99369,374.31778 628.00212,375.10419 L 628.03247,377.93996 C 628.03603,378.27328 628.05129,378.48276 628.07826,378.56842 C 628.10522,378.65407 628.14496,378.71745 628.19749,378.75856 C 628.25002,378.79966 628.31013,378.81986 628.37784,378.81913 C 628.51324,378.81768 628.65022,378.71985 628.78878,378.52565 L 629.02516,378.71063 C 628.76887,379.09882 628.50235,379.38163 628.22559,379.55909 C 627.94883,379.73654 627.63337,379.82716 627.27923,379.83095 C 626.86258,379.83541 626.53604,379.74124 626.29959,379.54845 C 626.06313,379.35565 625.91675,379.06163 625.86043,378.66638 L 625.86043,378.66638 z M 625.85433,378.0961 L 625.82815,375.65092 C 625.20194,376.02745 624.73745,376.42827 624.4347,376.85341 C 624.23459,377.13683 624.13607,377.42175 624.13915,377.70819 C 624.1417,377.94776 624.22989,378.15776 624.40372,378.3382 C 624.53541,378.47742 624.71845,378.54579 624.95281,378.54328 C 625.21322,378.54049 625.51372,378.39143 625.85433,378.0961 L 625.85433,378.0961 z "
       id="flowRoot4180" />
    <path
       style="fill:none;fill-rule:evenodd;stroke:#00aa88;stroke-width:1px;stroke-linecap:butt;stroke-linejoin:miter;stroke-opacity:1"
       d="M 553.2703,420.87942 L 681.73545,321.26111"
       id="path4174" />
    <path
       style="fill:#00aa88;fill-opacity:1;fill-rule:evenodd;stroke:#00aa88;stroke-width:1.00215709px;stroke-linecap:butt;stroke-linejoin:miter;stroke-opacity:1"
       d="M 558.15987,420.79166 L 554.96619,416.16856 L 551.02585,422.02063 L 558.15987,420.79166 z "
       id="path2358" />
    <path
       style="fill:#00aa88;fill-opacity:1;fill-rule:evenodd;stroke:#00aa88;stroke-width:1.00215709px;stroke-linecap:butt;stroke-linejoin:miter;stroke-opacity:1"
       d="M 678.83651,319.94042 L 682.03019,324.56352 L 685.97053,318.71145 L 678.83651,319.94042 z "
       id="path5948" />
    <path
       transform="translate(259.5,44.5)"
       style="font-size:14px;font-weight:bold;fill:#00aa88;fill-opacity:1;font-family:Times New Roman"
       d="M 323.32422,262.0868 L 320.0498,262.0868 L 319.66016,262.98914 C 319.53255,263.28992 319.46875,263.53829 319.46875,263.73426 C 319.46875,263.99402 319.57357,264.18543 319.7832,264.30848 C 319.90625,264.38139 320.20931,264.43608 320.69238,264.47254 L 320.69238,264.72547 L 317.60938,264.72547 L 317.60938,264.47254 C 317.94206,264.42241 318.21549,264.28455 318.42969,264.05896 C 318.64388,263.83338 318.9082,263.3674 319.22266,262.66101 L 322.53809,255.26453 L 322.66797,255.26453 L 326.01074,262.86609 C 326.32974,263.58615 326.59179,264.0396 326.79688,264.22644 C 326.95181,264.36772 327.17056,264.44975 327.45313,264.47254 L 327.45313,264.72547 L 322.96875,264.72547 L 322.96875,264.47254 L 323.15332,264.47254 C 323.51334,264.47254 323.76627,264.42241 323.91211,264.32215 C 324.01236,264.24923 324.06249,264.14441 324.0625,264.00769 C 324.06249,263.92566 324.04882,263.84135 324.02148,263.75476 C 324.01236,263.71375 323.944,263.54285 323.81641,263.24207 L 323.32422,262.0868 z M 323.0918,261.58094 L 321.71094,258.38855 L 320.28906,261.58094 L 323.0918,261.58094 z "
       id="flowRoot5950" />
    <path
       transform="translate(84,44.5)"
       style="font-size:14px;font-weight:bold;fill:#00aa88;fill-opacity:1;font-family:Times New Roman"
       d="M 323.72754,259.81043 C 324.60709,260.01551 325.2246,260.26388 325.58008,260.55555 C 326.09049,260.97026 326.34569,261.50802 326.3457,262.16883 C 326.34569,262.86609 326.06542,263.44259 325.50488,263.89832 C 324.81672,264.44975 323.8164,264.72547 322.50391,264.72547 L 317.79395,264.72547 L 317.79395,264.47254 C 318.22233,264.47254 318.51286,264.43266 318.66553,264.35291 C 318.8182,264.27316 318.92529,264.16948 318.98682,264.04187 C 319.04834,263.91427 319.0791,263.59982 319.0791,263.09851 L 319.0791,257.08289 C 319.0791,256.5816 319.04834,256.266 318.98682,256.13611 C 318.92529,256.00624 318.81706,255.90256 318.66211,255.82508 C 318.50716,255.74761 318.21777,255.70887 317.79395,255.70887 L 317.79395,255.45594 L 322.2373,255.45594 C 323.29915,255.45595 324.0511,255.55051 324.49316,255.73963 C 324.93521,255.92876 325.28385,256.21132 325.53906,256.58728 C 325.79426,256.96327 325.92187,257.36317 325.92188,257.78699 C 325.92187,258.23361 325.76008,258.63124 325.43652,258.97986 C 325.11295,259.3285 324.54329,259.60536 323.72754,259.81043 L 323.72754,259.81043 z M 321.23926,259.62586 C 321.88639,259.62586 322.36376,259.55295 322.67139,259.40711 C 322.979,259.26128 323.21484,259.0562 323.37891,258.79187 C 323.54296,258.52756 323.62499,258.19032 323.625,257.78015 C 323.62499,257.37001 323.5441,257.03391 323.38232,256.77185 C 323.22053,256.50982 322.98925,256.31044 322.68848,256.17371 C 322.38769,256.037 321.90462,255.97092 321.23926,255.97547 L 321.23926,259.62586 z M 321.23926,260.15906 L 321.23926,263.13269 L 321.23242,263.47449 C 321.23242,263.72059 321.29508,263.90629 321.42041,264.03162 C 321.54573,264.15695 321.73144,264.21961 321.97754,264.21961 C 322.34212,264.21961 322.67822,264.13872 322.98584,263.97693 C 323.29345,263.81515 323.52929,263.58045 323.69336,263.27283 C 323.85742,262.96522 323.93945,262.62228 323.93945,262.24402 C 323.93945,261.81108 323.83919,261.42257 323.63867,261.07849 C 323.43815,260.73442 323.16243,260.49403 322.81152,260.3573 C 322.46061,260.22059 321.93652,260.15451 321.23926,260.15906 L 321.23926,260.15906 z "
       id="flowRoot6927" />
    <path
       transform="translate(-81.831871,174.92107)"
       style="font-size:14px;font-weight:bold;fill:#00aa88;fill-opacity:1;font-family:Times New Roman"
       d="M 326.84473,255.24402 L 326.84473,258.45691 L 326.57813,258.45691 C 326.3776,257.61838 326.0039,256.9758 325.45703,256.52918 C 324.91015,256.08257 324.29036,255.85927 323.59766,255.85926 C 323.01887,255.85927 322.48795,256.02561 322.00488,256.35828 C 321.52181,256.69097 321.16862,257.12619 320.94531,257.66394 C 320.6582,258.3521 320.51465,259.11773 320.51465,259.96082 C 320.51465,260.79025 320.61946,261.54562 320.8291,262.22693 C 321.03873,262.90825 321.36686,263.42322 321.81348,263.77185 C 322.26009,264.12049 322.83886,264.2948 323.5498,264.2948 C 324.13313,264.2948 324.66747,264.1672 325.15283,263.91199 C 325.63818,263.65678 326.14973,263.21701 326.6875,262.59265 L 326.6875,263.39246 C 326.16796,263.93478 325.62678,264.32784 325.06396,264.57166 C 324.50113,264.81547 323.84374,264.93738 323.0918,264.93738 C 322.10286,264.93738 321.22444,264.73914 320.45654,264.34265 C 319.68864,263.94617 319.09619,263.37651 318.6792,262.63367 C 318.26221,261.89083 318.05371,261.10015 318.05371,260.2616 C 318.05371,259.37749 318.28499,258.53895 318.74756,257.74598 C 319.21012,256.95301 319.83447,256.33778 320.62061,255.90027 C 321.40673,255.46278 322.24186,255.24403 323.12598,255.24402 C 323.77766,255.24403 324.46581,255.38531 325.19043,255.66785 C 325.60969,255.83192 325.87629,255.91395 325.99023,255.91394 C 326.13606,255.91395 326.26252,255.8604 326.36963,255.7533 C 326.47672,255.64621 326.54621,255.47645 326.57813,255.24402 L 326.84473,255.24402 z "
       id="flowRoot6943" />
    <path
       transform="translate(105.16813,175.42107)"
       style="font-size:14px;font-weight:bold;fill:#00aa88;fill-opacity:1;font-family:Times New Roman"
       d="M 317.68457,264.72547 L 317.68457,264.47254 L 317.99219,264.47254 C 318.26107,264.47254 318.46728,264.43038 318.61084,264.34607 C 318.75439,264.26176 318.86035,264.14669 318.92871,264.00086 C 318.96973,263.90516 318.99023,263.61805 318.99023,263.13953 L 318.99023,257.04187 C 318.99023,256.56792 318.96517,256.2717 318.91504,256.1532 C 318.86491,256.03472 318.76351,255.93104 318.61084,255.84217 C 318.45817,255.75331 318.25195,255.70887 317.99219,255.70887 L 317.68457,255.70887 L 317.68457,255.45594 L 321.83398,255.45594 C 322.9414,255.45595 323.83235,255.60634 324.50684,255.90711 C 325.3317,256.27626 325.95719,256.83452 326.3833,257.58191 C 326.8094,258.32931 327.02245,259.17469 327.02246,260.11805 C 327.02245,260.76974 326.91763,261.37016 326.70801,261.91931 C 326.49836,262.46847 326.2272,262.92192 325.89453,263.27967 C 325.56184,263.63741 325.17789,263.92452 324.74268,264.14099 C 324.30745,264.35747 323.77538,264.52495 323.14648,264.64344 C 322.86848,264.69812 322.43098,264.72547 321.83398,264.72547 L 317.68457,264.72547 z M 321.21875,255.9823 L 321.21875,263.21473 C 321.21875,263.59754 321.23698,263.83224 321.27344,263.91883 C 321.30989,264.00542 321.37142,264.0715 321.45801,264.11707 C 321.58105,264.18543 321.75878,264.21961 321.99121,264.21961 C 322.75227,264.21961 323.33333,263.95984 323.73438,263.44031 C 324.28124,262.73849 324.55468,261.6493 324.55469,260.17273 C 324.55468,258.98329 324.36783,258.03309 323.99414,257.32215 C 323.69791,256.76617 323.31738,256.38791 322.85254,256.18738 C 322.52441,256.04611 321.97981,255.97775 321.21875,255.9823 L 321.21875,255.9823 z "
       id="flowRoot6951" />
    <path
       style="fill:#000000;fill-opacity:1"
       d="M 286.1417,270.94046 C 287.02125,271.14555 287.63876,271.39392 287.99424,271.68558 C 288.50465,272.1003 288.75985,272.63806 288.75986,273.29886 C 288.75985,273.99613 288.47958,274.57263 287.91904,275.02835 C 287.23088,275.57979 286.23056,275.8555 284.91807,275.8555 L 280.2081,275.8555 L 280.2081,275.60257 C 280.63649,275.60257 280.92702,275.5627 281.07969,275.48294 C 281.23235,275.40319 281.33945,275.29951 281.40098,275.17191 C 281.4625,275.0443 281.49326,274.72985 281.49326,274.22855 L 281.49326,268.21292 C 281.49326,267.71163 281.4625,267.39604 281.40098,267.26615 C 281.33945,267.13627 281.23122,267.03259 281.07627,266.95511 C 280.92132,266.87765 280.63193,266.83891 280.2081,266.8389 L 280.2081,266.58597 L 284.65147,266.58597 C 285.71331,266.58598 286.46526,266.68054 286.90732,266.86966 C 287.34937,267.0588 287.69801,267.34135 287.95322,267.71732 C 288.20842,268.0933 288.33603,268.4932 288.33603,268.91703 C 288.33603,269.36365 288.17424,269.76127 287.85068,270.1099 C 287.52711,270.45853 286.95745,270.73539 286.1417,270.94046 L 286.1417,270.94046 z M 283.65342,270.75589 C 284.30055,270.7559 284.77792,270.68298 285.08555,270.53714 C 285.39316,270.39131 285.629,270.18624 285.79307,269.92191 C 285.95712,269.65759 286.03915,269.32035 286.03916,268.91019 C 286.03915,268.50004 285.95826,268.16394 285.79648,267.90189 C 285.63469,267.63985 285.40341,267.44047 285.10264,267.30374 C 284.80185,267.16703 284.31878,267.10095 283.65342,267.1055 L 283.65342,270.75589 z M 283.65342,271.2891 L 283.65342,274.26273 L 283.64658,274.60453 C 283.64658,274.85062 283.70924,275.03633 283.83457,275.16165 C 283.95989,275.28698 284.1456,275.34964 284.3917,275.34964 C 284.75628,275.34964 285.09238,275.26875 285.4,275.10697 C 285.70761,274.94518 285.94345,274.71048 286.10752,274.40287 C 286.27158,274.09525 286.35361,273.75231 286.35361,273.37406 C 286.35361,272.94112 286.25335,272.55261 286.05283,272.20853 C 285.85231,271.86446 285.57659,271.62406 285.22568,271.48734 C 284.87477,271.35062 284.35068,271.28454 283.65342,271.2891 L 283.65342,271.2891 z M 293.03916,269.67581 L 300.51768,269.67581 L 300.51768,270.56449 L 293.03916,270.56449 L 293.03916,269.67581 z M 293.03916,271.91117 L 300.51768,271.91117 L 300.51768,272.79984 L 293.03916,272.79984 L 293.03916,271.91117 z M 310.47764,270.94046 C 311.35719,271.14555 311.9747,271.39392 312.33018,271.68558 C 312.84058,272.1003 313.09579,272.63806 313.0958,273.29886 C 313.09579,273.99613 312.81552,274.57263 312.25498,275.02835 C 311.56682,275.57979 310.5665,275.8555 309.254,275.8555 L 304.54404,275.8555 L 304.54404,275.60257 C 304.97243,275.60257 305.26296,275.5627 305.41563,275.48294 C 305.56829,275.40319 305.67539,275.29951 305.73691,275.17191 C 305.79844,275.0443 305.8292,274.72985 305.8292,274.22855 L 305.8292,268.21292 C 305.8292,267.71163 305.79844,267.39604 305.73691,267.26615 C 305.67539,267.13627 305.56715,267.03259 305.41221,266.95511 C 305.25726,266.87765 304.96787,266.83891 304.54404,266.8389 L 304.54404,266.58597 L 308.9874,266.58597 C 310.04925,266.58598 310.8012,266.68054 311.24326,266.86966 C 311.68531,267.0588 312.03394,267.34135 312.28916,267.71732 C 312.54436,268.0933 312.67196,268.4932 312.67197,268.91703 C 312.67196,269.36365 312.51018,269.76127 312.18662,270.1099 C 311.86305,270.45853 311.29339,270.73539 310.47764,270.94046 L 310.47764,270.94046 z M 307.98936,270.75589 C 308.63649,270.7559 309.11386,270.68298 309.42148,270.53714 C 309.7291,270.39131 309.96494,270.18624 310.129,269.92191 C 310.29306,269.65759 310.37509,269.32035 310.3751,268.91019 C 310.37509,268.50004 310.2942,268.16394 310.13242,267.90189 C 309.97063,267.63985 309.73935,267.44047 309.43857,267.30374 C 309.13779,267.16703 308.65471,267.10095 307.98936,267.1055 L 307.98936,270.75589 z M 307.98936,271.2891 L 307.98936,274.26273 L 307.98252,274.60453 C 307.98252,274.85062 308.04518,275.03633 308.17051,275.16165 C 308.29583,275.28698 308.48154,275.34964 308.72764,275.34964 C 309.09221,275.34964 309.42832,275.26875 309.73594,275.10697 C 310.04355,274.94518 310.27939,274.71048 310.44346,274.40287 C 310.60751,274.09525 310.68954,273.75231 310.68955,273.37406 C 310.68954,272.94112 310.58928,272.55261 310.38877,272.20853 C 310.18824,271.86446 309.91253,271.62406 309.56162,271.48734 C 309.2107,271.35062 308.68662,271.28454 307.98936,271.2891 L 307.98936,271.2891 z M 323.74619,269.4639 L 323.74619,274.46781 C 323.74618,274.95544 323.79176,275.25964 323.88291,275.3804 C 323.97405,275.50117 324.15862,275.57751 324.43662,275.60941 L 324.43662,275.8555 L 321.83213,275.8555 L 321.83213,275.00101 C 321.52679,275.36559 321.22145,275.63106 320.91611,275.7974 C 320.61077,275.96374 320.26898,276.04691 319.89072,276.04691 C 319.53069,276.04691 319.21054,275.93639 318.93027,275.71537 C 318.65,275.49434 318.46201,275.23571 318.36631,274.93949 C 318.2706,274.64326 318.22275,274.12601 318.22275,273.38773 L 318.22275,270.8516 C 318.22275,270.36853 318.17832,270.06775 318.08945,269.94925 C 318.00059,269.83077 317.81487,269.75329 317.53232,269.71683 L 317.53232,269.4639 L 320.13682,269.4639 L 320.13682,273.83206 C 320.13681,274.2878 320.15846,274.58174 320.20176,274.7139 C 320.24505,274.84606 320.31341,274.94632 320.40684,275.01468 C 320.50026,275.08304 320.60849,275.11722 320.73154,275.11722 C 320.8956,275.11722 321.04371,275.07393 321.17588,274.98734 C 321.35817,274.86885 321.57692,274.62959 321.83213,274.26956 L 321.83213,270.8516 C 321.83212,270.36853 321.78769,270.06775 321.69883,269.94925 C 321.60996,269.83077 321.42425,269.75329 321.1417,269.71683 L 321.1417,269.4639 L 323.74619,269.4639 z "
       id="flowRoot3431" />
    <path
       style="fill:#000000;fill-opacity:1"
       d="M 330.03809,273.67269 L 326.92481,278.67269 L 327.93262,278.67269 C 328.40918,278.67269 328.74252,278.64275 328.93262,278.58285 C 329.24252,278.4891 329.50944,278.31657 329.7334,278.06527 C 329.95736,277.81397 330.11231,277.47738 330.19825,277.05551 L 330.35059,277.05551 L 330.13575,278.96957 L 325.28419,278.96957 L 328.40137,273.96176 L 327.61622,273.96176 C 327.31153,273.96176 327.11101,273.97088 327.01465,273.9891 C 326.83236,274.02296 326.66114,274.09002 326.50098,274.19027 C 326.34083,274.29054 326.20801,274.424 326.10255,274.59066 C 325.99708,274.75733 325.91439,274.96827 325.8545,275.22348 L 325.70997,275.22348 L 325.8545,273.67269 L 330.03809,273.67269 z "
       id="flowRoot3439" />
    <g
       id="g5761"
       transform="translate(105.76356,234.2061)">
      <path
         style="fill:#000000;fill-opacity:1;fill-rule:evenodd;stroke:#000000;stroke-width:0.65466833;stroke-linecap:butt;stroke-linejoin:miter;stroke-miterlimit:4;stroke-opacity:1"
         d="M 172.02896,29.39511 L 186.40596,29.39511"
         id="path3817" />
      <path
         style="fill:#000000;fill-opacity:1;fill-rule:evenodd;stroke:#000000;stroke-width:0.38509902px;stroke-linecap:butt;stroke-linejoin:miter;stroke-opacity:1"
         d="M 184.08966,27.36431 L 185.20787,29.39511 L 184.08966,31.42591 L 189.05461,29.39511 L 184.08966,27.36431 z "
         id="path3819" />
    </g>
    <g
       id="g5765"
       transform="translate(141.76356,234.2061)">
      <path
         id="path5767"
         d="M 172.02896,29.39511 L 186.40596,29.39511"
         style="fill:#000000;fill-opacity:1;fill-rule:evenodd;stroke:#000000;stroke-width:0.65466833;stroke-linecap:butt;stroke-linejoin:miter;stroke-miterlimit:4;stroke-opacity:1" />
      <path
         id="path5769"
         d="M 184.08966,27.36431 L 185.20787,29.39511 L 184.08966,31.42591 L 189.05461,29.39511 L 184.08966,27.36431 z "
         style="fill:#000000;fill-opacity:1;fill-rule:evenodd;stroke:#000000;stroke-width:0.38509902px;stroke-linecap:butt;stroke-linejoin:miter;stroke-opacity:1" />
    </g>
    <g
       id="g6968"
       transform="matrix(0,-1,1,0,-171.68331,780.67155)"
       style="fill:#000000;stroke:#000000;stroke-opacity:1">
      <path
         sodipodi:nodetypes="cc"
         id="path6970"
         d="M 405,444.42743 L 539,444.42743"
         style="fill:#000000;fill-rule:evenodd;stroke:#000000;stroke-width:1.70000005;stroke-linecap:butt;stroke-linejoin:miter;stroke-miterlimit:4;stroke-dasharray:none;stroke-opacity:1" />
      <path
         id="path6972"
         d="M 534.79794,440.05243 L 538.29794,444.42743 L 534.79794,448.80243 L 550.33824,444.42743 L 534.79794,440.05243 z "
         style="fill:#000000;fill-opacity:1;fill-rule:evenodd;stroke:#000000;stroke-width:1px;stroke-linecap:butt;stroke-linejoin:miter;stroke-opacity:1" />
    </g>
    <path
       style="font-size:14px;font-weight:bold;fill:#1a1a1a;fill-opacity:1;font-family:Times New Roman"
       d="M 339.5877,352.46148 L 339.5877,356.2691 L 339.8543,356.2691 C 340.26446,356.2691 340.59942,356.20758 340.85919,356.08453 C 341.11895,355.96148 341.33884,355.75413 341.51886,355.46246 C 341.69886,355.1708 341.81621,354.77659 341.87091,354.27984 L 342.11016,354.27984 L 342.11016,358.93511 L 341.87091,358.93511 C 341.78431,358.05556 341.54847,357.47564 341.16339,357.19537 C 340.77829,356.9151 340.34193,356.77496 339.8543,356.77496 L 339.5877,356.77496 L 339.5877,359.61187 C 339.5877,360.08583 339.6139,360.38205 339.66632,360.50054 C 339.71872,360.61903 339.82126,360.72271 339.97393,360.81158 C 340.1266,360.90044 340.33282,360.94488 340.59259,360.94488 L 340.9002,360.94488 L 340.9002,361.19781 L 336.05352,361.19781 L 336.05352,360.94488 L 336.36114,360.94488 C 336.63002,360.94488 336.84649,360.89703 337.01055,360.80132 C 337.12904,360.73752 337.22019,360.62815 337.28399,360.4732 C 337.33412,360.36382 337.35919,360.07671 337.35919,359.61187 L 337.35919,353.51421 C 337.35919,353.04026 337.33412,352.74404 337.28399,352.62554 C 337.23386,352.50706 337.13246,352.40338 336.97979,352.31451 C 336.82712,352.22565 336.62091,352.18121 336.36114,352.18121 L 336.05352,352.18121 L 336.05352,351.92828 L 343.87384,351.92828 L 343.87384,354.58746 L 343.59356,354.58746 C 343.52975,353.96311 343.36683,353.50055 343.10479,353.19976 C 342.84274,352.89899 342.46335,352.68707 341.96661,352.56402 C 341.69317,352.49567 341.18731,352.46149 340.44903,352.46148 L 339.5877,352.46148 z "
       id="flowRoot6974" />
    <g
       style="fill:#000000;stroke:#000000;stroke-opacity:1"
       transform="translate(-108.75,-82.75)"
       id="g2219">
      <path
         style="fill:#000000;fill-rule:evenodd;stroke:#000000;stroke-width:1.70000005;stroke-linecap:butt;stroke-linejoin:miter;stroke-miterlimit:4;stroke-dasharray:none;stroke-opacity:1"
         d="M 464,444.42743 L 539,444.42743"
         id="path2221"
         sodipodi:nodetypes="cc" />
      <path
         style="fill:#000000;fill-opacity:1;fill-rule:evenodd;stroke:#000000;stroke-width:1px;stroke-linecap:butt;stroke-linejoin:miter;stroke-opacity:1"
         d="M 534.79794,440.05243 L 538.29794,444.42743 L 534.79794,448.80243 L 550.33824,444.42743 L 534.79794,440.05243 z "
         id="path2223" />
    </g>
    <path
       style="font-size:14px;font-weight:bold;font-family:Times New Roman"
       d="M 402.15901,350.61544 L 400.00569,345.65938 C 399.74592,345.06238 399.54312,344.68413 399.39729,344.52462 C 399.29247,344.40613 399.13752,344.32638 398.93244,344.28536 L 398.93244,344.03243 L 402.3299,344.03243 L 402.3299,344.28536 C 402.11571,344.28537 401.96987,344.3241 401.8924,344.40157 C 401.78303,344.50184 401.72834,344.62033 401.72834,344.75704 C 401.72834,344.92566 401.8286,345.2424 402.02912,345.70723 L 403.08186,348.10665 L 403.92268,346.03536 C 404.16421,345.44292 404.28498,345.02365 404.28498,344.77755 C 404.28498,344.63628 404.23371,344.5212 404.13117,344.43233 C 404.02863,344.34347 403.84748,344.29448 403.58772,344.28536 L 403.58772,344.03243 L 405.67951,344.03243 L 405.67951,344.28536 C 405.47899,344.31271 405.31492,344.3879 405.18733,344.51094 C 405.05972,344.634 404.86831,344.9963 404.61311,345.59786 L 402.48029,350.61544 L 402.15901,350.61544 z M 409.576,344.24434 L 417.05451,344.24434 L 417.05451,345.13302 L 409.576,345.13302 L 409.576,344.24434 z M 409.576,346.47969 L 417.05451,346.47969 L 417.05451,347.36837 L 409.576,347.36837 L 409.576,346.47969 z M 424.14338,350.61544 L 421.99006,345.65938 C 421.73029,345.06238 421.52749,344.68413 421.38166,344.52462 C 421.27684,344.40613 421.1219,344.32638 420.91682,344.28536 L 420.91682,344.03243 L 424.31428,344.03243 L 424.31428,344.28536 C 424.10008,344.28537 423.95425,344.3241 423.87678,344.40157 C 423.7674,344.50184 423.71271,344.62033 423.71272,344.75704 C 423.71271,344.92566 423.81297,345.2424 424.0135,345.70723 L 425.06623,348.10665 L 425.90705,346.03536 C 426.14858,345.44292 426.26935,345.02365 426.26936,344.77755 C 426.26935,344.63628 426.21808,344.5212 426.11555,344.43233 C 426.013,344.34347 425.83185,344.29448 425.57209,344.28536 L 425.57209,344.03243 L 427.66389,344.03243 L 427.66389,344.28536 C 427.46336,344.31271 427.2993,344.3879 427.1717,344.51094 C 427.04409,344.634 426.85268,344.9963 426.59748,345.59786 L 424.46467,350.61544 L 424.14338,350.61544 z M 437.93147,344.03243 L 437.93147,349.03634 C 437.93146,349.52397 437.97703,349.82817 438.06819,349.94893 C 438.15932,350.0697 438.34389,350.14604 438.6219,350.17794 L 438.6219,350.42403 L 436.0174,350.42403 L 436.0174,349.56954 C 435.71206,349.93412 435.40672,350.19958 435.10139,350.36593 C 434.79605,350.53227 434.45425,350.61544 434.076,350.61544 C 433.71597,350.61544 433.39582,350.50492 433.11555,350.28389 C 432.83527,350.06287 432.64729,349.80424 432.55158,349.50802 C 432.45588,349.21179 432.40803,348.69454 432.40803,347.95626 L 432.40803,345.42012 C 432.40803,344.93706 432.36359,344.63628 432.27473,344.51778 C 432.18586,344.3993 432.00015,344.32182 431.7176,344.28536 L 431.7176,344.03243 L 434.32209,344.03243 L 434.32209,348.40059 C 434.32209,348.85632 434.34374,349.15027 434.38703,349.28243 C 434.43032,349.41459 434.49868,349.51485 434.59211,349.58321 C 434.68553,349.65157 434.79377,349.68575 434.91682,349.68575 C 435.08088,349.68575 435.22899,349.64246 435.36115,349.55587 C 435.54344,349.43738 435.76219,349.19812 436.0174,348.83809 L 436.0174,345.42012 C 436.0174,344.93706 435.97297,344.63628 435.8841,344.51778 C 435.79523,344.3993 435.60952,344.32182 435.32697,344.28536 L 435.32697,344.03243 L 437.93147,344.03243 z "
       id="flowRoot2233" />
    <path
       transform="translate(265.71677,404.93876)"
       style="font-size:11px;font-weight:bold;font-family:Times New Roman"
       d="M 178.34082,-54.378162 L 179.21094,-52.723866 C 179.51171,-52.147367 179.74983,-51.782133 179.92529,-51.628162 C 180.02197,-51.545805 180.15445,-51.501046 180.32275,-51.493885 L 180.32275,-51.300526 L 177.52441,-51.300526 L 177.52441,-51.493885 C 177.74284,-51.511789 177.87801,-51.540434 177.92993,-51.579823 C 177.98185,-51.61921 178.00781,-51.672921 178.00781,-51.740955 C 178.00781,-51.841215 177.95052,-51.998767 177.83594,-52.213612 L 177.40088,-53.030018 L 177.03027,-52.487537 C 176.86198,-52.240466 176.76709,-52.093656 176.74561,-52.047108 C 176.71696,-51.979073 176.70264,-51.918201 176.70264,-51.864491 C 176.70264,-51.782133 176.71964,-51.713204 176.75366,-51.657703 C 176.78768,-51.602202 176.83423,-51.561023 176.89331,-51.534168 C 176.95239,-51.507313 177.06071,-51.493885 177.21826,-51.493885 L 177.21826,-51.300526 L 175.25244,-51.300526 L 175.25244,-51.493885 C 175.49593,-51.493885 175.71883,-51.561023 175.92114,-51.695301 C 176.12345,-51.829578 176.41797,-52.181384 176.80469,-52.750721 L 177.21826,-53.363026 L 176.35352,-54.963612 C 176.07064,-55.486394 175.85937,-55.806869 175.71973,-55.925037 C 175.58008,-56.043197 175.42432,-56.10944 175.25244,-56.123768 L 175.25244,-56.322498 L 178.03467,-56.322498 L 178.03467,-56.123768 L 177.88965,-56.118397 L 177.61035,-56.021717 C 177.5817,-55.996647 177.56738,-55.955469 177.56738,-55.898182 C 177.56738,-55.844466 177.57633,-55.788965 177.59424,-55.731678 C 177.60498,-55.706609 177.65511,-55.609929 177.74463,-55.441639 L 178.13672,-54.71117 L 178.34082,-55.001209 C 178.62728,-55.395085 178.7705,-55.670801 178.77051,-55.828358 C 178.7705,-55.903548 178.73917,-55.967106 178.67651,-56.019032 C 178.61385,-56.070947 178.50195,-56.105859 178.34082,-56.123768 L 178.34082,-56.322498 L 180.11865,-56.322498 L 180.11865,-56.123768 C 179.90022,-56.116602 179.69612,-56.049463 179.50635,-55.922352 C 179.31656,-55.795231 179.10351,-55.549057 178.86719,-55.183826 L 178.34082,-54.378162 z "
       id="flowRoot2249" />
    <g
       transform="translate(222.78972,309.86654)"
       id="g2257">
      <path
         id="path2259"
         d="M 172.02896,29.39511 L 186.40596,29.39511"
         style="fill:#000000;fill-opacity:1;fill-rule:evenodd;stroke:#000000;stroke-width:0.65466833;stroke-linecap:butt;stroke-linejoin:miter;stroke-miterlimit:4;stroke-opacity:1" />
      <path
         id="path2261"
         d="M 184.08966,27.36431 L 185.20787,29.39511 L 184.08966,31.42591 L 189.05461,29.39511 L 184.08966,27.36431 z "
         style="fill:#000000;fill-opacity:1;fill-rule:evenodd;stroke:#000000;stroke-width:0.38509902px;stroke-linecap:butt;stroke-linejoin:miter;stroke-opacity:1" />
    </g>
    <g
       transform="translate(255.9613,309.86654)"
       id="g2263">
      <path
         style="fill:#000000;fill-opacity:1;fill-rule:evenodd;stroke:#000000;stroke-width:0.65466833;stroke-linecap:butt;stroke-linejoin:miter;stroke-miterlimit:4;stroke-opacity:1"
         d="M 172.02896,29.39511 L 186.40596,29.39511"
         id="path2265" />
      <path
         style="fill:#000000;fill-opacity:1;fill-rule:evenodd;stroke:#000000;stroke-width:0.38509902px;stroke-linecap:butt;stroke-linejoin:miter;stroke-opacity:1"
         d="M 184.08966,27.36431 L 185.20787,29.39511 L 184.08966,31.42591 L 189.05461,29.39511 L 184.08966,27.36431 z "
         id="path2267" />
    </g>
    <path
       sodipodi:type="arc"
       style="opacity:1;fill:none;stroke:#008000;stroke-width:2;stroke-miterlimit:4;stroke-dasharray:none;stroke-opacity:1"
       id="path2306"
       sodipodi:cx="366.98843"
       sodipodi:cy="102.64272"
       sodipodi:rx="10.606602"
       sodipodi:ry="10.076272"
       d="M 377.59504 102.64272 A 10.606602 10.076272 0 1 1  356.38183,102.64272 A 10.606602 10.076272 0 1 1  377.59504 102.64272 z"
       transform="matrix(1.3183766,0,0,1.3526771,42.090625,177.80334)" />
    <path
       style="fill:none;fill-rule:evenodd;stroke:#008000;stroke-width:2.34288526;stroke-linecap:butt;stroke-linejoin:miter;stroke-miterlimit:4;stroke-dasharray:none;stroke-opacity:1"
       d="M 539.36479,316.28796 L 512.82791,316.29652"
       id="path4246" />
    <path
       style="fill:#008000;fill-opacity:1;fill-rule:evenodd;stroke:none;stroke-width:0.71624112px;stroke-linecap:butt;stroke-linejoin:miter;stroke-opacity:1"
       d="M 518.54301,311.24545 L 516.83387,315.81144 L 518.6026,320.27838 L 510.85178,315.98179 L 518.54301,311.24545 z "
       id="path5217" />
    <text
       xml:space="preserve"
       style="font-size:12px;font-style:normal;font-weight:normal;fill:#008000;fill-opacity:1;stroke:none;stroke-width:1px;stroke-linecap:butt;stroke-linejoin:miter;stroke-opacity:1;font-family:Arial Black"
       x="520.43951"
       y="299.1449"
       id="text6188"><tspan
         sodipodi:role="line"
         id="tspan6190"
         x="520.43951"
         y="299.1449">e</tspan></text>
  </g>
</svg>
