<?xml version="1.0" encoding="UTF-8" standalone="no"?>
<!-- Created with Inkscape (http://www.inkscape.org/) -->
<svg
   xmlns:dc="http://purl.org/dc/elements/1.1/"
   xmlns:cc="http://web.resource.org/cc/"
   xmlns:rdf="http://www.w3.org/1999/02/22-rdf-syntax-ns#"
   xmlns:svg="http://www.w3.org/2000/svg"
   xmlns="http://www.w3.org/2000/svg"
   xmlns:xlink="http://www.w3.org/1999/xlink"
   xmlns:sodipodi="http://sodipodi.sourceforge.net/DTD/sodipodi-0.dtd"
   xmlns:inkscape="http://www.inkscape.org/namespaces/inkscape"
   width="552"
   height="276.76776"
   id="svg2"
   sodipodi:version="0.32"
   inkscape:version="0.45.1"
   sodipodi:docbase="D:\Mes documents\Wikiversité"
   sodipodi:docname="WV-ExoInduction02-2.svg"
   inkscape:output_extension="org.inkscape.output.svg.inkscape"
   version="1.0">
  <defs
     id="defs4">
    <linearGradient
       inkscape:collect="always"
       id="linearGradient3441">
      <stop
         style="stop-color:#cae8ff;stop-opacity:1;"
         offset="0"
         id="stop3443" />
      <stop
         style="stop-color:#cae8ff;stop-opacity:0;"
         offset="1"
         id="stop3445" />
    </linearGradient>
    <linearGradient
       inkscape:collect="always"
       xlink:href="#linearGradient3441"
       id="linearGradient3453"
       gradientUnits="userSpaceOnUse"
       gradientTransform="matrix(0.9911388,0,0,1.0125919,302.8274,150.37313)"
       x1="32.700317"
       y1="231.12016"
       x2="493.05737"
       y2="135.25325" />
    <linearGradient
       inkscape:collect="always"
       id="linearGradient5095">
      <stop
         style="stop-color:#ffffff;stop-opacity:1;"
         offset="0"
         id="stop5097" />
      <stop
         style="stop-color:#ffffff;stop-opacity:0;"
         offset="1"
         id="stop5099" />
    </linearGradient>
    <linearGradient
       inkscape:collect="always"
       xlink:href="#linearGradient5095"
       id="linearGradient3627"
       gradientUnits="userSpaceOnUse"
       gradientTransform="matrix(0.4755447,0,0,0.4755447,151.58301,206.01015)"
       x1="195.89999"
       y1="353.86218"
       x2="562.09998"
       y2="353.86218" />
  </defs>
  <sodipodi:namedview
     id="base"
     pagecolor="#ffffff"
     bordercolor="#666666"
     borderopacity="1.0"
     inkscape:pageopacity="0.0"
     inkscape:pageshadow="2"
     inkscape:zoom="1.4142136"
     inkscape:cx="315.3556"
     inkscape:cy="160.31845"
     inkscape:document-units="px"
     inkscape:current-layer="layer1"
     inkscape:window-width="1280"
     inkscape:window-height="753"
     inkscape:window-x="-4"
     inkscape:window-y="-4"
     showguides="true"
     inkscape:guide-bbox="true" />
  <metadata
     id="metadata7">
    <rdf:RDF>
      <cc:Work
         rdf:about="">
        <dc:format>image/svg+xml</dc:format>
        <dc:type
           rdf:resource="http://purl.org/dc/dcmitype/StillImage" />
      </cc:Work>
    </rdf:RDF>
  </metadata>
  <g
     inkscape:label="Calque 1"
     inkscape:groupmode="layer"
     id="layer1"
     transform="translate(-155.5724,-215.06374)">
    <path
       style="opacity:0.47560975;fill:#ffe993;fill-opacity:1;stroke:none;stroke-width:1.79950619;stroke-linejoin:miter;stroke-miterlimit:4;stroke-dashoffset:0;stroke-opacity:1"
       d="M 155.5724,215.06374 L 707.57239,215.06374 L 707.57239,491.8315 L 155.5724,491.8315 L 155.5724,215.06374 z "
       id="rect7641" />
    <path
       style="fill:url(#linearGradient3453);fill-opacity:1;fill-rule:evenodd;stroke:#00a4e4;stroke-width:2.00361562;stroke-linecap:round;stroke-linejoin:miter;stroke-miterlimit:4;stroke-dashoffset:0;stroke-opacity:1"
       d="M 328.67389,313.24157 L 673.67028,313.18091 L 527.67028,427.23795 L 178.67389,427.23795 L 328.67389,313.24157 z "
       id="rect2470" />
    <path
       style="fill:none;fill-rule:evenodd;stroke:#000000;stroke-width:2.12100005;stroke-linecap:butt;stroke-linejoin:miter;stroke-miterlimit:4;stroke-opacity:1"
       d="M 240.61018,424.45136 C 243.43861,421.26938 386.27418,316.26403 386.27418,316.26403"
       id="path5903" />
    <path
       style="fill:none;fill-rule:evenodd;stroke:#000000;stroke-width:2.12100005;stroke-linecap:butt;stroke-linejoin:miter;stroke-miterlimit:4;stroke-opacity:1"
       d="M 304.56779,316.19997 L 695.89622,316.40708"
       id="path5901" />
    <path
       style="fill:none;fill-rule:evenodd;stroke:#000000;stroke-width:2.12100005;stroke-linecap:butt;stroke-linejoin:miter;stroke-miterlimit:4;stroke-opacity:1"
       d="M 165.12132,424.24086 L 572.12132,424.24086"
       id="path4930" />
    <g
       id="g3622"
       transform="translate(147.64318,-10.12132)">
      <path
         sodipodi:nodetypes="ccccc"
         id="rect3138"
         d="M 240.35521,436.38532 L 413.51872,309.76434 C 417.19631,308.71794 420.4879,313.58099 418.57899,316.67288 L 246.27972,443.84681 L 240.35521,436.38532 z "
         style="fill:#cccccc;fill-opacity:1;fill-rule:evenodd;stroke:#000000;stroke-width:0.4636012;stroke-linecap:round;stroke-linejoin:miter;stroke-miterlimit:4;stroke-dashoffset:0;stroke-opacity:1" />
      <path
         id="path2160"
         d="M 247.95258,440.19753 C 247.95258,442.82111 245.8233,444.95038 243.19973,444.95038 C 240.57615,444.95038 238.44687,442.82111 238.44687,440.19753 C 238.44687,437.57396 240.57615,435.44468 243.19973,435.44468 C 245.8233,435.44468 247.95258,437.57396 247.95258,440.19753 z "
         style="fill:#cccccc;fill-opacity:1;fill-rule:evenodd;stroke:#000000;stroke-width:0.38980204;stroke-linecap:round;stroke-linejoin:miter;stroke-miterlimit:4;stroke-dashoffset:0;stroke-opacity:1" />
      <path
         sodipodi:nodetypes="cc"
         id="path3144"
         d="M 247.1675,437.53487 L 417.88804,312.46662"
         style="fill:none;fill-opacity:1;fill-rule:evenodd;stroke:url(#linearGradient3627);stroke-width:3.42392159;stroke-linecap:butt;stroke-linejoin:miter;stroke-miterlimit:4;stroke-opacity:1" />
    </g>
    <path
       style="fill:#ffffff;fill-opacity:1;fill-rule:evenodd;stroke:#000000;stroke-width:2;stroke-linecap:round;stroke-linejoin:miter;stroke-miterlimit:4;stroke-dashoffset:0;stroke-opacity:1"
       d="M 340.07855,342.58361 L 358.30148,342.61595 L 290.1,393.40353 L 270.98062,393.37119 L 340.07855,342.58361 z "
       id="rect3455" />
    <g
       id="g4915"
       transform="translate(3,0)">
      <path
         sodipodi:nodetypes="cc"
         id="path2172"
         d="M 165,444.42743 L 539,444.42743"
         style="fill:none;fill-rule:evenodd;stroke:#8b8b8b;stroke-width:1.70000005;stroke-linecap:butt;stroke-linejoin:miter;stroke-miterlimit:4;stroke-dasharray:none;stroke-opacity:1" />
      <path
         id="path3382"
         d="M 534.79794,440.05243 L 538.29794,444.42743 L 534.79794,448.80243 L 550.33824,444.42743 L 534.79794,440.05243 z "
         style="fill:#8b8b8b;fill-opacity:1;fill-rule:evenodd;stroke:#8b8b8b;stroke-width:1px;stroke-linecap:butt;stroke-linejoin:miter;stroke-opacity:1" />
    </g>
    <path
       style="fill:none;fill-rule:evenodd;stroke:#8b8b8b;stroke-width:1.70000005;stroke-linecap:butt;stroke-linejoin:miter;stroke-miterlimit:4;stroke-opacity:1"
       d="M 168.56044,444.42822 L 378.09776,288.17948"
       id="path3380" />
    <path
       style="fill:#8b8b8b;fill-opacity:1;fill-rule:evenodd;stroke:#8b8b8b;stroke-width:1px;stroke-linecap:butt;stroke-linejoin:miter;stroke-opacity:1"
       d="M 372.2939,286.61067 L 377.71294,288.03358 L 377.51428,293.63279 L 387.37562,280.85016 L 372.2939,286.61067 z "
       id="path4920" />
    <path
       style="font-weight:bold;font-family:Times New Roman"
       d="M 423.09774,270.49786 L 423.09774,270.75079 C 422.7924,270.79182 422.5577,270.88069 422.39364,271.0174 C 422.16577,271.20881 421.80574,271.73062 421.31357,272.58283 L 419.3038,275.93927 L 419.3038,278.18146 C 419.30379,278.65998 419.32886,278.95734 419.37899,279.07355 C 419.42912,279.18976 419.52824,279.2923 419.67636,279.38117 C 419.82446,279.47003 420.02157,279.51447 420.26767,279.51447 L 420.7872,279.51447 L 420.7872,279.7674 L 415.58505,279.7674 L 415.58505,279.51447 L 416.0704,279.51447 C 416.34384,279.51447 416.56031,279.46662 416.71982,279.37091 C 416.8383,279.30711 416.93173,279.19774 417.00009,279.04279 C 417.05022,278.93341 417.07528,278.6463 417.07528,278.18146 L 417.07528,276.32208 L 414.89462,272.3504 C 414.46168,271.56656 414.15634,271.10513 413.9786,270.96613 C 413.80087,270.82714 413.56389,270.75536 413.26767,270.75079 L 413.26767,270.49786 L 417.71103,270.49786 L 417.71103,270.75079 L 417.51278,270.75079 C 417.2439,270.7508 417.05591,270.78954 416.94882,270.86701 C 416.84172,270.94449 416.78817,271.02652 416.78817,271.1131 C 416.78817,271.27717 416.97046,271.6896 417.33505,272.3504 L 419.00985,275.41974 L 420.67782,272.62384 C 421.09253,271.94026 421.29989,271.48681 421.29989,271.26349 C 421.29989,271.14045 421.24064,271.03791 421.12216,270.95587 C 420.9672,270.84195 420.68237,270.77359 420.26767,270.75079 L 420.26767,270.49786 L 423.09774,270.49786 z "
       id="flowRoot3405" />
    <g
       transform="matrix(0,-1,1,0,-275.68331,849.67155)"
       id="g5905">
      <path
         style="fill:none;fill-rule:evenodd;stroke:#8b8b8b;stroke-width:1.70000005;stroke-linecap:butt;stroke-linejoin:miter;stroke-miterlimit:4;stroke-dasharray:none;stroke-opacity:1"
         d="M 405,444.42743 L 539,444.42743"
         id="path5907"
         sodipodi:nodetypes="cc" />
      <path
         style="fill:#8b8b8b;fill-opacity:1;fill-rule:evenodd;stroke:#8b8b8b;stroke-width:1px;stroke-linecap:butt;stroke-linejoin:miter;stroke-opacity:1"
         d="M 534.79794,440.05243 L 538.29794,444.42743 L 534.79794,448.80243 L 550.33824,444.42743 L 534.79794,440.05243 z "
         id="path5909" />
    </g>
    <path
       d="M 175.53984,282.95055 L 170.0916,291.70055 L 171.85527,291.70055 C 172.68925,291.70055 173.27258,291.64814 173.60527,291.54332 C 174.14758,291.37926 174.6147,291.07734 175.00664,290.63756 C 175.39856,290.19778 175.66972,289.60876 175.82012,288.87047 L 176.08672,288.87047 L 175.71074,292.22008 L 167.22051,292.22008 L 172.67558,283.45641 L 171.30156,283.45641 C 170.76835,283.45642 170.41744,283.47237 170.24883,283.50426 C 169.92981,283.56351 169.63017,283.68086 169.3499,283.85631 C 169.06962,284.03178 168.8372,284.26534 168.65263,284.55699 C 168.46806,284.84867 168.32337,285.21781 168.21855,285.66442 L 167.96562,285.66442 L 168.21855,282.95055 L 175.53984,282.95055 z "
       id="flowRoot30746" />
    <path
       style="font-weight:bold;font-family:Times New Roman"
       d="M 565.14832,442.77348 L 567.70496,446.56742 C 568.12878,447.19633 568.4307,447.578 568.61072,447.71244 C 568.79072,447.84688 569.00377,447.92777 569.24988,447.95512 L 569.24988,448.20805 L 564.73132,448.20805 L 564.73132,447.95512 C 565.09134,447.92777 565.32377,447.87309 565.42859,447.79106 C 565.5334,447.70902 565.58581,447.60876 565.58582,447.49027 C 565.58581,447.40824 565.56986,447.33533 565.53796,447.27152 C 565.47416,447.13481 565.31465,446.8796 565.05945,446.5059 L 563.70593,444.50297 L 562.29089,446.23246 C 561.86706,446.75655 561.65515,447.11202 561.65515,447.29887 C 561.65515,447.43103 561.70984,447.55408 561.81921,447.66801 C 561.92859,447.78194 562.09037,447.86397 562.30457,447.9141 C 562.40027,447.94145 562.59623,447.95512 562.89246,447.95512 L 562.89246,448.20805 L 559.33093,448.20805 L 559.33093,447.95512 C 559.73653,447.89587 560.05554,447.7865 560.28796,447.62699 C 560.5933,447.41736 561.01941,446.97986 561.56628,446.31449 L 563.40515,444.07231 L 561.04675,440.60649 C 560.65938,440.03683 560.43835,439.7201 560.38367,439.65629 C 560.26062,439.50591 560.13985,439.39881 560.02136,439.335 C 559.90287,439.27121 559.73881,439.22336 559.52918,439.19145 L 559.52918,438.93852 L 564.12976,438.93852 L 564.12976,439.19145 L 563.89734,439.19145 C 563.63301,439.19146 563.44844,439.23361 563.34363,439.31791 C 563.23881,439.40223 563.1864,439.50819 563.1864,439.63578 C 563.1864,439.73605 563.20235,439.82264 563.23425,439.89555 L 563.70593,440.60649 L 564.85437,442.35649 L 565.83191,441.1602 C 566.3332,440.54497 566.58386,440.11431 566.58386,439.86821 C 566.58386,439.74517 566.54854,439.63123 566.47791,439.52641 C 566.40726,439.4216 566.30586,439.33957 566.17371,439.28031 C 566.04154,439.22108 565.83646,439.19146 565.55847,439.19145 L 565.55847,438.93852 L 568.9696,438.93852 L 568.9696,439.19145 C 568.70072,439.19601 568.48424,439.22905 568.32019,439.29057 C 568.15612,439.3521 567.98066,439.46717 567.79382,439.63578 C 567.67533,439.74517 567.3791,440.08468 566.90515,440.65434 L 565.14832,442.77348 z "
       id="flowRoot3397" />
    <path
       d="M 329.60933,376.89433 L 329.60933,379.49198 C 329.60933,379.99329 329.64009,380.30888 329.70162,380.43876 C 329.76313,380.56864 329.87137,380.67232 330.02632,380.7498 C 330.18127,380.82727 330.47065,380.86601 330.89449,380.86601 L 330.89449,381.11894 L 326.15035,381.11894 L 326.15035,380.86601 C 326.57873,380.86601 326.86926,380.82613 327.02193,380.74638 C 327.1746,380.66663 327.28169,380.56295 327.34322,380.43534 C 327.40474,380.30774 327.4355,379.99329 327.4355,379.49198 L 327.4355,373.47636 C 327.4355,372.97507 327.40474,372.65947 327.34322,372.52958 C 327.28169,372.39971 327.17346,372.29603 327.01851,372.21855 C 326.86356,372.14108 326.57417,372.10234 326.15035,372.10234 L 326.15035,371.84941 L 330.45699,371.84941 C 331.57807,371.84942 332.39839,371.92689 332.91792,372.08183 C 333.43745,372.23678 333.86128,372.52275 334.18941,372.93974 C 334.51752,373.35674 334.68159,373.84551 334.6816,374.40605 C 334.68159,375.08965 334.43549,375.65475 333.94331,376.10136 C 333.62885,376.38392 333.18908,376.59583 332.62398,376.7371 L 334.85249,379.8748 C 335.14415,380.2804 335.35151,380.53333 335.47456,380.63359 C 335.6614,380.77486 335.87787,380.85234 336.12398,380.86601 L 336.12398,381.11894 L 333.20503,381.11894 L 330.21773,376.89433 L 329.60933,376.89433 z M 329.60933,372.34843 L 329.60933,376.40898 L 329.99898,376.40898 C 330.63244,376.40898 331.1064,376.35088 331.42085,376.23466 C 331.7353,376.11845 331.98253,375.90882 332.16255,375.60575 C 332.34256,375.3027 332.43257,374.90735 332.43257,374.41972 C 332.43257,373.71335 332.26736,373.19154 331.93697,372.85429 C 331.60656,372.51706 331.07449,372.34844 330.34078,372.34843 L 329.60933,372.34843 z "
       id="flowRoot2382" />
    <path
       style="fill:#ff0000;fill-opacity:1;fill-rule:evenodd;stroke:#ff0000;stroke-width:1px;stroke-linecap:butt;stroke-linejoin:miter;stroke-opacity:1"
       d="M 462.80278,311.56187 L 459.36308,315.98442 L 462.92271,320.31104 L 447.32392,316.14942 L 462.80278,311.56187 z "
       id="path2365" />
    <path
       style="fill:#ff0000"
       d="M 456.42457,293.91022 C 456.76308,293.90661 457.05079,294.02202 457.28769,294.25647 C 457.52458,294.49094 457.64482,294.77483 457.64839,295.10813 C 457.65196,295.44145 457.53651,295.72656 457.30205,295.96345 C 457.0676,296.20036 456.78372,296.32058 456.4504,296.32415 C 456.11708,296.32772 455.832,296.21358 455.59512,295.98172 C 455.35826,295.74988 455.23803,295.46729 455.23447,295.13397 C 455.2309,294.80067 455.34503,294.51427 455.57685,294.27478 C 455.80868,294.03532 456.09124,293.9138 456.42457,293.91022 L 456.42457,293.91022 z M 457.55613,297.43738 L 457.6181,303.22611 C 457.62361,303.7417 457.68703,304.07047 457.80835,304.21241 C 457.92966,304.35435 458.16491,304.43387 458.51407,304.45096 L 458.51708,304.73219 L 454.572,304.77442 L 454.56898,304.49319 C 454.89176,304.47932 455.13033,304.38301 455.28468,304.20426 C 455.38756,304.08336 455.43623,303.76511 455.43072,303.24952 L 455.38507,298.98414 C 455.37954,298.46855 455.31612,298.13979 455.19481,297.99784 C 455.07348,297.85591 454.84085,297.77636 454.4969,297.7592 L 454.49381,297.47016 L 457.55613,297.43738 z "
       id="path2369" />
    <path
       style="fill:#ff0000;fill-opacity:1;fill-rule:evenodd;stroke:#ff0000;stroke-width:1px;stroke-linecap:butt;stroke-linejoin:miter;stroke-opacity:1"
       d="M 373.28468,320.82147 L 372.93653,326.41334 L 378.31563,327.98052 L 363.08541,333.33607 L 373.28468,320.82147 z "
       id="path5916" />
    <path
       style="fill:#ff0000"
       d="M 377.09792,332.56097 C 377.43643,332.55736 377.72414,332.67277 377.96104,332.90722 C 378.19793,333.14169 378.31817,333.42558 378.32174,333.75888 C 378.32531,334.0922 378.20986,334.37731 377.9754,334.6142 C 377.74095,334.85111 377.45707,334.97133 377.12375,334.9749 C 376.79043,334.97847 376.50535,334.86433 376.26847,334.63247 C 376.03161,334.40063 375.91138,334.11804 375.90782,333.78472 C 375.90425,333.45142 376.01838,333.16502 376.2502,332.92553 C 376.48203,332.68607 376.76459,332.56455 377.09792,332.56097 L 377.09792,332.56097 z M 378.22948,336.08813 L 378.29145,341.87686 C 378.29696,342.39245 378.36038,342.72122 378.4817,342.86316 C 378.60301,343.0051 378.83826,343.08462 379.18742,343.10171 L 379.19043,343.38294 L 375.24535,343.42517 L 375.24233,343.14394 C 375.56511,343.13007 375.80368,343.03376 375.95803,342.85501 C 376.06091,342.73411 376.10958,342.41586 376.10407,341.90027 L 376.05842,337.63489 C 376.05289,337.1193 375.98947,336.79054 375.86816,336.64859 C 375.74683,336.50666 375.5142,336.42711 375.17025,336.40995 L 375.16716,336.12091 L 378.22948,336.08813 z "
       id="path5918" />
    <path
       style="fill:#ff0000;fill-opacity:1;fill-rule:evenodd;stroke:#ff0000;stroke-width:1px;stroke-linecap:butt;stroke-linejoin:miter;stroke-opacity:1"
       d="M 352.99457,419.2842 L 356.43427,423.70675 L 352.87464,428.03337 L 368.47343,423.87175 L 352.99457,419.2842 z "
       id="path5920" />
    <path
       style="fill:#ff0000"
       d="M 360.20753,403.07189 C 360.54604,403.06828 360.83375,403.18369 361.07065,403.41814 C 361.30754,403.65261 361.42778,403.9365 361.43135,404.2698 C 361.43492,404.60312 361.31947,404.88823 361.08501,405.12512 C 360.85056,405.36203 360.56668,405.48225 360.23336,405.48582 C 359.90004,405.48939 359.61496,405.37525 359.37808,405.14339 C 359.14122,404.91155 359.02099,404.62896 359.01743,404.29564 C 359.01386,403.96234 359.12799,403.67594 359.35981,403.43645 C 359.59164,403.19699 359.8742,403.07547 360.20753,403.07189 L 360.20753,403.07189 z M 361.33909,406.59905 L 361.40106,412.38778 C 361.40657,412.90337 361.46999,413.23214 361.59131,413.37408 C 361.71262,413.51602 361.94787,413.59554 362.29703,413.61263 L 362.30004,413.89386 L 358.35496,413.93609 L 358.35194,413.65486 C 358.67472,413.64099 358.91329,413.54468 359.06764,413.36593 C 359.17052,413.24503 359.21919,412.92678 359.21368,412.41119 L 359.16803,408.14581 C 359.1625,407.63022 359.09908,407.30146 358.97777,407.15951 C 358.85644,407.01758 358.62381,406.93803 358.27986,406.92087 L 358.27677,406.63183 L 361.33909,406.59905 z "
       id="path5922" />
    <path
       style="fill:#ff0000;fill-opacity:1;fill-rule:evenodd;stroke:#ff0000;stroke-width:1px;stroke-linecap:butt;stroke-linejoin:miter;stroke-opacity:1"
       d="M 439.61944,399.86703 L 439.73766,394.26557 L 434.29874,392.92063 L 449.29616,386.94412 L 439.61944,399.86703 z "
       id="path5926" />
    <path
       style="fill:#ff0000"
       d="M 452.79153,397.13254 C 453.13004,397.12893 453.41775,397.24434 453.65465,397.47879 C 453.89154,397.71326 454.01178,397.99715 454.01535,398.33045 C 454.01892,398.66377 453.90347,398.94888 453.66901,399.18577 C 453.43456,399.42268 453.15068,399.5429 452.81736,399.54647 C 452.48404,399.55004 452.19896,399.4359 451.96208,399.20404 C 451.72522,398.9722 451.60499,398.68961 451.60143,398.35629 C 451.59786,398.02299 451.71199,397.73659 451.94381,397.4971 C 452.17564,397.25764 452.4582,397.13612 452.79153,397.13254 L 452.79153,397.13254 z M 453.92309,400.6597 L 453.98506,406.44843 C 453.99057,406.96402 454.05399,407.29279 454.17531,407.43473 C 454.29662,407.57667 454.53187,407.65619 454.88103,407.67328 L 454.88404,407.95451 L 450.93896,407.99674 L 450.93594,407.71551 C 451.25872,407.70164 451.49729,407.60533 451.65164,407.42658 C 451.75452,407.30568 451.80319,406.98743 451.79768,406.47184 L 451.75203,402.20646 C 451.7465,401.69087 451.68308,401.36211 451.56177,401.22016 C 451.44044,401.07823 451.20781,400.99868 450.86386,400.98152 L 450.86077,400.69248 L 453.92309,400.6597 z "
       id="path5930" />
    <path
       style="fill:#00aa88;fill-opacity:1;stroke:none;stroke-width:0.06465279;stroke-miterlimit:4;stroke-opacity:1"
       d="M 387.62515,315.92055 C 387.62515,317.30058 386.50516,318.42057 385.12515,318.42057 C 383.74514,318.42057 382.62515,317.30058 382.62515,315.92055 C 382.62515,314.54056 383.74514,313.42057 385.12515,313.42057 C 386.50516,313.42057 387.62515,314.54056 387.62515,315.92055 z "
       id="path28782" />
    <path
       style="fill:#00aa88;fill-opacity:1;stroke:none;stroke-width:0.06465279;stroke-miterlimit:4;stroke-opacity:1"
       d="M 548.44169,315.7741 C 548.44169,317.15413 547.3217,318.27412 545.94169,318.27412 C 544.56168,318.27412 543.44169,317.15413 543.44169,315.7741 C 543.44169,314.39411 544.56168,313.27412 545.94169,313.27412 C 547.3217,313.27412 548.44169,314.39411 548.44169,315.7741 z "
       id="path5934" />
    <path
       style="fill:#00aa88;fill-opacity:1;stroke:none;stroke-width:0.06465279;stroke-miterlimit:4;stroke-opacity:1"
       d="M 403.60612,422.75433 C 403.60612,424.13436 402.48613,425.25435 401.10612,425.25435 C 399.72611,425.25435 398.60612,424.13436 398.60612,422.75433 C 398.60612,421.37434 399.72611,420.25435 401.10612,420.25435 C 402.48613,420.25435 403.60612,421.37434 403.60612,422.75433 z "
       id="path5936" />
    <path
       style="fill:#00aa88;fill-opacity:1;stroke:none;stroke-width:0.06465279;stroke-miterlimit:4;stroke-opacity:1"
       d="M 244.01141,423.78986 C 244.01141,425.16989 242.89142,426.28988 241.51141,426.28988 C 240.1314,426.28988 239.01141,425.16989 239.01141,423.78986 C 239.01141,422.40987 240.1314,421.28988 241.51141,421.28988 C 242.89142,421.28988 244.01141,422.40987 244.01141,423.78986 z "
       id="path5938" />
    <path
       style="fill:#00aa88"
       d="M 625.86043,378.66638 C 624.97827,379.46233 624.18306,379.86409 623.47477,379.87168 C 623.05812,379.87613 622.71032,379.74313 622.43137,379.47266 C 622.15241,379.20219 622.01074,378.86124 622.00633,378.44981 C 622.00037,377.89255 622.23457,377.38871 622.70894,376.93829 C 623.18331,376.48788 624.22118,375.88429 625.82255,375.12752 L 625.81469,374.39319 C 625.80878,373.84114 625.77511,373.49383 625.71369,373.35124 C 625.65226,373.20867 625.53765,373.08489 625.36986,372.9799 C 625.20205,372.87493 625.01398,372.82355 624.80568,372.82578 C 624.46715,372.8294 624.18932,372.9079 623.97221,373.06127 C 623.8378,373.15646 623.77127,373.26656 623.7726,373.39155 C 623.77377,373.50092 623.84814,373.63555 623.99569,373.79543 C 624.19599,374.01727 624.29725,374.23234 624.29949,374.44066 C 624.30221,374.69585 624.2095,374.91431 624.02133,375.09601 C 623.83316,375.27774 623.58544,375.37023 623.27817,375.37352 C 622.95006,375.37703 622.67427,375.28102 622.45082,375.08548 C 622.22735,374.88995 622.11421,374.65938 622.11137,374.39376 C 622.10735,374.01879 622.25194,373.65915 622.54515,373.31484 C 622.83835,372.97054 623.2496,372.7044 623.77887,372.51643 C 624.30812,372.32847 624.85921,372.23142 625.43209,372.22529 C 626.12476,372.21787 626.67448,372.35914 627.08126,372.64906 C 627.48802,372.939 627.75314,373.25519 627.87661,373.59763 C 627.95185,373.8156 627.99369,374.31778 628.00212,375.10419 L 628.03247,377.93996 C 628.03603,378.27328 628.05129,378.48276 628.07826,378.56842 C 628.10522,378.65407 628.14496,378.71745 628.19749,378.75856 C 628.25002,378.79966 628.31013,378.81986 628.37784,378.81913 C 628.51324,378.81768 628.65022,378.71985 628.78878,378.52565 L 629.02516,378.71063 C 628.76887,379.09882 628.50235,379.38163 628.22559,379.55909 C 627.94883,379.73654 627.63337,379.82716 627.27923,379.83095 C 626.86258,379.83541 626.53604,379.74124 626.29959,379.54845 C 626.06313,379.35565 625.91675,379.06163 625.86043,378.66638 L 625.86043,378.66638 z M 625.85433,378.0961 L 625.82815,375.65092 C 625.20194,376.02745 624.73745,376.42827 624.4347,376.85341 C 624.23459,377.13683 624.13607,377.42175 624.13915,377.70819 C 624.1417,377.94776 624.22989,378.15776 624.40372,378.3382 C 624.53541,378.47742 624.71845,378.54579 624.95281,378.54328 C 625.21322,378.54049 625.51372,378.39143 625.85433,378.0961 L 625.85433,378.0961 z "
       id="flowRoot4180" />
    <path
       style="fill:none;fill-rule:evenodd;stroke:#00aa88;stroke-width:1px;stroke-linecap:butt;stroke-linejoin:miter;stroke-opacity:1"
       d="M 553.2703,420.87942 L 681.73545,321.26111"
       id="path4174" />
    <path
       style="fill:#00aa88;fill-opacity:1;fill-rule:evenodd;stroke:#00aa88;stroke-width:1.00215709px;stroke-linecap:butt;stroke-linejoin:miter;stroke-opacity:1"
       d="M 558.15987,420.79166 L 554.96619,416.16856 L 551.02585,422.02063 L 558.15987,420.79166 z "
       id="path2358" />
    <path
       style="fill:#00aa88;fill-opacity:1;fill-rule:evenodd;stroke:#00aa88;stroke-width:1.00215709px;stroke-linecap:butt;stroke-linejoin:miter;stroke-opacity:1"
       d="M 678.83651,319.94042 L 682.03019,324.56352 L 685.97053,318.71145 L 678.83651,319.94042 z "
       id="path5948" />
    <path
       style="font-size:14px;font-weight:bold;fill:#00aa88;fill-opacity:1;font-family:Times New Roman"
       d="M 541.82422,305.5868 L 538.5498,305.5868 L 538.16016,306.48914 C 538.03255,306.78992 537.96875,307.03829 537.96875,307.23426 C 537.96875,307.49402 538.07357,307.68543 538.2832,307.80848 C 538.40625,307.88139 538.70931,307.93608 539.19238,307.97254 L 539.19238,308.22547 L 536.10938,308.22547 L 536.10938,307.97254 C 536.44206,307.92241 536.71549,307.78455 536.92969,307.55896 C 537.14388,307.33338 537.4082,306.8674 537.72266,306.16101 L 541.03809,298.76453 L 541.16797,298.76453 L 544.51074,306.36609 C 544.82974,307.08615 545.09179,307.5396 545.29688,307.72644 C 545.45181,307.86772 545.67056,307.94975 545.95313,307.97254 L 545.95313,308.22547 L 541.46875,308.22547 L 541.46875,307.97254 L 541.65332,307.97254 C 542.01334,307.97254 542.26627,307.92241 542.41211,307.82215 C 542.51236,307.74923 542.56249,307.64441 542.5625,307.50769 C 542.56249,307.42566 542.54882,307.34135 542.52148,307.25476 C 542.51236,307.21375 542.444,307.04285 542.31641,306.74207 L 541.82422,305.5868 z M 541.5918,305.08094 L 540.21094,301.88855 L 538.78906,305.08094 L 541.5918,305.08094 z "
       id="flowRoot5950" />
    <path
       style="font-size:14px;font-weight:bold;fill:#00aa88;fill-opacity:1;font-family:Times New Roman"
       d="M 382.22754,305.81043 C 383.10709,306.01551 383.7246,306.26388 384.08008,306.55555 C 384.59049,306.97026 384.84569,307.50802 384.8457,308.16883 C 384.84569,308.86609 384.56542,309.44259 384.00488,309.89832 C 383.31672,310.44975 382.3164,310.72547 381.00391,310.72547 L 376.29395,310.72547 L 376.29395,310.47254 C 376.72233,310.47254 377.01286,310.43266 377.16553,310.35291 C 377.3182,310.27316 377.42529,310.16948 377.48682,310.04187 C 377.54834,309.91427 377.5791,309.59982 377.5791,309.09851 L 377.5791,303.08289 C 377.5791,302.5816 377.54834,302.266 377.48682,302.13611 C 377.42529,302.00624 377.31706,301.90256 377.16211,301.82508 C 377.00716,301.74761 376.71777,301.70887 376.29395,301.70887 L 376.29395,301.45594 L 380.7373,301.45594 C 381.79915,301.45595 382.5511,301.55051 382.99316,301.73963 C 383.43521,301.92876 383.78385,302.21132 384.03906,302.58728 C 384.29426,302.96327 384.42187,303.36317 384.42188,303.78699 C 384.42187,304.23361 384.26008,304.63124 383.93652,304.97986 C 383.61295,305.3285 383.04329,305.60536 382.22754,305.81043 L 382.22754,305.81043 z M 379.73926,305.62586 C 380.38639,305.62586 380.86376,305.55295 381.17139,305.40711 C 381.479,305.26128 381.71484,305.0562 381.87891,304.79187 C 382.04296,304.52756 382.12499,304.19032 382.125,303.78015 C 382.12499,303.37001 382.0441,303.03391 381.88232,302.77185 C 381.72053,302.50982 381.48925,302.31044 381.18848,302.17371 C 380.88769,302.037 380.40462,301.97092 379.73926,301.97547 L 379.73926,305.62586 z M 379.73926,306.15906 L 379.73926,309.13269 L 379.73242,309.47449 C 379.73242,309.72059 379.79508,309.90629 379.92041,310.03162 C 380.04573,310.15695 380.23144,310.21961 380.47754,310.21961 C 380.84212,310.21961 381.17822,310.13872 381.48584,309.97693 C 381.79345,309.81515 382.02929,309.58045 382.19336,309.27283 C 382.35742,308.96522 382.43945,308.62228 382.43945,308.24402 C 382.43945,307.81108 382.33919,307.42257 382.13867,307.07849 C 381.93815,306.73442 381.66243,306.49403 381.31152,306.3573 C 380.96061,306.22059 380.43652,306.15451 379.73926,306.15906 L 379.73926,306.15906 z "
       id="flowRoot6927" />
    <path
       style="font-size:14px;font-weight:bold;fill:#00aa88;fill-opacity:1;font-family:Times New Roman"
       d="M 242.51286,407.66509 L 242.51286,410.87798 L 242.24626,410.87798 C 242.04573,410.03945 241.67203,409.39687 241.12516,408.95025 C 240.57828,408.50364 239.95849,408.28034 239.26579,408.28033 C 238.687,408.28034 238.15608,408.44668 237.67301,408.77935 C 237.18994,409.11204 236.83675,409.54726 236.61344,410.08501 C 236.32633,410.77317 236.18278,411.5388 236.18278,412.38189 C 236.18278,413.21132 236.28759,413.96669 236.49723,414.648 C 236.70686,415.32932 237.03499,415.84429 237.48161,416.19292 C 237.92822,416.54156 238.50699,416.71587 239.21793,416.71587 C 239.80126,416.71587 240.3356,416.58827 240.82096,416.33306 C 241.30631,416.07785 241.81786,415.63808 242.35563,415.01372 L 242.35563,415.81353 C 241.83609,416.35585 241.29491,416.74891 240.73209,416.99273 C 240.16926,417.23654 239.51187,417.35845 238.75993,417.35845 C 237.77099,417.35845 236.89257,417.16021 236.12467,416.76372 C 235.35677,416.36724 234.76432,415.79758 234.34733,415.05474 C 233.93034,414.3119 233.72184,413.52122 233.72184,412.68267 C 233.72184,411.79856 233.95312,410.96002 234.41569,410.16705 C 234.87825,409.37408 235.5026,408.75885 236.28874,408.32134 C 237.07486,407.88385 237.90999,407.6651 238.79411,407.66509 C 239.44579,407.6651 240.13394,407.80638 240.85856,408.08892 C 241.27782,408.25299 241.54442,408.33502 241.65836,408.33501 C 241.80419,408.33502 241.93065,408.28147 242.03776,408.17437 C 242.14485,408.06728 242.21434,407.89752 242.24626,407.66509 L 242.51286,407.66509 z "
       id="flowRoot6943" />
    <path
       style="font-size:14px;font-weight:bold;fill:#00aa88;fill-opacity:1;font-family:Times New Roman"
       d="M 386.3527,415.64654 L 386.3527,415.39361 L 386.66032,415.39361 C 386.9292,415.39361 387.13541,415.35145 387.27897,415.26714 C 387.42252,415.18283 387.52848,415.06776 387.59684,414.92193 C 387.63786,414.82623 387.65836,414.53912 387.65836,414.0606 L 387.65836,407.96294 C 387.65836,407.48899 387.6333,407.19277 387.58317,407.07427 C 387.53304,406.95579 387.43164,406.85211 387.27897,406.76324 C 387.1263,406.67438 386.92008,406.62994 386.66032,406.62994 L 386.3527,406.62994 L 386.3527,406.37701 L 390.50211,406.37701 C 391.60953,406.37702 392.50048,406.52741 393.17497,406.82818 C 393.99983,407.19733 394.62532,407.75559 395.05143,408.50298 C 395.47753,409.25038 395.69058,410.09576 395.69059,411.03912 C 395.69058,411.69081 395.58576,412.29123 395.37614,412.84038 C 395.16649,413.38954 394.89533,413.84299 394.56266,414.20074 C 394.22997,414.55848 393.84602,414.84559 393.41081,415.06206 C 392.97558,415.27854 392.44351,415.44602 391.81461,415.56451 C 391.53661,415.61919 391.09911,415.64654 390.50211,415.64654 L 386.3527,415.64654 z M 389.88688,406.90337 L 389.88688,414.1358 C 389.88688,414.51861 389.90511,414.75331 389.94157,414.8399 C 389.97802,414.92649 390.03955,414.99257 390.12614,415.03814 C 390.24918,415.1065 390.42691,415.14068 390.65934,415.14068 C 391.4204,415.14068 392.00146,414.88091 392.40251,414.36138 C 392.94937,413.65956 393.22281,412.57037 393.22282,411.0938 C 393.22281,409.90436 393.03596,408.95416 392.66227,408.24322 C 392.36604,407.68724 391.98551,407.30898 391.52067,407.10845 C 391.19254,406.96718 390.64794,406.89882 389.88688,406.90337 L 389.88688,406.90337 z "
       id="flowRoot6951" />
    <path
       style="fill:#000000;fill-opacity:1"
       d="M 449.63665,261.76845 C 450.5162,261.97354 451.13371,262.22191 451.48919,262.51357 C 451.9996,262.92829 452.2548,263.46605 452.25481,264.12685 C 452.2548,264.82412 451.97453,265.40062 451.41399,265.85634 C 450.72583,266.40778 449.72551,266.68349 448.41302,266.68349 L 443.70305,266.68349 L 443.70305,266.43056 C 444.13144,266.43056 444.42197,266.39069 444.57464,266.31093 C 444.7273,266.23118 444.8344,266.1275 444.89593,265.9999 C 444.95745,265.87229 444.98821,265.55784 444.98821,265.05654 L 444.98821,259.04091 C 444.98821,258.53962 444.95745,258.22403 444.89593,258.09414 C 444.8344,257.96426 444.72617,257.86058 444.57122,257.7831 C 444.41627,257.70564 444.12688,257.6669 443.70305,257.66689 L 443.70305,257.41396 L 448.14642,257.41396 C 449.20826,257.41397 449.96021,257.50853 450.40227,257.69765 C 450.84432,257.88679 451.19296,258.16934 451.44817,258.54531 C 451.70337,258.92129 451.83098,259.32119 451.83098,259.74502 C 451.83098,260.19164 451.66919,260.58926 451.34563,260.93789 C 451.02206,261.28652 450.4524,261.56338 449.63665,261.76845 L 449.63665,261.76845 z M 447.14837,261.58388 C 447.7955,261.58389 448.27287,261.51097 448.5805,261.36513 C 448.88811,261.2193 449.12395,261.01423 449.28802,260.7499 C 449.45207,260.48558 449.5341,260.14834 449.53411,259.73818 C 449.5341,259.32803 449.45321,258.99193 449.29143,258.72988 C 449.12964,258.46784 448.89836,258.26846 448.59759,258.13173 C 448.2968,257.99502 447.81373,257.92894 447.14837,257.93349 L 447.14837,261.58388 z M 447.14837,262.11709 L 447.14837,265.09072 L 447.14153,265.43252 C 447.14153,265.67861 447.20419,265.86432 447.32952,265.98964 C 447.45484,266.11497 447.64055,266.17763 447.88665,266.17763 C 448.25123,266.17763 448.58733,266.09674 448.89495,265.93496 C 449.20256,265.77317 449.4384,265.53847 449.60247,265.23086 C 449.76653,264.92324 449.84856,264.5803 449.84856,264.20205 C 449.84856,263.76911 449.7483,263.3806 449.54778,263.03652 C 449.34726,262.69245 449.07154,262.45205 448.72063,262.31533 C 448.36972,262.17861 447.84563,262.11253 447.14837,262.11709 L 447.14837,262.11709 z M 456.53411,260.5038 L 464.01263,260.5038 L 464.01263,261.39248 L 456.53411,261.39248 L 456.53411,260.5038 z M 456.53411,262.73916 L 464.01263,262.73916 L 464.01263,263.62783 L 456.53411,263.62783 L 456.53411,262.73916 z M 473.97259,261.76845 C 474.85214,261.97354 475.46965,262.22191 475.82513,262.51357 C 476.33553,262.92829 476.59074,263.46605 476.59075,264.12685 C 476.59074,264.82412 476.31047,265.40062 475.74993,265.85634 C 475.06177,266.40778 474.06145,266.68349 472.74895,266.68349 L 468.03899,266.68349 L 468.03899,266.43056 C 468.46738,266.43056 468.75791,266.39069 468.91058,266.31093 C 469.06324,266.23118 469.17034,266.1275 469.23186,265.9999 C 469.29339,265.87229 469.32415,265.55784 469.32415,265.05654 L 469.32415,259.04091 C 469.32415,258.53962 469.29339,258.22403 469.23186,258.09414 C 469.17034,257.96426 469.0621,257.86058 468.90716,257.7831 C 468.75221,257.70564 468.46282,257.6669 468.03899,257.66689 L 468.03899,257.41396 L 472.48235,257.41396 C 473.5442,257.41397 474.29615,257.50853 474.73821,257.69765 C 475.18026,257.88679 475.52889,258.16934 475.78411,258.54531 C 476.03931,258.92129 476.16691,259.32119 476.16692,259.74502 C 476.16691,260.19164 476.00513,260.58926 475.68157,260.93789 C 475.358,261.28652 474.78834,261.56338 473.97259,261.76845 L 473.97259,261.76845 z M 471.48431,261.58388 C 472.13144,261.58389 472.60881,261.51097 472.91643,261.36513 C 473.22405,261.2193 473.45989,261.01423 473.62395,260.7499 C 473.78801,260.48558 473.87004,260.14834 473.87005,259.73818 C 473.87004,259.32803 473.78915,258.99193 473.62737,258.72988 C 473.46558,258.46784 473.2343,258.26846 472.93352,258.13173 C 472.63274,257.99502 472.14966,257.92894 471.48431,257.93349 L 471.48431,261.58388 z M 471.48431,262.11709 L 471.48431,265.09072 L 471.47747,265.43252 C 471.47747,265.67861 471.54013,265.86432 471.66546,265.98964 C 471.79078,266.11497 471.97649,266.17763 472.22259,266.17763 C 472.58716,266.17763 472.92327,266.09674 473.23089,265.93496 C 473.5385,265.77317 473.77434,265.53847 473.93841,265.23086 C 474.10246,264.92324 474.18449,264.5803 474.1845,264.20205 C 474.18449,263.76911 474.08423,263.3806 473.88372,263.03652 C 473.68319,262.69245 473.40748,262.45205 473.05657,262.31533 C 472.70565,262.17861 472.18157,262.11253 471.48431,262.11709 L 471.48431,262.11709 z M 487.24114,260.29189 L 487.24114,265.2958 C 487.24113,265.78343 487.28671,266.08763 487.37786,266.20839 C 487.469,266.32916 487.65357,266.4055 487.93157,266.4374 L 487.93157,266.68349 L 485.32708,266.68349 L 485.32708,265.829 C 485.02174,266.19358 484.7164,266.45905 484.41106,266.62539 C 484.10572,266.79173 483.76393,266.8749 483.38567,266.8749 C 483.02564,266.8749 482.70549,266.76438 482.42522,266.54336 C 482.14495,266.32233 481.95696,266.0637 481.86126,265.76748 C 481.76555,265.47125 481.7177,264.954 481.7177,264.21572 L 481.7177,261.67959 C 481.7177,261.19652 481.67327,260.89574 481.5844,260.77724 C 481.49554,260.65876 481.30982,260.58128 481.02727,260.54482 L 481.02727,260.29189 L 483.63177,260.29189 L 483.63177,264.66005 C 483.63176,265.11579 483.65341,265.40973 483.69671,265.54189 C 483.74,265.67405 483.80836,265.77431 483.90179,265.84267 C 483.99521,265.91103 484.10344,265.94521 484.22649,265.94521 C 484.39055,265.94521 484.53866,265.90192 484.67083,265.81533 C 484.85312,265.69684 485.07187,265.45758 485.32708,265.09755 L 485.32708,261.67959 C 485.32707,261.19652 485.28264,260.89574 485.19378,260.77724 C 485.10491,260.65876 484.9192,260.58128 484.63665,260.54482 L 484.63665,260.29189 L 487.24114,260.29189 z "
       id="flowRoot3431" />
    <path
       style="fill:#000000;fill-opacity:1"
       d="M 493.53304,264.50068 L 490.41976,269.50068 L 491.42757,269.50068 C 491.90413,269.50068 492.23747,269.47074 492.42757,269.41084 C 492.73747,269.31709 493.00439,269.14456 493.22835,268.89326 C 493.45231,268.64196 493.60726,268.30537 493.6932,267.8835 L 493.84554,267.8835 L 493.6307,269.79756 L 488.77914,269.79756 L 491.89632,264.78975 L 491.11117,264.78975 C 490.80648,264.78975 490.60596,264.79887 490.5096,264.81709 C 490.32731,264.85095 490.15609,264.91801 489.99593,265.01826 C 489.83578,265.11853 489.70296,265.25199 489.5975,265.41865 C 489.49203,265.58532 489.40934,265.79626 489.34945,266.05147 L 489.20492,266.05147 L 489.34945,264.50068 L 493.53304,264.50068 z "
       id="flowRoot3439" />
    <g
       id="g5761"
       transform="translate(269.25851,225.03409)">
      <path
         style="fill:#000000;fill-opacity:1;fill-rule:evenodd;stroke:#000000;stroke-width:0.65466833;stroke-linecap:butt;stroke-linejoin:miter;stroke-miterlimit:4;stroke-opacity:1"
         d="M 172.02896,29.39511 L 186.40596,29.39511"
         id="path3817" />
      <path
         style="fill:#000000;fill-opacity:1;fill-rule:evenodd;stroke:#000000;stroke-width:0.38509902px;stroke-linecap:butt;stroke-linejoin:miter;stroke-opacity:1"
         d="M 184.08966,27.36431 L 185.20787,29.39511 L 184.08966,31.42591 L 189.05461,29.39511 L 184.08966,27.36431 z "
         id="path3819" />
    </g>
    <g
       id="g5765"
       transform="translate(305.25851,225.03409)">
      <path
         id="path5767"
         d="M 172.02896,29.39511 L 186.40596,29.39511"
         style="fill:#000000;fill-opacity:1;fill-rule:evenodd;stroke:#000000;stroke-width:0.65466833;stroke-linecap:butt;stroke-linejoin:miter;stroke-miterlimit:4;stroke-opacity:1" />
      <path
         id="path5769"
         d="M 184.08966,27.36431 L 185.20787,29.39511 L 184.08966,31.42591 L 189.05461,29.39511 L 184.08966,27.36431 z "
         style="fill:#000000;fill-opacity:1;fill-rule:evenodd;stroke:#000000;stroke-width:0.38509902px;stroke-linecap:butt;stroke-linejoin:miter;stroke-opacity:1" />
    </g>
    <g
       id="g6968"
       transform="matrix(0,-1,1,0,-8.188361,771.4996)"
       style="fill:#000000;stroke:#000000;stroke-opacity:1">
      <path
         sodipodi:nodetypes="cc"
         id="path6970"
         d="M 405,444.42743 L 539,444.42743"
         style="fill:#000000;fill-rule:evenodd;stroke:#000000;stroke-width:1.70000005;stroke-linecap:butt;stroke-linejoin:miter;stroke-miterlimit:4;stroke-dasharray:none;stroke-opacity:1" />
      <path
         id="path6972"
         d="M 534.79794,440.05243 L 538.29794,444.42743 L 534.79794,448.80243 L 550.33824,444.42743 L 534.79794,440.05243 z "
         style="fill:#000000;fill-opacity:1;fill-rule:evenodd;stroke:#000000;stroke-width:1px;stroke-linecap:butt;stroke-linejoin:miter;stroke-opacity:1" />
    </g>
    <path
       style="font-size:14px;font-weight:bold;fill:#1a1a1a;fill-opacity:1;font-family:Times New Roman"
       d="M 485.2517,336.90513 L 485.2517,340.71275 L 485.5183,340.71275 C 485.92846,340.71275 486.26342,340.65123 486.52319,340.52818 C 486.78295,340.40513 487.00284,340.19778 487.18286,339.90611 C 487.36286,339.61445 487.48021,339.22024 487.53491,338.72349 L 487.77416,338.72349 L 487.77416,343.37876 L 487.53491,343.37876 C 487.44831,342.49921 487.21247,341.91929 486.82739,341.63902 C 486.44229,341.35875 486.00593,341.21861 485.5183,341.21861 L 485.2517,341.21861 L 485.2517,344.05552 C 485.2517,344.52948 485.2779,344.8257 485.33032,344.94419 C 485.38272,345.06268 485.48526,345.16636 485.63793,345.25523 C 485.7906,345.34409 485.99682,345.38853 486.25659,345.38853 L 486.5642,345.38853 L 486.5642,345.64146 L 481.71752,345.64146 L 481.71752,345.38853 L 482.02514,345.38853 C 482.29402,345.38853 482.51049,345.34068 482.67455,345.24497 C 482.79304,345.18117 482.88419,345.0718 482.94799,344.91685 C 482.99812,344.80747 483.02319,344.52036 483.02319,344.05552 L 483.02319,337.95786 C 483.02319,337.48391 482.99812,337.18769 482.94799,337.06919 C 482.89786,336.95071 482.79646,336.84703 482.64379,336.75816 C 482.49112,336.6693 482.28491,336.62486 482.02514,336.62486 L 481.71752,336.62486 L 481.71752,336.37193 L 489.53784,336.37193 L 489.53784,339.03111 L 489.25756,339.03111 C 489.19375,338.40676 489.03083,337.9442 488.76879,337.64341 C 488.50674,337.34264 488.12735,337.13072 487.63061,337.00767 C 487.35717,336.93932 486.85131,336.90514 486.11303,336.90513 L 485.2517,336.90513 z "
       id="flowRoot6974" />
    <g
       style="fill:#000000;stroke:#000000;stroke-opacity:1"
       transform="translate(15.700794,-79.214466)"
       id="g2219">
      <path
         style="fill:#000000;fill-rule:evenodd;stroke:#000000;stroke-width:1.70000005;stroke-linecap:butt;stroke-linejoin:miter;stroke-miterlimit:4;stroke-dasharray:none;stroke-opacity:1"
         d="M 464,444.42743 L 539,444.42743"
         id="path2221"
         sodipodi:nodetypes="cc" />
      <path
         style="fill:#000000;fill-opacity:1;fill-rule:evenodd;stroke:#000000;stroke-width:1px;stroke-linecap:butt;stroke-linejoin:miter;stroke-opacity:1"
         d="M 534.79794,440.05243 L 538.29794,444.42743 L 534.79794,448.80243 L 550.33824,444.42743 L 534.79794,440.05243 z "
         id="path2223" />
    </g>
    <path
       style="font-size:14px;font-weight:bold;font-family:Times New Roman"
       d="M 541.45905,353.44387 L 539.30573,348.48781 C 539.04596,347.89081 538.84316,347.51256 538.69733,347.35305 C 538.59251,347.23456 538.43756,347.15481 538.23248,347.11379 L 538.23248,346.86086 L 541.62994,346.86086 L 541.62994,347.11379 C 541.41575,347.1138 541.26991,347.15253 541.19244,347.23 C 541.08307,347.33027 541.02838,347.44876 541.02838,347.58547 C 541.02838,347.75409 541.12864,348.07083 541.32916,348.53566 L 542.3819,350.93508 L 543.22272,348.86379 C 543.46425,348.27135 543.58502,347.85208 543.58502,347.60598 C 543.58502,347.46471 543.53375,347.34963 543.43121,347.26076 C 543.32867,347.1719 543.14752,347.12291 542.88776,347.11379 L 542.88776,346.86086 L 544.97955,346.86086 L 544.97955,347.11379 C 544.77903,347.14114 544.61496,347.21633 544.48737,347.33937 C 544.35976,347.46243 544.16835,347.82473 543.91315,348.42629 L 541.78033,353.44387 L 541.45905,353.44387 z M 548.87604,347.07277 L 556.35455,347.07277 L 556.35455,347.96145 L 548.87604,347.96145 L 548.87604,347.07277 z M 548.87604,349.30812 L 556.35455,349.30812 L 556.35455,350.1968 L 548.87604,350.1968 L 548.87604,349.30812 z M 563.44342,353.44387 L 561.2901,348.48781 C 561.03033,347.89081 560.82753,347.51256 560.6817,347.35305 C 560.57688,347.23456 560.42194,347.15481 560.21686,347.11379 L 560.21686,346.86086 L 563.61432,346.86086 L 563.61432,347.11379 C 563.40012,347.1138 563.25429,347.15253 563.17682,347.23 C 563.06744,347.33027 563.01275,347.44876 563.01276,347.58547 C 563.01275,347.75409 563.11301,348.07083 563.31354,348.53566 L 564.36627,350.93508 L 565.20709,348.86379 C 565.44862,348.27135 565.56939,347.85208 565.5694,347.60598 C 565.56939,347.46471 565.51812,347.34963 565.41559,347.26076 C 565.31304,347.1719 565.13189,347.12291 564.87213,347.11379 L 564.87213,346.86086 L 566.96393,346.86086 L 566.96393,347.11379 C 566.7634,347.14114 566.59934,347.21633 566.47174,347.33937 C 566.34413,347.46243 566.15272,347.82473 565.89752,348.42629 L 563.76471,353.44387 L 563.44342,353.44387 z M 577.23151,346.86086 L 577.23151,351.86477 C 577.2315,352.3524 577.27707,352.6566 577.36823,352.77736 C 577.45936,352.89813 577.64393,352.97447 577.92194,353.00637 L 577.92194,353.25246 L 575.31744,353.25246 L 575.31744,352.39797 C 575.0121,352.76255 574.70676,353.02801 574.40143,353.19436 C 574.09609,353.3607 573.75429,353.44387 573.37604,353.44387 C 573.01601,353.44387 572.69586,353.33335 572.41559,353.11232 C 572.13531,352.8913 571.94733,352.63267 571.85162,352.33645 C 571.75592,352.04022 571.70807,351.52297 571.70807,350.78469 L 571.70807,348.24855 C 571.70807,347.76549 571.66363,347.46471 571.57477,347.34621 C 571.4859,347.22773 571.30019,347.15025 571.01764,347.11379 L 571.01764,346.86086 L 573.62213,346.86086 L 573.62213,351.22902 C 573.62213,351.68475 573.64378,351.9787 573.68707,352.11086 C 573.73036,352.24302 573.79872,352.34328 573.89215,352.41164 C 573.98557,352.48 574.09381,352.51418 574.21686,352.51418 C 574.38092,352.51418 574.52903,352.47089 574.66119,352.3843 C 574.84348,352.26581 575.06223,352.02655 575.31744,351.66652 L 575.31744,348.24855 C 575.31744,347.76549 575.27301,347.46471 575.18414,347.34621 C 575.09527,347.22773 574.90956,347.15025 574.62701,347.11379 L 574.62701,346.86086 L 577.23151,346.86086 z "
       id="flowRoot2233" />
    <path
       style="font-size:11px;font-weight:bold;font-family:Times New Roman"
       d="M 583.35763,353.38903 L 584.22775,355.04332 C 584.52852,355.61982 584.76664,355.98505 584.9421,356.13903 C 585.03878,356.22138 585.17126,356.26614 585.33956,356.2733 L 585.33956,356.46666 L 582.54122,356.46666 L 582.54122,356.2733 C 582.75965,356.2554 582.89482,356.22675 582.94674,356.18736 C 582.99866,356.14798 583.02462,356.09427 583.02462,356.02623 C 583.02462,355.92597 582.96733,355.76842 582.85275,355.55358 L 582.41769,354.73717 L 582.04708,355.27965 C 581.87879,355.52672 581.7839,355.67353 581.76242,355.72008 C 581.73377,355.78811 581.71945,355.84899 581.71945,355.9027 C 581.71945,355.98505 581.73645,356.05398 581.77047,356.10948 C 581.80449,356.16499 581.85104,356.20616 581.91012,356.23302 C 581.9692,356.25987 582.07752,356.2733 582.23507,356.2733 L 582.23507,356.46666 L 580.26925,356.46666 L 580.26925,356.2733 C 580.51274,356.2733 580.73564,356.20616 580.93795,356.07189 C 581.14026,355.93761 581.43478,355.5858 581.8215,355.01647 L 582.23507,354.40416 L 581.37033,352.80358 C 581.08745,352.28079 580.87618,351.96032 580.73654,351.84215 C 580.59689,351.72399 580.44113,351.65775 580.26925,351.64342 L 580.26925,351.44469 L 583.05148,351.44469 L 583.05148,351.64342 L 582.90646,351.64879 L 582.62716,351.74547 C 582.59851,351.77054 582.58419,351.81172 582.58419,351.86901 C 582.58419,351.92272 582.59314,351.97822 582.61105,352.03551 C 582.62179,352.06058 582.67192,352.15726 582.76144,352.32555 L 583.15353,353.05602 L 583.35763,352.76598 C 583.64409,352.3721 583.78731,352.09639 583.78732,351.93883 C 583.78731,351.86364 583.75598,351.80008 583.69332,351.74816 C 583.63066,351.69624 583.51876,351.66133 583.35763,351.64342 L 583.35763,351.44469 L 585.13546,351.44469 L 585.13546,351.64342 C 584.91703,351.65059 584.71293,351.71772 584.52316,351.84484 C 584.33337,351.97196 584.12032,352.21813 583.884,352.58336 L 583.35763,353.38903 z "
       id="flowRoot2249" />
    <g
       transform="translate(362.08976,312.69497)"
       id="g2257">
      <path
         id="path2259"
         d="M 172.02896,29.39511 L 186.40596,29.39511"
         style="fill:#000000;fill-opacity:1;fill-rule:evenodd;stroke:#000000;stroke-width:0.65466833;stroke-linecap:butt;stroke-linejoin:miter;stroke-miterlimit:4;stroke-opacity:1" />
      <path
         id="path2261"
         d="M 184.08966,27.36431 L 185.20787,29.39511 L 184.08966,31.42591 L 189.05461,29.39511 L 184.08966,27.36431 z "
         style="fill:#000000;fill-opacity:1;fill-rule:evenodd;stroke:#000000;stroke-width:0.38509902px;stroke-linecap:butt;stroke-linejoin:miter;stroke-opacity:1" />
    </g>
    <g
       transform="translate(395.26134,312.69497)"
       id="g2263">
      <path
         style="fill:#000000;fill-opacity:1;fill-rule:evenodd;stroke:#000000;stroke-width:0.65466833;stroke-linecap:butt;stroke-linejoin:miter;stroke-miterlimit:4;stroke-opacity:1"
         d="M 172.02896,29.39511 L 186.40596,29.39511"
         id="path2265" />
      <path
         style="fill:#000000;fill-opacity:1;fill-rule:evenodd;stroke:#000000;stroke-width:0.38509902px;stroke-linecap:butt;stroke-linejoin:miter;stroke-opacity:1"
         d="M 184.08966,27.36431 L 185.20787,29.39511 L 184.08966,31.42591 L 189.05461,29.39511 L 184.08966,27.36431 z "
         id="path2267" />
    </g>
    <path
       sodipodi:type="arc"
       style="opacity:1;fill:none;stroke:#008000;stroke-width:2;stroke-miterlimit:4;stroke-dasharray:none;stroke-opacity:1"
       id="path2306"
       sodipodi:cx="366.98843"
       sodipodi:cy="102.64272"
       sodipodi:rx="10.606602"
       sodipodi:ry="10.076272"
       d="M 377.59504 102.64272 A 10.606602 10.076272 0 1 1  356.38183,102.64272 A 10.606602 10.076272 0 1 1  377.59504 102.64272 z"
       transform="matrix(1.3183766,0,0,1.3526771,-207.34131,284.75323)" />
    <path
       style="fill:none;fill-rule:evenodd;stroke:#008000;stroke-width:2.34288526;stroke-linecap:butt;stroke-linejoin:miter;stroke-miterlimit:4;stroke-dasharray:none;stroke-opacity:1"
       d="M 290.10966,423.94497 L 263.57278,423.95353"
       id="path4246" />
    <path
       style="fill:#008000;fill-opacity:1;fill-rule:evenodd;stroke:none;stroke-width:0.71624112px;stroke-linecap:butt;stroke-linejoin:miter;stroke-opacity:1"
       d="M 283.30952,428.84535 L 284.98729,424.26774 L 283.18795,419.81304 L 290.96807,424.05634 L 283.30952,428.84535 z "
       id="path5217" />
    <text
       xml:space="preserve"
       style="font-size:12px;font-style:normal;font-weight:normal;fill:#008000;fill-opacity:1;stroke:none;stroke-width:1px;stroke-linecap:butt;stroke-linejoin:miter;stroke-opacity:1;font-family:Arial Black"
       x="278.96255"
       y="406.97867"
       id="text2425"><tspan
         sodipodi:role="line"
         id="tspan2427"
         x="278.96255"
         y="406.97867">E</tspan></text>
    <path
       sodipodi:type="arc"
       style="opacity:1;fill:none;stroke:#008000;stroke-width:2;stroke-miterlimit:4;stroke-dasharray:none;stroke-opacity:1"
       id="path2429"
       sodipodi:cx="366.98843"
       sodipodi:cy="102.64272"
       sodipodi:rx="10.606602"
       sodipodi:ry="10.076272"
       d="M 377.59504 102.64272 A 10.606602 10.076272 0 1 1  356.38183,102.64272 A 10.606602 10.076272 0 1 1  377.59504 102.64272 z"
       transform="matrix(-1.3183667,-5.0974685e-3,5.2300904e-3,-1.352667,803.26324,564.66138)" />
    <path
       style="fill:none;fill-rule:evenodd;stroke:#008000;stroke-width:2.34288526;stroke-linecap:butt;stroke-linejoin:miter;stroke-miterlimit:4;stroke-dasharray:none;stroke-opacity:1"
       d="M 306.52824,424.25509 L 333.06496,424.34914"
       id="path2431" />
    <path
       style="fill:#008000;fill-opacity:1;fill-rule:evenodd;stroke:none;stroke-width:0.71624112px;stroke-linecap:butt;stroke-linejoin:miter;stroke-opacity:1"
       d="M 327.33037,429.37807 L 329.05715,424.81873 L 327.30571,420.34498 L 335.03986,424.67151 L 327.33037,429.37807 z "
       id="path2433" />
    <text
       xml:space="preserve"
       style="font-size:12px;font-style:normal;font-weight:normal;fill:#008000;fill-opacity:1;stroke:none;stroke-width:1px;stroke-linecap:butt;stroke-linejoin:miter;stroke-opacity:1;font-family:Arial Black"
       x="315.73212"
       y="405.56448"
       id="text2435"><tspan
         sodipodi:role="line"
         id="tspan2437"
         x="315.73212"
         y="405.56448">e</tspan></text>
  </g>
</svg>
