<?xml version="1.0" encoding="UTF-8"?>
<!DOCTYPE svg PUBLIC "-//W3C//DTD SVG 1.1//EN" "http://www.w3.org/Graphics/SVG/1.1/DTD/svg11.dtd">
<!-- Creator: CorelDRAW Home & Student X7 -->
<svg xmlns="http://www.w3.org/2000/svg" xml:space="preserve" width="100%" height="100%" version="1.1" style="shape-rendering:geometricPrecision; text-rendering:geometricPrecision; image-rendering:optimizeQuality; fill-rule:evenodd; clip-rule:evenodd"
viewBox="0 0 21146 8252"
 xmlns:xlink="http://www.w3.org/1999/xlink">
 <defs>
  <style type="text/css">
   <![CDATA[
    .str2 {stroke:#E8065E;stroke-width:100}
    .str0 {stroke:black;stroke-width:50}
    .str3 {stroke:black;stroke-width:150}
    .str1 {stroke:black;stroke-width:150;stroke-dasharray:150.000000 150.000000}
    .fil0 {fill:none}
    .fil2 {fill:#E8065E}
    .fil1 {fill:black;fill-rule:nonzero}
    .fil3 {fill:#E8065E;fill-rule:nonzero}
   ]]>
  </style>
 </defs>
 <g id="Layer_x0020_1">
  <metadata id="CorelCorpID_0Corel-Layer"/>
  <path class="fil0 str0" d="M1505 3281l16894 0c218,0 395,377 395,842 0,465 -177,842 -395,842l-16894 0c219,0 395,-377 395,-842 0,-465 -176,-842 -395,-842z"/>
  <g>
   <path class="fil1" d="M20299 4123l-918 459 0 -918 918 459zm-1505 -75l635 0 0 150 -635 0 0 -150z"/>
  </g>
  <line class="fil0 str1" x1="1505" y1="4123" x2="18794" y2= "4123" />
  <path class="fil0 str2" d="M4130 3287c182,-1845 951,-3231 1871,-3231 1056,0 1912,1824 1912,4073 0,2250 -856,4073 -1912,4073 -920,0 -1689,-1385 -1871,-3230"/>
  <path class="fil0 str2" d="M6748 3281c182,-1845 950,-3231 1870,-3231 1056,0 1912,1824 1912,4073 0,2249 -856,4073 -1912,4073 -920,0 -1688,-1386 -1870,-3231"/>
  <path class="fil0 str2" d="M9374 3281c182,-1845 950,-3231 1870,-3231 1056,0 1912,1824 1912,4073 0,2249 -856,4073 -1912,4073 -920,0 -1688,-1386 -1870,-3231"/>
  <path class="fil0 str2" d="M12000 3281c182,-1845 950,-3231 1871,-3231 1055,0 1911,1824 1911,4073 0,2249 -856,4073 -1911,4073 -921,0 -1689,-1386 -1871,-3231"/>
  <polygon class="fil2" points="3955,2675 4361,2046 4434,2791 "/>
  <polygon class="fil2" points="6560,2675 6966,2046 7039,2791 "/>
  <polygon class="fil2" points="9200,2675 9605,2046 9678,2791 "/>
  <polygon class="fil2" points="11828,2675 12234,2046 12307,2791 "/>
  <polygon class="fil2" points="8072,5463 7666,6092 7593,5347 "/>
  <polygon class="fil2" points="10698,5463 10293,6092 10220,5347 "/>
  <polygon class="fil2" points="13322,5463 12916,6092 12843,5347 "/>
  <polygon class="fil2" points="15952,5463 15546,6092 15473,5347 "/>
  <path class="fil1" d="M20908 4444c-6,29 -10,52 -12,68 -2,17 -3,32 -3,46 0,21 5,37 16,46 11,9 29,14 55,16l-8 36 -291 0 8 -36c19,-3 32,-7 42,-14 9,-7 17,-16 23,-27 6,-12 12,-26 17,-43 6,-16 14,-49 24,-97l124 -559c5,-23 8,-44 11,-65 3,-20 5,-38 5,-52 0,-23 -6,-39 -18,-48 -11,-9 -29,-14 -53,-15l8 -36 290 0 -8 36c-18,3 -31,8 -39,13 -8,4 -16,12 -22,21 -7,10 -13,25 -20,46 -6,20 -15,54 -25,100l-124 564z"/>
  <path class="fil3" d="M16936 6569c45,18 80,43 104,77 25,33 37,71 37,113 0,50 -9,94 -28,134 -18,39 -46,74 -86,103 -39,30 -84,51 -135,63 -51,12 -113,18 -188,18l-323 0 7 -36c19,-3 33,-7 42,-14 9,-6 17,-16 23,-27 6,-12 12,-26 18,-43 5,-16 13,-49 24,-97l123 -559c11,-49 16,-87 16,-115 0,-24 -5,-40 -17,-49 -11,-10 -29,-15 -54,-16l8 -36 360 0c72,0 131,8 174,23 44,15 76,38 97,67 21,30 31,67 31,111 0,64 -20,119 -58,166 -39,48 -97,84 -173,109l-2 8zm-200 -39c50,0 91,-4 121,-10 31,-7 56,-17 76,-31 19,-14 36,-29 52,-48 15,-18 27,-39 36,-64 9,-25 14,-54 14,-87 0,-21 -4,-40 -11,-59 -8,-18 -20,-33 -38,-46 -18,-13 -38,-22 -61,-28 -23,-5 -54,-8 -92,-8 -42,0 -81,1 -118,2l-82 379 103 0zm-208 480c38,2 73,3 106,3 73,0 130,-9 170,-28 40,-18 72,-48 97,-90 24,-41 37,-91 37,-149 0,-32 -6,-59 -19,-80 -12,-22 -32,-40 -59,-53 -26,-13 -63,-19 -110,-19l-132 0 -90 416z"/>
  <ellipse class="fil0 str0" cx="1505" cy="4123" rx="395" ry="842"/>
  <line class="fil0 str3" x1="1505" y1="4123" x2="0" y2= "4123" />
 </g>
</svg>
