<?xml version="1.0" encoding="UTF-8" standalone="no"?>
<!-- Created with Serif DrawPlus 11, 0, 3, 23 (Feb 25, 14:12:55) (http://www.serif.com) -->
<svg version="1.1" xmlns="http://www.w3.org/2000/svg" xmlns:xlink="http://www.w3.org/1999/xlink" width="896.593" height="1158.39">
	<g id="dp_group001" transform="matrix(1,0,0,1,41.1253,-451.343)">
		<g id="dp_group002">
			<path id="dp_path003" fill="none" fill-rule="evenodd" stroke="#152ad4" stroke-width="2.348" d="M 592.509,1389.61 C 606.835,1380.14 623.129,1363.69 632.912,1348.4 C 640.372,1336.74 637.212,1325.82 643.095,1319.69 S 662.44,1325.35 667.461,1317.95 C 672.252,1310.88 672.156,1301.5 682.344,1290.27 C 691.047,1280.67 699.112,1281 710.58,1270.56 C 728.472,1254.27 844.325,1125.24 854.596,1114.01"/>
			<g id="dp_group004">
				<path id="dp_path005" fill="white" fill-rule="evenodd" d="M 635.404,1347.56 L 634.831,1367.83 L 640.335,1365.78 L 713.724,1563.02 L 716.976,1561.81 L 643.585,1364.57 L 649.089,1362.53 Z "/>
				<g id="dp_group006">
					<g id="dp_group007">
						<path id="dp_path008" fill="black" d="M 634.484,1368.31 L 640.139,1366.21 L 713.528,1563.45 L 717.404,1562 L 644.013,1364.77 L 649.668,1362.66 L 635.095,1346.73 L 634.484,1368.31 L 635.177,1367.35 L 635.713,1348.39 L 648.511,1362.39 L 643.157,1364.38 L 716.548,1561.61 L 713.92,1562.59 L 640.531,1365.35 L 635.177,1367.35 Z "/>
					</g>
				</g>
			</g>
			<g id="dp_group009">
				<path id="dp_path010" fill="white" fill-rule="evenodd" d="M 812.08,1162.16 L 799.589,1181.17 L 805.292,1182.57 L 712.276,1562.12 L 715.645,1562.95 L 808.663,1183.39 L 814.365,1184.79 Z "/>
				<g id="dp_group011">
					<g id="dp_group012">
						<path id="dp_path013" fill="black" d="M 799.052,1181.38 L 804.889,1182.81 L 711.873,1562.37 L 715.889,1563.35 L 808.907,1183.8 L 814.744,1185.23 L 812.316,1161.19 L 799.052,1181.38 L 800.127,1180.96 L 811.844,1163.13 L 813.987,1184.36 L 808.419,1182.99 L 715.401,1562.55 L 712.679,1561.88 L 805.695,1182.32 L 800.127,1180.96 Z "/>
					</g>
				</g>
			</g>
			<g id="dp_group014">
				<path id="dp_path015" fill="white" fill-rule="evenodd" d="M 769.272,1121.5 L 749.005,1131.65 L 753.244,1135.72 L 590.005,1306 L 592.509,1308.4 L 755.749,1138.12 L 759.988,1142.18 Z "/>
				<g id="dp_group016">
					<g id="dp_group017">
						<path id="dp_path018" fill="black" d="M 748.435,1131.57 L 752.773,1135.73 L 589.535,1306.01 L 592.519,1308.87 L 755.759,1138.59 L 760.097,1142.75 L 769.959,1120.79 L 748.435,1131.57 L 749.576,1131.74 L 768.585,1122.22 L 759.879,1141.61 L 755.74,1137.65 L 592.5,1307.93 L 590.476,1305.99 L 753.715,1135.71 L 749.576,1131.74 Z "/>
					</g>
				</g>
			</g>
			<text id="dp_text001" transform="matrix(1,9.4369e-016,-8.88178e-016,1,753.091,1464.83)" xml:space="preserve" fill="black" font-family="Arial" font-size="31" font-weight="700" x="0" y="0">r</text>
			<text id="dp_text002" transform="matrix(1,9.4369e-016,-8.88178e-016,1,753.091,1464.83)" xml:space="preserve" fill="black" font-family="Arial" font-size="31" font-weight="400" x="11.928" y="0"> + </text>
			<text id="dp_text003" transform="matrix(1,9.4369e-016,-8.88178e-016,1,753.091,1464.83)" xml:space="preserve" fill="black" font-family="Arial" font-size="31" font-weight="400" x="46.812" y="0">d</text>
			<text id="dp_text004" transform="matrix(1,9.4369e-016,-8.88178e-016,1,753.091,1464.83)" xml:space="preserve" fill="black" font-family="Arial" font-size="31" font-weight="700" x="63.8867" y="0">r</text>
			<text id="dp_text005" transform="matrix(1,9.4369e-016,-8.88178e-016,1,753.091,1464.83)" xml:space="preserve" fill="black" font-family="Arial" font-size="31" font-weight="700" x="75.8147" y="0"> </text>
			<g id="dp_group024">
				<g id="dp_group025">
					<path id="dp_path026" fill="black" fill-rule="evenodd" d="M 645.305,1331.27 L 647.556,1330.6 L 652.057,1329.27 L 643.093,1319.69 L 640.805,1332.61 Z "/>
					<path id="dp_path027" fill="black" d="M 715.944,1561.23 L 647.557,1330.6 L 645.307,1331.27 L 713.693,1561.89 Z "/>
				</g>
			</g>
			<g id="dp_group028">
				<g id="dp_group029">
					<path id="dp_path030" fill="black" fill-rule="evenodd" d="M 667.739,1331.42 L 670.041,1330.97 L 674.645,1330.05 L 666.596,1319.68 L 663.135,1332.34 Z "/>
					<path id="dp_path031" fill="black" d="M 715.969,1561.33 L 670.041,1330.97 L 667.74,1331.42 L 713.668,1561.79 Z "/>
				</g>
			</g>
			<g id="dp_group032">
				<g id="dp_group033">
					<path id="dp_path034" fill="black" fill-rule="evenodd" d="M 682.564,1300.47 L 684.896,1300.19 L 689.557,1299.64 L 682.343,1288.67 L 677.903,1301.02 Z "/>
					<path id="dp_path035" fill="black" d="M 715.984,1561.42 L 684.896,1300.19 L 682.565,1300.47 L 713.653,1561.7 Z "/>
				</g>
			</g>
			<g id="dp_group036">
				<g id="dp_group037">
					<path id="dp_path038" fill="black" fill-rule="evenodd" d="M 638.723,1330.64 L 640.98,1331.29 L 645.492,1332.59 L 643.092,1319.68 L 634.211,1329.34 Z "/>
					<path id="dp_path039" fill="black" d="M 636.095,1348.3 L 640.98,1331.29 L 638.724,1330.64 L 633.839,1347.65 Z "/>
				</g>
			</g>
			<g id="dp_group040">
				<g id="dp_group041">
					<path id="dp_path042" fill="black" fill-rule="evenodd" d="M 654.823,1318.51 L 654.823,1320.86 L 654.823,1325.55 L 666.56,1319.68 L 654.823,1313.81 Z "/>
					<path id="dp_path043" fill="black" d="M 643.095,1320.86 L 654.823,1320.86 L 654.823,1318.51 L 643.095,1318.51 Z "/>
				</g>
			</g>
			<g id="dp_group044">
				<g id="dp_group045">
					<path id="dp_path046" fill="black" fill-rule="evenodd" d="M 675.887,1299.2 L 677.971,1300.28 L 682.136,1302.45 L 682.343,1289.33 L 671.721,1297.03 Z "/>
					<path id="dp_path047" fill="black" d="M 667.601,1320.23 L 677.971,1300.28 L 675.888,1299.2 L 665.519,1319.14 Z "/>
				</g>
			</g>
			<g id="dp_group048">
				<g id="dp_group049">
					<path id="dp_path050" fill="black" fill-rule="evenodd" d="M 700.257,1276.52 L 701.592,1278.45 L 704.263,1282.31 L 710.579,1270.81 L 697.588,1272.66 Z "/>
					<path id="dp_path051" fill="black" d="M 683.105,1291.23 L 701.593,1278.45 L 700.257,1276.52 L 681.769,1289.3 Z "/>
				</g>
			</g>
			<path id="dp_path052" fill="none" fill-rule="evenodd" stroke="black" stroke-width="1" d="M 748.763,1453.23 L 679.263,1439.01"/>
			<path id="dp_path053" fill="none" fill-rule="evenodd" stroke="black" stroke-width="1" d="M 653.264,1453.23 L 668.263,1439.01"/>
			<text id="dp_text006" transform="matrix(1,0,0,1,600.763,1333.65)" xml:space="preserve" fill="black" font-family="Arial" font-size="31" font-weight="400" x="0" y="0">d</text>
			<text id="dp_text007" transform="matrix(1,0,0,1,600.763,1333.65)" xml:space="preserve" fill="black" font-family="Arial" font-size="31" font-weight="700" x="17.0747" y="0">r</text>
			<text id="dp_text008" transform="matrix(1,0,0,1,600.763,1333.65)" xml:space="preserve" fill="black" font-family="Times New Roman" font-size="16" font-weight="400" x="29.0027" y="0"> </text>
			<g id="dp_group057">
				<path id="dp_path058" fill="black" fill-rule="evenodd" d="M 597.437,1187.42 C 597.437,1183.31 597.409,1176.03 597.409,1168.72 L 601.623,1168.72 C 601.592,1175.57 601.413,1188.11 601.916,1188.57 C 602.404,1189.02 604.824,1188.72 606.375,1188.73 L 606.395,1190.56 C 604.741,1190.58 601.893,1190.82 599.933,1190.3 C 598.343,1189.88 597.437,1188.89 597.437,1187.42 Z "/>
				<text id="dp_text009" transform="matrix(1,0,0,1,652.263,1191.28)" xml:space="preserve" fill="black" font-family="Arial" font-size="31" font-weight="400" x="0" y="0">d</text>
				<text id="dp_text010" transform="matrix(1,0,0,1,652.263,1191.28)" xml:space="preserve" fill="black" font-family="Arial" font-size="31" font-weight="700" x="17.0747" y="0">r</text>
				<text id="dp_text011" transform="matrix(1,0,0,1,652.263,1191.28)" xml:space="preserve" fill="black" font-family="Times New Roman" font-size="16" font-weight="400" x="29.0027" y="0"> </text>
				<path id="dp_path062" fill="black" fill-rule="evenodd" d="M 650.263,1155 C 650.263,1155.63 649.86,1155.95 649.048,1155.95 C 648.779,1155.95 648.452,1155.81 648.068,1155.55 C 647.684,1155.28 647.415,1155.15 647.26,1155.15 C 645.793,1155.15 644.752,1159.68 644.137,1168.72 C 643.635,1176.01 643.056,1186.08 642.403,1198.95 C 642.248,1202.13 641.803,1204.98 641.069,1207.49 C 639.908,1211.48 638.265,1213.48 636.137,1213.48 C 634.896,1213.48 634.279,1212.98 634.279,1212 C 634.279,1211.75 634.433,1211.49 634.741,1211.21 C 635.051,1210.93 635.343,1210.79 635.612,1210.79 C 635.845,1210.79 636.115,1210.94 636.424,1211.25 C 636.737,1211.56 637.007,1211.71 637.241,1211.71 C 638.865,1211.71 639.969,1206.18 640.548,1195.12 L 641.935,1168.63 C 642.053,1165.52 642.496,1162.59 643.268,1159.83 C 644.46,1155.59 646.16,1153.47 648.355,1153.47 C 649.627,1153.47 650.263,1153.98 650.263,1155 Z "/>
				<text id="dp_text012" transform="matrix(1,0,0,1,614.385,1191.28)" xml:space="preserve" fill="black" font-family="Arial" font-size="31" font-weight="400" x="0" y="0">=</text>
				<text id="dp_text013" transform="matrix(1,0,0,1,614.385,1191.28)" xml:space="preserve" fill="black" font-family="Times New Roman" font-size="16" font-weight="400" x="17.8933" y="0"> </text>
			</g>
			<text id="dp_text014" transform="matrix(1,9.4369e-016,-8.88178e-016,1,628.105,1469.65)" xml:space="preserve" fill="black" font-family="Arial" font-size="31" font-weight="700" x="0" y="0">r </text>
			<text id="dp_text015" transform="matrix(1,0,0,1,641.871,1474.65)" xml:space="preserve" fill="black" font-family="Arial" font-size="20" font-weight="400" x="0" y="0">1</text>
			<text id="dp_text016" transform="matrix(1,0,0,1,641.871,1474.65)" xml:space="preserve" fill="black" font-family="Times New Roman" font-size="11" font-weight="400" x="11.3933" y="0"> </text>
			<text id="dp_text017" transform="matrix(1,9.4369e-016,-8.88178e-016,1,802.145,1414.24)" xml:space="preserve" fill="black" font-family="Arial" font-size="31" font-weight="700" x="0" y="0">r </text>
			<text id="dp_text018" transform="matrix(1,0,0,1,815.911,1419.24)" xml:space="preserve" fill="black" font-family="Arial" font-size="20" font-weight="400" x="0" y="0">2</text>
			<text id="dp_text019" transform="matrix(1,0,0,1,815.911,1419.24)" xml:space="preserve" fill="black" font-family="Times New Roman" font-size="11" font-weight="400" x="11.3947" y="0"> </text>
			<path id="dp_path071" fill="none" fill-rule="evenodd" stroke="black" stroke-width="0.4" d="M 793.305,1406.86 L 755.805,1402.64"/>
			<g id="dp_group072">
				<g id="dp_group073">
					<path id="dp_path074" fill="black" fill-rule="evenodd" d="M 801.121,1167.21 L 802.456,1169.14 L 805.127,1173.01 L 811.443,1161.5 L 798.452,1163.35 Z "/>
					<path id="dp_path075" fill="black" d="M 783.969,1181.93 L 802.457,1169.14 L 801.121,1167.21 L 782.633,1179.99 Z "/>
				</g>
			</g>
			<g id="dp_group076">
				<g id="dp_group077">
					<path id="dp_path078" fill="black" fill-rule="evenodd" d="M 776.711,1189.04 L 778.624,1190.4 L 782.451,1193.12 L 784.468,1180.15 L 772.884,1186.31 Z "/>
					<path id="dp_path079" fill="black" d="M 765.599,1208.71 L 778.624,1190.4 L 776.712,1189.04 L 763.687,1207.35 Z "/>
				</g>
			</g>
		</g>
		<path id="dp_path080" fill="none" fill-rule="evenodd" stroke="black" stroke-width="1.33333" d="M 526.1,953.897 C 427.593,835.98 252.967,704.629 60.428,600.145"/>
		<g id="dp_group081">
			<path id="dp_path082" fill="none" fill-rule="evenodd" stroke="#152ad4" stroke-width="1.33333" d="M 494.556,1255.82 L 287.573,1470.88"/>
			<g id="dp_group083">
				<path id="dp_path084" fill="none" fill-rule="evenodd" stroke="black" stroke-width="1.33333" d="M 357.347,1414.66 L 354.025,1426.18"/>
				<path id="dp_path085" fill="#fad44b" fill-rule="evenodd" stroke="black" stroke-width="1.33333" d="M 370.919,1367.57 C 383.921,1371.32 391.424,1384.9 387.676,1397.9 C 383.928,1410.91 370.348,1418.41 357.345,1414.66 C 344.343,1410.91 336.84,1397.33 340.588,1384.33 C 344.336,1371.33 357.916,1363.83 370.919,1367.57 Z "/>
				<path id="dp_path086" fill="none" fill-rule="evenodd" stroke="black" stroke-width="1.33333" d="M 374.24,1356.05 L 368.983,1374.29"/>
				<text id="dp_text020" transform="matrix(1,9.4369e-016,-8.88178e-016,1,347.337,1398.16)" xml:space="preserve" fill="black" font-family="Arial" font-size="24" font-weight="400" font-style="italic" x="0" y="0">+q </text>
			</g>
			<text id="dp_text021" transform="matrix(1,9.4369e-016,-8.88178e-016,1,341.629,1193.65)" xml:space="preserve" fill="#ee0000" font-family="Arial" font-size="31" font-weight="700" x="0" y="0">F </text>
			<g id="dp_group089">
				<path id="dp_path090" fill="black" fill-rule="evenodd" d="M 252.96,1297.03 L 262.563,1314.22 L 266.187,1309.6 L 347.844,1373.63 L 349.984,1370.9 L 268.327,1306.87 L 271.951,1302.25 Z "/>
				<g id="dp_group091">
					<g id="dp_group092">
						<path id="dp_path093" fill="black" d="M 262.503,1315 L 266.26,1310.21 L 347.917,1374.23 L 350.591,1370.83 L 268.933,1306.8 L 272.692,1302.01 L 252.079,1296.33 L 262.503,1315 L 262.623,1313.44 L 253.841,1297.72 L 271.209,1302.49 L 267.72,1306.94 L 349.377,1370.97 L 347.771,1373.02 L 266.113,1308.99 L 262.623,1313.44 Z "/>
					</g>
				</g>
			</g>
			<text id="dp_text022" transform="matrix(1,0,0,1,240.052,1291.49)" xml:space="preserve" fill="black" font-family="Arial" font-size="31" font-weight="700" x="0" y="0">B</text>
			<text id="dp_text023" transform="matrix(1,0,0,1,240.052,1291.49)" xml:space="preserve" fill="black" font-family="Times New Roman" font-size="16" font-weight="400" x="22.14" y="0"> </text>
			<g id="dp_group096">
				<g id="dp_group097">
					<path id="dp_path098" fill="black" fill-rule="evenodd" d="M 329.652,1346.81 L 328.811,1345.78 L 327.127,1343.71 L 324.06,1350.5 L 331.335,1348.88 Z "/>
					<path id="dp_path099" fill="black" d="M 401.037,1352.05 L 400.481,1351.55 L 399.923,1351.05 L 399.361,1350.56 L 398.8,1350.07 L 398.239,1349.59 L 397.675,1349.12 L 397.111,1348.66 L 396.547,1348.2 L 395.98,1347.74 L 395.413,1347.3 L 394.847,1346.86 L 394.279,1346.43 L 393.708,1346 L 393.137,1345.58 L 392.565,1345.17 L 391.993,1344.76 L 391.419,1344.37 L 390.845,1343.97 L 390.271,1343.59 L 389.693,1343.21 L 389.116,1342.84 L 388.539,1342.47 L 387.959,1342.12 L 387.38,1341.77 L 386.797,1341.43 L 386.216,1341.09 L 385.635,1340.76 L 385.052,1340.44 L 384.467,1340.13 L 383.883,1339.82 L 383.296,1339.52 L 382.708,1339.23 L 382.12,1338.94 L 381.532,1338.66 L 380.943,1338.39 L 380.353,1338.13 L 379.761,1337.87 L 379.169,1337.63 L 378.577,1337.39 L 377.984,1337.15 L 377.389,1336.93 L 376.793,1336.71 L 376.199,1336.5 L 375.601,1336.3 L 375.003,1336.1 L 374.404,1335.92 L 373.807,1335.74 L 373.205,1335.57 L 372.605,1335.41 L 372.005,1335.25 L 371.403,1335.1 L 370.8,1334.96 L 370.195,1334.83 L 369.593,1334.71 L 368.988,1334.59 L 368.381,1334.49 L 367.776,1334.39 L 367.168,1334.3 L 366.561,1334.21 L 365.953,1334.14 L 365.344,1334.07 L 364.733,1334.02 L 364.125,1333.97 L 363.513,1333.93 L 362.903,1333.89 L 362.291,1333.87 L 361.677,1333.85 L 361.064,1333.84 L 360.452,1333.85 L 359.837,1333.86 L 359.223,1333.87 L 358.608,1333.9 L 357.992,1333.94 L 357.376,1333.98 L 356.76,1334.03 L 356.143,1334.09 L 355.524,1334.17 L 354.905,1334.25 L 354.288,1334.33 L 353.669,1334.43 L 353.049,1334.54 L 352.429,1334.65 L 351.811,1334.77 L 351.189,1334.91 L 350.568,1335.05 L 349.947,1335.2 L 349.325,1335.36 L 348.703,1335.53 L 348.08,1335.7 L 347.457,1335.89 L 346.833,1336.09 L 346.211,1336.29 L 345.587,1336.51 L 344.963,1336.73 L 344.339,1336.96 L 343.715,1337.21 L 343.089,1337.46 L 342.464,1337.72 L 341.84,1337.99 L 341.213,1338.27 L 340.587,1338.55 L 339.961,1338.85 L 339.335,1339.16 L 338.708,1339.48 L 338.081,1339.8 L 337.455,1340.14 L 336.828,1340.49 L 336.199,1340.84 L 335.573,1341.21 L 334.944,1341.58 L 334.316,1341.97 L 333.688,1342.36 L 333.06,1342.76 L 332.432,1343.18 L 331.803,1343.6 L 331.175,1344.03 L 330.544,1344.47 L 329.916,1344.93 L 329.276,1345.4 L 328.809,1345.78 L 329.652,1346.81 L 330.092,1346.45 L 330.7,1346.01 L 331.317,1345.56 L 331.935,1345.13 L 332.552,1344.7 L 333.168,1344.29 L 333.785,1343.88 L 334.403,1343.48 L 335.017,1343.1 L 335.632,1342.72 L 336.248,1342.35 L 336.863,1342 L 337.476,1341.65 L 338.089,1341.31 L 338.703,1340.98 L 339.316,1340.66 L 339.929,1340.35 L 340.54,1340.05 L 341.152,1339.76 L 341.763,1339.48 L 342.373,1339.21 L 342.984,1338.94 L 343.593,1338.69 L 344.203,1338.44 L 344.811,1338.21 L 345.419,1337.98 L 346.027,1337.76 L 346.635,1337.55 L 347.241,1337.35 L 347.847,1337.16 L 348.453,1336.98 L 349.057,1336.81 L 349.664,1336.65 L 350.267,1336.49 L 350.872,1336.34 L 351.475,1336.21 L 352.077,1336.08 L 352.68,1335.96 L 353.281,1335.85 L 353.883,1335.74 L 354.483,1335.65 L 355.084,1335.57 L 355.684,1335.49 L 356.281,1335.42 L 356.88,1335.36 L 357.48,1335.31 L 358.077,1335.27 L 358.675,1335.23 L 359.271,1335.21 L 359.867,1335.19 L 360.463,1335.18 L 361.059,1335.18 L 361.653,1335.18 L 362.248,1335.2 L 362.841,1335.22 L 363.433,1335.26 L 364.027,1335.29 L 364.619,1335.34 L 365.211,1335.4 L 365.801,1335.46 L 366.391,1335.53 L 366.981,1335.62 L 367.571,1335.7 L 368.16,1335.8 L 368.748,1335.9 L 369.335,1336.02 L 369.923,1336.14 L 370.509,1336.26 L 371.096,1336.4 L 371.68,1336.54 L 372.267,1336.69 L 372.851,1336.85 L 373.433,1337.02 L 374.017,1337.19 L 374.6,1337.37 L 375.183,1337.56 L 375.764,1337.76 L 376.345,1337.96 L 376.925,1338.18 L 377.504,1338.4 L 378.084,1338.62 L 378.663,1338.86 L 379.241,1339.1 L 379.817,1339.35 L 380.396,1339.61 L 380.972,1339.87 L 381.547,1340.14 L 382.121,1340.42 L 382.696,1340.71 L 383.269,1341 L 383.843,1341.3 L 384.415,1341.61 L 384.987,1341.92 L 385.557,1342.25 L 386.128,1342.57 L 386.697,1342.91 L 387.265,1343.25 L 387.835,1343.61 L 388.401,1343.96 L 388.968,1344.33 L 389.535,1344.7 L 390.099,1345.08 L 390.664,1345.46 L 391.228,1345.85 L 391.792,1346.25 L 392.353,1346.66 L 392.916,1347.07 L 393.476,1347.49 L 394.036,1347.91 L 394.595,1348.35 L 395.153,1348.79 L 395.712,1349.23 L 396.268,1349.69 L 396.824,1350.14 L 397.38,1350.61 L 397.933,1351.08 L 398.487,1351.56 L 399.04,1352.05 L 399.591,1352.54 L 400.144,1353.04 Z "/>
				</g>
			</g>
			<g id="dp_group100">
				<path id="dp_path101" fill="#ee0000" fill-rule="evenodd" d="M 362.225,1190.43 L 347.336,1225.83 L 358.831,1225.83 L 358.831,1372.9 L 365.62,1372.9 L 365.62,1225.83 L 377.115,1225.83 Z "/>
				<g id="dp_group102">
					<g id="dp_group103">
						<path id="dp_path104" fill="black" d="M 346.48,1226.4 L 358.263,1226.4 L 358.263,1373.47 L 366.188,1373.47 L 366.188,1226.4 L 377.971,1226.4 L 362.225,1188.97 L 346.48,1226.4 L 348.192,1225.26 L 362.225,1191.9 L 376.259,1225.26 L 365.052,1225.26 L 365.052,1372.33 L 359.399,1372.33 L 359.399,1225.26 L 348.192,1225.26 Z "/>
					</g>
				</g>
			</g>
			<path id="dp_path105" fill="black" fill-rule="evenodd" d="M 315.832,1356.76 C 315.729,1356.36 315.596,1355.95 315.433,1355.56 C 315.269,1355.16 315.056,1354.81 314.789,1354.5 C 314.524,1354.19 314.213,1353.94 313.856,1353.75 C 313.497,1353.55 313.075,1353.46 312.584,1353.46 C 312.093,1353.46 311.624,1353.55 311.175,1353.75 C 310.725,1353.94 310.296,1354.19 309.888,1354.5 C 309.48,1354.81 309.091,1355.16 308.724,1355.56 C 308.356,1355.95 308.019,1356.36 307.712,1356.76 C 306.793,1357.97 306.059,1359.22 305.507,1360.52 C 304.955,1361.81 304.516,1363.12 304.189,1364.45 C 303.843,1365.78 303.623,1367.09 303.531,1368.39 C 303.439,1369.68 303.545,1370.93 303.852,1372.14 C 303.955,1372.55 304.092,1372.95 304.265,1373.33 C 304.44,1373.72 304.655,1374.07 304.909,1374.37 C 305.164,1374.68 305.471,1374.93 305.828,1375.12 C 306.185,1375.32 306.609,1375.41 307.1,1375.41 C 307.591,1375.41 308.06,1375.32 308.509,1375.12 C 308.959,1374.93 309.392,1374.68 309.811,1374.37 C 310.231,1374.07 310.623,1373.72 310.991,1373.33 C 311.359,1372.95 311.696,1372.55 312.001,1372.14 C 312.9,1370.93 313.625,1369.68 314.177,1368.39 C 314.728,1367.09 315.177,1365.78 315.525,1364.45 C 315.852,1363.12 316.061,1361.81 316.153,1360.52 C 316.245,1359.22 316.137,1357.97 315.832,1356.76 Z M 314.116,1357.01 C 314.217,1358.11 314.157,1359.25 313.932,1360.41 C 313.708,1361.58 313.452,1362.77 313.167,1363.98 L 306.763,1363.98 C 307.049,1362.77 307.376,1361.58 307.743,1360.41 C 308.111,1359.25 308.621,1358.11 309.275,1357.01 C 309.745,1356.23 310.231,1355.55 310.731,1354.98 C 311.231,1354.41 311.797,1354.12 312.431,1354.12 C 312.737,1354.12 312.992,1354.2 313.197,1354.35 C 313.401,1354.5 313.564,1354.71 313.687,1354.98 C 313.809,1355.25 313.901,1355.55 313.963,1355.9 C 314.024,1356.25 314.075,1356.62 314.116,1357.01 Z M 312.921,1364.92 C 312.635,1366.13 312.308,1367.31 311.94,1368.46 C 311.573,1369.61 311.063,1370.75 310.409,1371.87 C 309.96,1372.65 309.48,1373.32 308.969,1373.89 C 308.459,1374.47 307.896,1374.75 307.284,1374.75 C 306.977,1374.75 306.717,1374.67 306.503,1374.52 C 306.288,1374.37 306.12,1374.16 305.997,1373.89 C 305.875,1373.63 305.777,1373.32 305.705,1372.97 C 305.635,1372.63 305.588,1372.26 305.568,1371.87 C 305.487,1370.75 305.553,1369.61 305.767,1368.46 C 305.981,1367.31 306.232,1366.13 306.517,1364.92 Z "/>
			<text id="dp_text024" transform="matrix(1,9.4369e-016,-8.88178e-016,1,282.053,1137.28)" xml:space="preserve" fill="#ee0000" font-family="Arial" font-size="31" font-weight="700" x="0" y="0">F </text>
			<text id="dp_text025" transform="matrix(1,9.4369e-016,-8.88178e-016,1,282.053,1137.28)" xml:space="preserve" fill="black" font-family="Arial" font-size="31" font-weight="700" x="27.2067" y="0">=</text>
			<text id="dp_text026" transform="matrix(1,9.4369e-016,-8.88178e-016,1,282.053,1137.28)" xml:space="preserve" fill="#ee0000" font-family="Arial" font-size="31" font-weight="700" x="45.0987" y="0">   </text>
			<text id="dp_text027" transform="matrix(1,9.4369e-016,-8.88178e-016,1,282.053,1137.28)" xml:space="preserve" fill="black" font-family="Arial" font-size="31" font-weight="700" x="70.5907" y="0">( </text>
			<text id="dp_text028" transform="matrix(1,9.4369e-016,-8.88178e-016,1,282.053,1137.28)" xml:space="preserve" fill="#ee0000" font-family="Arial" font-size="31" font-weight="700" x="89.3013" y="0"> </text>
			<text id="dp_text029" transform="matrix(1,9.4369e-016,-8.88178e-016,1,282.053,1137.28)" xml:space="preserve" fill="black" font-family="Times New Roman" font-size="31" font-weight="700" x="97.7987" y="0">×</text>
			<text id="dp_text030" transform="matrix(1,9.4369e-016,-8.88178e-016,1,282.053,1137.28)" xml:space="preserve" fill="#ee0000" font-family="Arial" font-size="31" font-weight="700" x="115.284" y="0"> </text>
			<text id="dp_text031" transform="matrix(1,9.4369e-016,-8.88178e-016,1,282.053,1137.28)" xml:space="preserve" fill="black" font-family="Arial" font-size="31" font-weight="700" x="123.781" y="0">B</text>
			<text id="dp_text032" transform="matrix(1,9.4369e-016,-8.88178e-016,1,282.053,1137.28)" xml:space="preserve" fill="black" font-family="Arial" font-size="31" font-weight="700" x="145.921" y="0">)</text>
			<text id="dp_text033" transform="matrix(1,9.4369e-016,-8.88178e-016,1,282.053,1137.28)" xml:space="preserve" fill="#ee0000" font-family="Arial" font-size="31" font-weight="700" x="156.135" y="0"> </text>
			<g id="dp_group116">
				<path id="dp_path117" fill="white" fill-rule="evenodd" d="M 373.249,1414.56 L 373.928,1438.19 L 379.432,1436.15 L 443.26,1607.68 L 446.512,1606.47 L 382.684,1434.94 L 388.187,1432.89 Z "/>
				<g id="dp_group118">
					<g id="dp_group119">
						<path id="dp_path120" fill="black" d="M 373.609,1438.67 L 379.236,1436.57 L 443.064,1608.11 L 446.94,1606.67 L 383.112,1435.13 L 388.739,1433.04 L 372.888,1413.59 L 373.609,1438.67 L 374.247,1437.72 L 373.611,1415.53 L 387.635,1432.74 L 382.256,1434.74 L 446.084,1606.28 L 443.456,1607.25 L 379.628,1435.72 L 374.247,1437.72 Z "/>
					</g>
				</g>
			</g>
			<path id="dp_path121" fill="#152ad4" fill-rule="evenodd" stroke="#152ad4" stroke-width="1.33333" d="M 482.577,1267.49 L 476.599,1284.85 L 466.169,1275.73 Z "/>
			<path id="dp_path122" fill="#152ad4" fill-rule="evenodd" stroke="#152ad4" stroke-width="1.33333" d="M 332.529,1423.26 L 326.551,1440.62 L 316.121,1431.49 Z "/>
			<path id="dp_path123" fill="#152ad4" fill-rule="evenodd" d="M 351.905,1115.21 C 351.967,1115.09 351.96,1114.99 351.88,1114.91 C 351.801,1114.83 351.685,1114.8 351.529,1114.8 C 347.153,1114.92 342.827,1114.92 338.544,1114.8 C 338.233,1114.8 338.013,1114.93 337.889,1115.21 L 337.795,1115.51 C 337.733,1115.64 337.74,1115.74 337.819,1115.81 C 337.897,1115.89 338.013,1115.93 338.169,1115.93 C 338.984,1115.93 339.764,1115.94 340.515,1115.96 C 341.265,1115.99 341.796,1116.06 342.107,1116.18 C 342.451,1116.3 342.515,1116.66 342.296,1117.24 L 335.873,1137.36 C 335.687,1137.92 335.388,1138.29 334.983,1138.46 C 334.577,1138.58 333.991,1138.65 333.225,1138.66 C 332.46,1138.67 331.685,1138.68 330.905,1138.68 C 330.749,1138.68 330.609,1138.72 330.484,1138.8 C 330.359,1138.89 330.28,1138.99 330.249,1139.11 L 330.155,1139.41 C 330.091,1139.53 330.1,1139.62 330.179,1139.69 C 330.256,1139.77 330.375,1139.81 330.529,1139.81 C 334.903,1139.66 339.233,1139.66 343.512,1139.81 C 343.827,1139.81 344.047,1139.67 344.171,1139.41 L 344.263,1139.11 C 344.357,1138.82 344.232,1138.68 343.888,1138.68 C 343.076,1138.68 342.296,1138.67 341.545,1138.66 C 340.795,1138.65 340.264,1138.58 339.951,1138.46 C 339.639,1138.31 339.575,1137.94 339.764,1137.36 L 346.187,1117.24 C 346.373,1116.66 346.669,1116.3 347.077,1116.18 C 347.483,1116.06 348.068,1115.99 348.835,1115.96 C 349.6,1115.94 350.375,1115.93 351.155,1115.93 C 351.311,1115.93 351.451,1115.89 351.576,1115.81 C 351.701,1115.74 351.78,1115.64 351.811,1115.51 Z "/>
			<path id="dp_path124" fill="#152ad4" fill-rule="evenodd" d="M 517.239,1225.88 C 517.3,1225.75 517.293,1225.65 517.213,1225.58 C 517.135,1225.5 517.019,1225.46 516.863,1225.46 C 512.487,1225.59 508.16,1225.59 503.877,1225.46 C 503.567,1225.46 503.347,1225.6 503.223,1225.88 L 503.128,1226.18 C 503.067,1226.3 503.073,1226.4 503.152,1226.48 C 503.231,1226.56 503.347,1226.59 503.503,1226.59 C 504.317,1226.59 505.097,1226.61 505.848,1226.63 C 506.599,1226.65 507.129,1226.73 507.44,1226.85 C 507.784,1226.97 507.848,1227.32 507.629,1227.91 L 501.207,1248.03 C 501.02,1248.59 500.721,1248.95 500.316,1249.12 C 499.911,1249.25 499.324,1249.31 498.559,1249.33 C 497.793,1249.34 497.019,1249.34 496.239,1249.34 C 496.083,1249.34 495.943,1249.39 495.817,1249.47 C 495.692,1249.56 495.613,1249.66 495.583,1249.78 L 495.488,1250.07 C 495.424,1250.19 495.433,1250.29 495.512,1250.36 C 495.589,1250.43 495.708,1250.47 495.863,1250.47 C 500.236,1250.33 504.567,1250.33 508.845,1250.47 C 509.16,1250.47 509.38,1250.34 509.504,1250.07 L 509.596,1249.78 C 509.691,1249.49 509.565,1249.34 509.221,1249.34 C 508.409,1249.34 507.629,1249.34 506.879,1249.33 C 506.128,1249.31 505.597,1249.25 505.284,1249.12 C 504.972,1248.98 504.908,1248.61 505.097,1248.03 L 511.52,1227.91 C 511.707,1227.32 512.003,1226.97 512.411,1226.85 C 512.816,1226.73 513.401,1226.65 514.168,1226.63 C 514.933,1226.61 515.708,1226.59 516.488,1226.59 C 516.644,1226.59 516.784,1226.56 516.909,1226.48 C 517.035,1226.4 517.113,1226.3 517.144,1226.18 Z "/>
			<g id="dp_group125">
				<path id="dp_path126" fill="white" fill-rule="evenodd" d="M 460.127,1291.43 L 451.599,1309.36 L 457.463,1309.66 L 442.34,1607.17 L 445.805,1607.35 L 460.928,1309.84 L 466.792,1310.13 Z "/>
				<g id="dp_group127">
					<g id="dp_group128">
						<path id="dp_path129" fill="black" d="M 451.084,1309.67 L 457.113,1309.98 L 441.991,1607.49 L 446.12,1607.7 L 461.243,1310.19 L 467.273,1310.49 L 460.171,1290.56 L 451.084,1309.67 L 452.113,1309.06 L 460.083,1292.3 L 466.311,1309.78 L 460.613,1309.49 L 445.491,1607 L 442.689,1606.86 L 457.812,1309.34 L 452.113,1309.06 Z "/>
					</g>
				</g>
			</g>
			<g id="dp_group130">
				<path id="dp_path131" fill="white" fill-rule="evenodd" d="M 460.061,1291.35 L 443.717,1297.41 L 447.957,1301.47 L 380.165,1372.19 L 382.669,1374.59 L 450.461,1303.87 L 454.7,1307.93 Z "/>
				<g id="dp_group132">
					<g id="dp_group133">
						<path id="dp_path134" fill="black" d="M 443.103,1297.28 L 447.487,1301.48 L 379.695,1372.2 L 382.679,1375.06 L 450.471,1304.34 L 454.853,1308.54 L 460.589,1290.8 L 443.103,1297.28 L 444.332,1297.53 L 459.533,1291.9 L 454.547,1307.33 L 450.452,1303.4 L 382.66,1374.12 L 380.636,1372.18 L 448.428,1301.46 L 444.332,1297.53 Z "/>
					</g>
				</g>
			</g>
			<path id="dp_path135" fill="black" fill-rule="evenodd" d="M 416.973,1363.92 C 416.973,1359.81 416.945,1352.53 416.945,1345.22 L 421.159,1345.22 C 421.128,1352.07 420.949,1364.61 421.452,1365.07 C 421.94,1365.52 424.36,1365.22 425.911,1365.23 L 425.931,1367.06 C 424.277,1367.08 421.429,1367.32 419.469,1366.8 C 417.879,1366.38 416.973,1365.39 416.973,1363.92 Z "/>
			<path id="dp_path136" fill="black" fill-rule="evenodd" d="M 366.973,1133.51 C 366.973,1129.4 366.945,1122.12 366.945,1114.81 L 371.159,1114.81 C 371.128,1121.66 370.949,1134.2 371.452,1134.66 C 371.94,1135.11 374.36,1134.81 375.911,1134.82 L 375.931,1136.64 C 374.277,1136.66 371.429,1136.9 369.469,1136.39 C 367.879,1135.97 366.973,1134.98 366.973,1133.51 Z "/>
			<text id="dp_text034" transform="matrix(1,9.4369e-016,-8.88178e-016,1,459.745,1466.24)" xml:space="preserve" fill="black" font-family="Arial" font-size="31" font-weight="700" x="0" y="0">r </text>
			<text id="dp_text035" transform="matrix(1,0,0,1,473.511,1471.24)" xml:space="preserve" fill="black" font-family="Arial" font-size="20" font-weight="400" x="0" y="0">2</text>
			<text id="dp_text036" transform="matrix(1,0,0,1,473.511,1471.24)" xml:space="preserve" fill="black" font-family="Times New Roman" font-size="11" font-weight="400" x="11.3947" y="0"> </text>
			<text id="dp_text037" transform="matrix(1,9.4369e-016,-8.88178e-016,1,382.505,1534.75)" xml:space="preserve" fill="black" font-family="Arial" font-size="31" font-weight="700" x="0" y="0">r </text>
			<text id="dp_text038" transform="matrix(1,0,0,1,396.271,1539.75)" xml:space="preserve" fill="black" font-family="Arial" font-size="20" font-weight="400" x="0" y="0">1</text>
			<text id="dp_text039" transform="matrix(1,0,0,1,396.271,1539.75)" xml:space="preserve" fill="black" font-family="Times New Roman" font-size="11" font-weight="400" x="11.3933" y="0"> </text>
		</g>
		<g id="dp_group143">
			<text id="dp_text040" transform="matrix(1,9.4369e-016,-8.88178e-016,1,33.7194,1135.62)" xml:space="preserve" fill="#ee0000" font-family="Arial" font-size="31" font-weight="700" x="0" y="0">F </text>
			<text id="dp_text041" transform="matrix(1,9.4369e-016,-8.88178e-016,1,33.7194,1135.62)" xml:space="preserve" fill="black" font-family="Arial" font-size="31" font-weight="700" x="27.2067" y="0">=</text>
			<text id="dp_text042" transform="matrix(1,9.4369e-016,-8.88178e-016,1,33.7194,1135.62)" xml:space="preserve" fill="#ee0000" font-family="Arial" font-size="31" font-weight="700" x="45.0987" y="0"> </text>
			<text id="dp_text043" transform="matrix(1,9.4369e-016,-8.88178e-016,1,33.7194,1135.62)" xml:space="preserve" fill="#fad44b" font-family="Arial" font-size="31" font-weight="700" x="53.596" y="0">q</text>
			<text id="dp_text044" transform="matrix(1,9.4369e-016,-8.88178e-016,1,33.7194,1135.62)" xml:space="preserve" fill="#ee0000" font-family="Arial" font-size="31" font-weight="700" x="72.3067" y="0"> </text>
			<text id="dp_text045" transform="matrix(1,9.4369e-016,-8.88178e-016,1,33.7194,1135.62)" xml:space="preserve" fill="black" font-family="Arial" font-size="31" font-weight="700" x="80.804" y="0">(</text>
			<text id="dp_text046" transform="matrix(1,9.4369e-016,-8.88178e-016,1,33.7194,1135.62)" xml:space="preserve" fill="#152ad4" font-family="Arial" font-size="31" font-weight="700" x="91.0173" y="0">v</text>
			<text id="dp_text047" transform="matrix(1,9.4369e-016,-8.88178e-016,1,33.7194,1135.62)" xml:space="preserve" fill="#ee0000" font-family="Arial" font-size="31" font-weight="700" x="108.093" y="0"> </text>
			<text id="dp_text048" transform="matrix(1,9.4369e-016,-8.88178e-016,1,33.7194,1135.62)" xml:space="preserve" fill="black" font-family="Times New Roman" font-size="31" font-weight="700" x="116.591" y="0">×</text>
			<text id="dp_text049" transform="matrix(1,9.4369e-016,-8.88178e-016,1,33.7194,1135.62)" xml:space="preserve" fill="#ee0000" font-family="Arial" font-size="31" font-weight="700" x="134.076" y="0"> </text>
			<text id="dp_text050" transform="matrix(1,9.4369e-016,-8.88178e-016,1,33.7194,1135.62)" xml:space="preserve" fill="black" font-family="Arial" font-size="31" font-weight="700" x="142.573" y="0">B</text>
			<text id="dp_text051" transform="matrix(1,9.4369e-016,-8.88178e-016,1,33.7194,1135.62)" xml:space="preserve" fill="black" font-family="Arial" font-size="31" font-weight="700" x="164.713" y="0">)</text>
			<text id="dp_text052" transform="matrix(1,9.4369e-016,-8.88178e-016,1,33.7194,1135.62)" xml:space="preserve" fill="#ee0000" font-family="Arial" font-size="31" font-weight="700" x="174.927" y="0"> </text>
			<g id="dp_group157">
				<path id="dp_path158" fill="none" fill-rule="evenodd" stroke="black" stroke-width="1.33333" d="M 76.1693,1401.72 L 72.848,1413.24"/>
				<path id="dp_path159" fill="#fad44b" fill-rule="evenodd" stroke="black" stroke-width="1.33333" d="M 89.7413,1354.63 C 102.744,1358.38 110.247,1371.96 106.499,1384.96 C 102.751,1397.97 89.1707,1405.47 76.168,1401.72 C 63.1653,1397.97 55.6627,1384.39 59.4107,1371.39 C 63.1587,1358.39 76.7387,1350.88 89.7413,1354.63 Z "/>
				<path id="dp_path160" fill="none" fill-rule="evenodd" stroke="black" stroke-width="1.33333" d="M 93.0627,1343.11 L 87.8053,1361.35"/>
				<text id="dp_text053" transform="matrix(1,9.4369e-016,-8.88178e-016,1,66.1594,1385.22)" xml:space="preserve" fill="black" font-family="Arial" font-size="24" font-weight="400" font-style="italic" x="0" y="0">+q </text>
			</g>
			<text id="dp_text054" transform="matrix(1,9.4369e-016,-8.88178e-016,1,60.4514,1180.71)" xml:space="preserve" fill="#ee0000" font-family="Arial" font-size="31" font-weight="700" x="0" y="0">F </text>
			<g id="dp_group163">
				<path id="dp_path164" fill="#152ad4" fill-rule="evenodd" d="M 150.304,1308.22 L 135.101,1313.09 L 139.34,1317.15 L 98.9867,1359.25 L 101.492,1361.65 L 141.844,1319.55 L 146.084,1323.62 Z "/>
				<g id="dp_group165">
					<g id="dp_group166">
						<path id="dp_path167" fill="black" d="M 134.467,1312.94 L 138.869,1317.16 L 98.516,1359.25 L 101.501,1362.12 L 141.853,1320.02 L 146.257,1324.24 L 150.788,1307.72 L 134.467,1312.94 L 135.736,1313.23 L 149.82,1308.72 L 145.911,1322.99 L 141.835,1319.08 L 101.483,1361.18 L 99.4573,1359.24 L 139.811,1317.14 L 135.736,1313.23 Z "/>
					</g>
				</g>
			</g>
			<text id="dp_text055" transform="matrix(1,9.4369e-016,-8.88178e-016,1,122.709,1306.85)" xml:space="preserve" fill="#152ad4" font-family="Arial" font-size="31" font-weight="700" x="0" y="0">v </text>
			<g id="dp_group169">
				<path id="dp_path170" fill="black" fill-rule="evenodd" d="M -28.2173,1284.08 L -18.6147,1301.28 L -14.9907,1296.66 L 66.6667,1360.69 L 68.8067,1357.96 L -12.8507,1293.93 L -9.22667,1289.31 Z "/>
				<g id="dp_group171">
					<g id="dp_group172">
						<path id="dp_path173" fill="black" d="M -18.6747,1302.06 L -14.9173,1297.27 L 66.74,1361.29 L 69.4133,1357.88 L -12.244,1293.86 L -8.48533,1289.06 L -29.0987,1283.39 L -18.6747,1302.06 L -18.5547,1300.5 L -27.336,1284.77 L -9.968,1289.55 L -13.4573,1294 L 68.2,1358.03 L 66.5933,1360.08 L -15.064,1296.05 L -18.5547,1300.5 Z "/>
					</g>
				</g>
			</g>
			<text id="dp_text056" transform="matrix(1,0,0,1,-41.1253,1278.54)" xml:space="preserve" fill="black" font-family="Arial" font-size="31" font-weight="700" x="0" y="0">B</text>
			<text id="dp_text057" transform="matrix(1,0,0,1,-41.1253,1278.54)" xml:space="preserve" fill="black" font-family="Times New Roman" font-size="16" font-weight="400" x="22.14" y="0"> </text>
			<g id="dp_group176">
				<g id="dp_group177">
					<path id="dp_path178" fill="black" fill-rule="evenodd" d="M 48.4747,1333.87 L 47.6333,1332.84 L 45.9493,1330.77 L 42.8827,1337.56 L 50.1573,1335.94 Z "/>
					<path id="dp_path179" fill="black" d="M 119.86,1339.11 L 119.304,1338.6 L 118.745,1338.11 L 118.184,1337.61 L 117.623,1337.13 L 117.061,1336.65 L 116.497,1336.18 L 115.933,1335.71 L 115.369,1335.25 L 114.803,1334.8 L 114.236,1334.36 L 113.669,1333.92 L 113.101,1333.48 L 112.531,1333.06 L 111.96,1332.64 L 111.388,1332.23 L 110.816,1331.82 L 110.241,1331.42 L 109.668,1331.03 L 109.093,1330.65 L 108.516,1330.27 L 107.939,1329.9 L 107.361,1329.53 L 106.781,1329.18 L 106.203,1328.83 L 105.62,1328.48 L 105.039,1328.15 L 104.457,1327.82 L 103.875,1327.5 L 103.289,1327.18 L 102.705,1326.88 L 102.119,1326.58 L 101.531,1326.28 L 100.943,1326 L 100.355,1325.72 L 99.7653,1325.45 L 99.176,1325.19 L 98.584,1324.93 L 97.992,1324.69 L 97.4,1324.45 L 96.8067,1324.21 L 96.212,1323.99 L 95.616,1323.77 L 95.0213,1323.56 L 94.424,1323.36 L 93.8253,1323.16 L 93.2267,1322.98 L 92.6293,1322.8 L 92.028,1322.63 L 91.428,1322.46 L 90.828,1322.31 L 90.2253,1322.16 L 89.6227,1322.02 L 89.0173,1321.89 L 88.416,1321.77 L 87.8107,1321.65 L 87.204,1321.55 L 86.5987,1321.45 L 85.9907,1321.35 L 85.384,1321.27 L 84.776,1321.2 L 84.1667,1321.13 L 83.556,1321.07 L 82.948,1321.03 L 82.336,1320.98 L 81.7253,1320.95 L 81.1133,1320.93 L 80.5,1320.91 L 79.8867,1320.9 L 79.2747,1320.91 L 78.66,1320.91 L 78.0453,1320.93 L 77.4307,1320.96 L 76.8147,1321 L 76.1987,1321.04 L 75.5827,1321.09 L 74.9653,1321.15 L 74.3467,1321.22 L 73.728,1321.3 L 73.1107,1321.39 L 72.492,1321.49 L 71.872,1321.59 L 71.252,1321.71 L 70.6333,1321.83 L 70.012,1321.96 L 69.3907,1322.11 L 68.7693,1322.26 L 68.148,1322.42 L 67.5253,1322.59 L 66.9027,1322.76 L 66.28,1322.95 L 65.656,1323.15 L 65.0333,1323.35 L 64.4093,1323.57 L 63.7853,1323.79 L 63.1613,1324.02 L 62.5373,1324.26 L 61.912,1324.51 L 61.2867,1324.77 L 60.6627,1325.05 L 60.036,1325.32 L 59.4093,1325.61 L 58.784,1325.91 L 58.1573,1326.22 L 57.5307,1326.54 L 56.904,1326.86 L 56.2773,1327.2 L 55.6507,1327.54 L 55.0213,1327.9 L 54.396,1328.27 L 53.7667,1328.64 L 53.1387,1329.02 L 52.5107,1329.42 L 51.8827,1329.82 L 51.2547,1330.23 L 50.6253,1330.66 L 49.9973,1331.09 L 49.3667,1331.53 L 48.7387,1331.99 L 48.0987,1332.46 L 47.632,1332.84 L 48.4747,1333.87 L 48.9147,1333.51 L 49.5227,1333.06 L 50.14,1332.62 L 50.7573,1332.18 L 51.3747,1331.76 L 51.9907,1331.34 L 52.608,1330.94 L 53.2253,1330.54 L 53.84,1330.15 L 54.4547,1329.78 L 55.0707,1329.41 L 55.6853,1329.05 L 56.2987,1328.71 L 56.912,1328.37 L 57.5253,1328.04 L 58.1387,1327.72 L 58.752,1327.41 L 59.3627,1327.11 L 59.9747,1326.82 L 60.5853,1326.54 L 61.196,1326.26 L 61.8067,1326 L 62.416,1325.75 L 63.0253,1325.5 L 63.6333,1325.27 L 64.2413,1325.04 L 64.8493,1324.82 L 65.4573,1324.61 L 66.064,1324.41 L 66.6693,1324.22 L 67.276,1324.04 L 67.88,1323.87 L 68.4867,1323.7 L 69.0893,1323.55 L 69.6947,1323.4 L 70.2973,1323.27 L 70.9,1323.14 L 71.5027,1323.02 L 72.104,1322.91 L 72.7053,1322.8 L 73.3053,1322.71 L 73.9067,1322.62 L 74.5067,1322.55 L 75.104,1322.48 L 75.7027,1322.42 L 76.3027,1322.37 L 76.9,1322.32 L 77.4973,1322.29 L 78.0933,1322.26 L 78.6893,1322.25 L 79.2853,1322.24 L 79.8813,1322.24 L 80.476,1322.24 L 81.0707,1322.26 L 81.664,1322.28 L 82.256,1322.31 L 82.8493,1322.35 L 83.4413,1322.4 L 84.0333,1322.46 L 84.624,1322.52 L 85.2133,1322.59 L 85.804,1322.67 L 86.3933,1322.76 L 86.9827,1322.86 L 87.5707,1322.96 L 88.1573,1323.07 L 88.7453,1323.19 L 89.332,1323.32 L 89.9187,1323.46 L 90.5027,1323.6 L 91.0893,1323.75 L 91.6733,1323.91 L 92.256,1324.08 L 92.84,1324.25 L 93.4227,1324.43 L 94.0053,1324.62 L 94.5867,1324.82 L 95.168,1325.02 L 95.748,1325.23 L 96.3267,1325.45 L 96.9067,1325.68 L 97.4853,1325.92 L 98.064,1326.16 L 98.64,1326.41 L 99.2187,1326.67 L 99.7947,1326.93 L 100.369,1327.2 L 100.944,1327.48 L 101.519,1327.77 L 102.092,1328.06 L 102.665,1328.36 L 103.237,1328.67 L 103.809,1328.98 L 104.38,1329.31 L 104.951,1329.63 L 105.52,1329.97 L 106.088,1330.31 L 106.657,1330.66 L 107.224,1331.02 L 107.791,1331.39 L 108.357,1331.76 L 108.921,1332.13 L 109.487,1332.52 L 110.051,1332.91 L 110.615,1333.31 L 111.176,1333.72 L 111.739,1334.13 L 112.299,1334.55 L 112.859,1334.97 L 113.417,1335.41 L 113.976,1335.85 L 114.535,1336.29 L 115.091,1336.74 L 115.647,1337.2 L 116.203,1337.67 L 116.756,1338.14 L 117.309,1338.62 L 117.863,1339.1 L 118.413,1339.6 L 118.967,1340.1 Z "/>
				</g>
			</g>
			<g id="dp_group180">
				<path id="dp_path181" fill="#ee0000" fill-rule="evenodd" d="M 81.048,1177.49 L 66.1587,1212.89 L 77.6533,1212.89 L 77.6533,1359.96 L 84.4427,1359.96 L 84.4427,1212.89 L 95.9373,1212.89 Z "/>
				<g id="dp_group182">
					<g id="dp_group183">
						<path id="dp_path184" fill="black" d="M 65.3027,1213.46 L 77.0853,1213.46 L 77.0853,1360.53 L 85.0107,1360.53 L 85.0107,1213.46 L 96.7933,1213.46 L 81.048,1176.02 L 65.3027,1213.46 L 67.0147,1212.32 L 81.048,1178.96 L 95.0813,1212.32 L 83.8747,1212.32 L 83.8747,1359.39 L 78.2213,1359.39 L 78.2213,1212.32 L 67.0147,1212.32 Z "/>
					</g>
				</g>
			</g>
			<path id="dp_path185" fill="black" fill-rule="evenodd" d="M 34.6547,1343.82 C 34.552,1343.41 34.4187,1343.01 34.256,1342.61 C 34.092,1342.22 33.8787,1341.86 33.612,1341.56 C 33.3467,1341.25 33.036,1341 32.6787,1340.81 C 32.32,1340.61 31.8973,1340.52 31.4067,1340.52 C 30.916,1340.52 30.4467,1340.61 29.9973,1340.81 C 29.548,1341 29.1187,1341.25 28.7107,1341.56 C 28.3027,1341.86 27.9133,1342.22 27.5467,1342.61 C 27.1787,1343.01 26.8413,1343.41 26.5347,1343.82 C 25.616,1345.03 24.8813,1346.28 24.3293,1347.58 C 23.7773,1348.87 23.3387,1350.18 23.012,1351.51 C 22.6653,1352.84 22.4453,1354.15 22.3533,1355.44 C 22.2613,1356.74 22.368,1357.99 22.6747,1359.2 C 22.7773,1359.61 22.9147,1360 23.088,1360.39 C 23.2627,1360.78 23.4773,1361.13 23.732,1361.43 C 23.9867,1361.74 24.2933,1361.99 24.6507,1362.18 C 25.008,1362.38 25.432,1362.47 25.9227,1362.47 C 26.4133,1362.47 26.8827,1362.38 27.332,1362.18 C 27.7813,1361.99 28.2147,1361.74 28.6333,1361.43 C 29.0533,1361.13 29.4453,1360.78 29.8133,1360.39 C 30.1813,1360 30.5187,1359.61 30.824,1359.2 C 31.7227,1357.99 32.448,1356.74 33,1355.44 C 33.5507,1354.15 34,1352.84 34.348,1351.51 C 34.6747,1350.18 34.884,1348.87 34.976,1347.58 C 35.068,1346.28 34.96,1345.03 34.6547,1343.82 Z M 32.9387,1344.07 C 33.04,1345.17 32.98,1346.31 32.7547,1347.47 C 32.5307,1348.64 32.2747,1349.83 31.9893,1351.03 L 25.5853,1351.03 C 25.872,1349.83 26.1987,1348.64 26.5653,1347.47 C 26.9333,1346.31 27.444,1345.17 28.0973,1344.07 C 28.568,1343.29 29.0533,1342.61 29.5533,1342.04 C 30.0533,1341.47 30.62,1341.18 31.2533,1341.18 C 31.56,1341.18 31.8147,1341.26 32.02,1341.41 C 32.224,1341.56 32.3867,1341.77 32.5093,1342.04 C 32.632,1342.31 32.724,1342.61 32.7853,1342.96 C 32.8467,1343.31 32.8973,1343.68 32.9387,1344.07 Z M 31.744,1351.98 C 31.4573,1353.19 31.1307,1354.36 30.7627,1355.52 C 30.396,1356.67 29.8853,1357.81 29.232,1358.93 C 28.7827,1359.71 28.3027,1360.38 27.792,1360.95 C 27.2813,1361.52 26.7187,1361.81 26.1067,1361.81 C 25.8,1361.81 25.54,1361.73 25.3253,1361.58 C 25.1107,1361.43 24.9427,1361.22 24.82,1360.95 C 24.6973,1360.69 24.6,1360.38 24.528,1360.03 C 24.4573,1359.69 24.4107,1359.32 24.3907,1358.93 C 24.3093,1357.81 24.376,1356.67 24.5893,1355.52 C 24.804,1354.36 25.0547,1353.19 25.34,1351.98 Z "/>
		</g>
		<path id="dp_path186" fill="none" fill-rule="evenodd" stroke="#152ad4" stroke-width="1.33333" d="M 530.099,451.805 L 436.432,548.945"/>
		<path id="dp_path187" fill="none" fill-rule="evenodd" stroke="#152ad4" stroke-width="1.33333" d="M 565.764,475.78 L 453.148,592.76"/>
		<path id="dp_path188" fill="none" fill-rule="evenodd" stroke="#152ad4" stroke-width="1.33333" d="M 607.771,521.831 L 514.104,618.971"/>
		<path id="dp_path189" fill="#02b04b" fill-rule="evenodd" fill-opacity="0.760784" stroke="black" stroke-width="1.33333" d="M 505.336,538.599 C 542.945,571.2 559.756,613.407 542.885,632.871 C 526.015,652.333 481.848,641.683 444.239,609.081 C 406.629,576.481 389.819,534.273 406.689,514.811 C 423.56,495.348 467.727,505.999 505.336,538.599 Z "/>
		<path id="dp_path190" fill="none" fill-rule="evenodd" stroke="black" stroke-width="0.666667" d="M 224.967,849.799 L 232.655,856.805 L 224.175,865.98"/>
		<g id="dp_group191">
			<path id="dp_path192" fill="white" fill-rule="evenodd" d="M 265.168,805.78 L 249.965,810.648 L 254.204,814.711 L 213.851,856.805 L 216.356,859.207 L 256.708,817.112 L 260.948,821.176 Z "/>
			<g id="dp_group193">
				<g id="dp_group194">
					<path id="dp_path195" fill="black" d="M 249.331,810.501 L 253.733,814.72 L 213.38,856.815 L 216.365,859.677 L 256.717,817.583 L 261.121,821.804 L 265.652,805.276 L 249.331,810.501 L 250.6,810.795 L 264.684,806.284 L 260.775,820.548 L 256.699,816.641 L 216.347,858.736 L 214.321,856.796 L 254.675,814.701 L 250.6,810.795 Z "/>
				</g>
			</g>
		</g>
		<path id="dp_path196" fill="none" fill-rule="evenodd" stroke="black" stroke-width="1.33333" d="M 128.121,524.353 C 224.119,614.351 503.96,825.72 627.461,904.025"/>
		<path id="dp_path197" fill="none" fill-rule="evenodd" stroke="black" stroke-width="1.33333" d="M 137.536,796.028 L 407.535,515.028"/>
		<path id="dp_path198" fill="none" fill-rule="evenodd" stroke="black" stroke-width="1.33333" d="M 273.732,914.089 L 543.732,631.58"/>
		<path id="dp_path199" fill="none" fill-rule="evenodd" stroke="#152ad4" stroke-width="1.33333" d="M 181.037,814.711 L 439.437,545.887"/>
		<path id="dp_path200" fill="none" fill-rule="evenodd" stroke="#152ad4" stroke-width="1.33333" d="M 254.204,889.355 L 514.104,618.971"/>
		<path id="dp_path201" fill="none" fill-rule="evenodd" stroke="#152ad4" stroke-width="1.33333" d="M 207.531,848.347 L 455.437,590.48"/>
		<path id="dp_path202" fill="#152ad4" fill-rule="evenodd" stroke="#152ad4" stroke-width="1.33333" d="M 351.277,698.729 L 345.299,716.087 L 334.869,706.963 Z "/>
		<path id="dp_path203" fill="#152ad4" fill-rule="evenodd" stroke="#152ad4" stroke-width="1.33333" d="M 368.324,620.301 L 362.345,637.659 L 351.916,628.535 Z "/>
		<path id="dp_path204" fill="#152ad4" fill-rule="evenodd" stroke="#152ad4" stroke-width="1.33333" d="M 338.119,802.087 L 332.14,819.444 L 321.711,810.32 Z "/>
		<path id="dp_path205" fill="#152ad4" fill-rule="evenodd" stroke="#152ad4" stroke-width="1.33333" d="M 531.429,510.667 L 525.451,528.024 L 515.021,518.9 Z "/>
		<path id="dp_path206" fill="#152ad4" fill-rule="evenodd" stroke="#152ad4" stroke-width="1.33333" d="M 504.401,477.664 L 498.423,495.021 L 487.993,485.897 Z "/>
		<path id="dp_path207" fill="#152ad4" fill-rule="evenodd" stroke="#152ad4" stroke-width="1.33333" d="M 575.679,555.164 L 569.7,572.521 L 559.271,563.397 Z "/>
		<path id="dp_path208" fill="#152ad4" fill-rule="evenodd" stroke="#152ad4" stroke-width="1.33333" d="M 156.057,901.268 L 150.079,918.625 L 139.649,909.501 Z "/>
		<path id="dp_path209" fill="#152ad4" fill-rule="evenodd" stroke="#152ad4" stroke-width="1.33333" d="M 130.457,866.468 L 124.479,883.825 L 114.049,874.701 Z "/>
		<path id="dp_path210" fill="#152ad4" fill-rule="evenodd" stroke="#152ad4" stroke-width="1.33333" d="M 201.657,943.268 L 195.679,960.625 L 185.249,951.501 Z "/>
		<g id="dp_group211">
			<path id="dp_path212" fill="none" fill-rule="evenodd" stroke="black" stroke-width="1.33333" d="M 254.075,755.241 L 250.753,766.761"/>
			<path id="dp_path213" fill="#fad44b" fill-rule="evenodd" stroke="black" stroke-width="1.33333" d="M 267.647,708.155 C 280.649,711.903 288.152,725.483 284.404,738.485 C 280.656,751.488 267.076,758.991 254.073,755.243 C 241.071,751.495 233.568,737.915 237.316,724.912 C 241.064,711.909 254.644,704.407 267.647,708.155 Z "/>
			<path id="dp_path214" fill="none" fill-rule="evenodd" stroke="black" stroke-width="1.33333" d="M 270.968,696.636 L 265.711,714.876"/>
			<text id="dp_text058" transform="matrix(1,9.4369e-016,-8.88178e-016,1,244.065,738.746)" xml:space="preserve" fill="black" font-family="Arial" font-size="24" font-weight="400" font-style="italic" x="0" y="0">+q </text>
		</g>
		<path id="dp_path216" fill="none" fill-rule="evenodd" stroke="black" stroke-width="1.33333" d="M 208.083,472.869 C 306.589,590.787 481.216,722.137 673.755,826.621"/>
		<path id="dp_path217" fill="none" fill-rule="evenodd" stroke="black" stroke-width="1.33333" d="M 161.068,505.539 C 287.933,617.485 483.455,775.703 626.74,859.291"/>
		<path id="dp_path218" fill="none" fill-rule="evenodd" stroke="black" stroke-width="1.33333" d="M 569.819,920.917 C 444.447,813.448 260.865,670.157 104.147,567.165"/>
		<path id="dp_path219" fill="black" fill-rule="evenodd" stroke="black" stroke-width="1.33333" d="M 201.256,633.567 L 219.068,638.008 L 210.891,649.193 Z "/>
		<path id="dp_path220" fill="black" fill-rule="evenodd" stroke="black" stroke-width="1.33333" d="M 208.456,546.748 L 225.883,552.52 L 216.884,563.056 Z "/>
		<path id="dp_path221" fill="black" fill-rule="evenodd" stroke="black" stroke-width="1.33333" d="M 553.937,756.724 L 572.117,759.261 L 565.165,771.247 Z "/>
		<text id="dp_text059" transform="matrix(1,9.4369e-016,-8.88178e-016,1,238.357,534.236)" xml:space="preserve" fill="#ee0000" font-family="Arial" font-size="31" font-weight="700" x="0" y="0">F </text>
		<text id="dp_text060" transform="matrix(1,9.4369e-016,-8.88178e-016,1,595.897,966.781)" xml:space="preserve" fill="black" font-family="Arial" font-size="31" font-weight="400" x="0" y="0">magnetic  </text>
		<text id="dp_text061" transform="matrix(1,9.4369e-016,-8.88178e-016,1,595.897,966.781)" xml:space="preserve" fill="black" font-family="Arial" font-size="31" font-weight="400" x="0" y="35.1307">field </text>
		<text id="dp_text062" transform="matrix(1,9.4369e-016,-8.88178e-016,1,595.897,966.781)" xml:space="preserve" fill="black" font-family="Arial" font-size="31" font-weight="700" x="64.704" y="35.1307">B </text>
		<text id="dp_text063" transform="matrix(1,9.4369e-016,-8.88178e-016,1,0.972759,994.116)" xml:space="preserve" fill="black" font-family="Arial" font-size="31" font-weight="400" x="0" y="0">current</text>
		<text id="dp_text064" transform="matrix(1,9.4369e-016,-8.88178e-016,1,0.972759,994.116)" xml:space="preserve" fill="black" font-family="Arial" font-size="31" font-weight="700" font-style="italic" x="95.5093" y="0"> </text>
		<path id="dp_path228" fill="#152ad4" fill-rule="evenodd" d="M 132.564,970.217 C 132.625,970.093 132.619,969.992 132.539,969.916 C 132.46,969.84 132.344,969.803 132.188,969.803 C 127.812,969.925 123.485,969.925 119.203,969.803 C 118.892,969.803 118.672,969.94 118.548,970.217 L 118.453,970.516 C 118.392,970.641 118.399,970.743 118.477,970.819 C 118.556,970.895 118.672,970.932 118.828,970.932 C 119.643,970.932 120.423,970.944 121.173,970.968 C 121.924,970.992 122.455,971.065 122.765,971.188 C 123.109,971.309 123.173,971.663 122.955,972.249 L 116.532,992.364 C 116.345,992.925 116.047,993.292 115.641,993.463 C 115.236,993.584 114.649,993.652 113.884,993.664 C 113.119,993.676 112.344,993.681 111.564,993.681 C 111.408,993.681 111.268,993.724 111.143,993.809 C 111.017,993.896 110.939,993.996 110.908,994.117 L 110.813,994.411 C 110.749,994.533 110.759,994.627 110.837,994.7 C 110.915,994.773 111.033,994.811 111.188,994.811 C 115.561,994.664 119.892,994.664 124.171,994.811 C 124.485,994.811 124.705,994.676 124.829,994.411 L 124.921,994.117 C 125.016,993.828 124.891,993.681 124.547,993.681 C 123.735,993.681 122.955,993.676 122.204,993.664 C 121.453,993.652 120.923,993.584 120.609,993.463 C 120.297,993.316 120.233,992.949 120.423,992.364 L 126.845,972.249 C 127.032,971.663 127.328,971.309 127.736,971.188 C 128.141,971.065 128.727,970.992 129.493,970.968 C 130.259,970.944 131.033,970.932 131.813,970.932 C 131.969,970.932 132.109,970.895 132.235,970.819 C 132.36,970.743 132.439,970.641 132.469,970.516 Z "/>
		<text id="dp_text065" transform="matrix(1,9.4369e-016,-8.88178e-016,1,231.931,1020.54)" xml:space="preserve" fill="black" font-family="Arial" font-size="31" font-weight="400" x="0" y="0">area </text>
		<text id="dp_text066" transform="matrix(1,9.4369e-016,-8.88178e-016,1,231.931,1020.54)" xml:space="preserve" fill="#21d26d" font-family="Arial" font-size="31" font-weight="700" x="69.9333" y="0">A </text>
		<g id="dp_group231">
			<g id="dp_group232">
				<path id="dp_path233" fill="#21d26d" fill-rule="evenodd" d="M 253.172,928.237 L 255.157,927.796 L 259.567,928.899 L 252.621,921.069 L 249.644,931.104 Z "/>
				<path id="dp_path234" fill="#21d26d" d="M 253.173,928.236 L 266.928,990.117 L 268.912,989.677 L 255.157,927.796 Z "/>
			</g>
		</g>
		<g id="dp_group235">
			<path id="dp_path236" fill="#152ad4" fill-rule="evenodd" d="M 328.209,661.743 L 313.007,666.611 L 317.245,670.673 L 276.892,712.768 L 279.397,715.169 L 319.749,673.075 L 323.989,677.139 Z "/>
			<g id="dp_group237">
				<g id="dp_group238">
					<path id="dp_path239" fill="black" d="M 312.372,666.464 L 316.775,670.683 L 276.421,712.777 L 279.407,715.64 L 319.759,673.545 L 324.163,677.767 L 328.693,661.239 L 312.372,666.464 L 313.641,666.757 L 327.725,662.247 L 323.816,676.511 L 319.74,672.604 L 279.388,714.699 L 277.363,712.759 L 317.716,670.664 L 313.641,666.757 Z "/>
				</g>
			</g>
		</g>
		<text id="dp_text067" transform="matrix(1,9.4369e-016,-8.88178e-016,1,300.614,660.369)" xml:space="preserve" fill="#152ad4" font-family="Arial" font-size="31" font-weight="700" x="0" y="0">v </text>
		<g id="dp_group241">
			<path id="dp_path242" fill="white" fill-rule="evenodd" d="M 271.283,753.028 L 271.961,776.665 L 277.465,774.617 L 341.293,946.153 L 344.545,944.944 L 280.717,773.408 L 286.22,771.36 Z "/>
			<g id="dp_group243">
				<g id="dp_group244">
					<path id="dp_path245" fill="black" d="M 271.643,777.14 L 277.269,775.045 L 341.097,946.581 L 344.973,945.14 L 281.145,773.604 L 286.772,771.509 L 270.921,752.057 L 271.643,777.14 L 272.28,776.191 L 271.644,753.999 L 285.668,771.211 L 280.289,773.212 L 344.117,944.748 L 341.489,945.725 L 277.661,774.189 L 272.28,776.191 Z "/>
				</g>
			</g>
		</g>
		<text id="dp_text068" transform="matrix(1,9.4369e-016,-8.88178e-016,1,329.365,895.589)" xml:space="preserve" fill="black" font-family="Arial" font-size="31" font-weight="700" x="0" y="0">r </text>
		<path id="dp_path247" fill="black" fill-rule="evenodd" stroke="black" stroke-width="1.33333" d="M 445.76,869.784 L 462.125,878.1 L 451.651,887.171 Z "/>
		<path id="dp_path248" fill="black" fill-rule="evenodd" stroke="black" stroke-width="1.33333" d="M 498.591,815.543 L 516.109,821.029 L 507.284,831.712 Z "/>
		<g id="dp_group249">
			<path id="dp_path250" fill="black" fill-rule="evenodd" d="M 149.688,637.607 L 159.291,654.803 L 162.915,650.183 L 244.572,714.209 L 246.712,711.48 L 165.055,647.452 L 168.679,642.831 Z "/>
			<g id="dp_group251">
				<g id="dp_group252">
					<path id="dp_path253" fill="black" d="M 159.231,655.581 L 162.988,650.789 L 244.645,714.816 L 247.319,711.407 L 165.661,647.379 L 169.42,642.587 L 148.807,636.916 L 159.231,655.581 L 159.351,654.024 L 150.569,638.297 L 167.937,643.075 L 164.448,647.525 L 246.105,711.553 L 244.499,713.603 L 162.841,649.576 L 159.351,654.024 Z "/>
				</g>
			</g>
		</g>
		<text id="dp_text069" transform="matrix(1,0,0,1,136.78,632.067)" xml:space="preserve" fill="black" font-family="Arial" font-size="31" font-weight="700" x="0" y="0">B</text>
		<text id="dp_text070" transform="matrix(1,0,0,1,136.78,632.067)" xml:space="preserve" fill="black" font-family="Times New Roman" font-size="16" font-weight="400" x="22.14" y="0"> </text>
		<g id="dp_group256">
			<g id="dp_group257">
				<path id="dp_path258" fill="black" fill-rule="evenodd" d="M 226.38,687.393 L 225.539,686.359 L 223.855,684.291 L 220.788,691.084 L 228.063,689.461 Z "/>
				<path id="dp_path259" fill="black" d="M 297.765,692.629 L 297.209,692.127 L 296.651,691.629 L 296.089,691.137 L 295.528,690.653 L 294.967,690.175 L 294.403,689.701 L 293.839,689.237 L 293.275,688.777 L 292.708,688.325 L 292.141,687.879 L 291.575,687.44 L 291.007,687.007 L 290.436,686.581 L 289.865,686.163 L 289.293,685.751 L 288.721,685.344 L 288.147,684.947 L 287.573,684.553 L 286.999,684.169 L 286.421,683.791 L 285.844,683.42 L 285.267,683.056 L 284.687,682.7 L 284.108,682.349 L 283.525,682.007 L 282.944,681.671 L 282.363,681.343 L 281.78,681.02 L 281.195,680.707 L 280.611,680.4 L 280.024,680.099 L 279.436,679.807 L 278.848,679.521 L 278.26,679.244 L 277.671,678.975 L 277.081,678.712 L 276.489,678.455 L 275.897,678.208 L 275.305,677.968 L 274.712,677.735 L 274.117,677.509 L 273.521,677.292 L 272.927,677.083 L 272.329,676.88 L 271.731,676.685 L 271.132,676.499 L 270.535,676.321 L 269.933,676.149 L 269.333,675.987 L 268.733,675.832 L 268.131,675.684 L 267.528,675.545 L 266.923,675.413 L 266.321,675.291 L 265.716,675.175 L 265.109,675.068 L 264.504,674.968 L 263.896,674.877 L 263.289,674.796 L 262.681,674.721 L 262.072,674.655 L 261.461,674.597 L 260.853,674.548 L 260.241,674.507 L 259.631,674.473 L 259.019,674.451 L 258.405,674.435 L 257.792,674.425 L 257.18,674.428 L 256.565,674.437 L 255.951,674.456 L 255.336,674.483 L 254.72,674.519 L 254.104,674.563 L 253.488,674.616 L 252.871,674.676 L 252.252,674.747 L 251.633,674.827 L 251.016,674.915 L 250.397,675.011 L 249.777,675.117 L 249.157,675.231 L 248.539,675.356 L 247.917,675.487 L 247.296,675.629 L 246.675,675.779 L 246.053,675.939 L 245.431,676.108 L 244.808,676.285 L 244.185,676.471 L 243.561,676.668 L 242.939,676.873 L 242.315,677.088 L 241.691,677.311 L 241.067,677.543 L 240.443,677.787 L 239.817,678.037 L 239.192,678.297 L 238.568,678.568 L 237.941,678.847 L 237.315,679.136 L 236.689,679.433 L 236.063,679.741 L 235.436,680.059 L 234.809,680.385 L 234.183,680.721 L 233.556,681.067 L 232.927,681.423 L 232.301,681.788 L 231.672,682.161 L 231.044,682.547 L 230.416,682.941 L 229.788,683.344 L 229.16,683.757 L 228.531,684.18 L 227.903,684.613 L 227.272,685.056 L 226.644,685.509 L 226.004,685.98 L 225.537,686.359 L 226.38,687.393 L 226.82,687.033 L 227.428,686.587 L 228.045,686.141 L 228.663,685.707 L 229.28,685.281 L 229.896,684.867 L 230.513,684.461 L 231.131,684.064 L 231.745,683.677 L 232.36,683.303 L 232.976,682.935 L 233.591,682.577 L 234.204,682.229 L 234.817,681.892 L 235.431,681.561 L 236.044,681.243 L 236.657,680.933 L 237.268,680.633 L 237.88,680.341 L 238.491,680.06 L 239.101,679.787 L 239.712,679.524 L 240.321,679.269 L 240.931,679.024 L 241.539,678.788 L 242.147,678.561 L 242.755,678.344 L 243.363,678.135 L 243.969,677.935 L 244.575,677.745 L 245.181,677.563 L 245.785,677.391 L 246.392,677.227 L 246.995,677.072 L 247.6,676.925 L 248.203,676.788 L 248.805,676.66 L 249.408,676.54 L 250.009,676.429 L 250.611,676.325 L 251.211,676.232 L 251.812,676.147 L 252.412,676.069 L 253.009,676.001 L 253.608,675.941 L 254.208,675.891 L 254.805,675.847 L 255.403,675.813 L 255.999,675.787 L 256.595,675.768 L 257.191,675.759 L 257.787,675.759 L 258.381,675.765 L 258.976,675.781 L 259.569,675.804 L 260.161,675.837 L 260.755,675.876 L 261.347,675.925 L 261.939,675.98 L 262.529,676.044 L 263.119,676.116 L 263.709,676.197 L 264.299,676.285 L 264.888,676.38 L 265.476,676.484 L 266.063,676.597 L 266.651,676.717 L 267.237,676.844 L 267.824,676.98 L 268.408,677.123 L 268.995,677.275 L 269.579,677.432 L 270.161,677.599 L 270.745,677.773 L 271.328,677.955 L 271.911,678.144 L 272.492,678.341 L 273.073,678.545 L 273.653,678.757 L 274.232,678.977 L 274.812,679.205 L 275.391,679.44 L 275.969,679.681 L 276.545,679.931 L 277.124,680.188 L 277.7,680.452 L 278.275,680.724 L 278.849,681.001 L 279.424,681.288 L 279.997,681.581 L 280.571,681.883 L 281.143,682.191 L 281.715,682.505 L 282.285,682.828 L 282.856,683.156 L 283.425,683.493 L 283.993,683.836 L 284.563,684.187 L 285.129,684.543 L 285.696,684.908 L 286.263,685.279 L 286.827,685.657 L 287.392,686.043 L 287.956,686.435 L 288.52,686.833 L 289.081,687.24 L 289.644,687.651 L 290.204,688.071 L 290.764,688.496 L 291.323,688.929 L 291.881,689.368 L 292.44,689.815 L 292.996,690.267 L 293.552,690.725 L 294.108,691.191 L 294.661,691.664 L 295.215,692.143 L 295.768,692.627 L 296.319,693.119 L 296.872,693.619 Z "/>
			</g>
		</g>
		<g id="dp_group260">
			<path id="dp_path261" fill="#ee0000" fill-rule="evenodd" d="M 258.953,531.013 L 244.064,566.412 L 255.559,566.412 L 255.559,713.484 L 262.348,713.484 L 262.348,566.412 L 273.843,566.412 Z "/>
			<g id="dp_group262">
				<g id="dp_group263">
					<path id="dp_path264" fill="black" d="M 243.208,566.98 L 254.991,566.98 L 254.991,714.052 L 262.916,714.052 L 262.916,566.98 L 274.699,566.98 L 258.953,529.547 L 243.208,566.98 L 244.92,565.844 L 258.953,532.48 L 272.987,565.844 L 261.78,565.844 L 261.78,712.916 L 256.127,712.916 L 256.127,565.844 L 244.92,565.844 Z "/>
				</g>
			</g>
		</g>
		<path id="dp_path265" fill="black" fill-rule="evenodd" d="M 212.56,697.345 C 212.457,696.937 212.324,696.533 212.161,696.137 C 211.997,695.74 211.784,695.387 211.517,695.081 C 211.252,694.775 210.941,694.524 210.584,694.331 C 210.225,694.136 209.803,694.039 209.312,694.039 C 208.821,694.039 208.352,694.136 207.903,694.331 C 207.453,694.524 207.024,694.775 206.616,695.081 C 206.208,695.387 205.819,695.74 205.452,696.137 C 205.084,696.533 204.747,696.937 204.44,697.345 C 203.521,698.551 202.787,699.801 202.235,701.099 C 201.683,702.396 201.244,703.705 200.917,705.033 C 200.571,706.36 200.351,707.672 200.259,708.967 C 200.167,710.264 200.273,711.515 200.58,712.72 C 200.683,713.128 200.82,713.527 200.993,713.912 C 201.168,714.3 201.383,714.648 201.637,714.955 C 201.892,715.26 202.199,715.511 202.556,715.705 C 202.913,715.899 203.337,715.996 203.828,715.996 C 204.319,715.996 204.788,715.899 205.237,715.705 C 205.687,715.511 206.12,715.26 206.539,714.955 C 206.959,714.648 207.351,714.3 207.719,713.912 C 208.087,713.527 208.424,713.128 208.729,712.72 C 209.628,711.515 210.353,710.264 210.905,708.967 C 211.456,707.672 211.905,706.36 212.253,705.033 C 212.58,703.705 212.789,702.396 212.881,701.099 C 212.973,699.801 212.865,698.551 212.56,697.345 Z M 210.844,697.588 C 210.945,698.693 210.885,699.829 210.66,700.996 C 210.436,702.163 210.18,703.351 209.895,704.557 L 203.491,704.557 C 203.777,703.351 204.104,702.163 204.471,700.996 C 204.839,699.829 205.349,698.693 206.003,697.588 C 206.473,696.812 206.959,696.135 207.459,695.563 C 207.959,694.989 208.525,694.703 209.159,694.703 C 209.465,694.703 209.72,694.78 209.925,694.932 C 210.129,695.085 210.292,695.295 210.415,695.563 C 210.537,695.829 210.629,696.135 210.691,696.483 C 210.752,696.832 210.803,697.2 210.844,697.588 Z M 209.649,705.503 C 209.363,706.708 209.036,707.887 208.668,709.039 C 208.301,710.192 207.791,711.331 207.137,712.455 C 206.688,713.228 206.208,713.903 205.697,714.475 C 205.187,715.047 204.624,715.332 204.012,715.332 C 203.705,715.332 203.445,715.256 203.231,715.103 C 203.016,714.949 202.848,714.74 202.725,714.475 C 202.603,714.208 202.505,713.903 202.433,713.555 C 202.363,713.208 202.316,712.843 202.296,712.455 C 202.215,711.331 202.281,710.192 202.495,709.039 C 202.709,707.887 202.96,706.708 203.245,705.503 Z "/>
		<path id="dp_path266" fill="#02b04b" fill-rule="evenodd" fill-opacity="0.760784" stroke="black" stroke-width="1.33333" d="M 238.08,818.489 C 275.689,851.091 292.5,893.297 275.629,912.761 C 258.759,932.224 214.592,921.573 176.983,888.972 C 139.373,856.372 122.563,814.164 139.433,794.701 C 156.304,775.239 200.471,785.889 238.08,818.489 Z "/>
		<path id="dp_path267" fill="none" fill-rule="evenodd" stroke="#152ad4" stroke-width="1.33333" d="M 258.343,885.112 L 160.167,987.173"/>
		<path id="dp_path268" fill="none" fill-rule="evenodd" stroke="#152ad4" stroke-width="1.33333" d="M 211.976,843.779 L 115.44,944.127"/>
		<path id="dp_path269" fill="none" fill-rule="evenodd" stroke="#152ad4" stroke-width="1.33333" d="M 183.676,812.028 L 85.5,914.089"/>
		<text id="dp_text071" transform="matrix(1,0,0,1,266.396,822.163)" xml:space="preserve" fill="#21d26d" font-family="Arial" font-size="31" font-weight="700" x="0" y="0">A</text>
		<text id="dp_text072" transform="matrix(1,0,0,1,266.396,822.163)" xml:space="preserve" fill="black" font-family="Times New Roman" font-size="16" font-weight="400" x="22.14" y="0"> </text>
		<text id="dp_text073" transform="matrix(1,1.38778e-015,-1.38778e-015,1,330.834,989.027)" xml:space="preserve" fill="black" font-family="Arial" font-size="31" font-weight="400" x="0" y="0">position </text>
		<text id="dp_text074" transform="matrix(1,1.38778e-015,-1.38778e-015,1,330.834,989.027)" xml:space="preserve" fill="black" font-family="Arial" font-size="31" font-weight="700" x="114.213" y="0">r </text>
	</g>
</svg>